<?xml version="1.0" encoding="UTF-8" standalone="no"?>
<!-- Created with Inkscape (http://www.inkscape.org/) -->

<svg
   xmlns:dc="http://purl.org/dc/elements/1.1/"
   xmlns:cc="http://creativecommons.org/ns#"
   xmlns:rdf="http://www.w3.org/1999/02/22-rdf-syntax-ns#"
   xmlns:svg="http://www.w3.org/2000/svg"
   xmlns="http://www.w3.org/2000/svg"
   xmlns:sodipodi="http://sodipodi.sourceforge.net/DTD/sodipodi-0.dtd"
   xmlns:inkscape="http://www.inkscape.org/namespaces/inkscape"
   version="1.0"
   width="653.76959"
   height="641.93408"
   id="svg2"
   sodipodi:version="0.32"
   inkscape:version="0.91 r13725"
   sodipodi:docname="aigle_vol_abaisse.svg">
  <metadata
     id="metadata2801">
    <rdf:RDF>
      <cc:Work
         rdf:about="">
        <dc:format>image/svg+xml</dc:format>
        <dc:type
           rdf:resource="http://purl.org/dc/dcmitype/StillImage" />
      </cc:Work>
    </rdf:RDF>
  </metadata>
  <sodipodi:namedview
     inkscape:window-height="776"
     inkscape:window-width="1233"
     inkscape:pageshadow="2"
     inkscape:pageopacity="0.0"
     guidetolerance="10.0"
     gridtolerance="10.0"
     objecttolerance="10.0"
     borderopacity="1.0"
     bordercolor="#666666"
     pagecolor="#ffffff"
     id="base"
     inkscape:zoom="14.951498"
     inkscape:cx="342.21865"
     inkscape:cy="601.46876"
     inkscape:window-x="47"
     inkscape:window-y="24"
     inkscape:current-layer="svg2"
     width="260px"
     height="260px"
     showgrid="false"
     inkscape:window-maximized="1" />
  <defs
     id="defs4">
    <inkscape:perspective
       sodipodi:type="inkscape:persp3d"
       inkscape:vp_x="0 : 130 : 1"
       inkscape:vp_y="0 : 1000 : 0"
       inkscape:vp_z="260 : 130 : 1"
       inkscape:persp3d-origin="130 : 86.666667 : 1"
       id="perspective66" />
  </defs>
  <path
     sodipodi:nodetypes="cc"
     inkscape:connector-curvature="0"
     id="l101"
     d="m 389.33442,175.3597 c 4.24113,20.91713 -2.56642,68.78029 -10.78366,125.87007"
     style="color:#000000;display:inline;overflow:visible;visibility:visible;fill:none;fill-opacity:1;fill-rule:nonzero;stroke:#000000;stroke-width:2;stroke-linecap:butt;stroke-linejoin:round;stroke-miterlimit:4;stroke-dasharray:none;stroke-dashoffset:0;stroke-opacity:1;marker:none" />
  <path
     style="color:#000000;display:inline;overflow:visible;visibility:visible;fill:none;fill-opacity:1;fill-rule:nonzero;stroke:#000000;stroke-width:2;stroke-linecap:butt;stroke-linejoin:round;stroke-miterlimit:4;stroke-dasharray:none;stroke-dashoffset:0;stroke-opacity:1;marker:none"
     d="m 265.49957,174.51732 c -4.55282,20.40355 1.52615,64.4014 9.75955,121.6273"
     id="l102"
     inkscape:connector-curvature="0" />
  <path
     style="color:#000000;display:inline;overflow:visible;visibility:visible;fill:none;fill-opacity:1;fill-rule:nonzero;stroke:#000000;stroke-width:2;stroke-linecap:butt;stroke-linejoin:round;stroke-miterlimit:4;stroke-dasharray:none;stroke-dashoffset:0;stroke-opacity:1;marker:none"
     d="m 249.92504,395.15984 c 4.40724,1.46302 14.88567,3.02609 18.9453,5.14956"
     id="l103"
     inkscape:connector-curvature="0"
     sodipodi:nodetypes="cc" />
  <path
     style="color:#000000;display:inline;overflow:visible;visibility:visible;fill:none;fill-opacity:1;fill-rule:nonzero;stroke:#000000;stroke-width:2;stroke-linecap:butt;stroke-linejoin:round;stroke-miterlimit:4;stroke-dasharray:none;stroke-dashoffset:0;stroke-opacity:1;marker:none"
     d="m 386.59506,399.74074 c 4.06584,-2.57347 11.22341,-4.59803 15.87384,-6.06076"
     id="l104"
     inkscape:connector-curvature="0"
     sodipodi:nodetypes="cc" />
  <path
     style="color:#000000;display:inline;overflow:visible;visibility:visible;fill:none;fill-opacity:1;fill-rule:nonzero;stroke:#000000;stroke-width:2;stroke-linecap:butt;stroke-linejoin:round;stroke-miterlimit:4;stroke-dasharray:none;stroke-dashoffset:0;stroke-opacity:1;marker:none"
     d="m 405.10434,392.44983 c 1.70587,-0.69382 3.34731,-1.51005 4.87368,-2.54491 l -6.98317,-7.31569 4.98797,-2.66025 c -12.85156,-10.07024 -21.5744,-21.52983 -25.93746,-27.26757 -2.54939,-5.50127 -5.0988,-10.92761 -7.64822,-21.61455 1.42774,-10.11349 2.84215,-19.9287 4.20637,-29.40059 l 1.86047,2.33055 c 8.21293,32.74636 19.55597,58.57826 36.04983,57.89417 -13.95551,-29.02097 6.66818,-24.04497 2.82581,-72.65267 6.00222,44.60224 11.29534,116.34168 59.13533,120.06009 -31.78488,-53.11803 -8.12167,-55.74832 -23.26812,-114.8217 22.36004,75.31858 40.04947,114.15857 81.55526,110.91779 -35.599,-45.40424 -15.03605,-51.12158 -38.71557,-115.5623 26.63734,70.57921 62.88739,98.08064 93.56627,82.9661 -40.40649,-24.95671 -31.51175,-44.44416 -56.89851,-104.51436 13.81527,47.20583 48.07893,61.70447 73.84616,59.49881 -40.80188,-40.69774 -24.95094,-45.93113 -48.37183,-88.1655 16.66214,26.10948 40.13858,56.26196 67.08428,39.65664 -28.67982,-22.18758 -14.48861,-28.15018 -43.80256,-71.70668 6.45654,3.11839 17.84544,28.78837 68.79884,9.74723 -34.22684,-21.23329 -59.42815,-49.96396 -83.23506,-82.12297 -19.02108,-17.17729 -45.47638,-14.7766 -56.71666,9.75735 -5.40615,13.11107 -4.5916,26.26603 1.65141,38.74998 -10.73689,50.95767 -106.63407,24.71551 -122.87934,-8.1091 l -2.55189,-3.45369 c -1.54607,-5.23779 -3.97792,-8.53781 -7.48985,-9.66256 -4.1166,-2.2031 4.08285,1.53802 -5.68532,-2.95592 21.66823,4.34456 11.90621,2.21453 5.13263,-2.95936 -20.08298,-19.74029 -3.9741,-8.75157 1.74335,-8.00641 -14.47384,-25.23323 -7.04201,-39.40317 -4.09471,-49.131431 l 4.46758,12.227031 5.31072,-23.570577 9.97306,8.992186 c -2.01376,-10.457513 -3.80604,-21.294656 -8.82592,-26.598797 8.37262,1.901438 14.3158,1.782921 15.34194,1.281358 2.17918,-1.065118 -8.81494,-5.692992 -9.22845,-13.273255 7.14101,0.806217 10.57487,-0.379937 16.01515,-6.428552 1.66168,-1.847455 -7.76015,1.977558 -7.35548,0.773491 -20.7761,-19.323694 -1.60615,-10.086976 -0.82642,-13.930031 -29.44293,-16.097234 -6.6338,-10.852062 -8.09201,-15.51892 -21.88161,-9.674411 -13.70721,-4.562074 -4.77158,-16.8608665 -5.0134,1.4279604 -12.16454,3.4254277 -21.41397,1.9096106 0.0697,-1.8551908 -16.46011,-6.3624799 -42.25955,-6.8802691 -9.01216,-0.1808869 -14.98593,0.5200602 -15.58373,9.466757 33.11733,38.875327 32.84041,54.108739 15.9892,57.608122 0.49057,0.979321 0.9635,1.908641 1.41351,2.790105 3.21645,6.300236 5.26203,10.155657 4.20653,12.349277 -2.02534,4.209063 -12.86205,7.87493 -36.49654,21.237701 11.12709,3.86417 35.35965,-8.612577 0.10243,14.50951 -23.04538,10.89436 -5.08754,6.59184 2.55799,6.25126 -5.65616,8.39957 -12.09295,16.72816 -22.573,24.68919 l 5.40813,4.93784 -1.4e-4,0 c -30.09451,9.61069 -6.2893,4.99783 -7.89622,7.09095 -3.587,1.14879 -6.04727,4.56684 -7.58777,10.0011 l -2.56933,1.40772 c -13.67519,33.60191 -112.72696,61.6549 -123.64942,9.81653 6.243,-12.48395 7.05758,-25.63891 1.65142,-38.74998 -11.24027,-24.53395 -37.69559,-26.93464 -56.716655,-9.75735 -23.806916,32.15901 -49.008232,60.88968 -83.2350809,82.12297 50.9534189,19.04114 62.3423259,-6.62884 68.7988659,-9.74723 -29.313955,43.5565 -15.12276,49.5191 -43.802578,71.70668 26.945715,16.60532 50.422133,-13.54716 67.08429,-39.65664 -23.420897,42.23437 -7.56996,47.46776 -48.371846,88.1655 25.767239,2.20566 60.030904,-12.29298 73.846164,-59.49881 -25.386752,60.0702 -16.49201,79.55765 -56.898507,104.51436 30.678881,15.11454 66.928927,-12.38689 93.566277,-82.9661 -23.67952,64.44072 -3.11659,70.15806 -38.71558,115.5623 41.5058,3.24078 59.19523,-35.59921 81.55528,-110.91779 -15.14646,59.07338 8.51676,61.70367 -23.26814,114.8217 47.84,-3.71841 53.13311,-75.45785 59.13535,-120.06009 -3.8424,48.6077 16.78131,43.6317 2.82581,72.65267 17.14693,0.71117 28.72708,-27.23504 37.0108,-61.8153 l 1.86114,2.11993 c 1.34065,9.30808 2.72896,18.94601 4.13012,28.87124 -2.54942,10.68694 -5.09878,16.11328 -7.64822,21.61455 -4.36306,5.73774 -13.08587,17.19733 -25.93743,27.26757 l 4.98797,2.66025 -6.98317,7.31569 c 1.36853,0.92784 2.82956,1.67994 4.34659,2.32563 l 1.20529,3.16248 -48.78095,67.00369 C 197.50546,456.71 194.52336,448.14299 191.13917,440.7822 l -27.73785,-9.78113 c -4.21815,2.90186 -8.37068,7.90224 -11.97111,13.96633 2.52303,2.70133 5.64737,3.59874 8.78354,4.46063 4.21207,-2.29141 8.42413,-3.17075 12.6362,-2.32772 5.15174,6.84336 6.76704,11.91849 9.64341,17.62416 -7.80576,-2.04006 -17.45082,-5.97976 -30.10591,-11.0542 -6.9771,4.11316 -14.53881,9.44657 -23.27719,10.62427 0.77337,1.54249 1.26094,3.04926 1.53494,4.52937 0.90971,4.91401 -0.53475,9.53381 -1.68939,14.1898 1.98414,4.20876 5.02599,2.7567 7.06384,3.52009 11.99932,-9.79612 12.71615,-11.73093 18.95429,-11.97111 12.53296,0.32534 16.71805,1.57823 24.1941,2.46544 -6.8798,7.41906 -14.84712,15.87315 -24.27478,18.62177 -1.33649,2.17778 -1.19437,4.8485 -0.66507,7.64819 8.01602,5.35724 4.34556,8.40673 4.18517,12.59588 0.91743,1.23578 3.55288,1.32621 6.3181,1.33011 6.52851,-10.12234 10.25627,-9.97517 15.10165,-13.92599 3.44946,-3.89279 4.49448,-8.68743 7.99802,-11.31761 11.90532,-8.93771 22.48359,-11.90545 32.04348,-10.62946 11.51247,4.63979 18.23607,6.99775 26.46478,7.31572 0.27986,-1.65718 1.89576,-1.11251 1.03792,-5.04504 -3.3253,-0.51536 -6.65061,-7.12437 -9.97595,-11.6386 -8.00963,-0.061 -16.63375,1.10704 -21.65485,-4.93093 l 50.65182,-64.80039 2.63704,-1.89731 c 3.77885,2.98418 6.702,7.59419 7.89689,15.48788 0.57666,-18.498 4.04655,-7.82325 7.98075,-3.65783 0.6343,-26.76876 11.81598,-36.41437 20.94949,-47.88453 0.71251,13.63849 7.54615,38.47254 -12.63622,60.85325 -15.77986,7.56438 -31.92408,5.2915 -46.88689,34.91579 10.31097,-2.65954 8.90017,-8.60118 39.23868,-5.65303 l 19.28685,-11.30605 c -3.9799,14.0374 4.60505,26.61199 -45.88934,49.8797 -35.69992,8.16002 -60.72774,23.43479 -72.49184,47.55198 19.4941,-9.6857 40.10465,-15.87345 66.50626,-20.94946 27.90739,-15.48323 34.09014,-25.31758 48.21709,-39.57123 -4.01409,10.81512 -6.20058,20.16819 -14.29886,34.2507 -16.98788,16.98838 -40.38362,25.50926 -33.91823,73.48942 21.39334,-34.30852 37.34948,-29.34779 60.18819,-110.4004 3.99319,17.72802 8.22713,34.85408 5.3205,69.83158 -5.20892,16.67065 -4.54615,30.99255 -21.94705,52.53998 l 15.9615,-3.99036 14.81424,44.69219 14.81422,-44.69219 15.96152,3.99036 C 340.7022,578.18479 341.365,563.86289 336.15605,547.19224 c -2.90663,-34.9775 1.32734,-52.10356 5.3205,-69.83158 22.83868,81.05261 38.79485,76.09188 60.18819,110.4004 6.46536,-47.98016 -16.93035,-56.50104 -33.91823,-73.48942 -8.09828,-14.08251 -10.28477,-23.43558 -14.29883,-34.2507 14.12695,14.25365 20.30964,24.088 48.21706,39.57123 26.40161,5.07601 47.01215,11.26376 66.50625,20.94946 -11.7641,-24.11719 -36.79191,-39.39196 -72.49183,-47.55198 -50.49439,-23.26771 -41.90947,-35.8423 -45.88931,-49.8797 l 19.2868,11.30605 c 30.33852,-2.94815 28.92773,2.99349 39.2387,5.65303 -14.96284,-29.62429 -31.10703,-27.35141 -46.88692,-34.91579 -20.18237,-22.38071 -13.3487,-47.21476 -12.63619,-60.85325 9.13351,11.47016 20.31519,21.11577 20.94946,47.88453 3.93423,-4.16542 7.40412,-14.84017 7.98077,3.65783 1.04504,-6.90372 5.37776,-13.01576 8.48299,-16.00514 l 2.01664,2.73063 50.40479,64.48433 c -5.02112,6.03797 -13.64526,4.86993 -21.65489,4.93093 -3.32533,4.51423 -6.65064,11.12324 -9.97594,11.6386 -0.85783,3.93253 0.75807,3.38786 1.03792,5.04504 8.22872,-0.31797 14.95232,-2.67593 26.46477,-7.31572 9.55991,-1.27599 20.13818,1.69175 32.04349,10.62946 3.50353,2.63018 4.54856,7.42482 7.99802,11.31761 4.84539,3.95082 8.57314,3.80365 15.10165,13.92599 2.76521,-0.004 5.40069,-0.0943 6.31808,-1.33011 -0.16037,-4.18915 -3.83083,-7.23864 4.1852,-12.59588 0.52929,-2.79969 0.6714,-5.47041 -0.66505,-7.64819 -9.42768,-2.74862 -17.395,-11.20271 -24.2748,-18.62177 7.47604,-0.88721 11.66115,-2.1401 24.19409,-2.46544 6.23814,0.24018 6.95499,2.17499 18.95429,11.97111 2.03784,-0.76339 5.07969,0.68867 7.06385,-3.52009 -1.15464,-4.65599 -2.59909,-9.27579 -1.68941,-14.1898 0.274,-1.48011 0.76158,-2.98688 1.53497,-4.52937 -8.73838,-1.1777 -16.30009,-6.51111 -23.27722,-10.62427 -12.65505,5.07444 -22.30014,9.01414 -30.1059,11.0542 2.87637,-5.70567 4.49166,-10.7808 9.64341,-17.62416 4.21206,-0.84303 8.42411,0.0363 12.63622,2.32772 3.13618,-0.86189 6.26049,-1.7593 8.78354,-4.46063 -3.60043,-6.06409 -7.75298,-11.06447 -11.97116,-13.96633 l -27.73781,9.78113 c -3.38418,7.36079 -6.36631,15.9278 -10.3085,21.61452 L 402.7685,393.4711 Z"
     id="f101"
     inkscape:connector-curvature="0"
     sodipodi:nodetypes="cccccccccccccccccccccccccccccccccccccscccccsccsccccccccccccccccccccccccccccccccccccccccccccscccccccccscccccccccccccccccccccccccccccccccccccccccccccccccscccccccccsccccccccccc" />
  <path
     id="l105"
     style="color:#000000;display:inline;overflow:visible;visibility:visible;fill:none;stroke:#000000;stroke-width:2;stroke-linecap:round;stroke-linejoin:round;stroke-miterlimit:4;stroke-dasharray:none;stroke-dashoffset:0;stroke-opacity:1;marker:none"
     d="M 601.0316,267.96569 C 587.51242,254.09965 581.96899,242.36067 573.18789,224.34966"
     sodipodi:nodetypes="cc"
     inkscape:connector-curvature="0" />
  <path
     id="l106"
     style="color:#000000;display:inline;overflow:visible;visibility:visible;fill:none;stroke:#000000;stroke-width:2;stroke-linecap:round;stroke-linejoin:round;stroke-miterlimit:4;stroke-dasharray:none;stroke-dashoffset:0;stroke-opacity:1;marker:none"
     d="m 546.35769,256.60526 c 7.62678,19.97737 19.42392,37.99246 30.57984,51.86097"
     sodipodi:nodetypes="cc"
     inkscape:connector-curvature="0" />
  <path
     id="l107"
     style="color:#000000;display:inline;overflow:visible;visibility:visible;fill:none;stroke:#000000;stroke-width:2;stroke-linecap:round;stroke-linejoin:round;stroke-miterlimit:4;stroke-dasharray:none;stroke-dashoffset:0;stroke-opacity:1;marker:none"
     d="m 559.39012,361.08401 c -18.49676,-21.90036 -22.7106,-32.41226 -43.81179,-81.36732"
     sodipodi:nodetypes="cc"
     inkscape:connector-curvature="0" />
  <path
     id="l108"
     style="color:#000000;display:inline;overflow:visible;visibility:visible;fill:none;stroke:#000000;stroke-width:2;stroke-linecap:round;stroke-linejoin:round;stroke-miterlimit:4;stroke-dasharray:none;stroke-dashoffset:0;stroke-opacity:1;marker:none"
     d="M 509.94024,385.50023 C 488.62038,345.57604 490.74907,345.21281 478.41155,292.85589"
     sodipodi:nodetypes="cc"
     inkscape:connector-curvature="0" />
  <path
     id="l109"
     style="color:#000000;display:inline;overflow:visible;visibility:visible;fill:none;stroke:#000000;stroke-width:2;stroke-linecap:round;stroke-linejoin:round;stroke-miterlimit:4;stroke-dasharray:none;stroke-dashoffset:0;stroke-opacity:1;marker:none"
     d="m 452.40475,381.57259 c -4.35417,-19.50487 -10.55496,-48.91892 -15.36581,-87.46057"
     sodipodi:nodetypes="cc"
     inkscape:connector-curvature="0" />
  <path
     id="l110"
     style="color:#000000;display:inline;overflow:visible;visibility:visible;fill:none;stroke:#000000;stroke-width:2;stroke-linecap:round;stroke-linejoin:round;stroke-miterlimit:4;stroke-dasharray:none;stroke-dashoffset:0;stroke-opacity:1;marker:none"
     d="m 401.7072,330.72983 c -2.37131,-16.08425 -3.04567,-32.16847 -3.78245,-48.25274"
     sodipodi:nodetypes="cc"
     inkscape:connector-curvature="0" />
  <path
     id="l111"
     style="color:#000000;display:inline;overflow:visible;visibility:visible;fill:#ffffff;fill-opacity:1;fill-rule:nonzero;stroke:#000000;stroke-width:2;stroke-linecap:round;stroke-linejoin:round;stroke-miterlimit:4;stroke-dasharray:none;stroke-dashoffset:0;stroke-opacity:1;marker:none"
     d="m 406.36171,213.40788 c -1.00541,6.5438 -1.17957,5.60758 -1.99523,11.63861 40.58601,18.66066 128.42165,33.17237 146.03595,-53.56759 6.72544,3.36408 13.55778,6.94192 11.63863,-6.98318 8.59385,-10.14429 2.28255,-11.34549 -6.65064,-10.97355 4.90422,-5.94007 -0.3259,-19.93092 -9.31091,-7.64824 -10.7061,-6.82637 -20.30102,0.3935 -9.64341,9.97596 -10.62353,0.0713 -16.58008,2.73537 -11.30611,11.63862 l 4.988,0.33254 c -2.93681,9.22153 1.48206,9.6163 7.31569,8.3133 l 3.32533,-2.99279 c -23.16887,71.32662 -92.12406,54.11545 -134.3973,40.26632 z"
     sodipodi:nodetypes="cccccccccccc"
     inkscape:connector-curvature="0" />
  <path
     id="l112"
     style="color:#000000;display:inline;overflow:visible;visibility:visible;fill:none;stroke:#000000;stroke-width:2;stroke-linecap:round;stroke-linejoin:round;stroke-miterlimit:4;stroke-dasharray:none;stroke-dashoffset:0;stroke-opacity:1;marker:none"
     d="m 563.23255,199.00974 c 12.04582,5.695 -0.41769,20.67068 -12.80203,16.10017 16.77813,9.07111 -1.69675,25.45988 -12.76081,17.49962 3.25495,9.17822 1.41239,23.6975 -18.59367,10.58577 7.89935,26.72626 -10.8709,26.28281 -22.04363,8.53527 4.94922,23.13408 -17.56281,30.00293 -21.86373,5.27928 0.29136,35.9968 -26.00543,21.05524 -22.40425,-2.16098 -3.80974,24.05044 -25.11461,32.85834 -24.67669,-5.95749 -7.81699,36.94271 -32.17985,25.43215 -25.48039,-2.50759"
     sodipodi:nodetypes="ccccccccc"
     inkscape:connector-curvature="0" />
  <path
     id="l113"
     style="color:#000000;display:inline;overflow:visible;visibility:visible;fill:none;stroke:#000000;stroke-width:2;stroke-linecap:round;stroke-linejoin:round;stroke-miterlimit:4;stroke-dasharray:none;stroke-dashoffset:0;stroke-opacity:1;marker:none"
     d="m 415.64543,242.79527 -2.97872,14.03567"
     sodipodi:nodetypes="cc"
     inkscape:connector-curvature="0" />
  <path
     id="l114"
     style="color:#000000;display:inline;overflow:visible;visibility:visible;fill:none;stroke:#000000;stroke-width:2;stroke-linecap:round;stroke-linejoin:round;stroke-miterlimit:4;stroke-dasharray:none;stroke-dashoffset:0;stroke-opacity:1;marker:none"
     d="m 578.88873,182.86651 c 16.46958,12.05761 26.32469,24.82643 41.87185,26.51828"
     sodipodi:nodetypes="cc"
     inkscape:connector-curvature="0" />
  <path
     id="l115"
     style="color:#000000;display:inline;overflow:visible;visibility:visible;fill:none;stroke:#000000;stroke-width:2;stroke-linecap:round;stroke-linejoin:round;stroke-miterlimit:4;stroke-dasharray:none;stroke-dashoffset:0;stroke-opacity:1;marker:none"
     d="m 441.01955,248.99173 -1.71794,14.03566"
     sodipodi:nodetypes="cc"
     inkscape:connector-curvature="0" />
  <path
     id="l116"
     style="color:#000000;display:inline;overflow:visible;visibility:visible;fill:none;stroke:#000000;stroke-width:2;stroke-linecap:round;stroke-linejoin:round;stroke-miterlimit:4;stroke-dasharray:none;stroke-dashoffset:0;stroke-opacity:1;marker:none"
     d="m 463.55949,252.14375 0.80367,13.4053"
     sodipodi:nodetypes="cc"
     inkscape:connector-curvature="0" />
  <path
     id="l117"
     style="color:#000000;display:inline;overflow:visible;visibility:visible;fill:none;stroke:#000000;stroke-width:2;stroke-linecap:round;stroke-linejoin:round;stroke-miterlimit:4;stroke-dasharray:none;stroke-dashoffset:0;stroke-opacity:1;marker:none"
     d="m 484.99328,249.62213 1.43411,10.25321"
     sodipodi:nodetypes="cc"
     inkscape:connector-curvature="0" />
  <path
     id="l118"
     style="color:#000000;display:inline;overflow:visible;visibility:visible;fill:none;stroke:#000000;stroke-width:2;stroke-linecap:round;stroke-linejoin:round;stroke-miterlimit:4;stroke-dasharray:none;stroke-dashoffset:0;stroke-opacity:1;marker:none"
     d="m 507.3727,243.94851 3.95573,8.36201"
     sodipodi:nodetypes="cc"
     inkscape:connector-curvature="0" />
  <path
     id="l119"
     style="color:#000000;display:inline;overflow:visible;visibility:visible;fill:none;stroke:#000000;stroke-width:2;stroke-linecap:round;stroke-linejoin:round;stroke-miterlimit:4;stroke-dasharray:none;stroke-dashoffset:0;stroke-opacity:1;marker:none"
     d="m 525.02408,232.28597 3.95573,5.8404"
     sodipodi:nodetypes="cc"
     inkscape:connector-curvature="0" />
  <path
     id="l120"
     style="color:#000000;display:inline;overflow:visible;visibility:visible;fill:none;stroke:#000000;stroke-width:2;stroke-linecap:round;stroke-linejoin:round;stroke-miterlimit:4;stroke-dasharray:none;stroke-dashoffset:0;stroke-opacity:1;marker:none"
     d="m 540.78422,219.04744 5.21656,5.20998"
     sodipodi:nodetypes="cc"
     inkscape:connector-curvature="0" />
  <path
     id="l121"
     style="color:#000000;display:inline;overflow:visible;visibility:visible;fill:none;stroke:#000000;stroke-width:2;stroke-linecap:round;stroke-linejoin:round;stroke-miterlimit:4;stroke-dasharray:none;stroke-dashoffset:0;stroke-opacity:1;marker:none"
     d="m 551.50112,201.39607 5.21656,3.31876"
     sodipodi:nodetypes="cc"
     inkscape:connector-curvature="0" />
  <path
     id="l122"
     style="color:#000000;display:inline;overflow:visible;visibility:visible;fill:none;stroke:#000000;stroke-width:2;stroke-linecap:round;stroke-linejoin:round;stroke-miterlimit:4;stroke-dasharray:none;stroke-dashoffset:0;stroke-opacity:1;marker:none"
     d="M 52.73772,267.96569 C 66.25688,254.09965 71.800307,242.36067 80.581405,224.34966"
     sodipodi:nodetypes="cc"
     inkscape:connector-curvature="0" />
  <path
     id="l123"
     style="color:#000000;display:inline;overflow:visible;visibility:visible;fill:none;stroke:#000000;stroke-width:2;stroke-linecap:round;stroke-linejoin:round;stroke-miterlimit:4;stroke-dasharray:none;stroke-dashoffset:0;stroke-opacity:1;marker:none"
     d="m 107.41161,256.60526 c -7.626764,19.97737 -19.423903,37.99246 -30.579823,51.86097"
     sodipodi:nodetypes="cc"
     inkscape:connector-curvature="0" />
  <path
     id="l124"
     style="color:#000000;display:inline;overflow:visible;visibility:visible;fill:none;stroke:#000000;stroke-width:2;stroke-linecap:round;stroke-linejoin:round;stroke-miterlimit:4;stroke-dasharray:none;stroke-dashoffset:0;stroke-opacity:1;marker:none"
     d="M 94.379183,361.08401 C 112.87594,339.18365 117.0898,328.67175 138.19097,279.71669"
     sodipodi:nodetypes="cc"
     inkscape:connector-curvature="0" />
  <path
     id="l125"
     style="color:#000000;display:inline;overflow:visible;visibility:visible;fill:none;stroke:#000000;stroke-width:2;stroke-linecap:round;stroke-linejoin:round;stroke-miterlimit:4;stroke-dasharray:none;stroke-dashoffset:0;stroke-opacity:1;marker:none"
     d="m 143.82905,385.50023 c 21.31987,-39.92419 19.1912,-40.28742 31.52871,-92.64434"
     sodipodi:nodetypes="cc"
     inkscape:connector-curvature="0" />
  <path
     id="l126"
     style="color:#000000;display:inline;overflow:visible;visibility:visible;fill:none;stroke:#000000;stroke-width:2;stroke-linecap:round;stroke-linejoin:round;stroke-miterlimit:4;stroke-dasharray:none;stroke-dashoffset:0;stroke-opacity:1;marker:none"
     d="m 201.36457,381.57259 c 4.35416,-19.50487 10.55496,-48.91892 15.3658,-87.46057"
     sodipodi:nodetypes="cc"
     inkscape:connector-curvature="0" />
  <path
     id="l127"
     style="color:#000000;display:inline;overflow:visible;visibility:visible;fill:none;stroke:#000000;stroke-width:2;stroke-linecap:round;stroke-linejoin:round;stroke-miterlimit:4;stroke-dasharray:none;stroke-dashoffset:0;stroke-opacity:1;marker:none"
     d="m 252.06211,330.72983 c 2.3713,-16.08425 3.04567,-32.16847 3.78245,-48.25274"
     sodipodi:nodetypes="cc"
     inkscape:connector-curvature="0" />
  <path
     id="l128"
     style="color:#000000;display:inline;overflow:visible;visibility:visible;fill:#ffffff;fill-opacity:1;fill-rule:nonzero;stroke:#000000;stroke-width:2;stroke-linecap:round;stroke-linejoin:round;stroke-miterlimit:4;stroke-dasharray:none;stroke-dashoffset:0;stroke-opacity:1;marker:none"
     d="m 247.4076,213.40788 c 1.00541,6.5438 1.17957,5.60758 1.99522,11.63861 -40.58599,18.66066 -128.42163,33.17237 -146.03595,-53.56759 -6.725436,3.36408 -13.557769,6.94192 -11.638618,-6.98318 -8.593856,-10.14429 -2.282558,-11.34549 6.650639,-10.97355 -4.904225,-5.94007 0.325915,-19.93092 9.310899,-7.64824 10.7061,-6.82637 20.30102,0.3935 9.64343,9.97596 10.62351,0.0713 16.58008,2.73537 11.30608,11.63862 l -4.98798,0.33254 c 2.9368,9.22153 -1.48205,9.6163 -7.31569,8.3133 l -3.32533,-2.99279 c 23.16887,71.32662 92.12404,54.11545 134.3973,40.26632 z"
     sodipodi:nodetypes="cccccccccccc"
     inkscape:connector-curvature="0" />
  <path
     id="l129"
     style="color:#000000;display:inline;overflow:visible;visibility:visible;fill:none;stroke:#000000;stroke-width:2;stroke-linecap:round;stroke-linejoin:round;stroke-miterlimit:4;stroke-dasharray:none;stroke-dashoffset:0;stroke-opacity:1;marker:none"
     d="m 90.53676,199.00974 c -12.045833,5.695 0.417685,20.67068 12.80202,16.10017 -16.778122,9.07111 1.69676,25.45988 12.7608,17.49962 -3.25493,9.17822 -1.41236,23.6975 18.5937,10.58577 -7.89936,26.72626 10.87088,26.28281 22.04361,8.53527 -4.94922,23.13408 17.56281,30.00293 21.86375,5.27928 -0.29138,35.9968 26.00541,21.05524 22.40423,-2.16098 3.80976,24.05044 25.1146,32.85834 24.6767,-5.95749 7.817,36.94271 32.17985,25.43215 25.48039,-2.50759"
     sodipodi:nodetypes="ccccccccc"
     inkscape:connector-curvature="0" />
  <path
     id="l130"
     style="color:#000000;display:inline;overflow:visible;visibility:visible;fill:none;stroke:#000000;stroke-width:2;stroke-linecap:round;stroke-linejoin:round;stroke-miterlimit:4;stroke-dasharray:none;stroke-dashoffset:0;stroke-opacity:1;marker:none"
     d="m 238.12387,242.79527 2.97873,14.03567"
     sodipodi:nodetypes="cc"
     inkscape:connector-curvature="0" />
  <path
     id="l131"
     style="color:#000000;display:inline;overflow:visible;visibility:visible;fill:none;stroke:#000000;stroke-width:2;stroke-linecap:round;stroke-linejoin:round;stroke-miterlimit:4;stroke-dasharray:none;stroke-dashoffset:0;stroke-opacity:1;marker:none"
     d="M 74.880581,182.86651 C 58.411003,194.92412 48.55589,207.69294 33.008718,209.38479"
     sodipodi:nodetypes="cc"
     inkscape:connector-curvature="0" />
  <path
     id="l132"
     style="color:#000000;display:inline;overflow:visible;visibility:visible;fill:none;stroke:#000000;stroke-width:2;stroke-linecap:round;stroke-linejoin:round;stroke-miterlimit:4;stroke-dasharray:none;stroke-dashoffset:0;stroke-opacity:1;marker:none"
     d="m 212.74976,248.99173 1.71793,14.03566"
     sodipodi:nodetypes="cc"
     inkscape:connector-curvature="0" />
  <path
     id="l133"
     style="color:#000000;display:inline;overflow:visible;visibility:visible;fill:none;stroke:#000000;stroke-width:2;stroke-linecap:round;stroke-linejoin:round;stroke-miterlimit:4;stroke-dasharray:none;stroke-dashoffset:0;stroke-opacity:1;marker:none"
     d="m 190.20983,252.14375 -0.8037,13.4053"
     sodipodi:nodetypes="cc"
     inkscape:connector-curvature="0" />
  <path
     id="l134"
     style="color:#000000;display:inline;overflow:visible;visibility:visible;fill:none;stroke:#000000;stroke-width:2;stroke-linecap:round;stroke-linejoin:round;stroke-miterlimit:4;stroke-dasharray:none;stroke-dashoffset:0;stroke-opacity:1;marker:none"
     d="m 168.77602,249.62213 -1.43411,10.25321"
     sodipodi:nodetypes="cc"
     inkscape:connector-curvature="0" />
  <path
     id="l135"
     style="color:#000000;display:inline;overflow:visible;visibility:visible;fill:none;stroke:#000000;stroke-width:2;stroke-linecap:round;stroke-linejoin:round;stroke-miterlimit:4;stroke-dasharray:none;stroke-dashoffset:0;stroke-opacity:1;marker:none"
     d="m 146.3966,243.94851 -3.95573,8.36201"
     sodipodi:nodetypes="cc"
     inkscape:connector-curvature="0" />
  <path
     id="l136"
     style="color:#000000;display:inline;overflow:visible;visibility:visible;fill:none;stroke:#000000;stroke-width:2;stroke-linecap:round;stroke-linejoin:round;stroke-miterlimit:4;stroke-dasharray:none;stroke-dashoffset:0;stroke-opacity:1;marker:none"
     d="m 128.74523,232.28597 -3.95573,5.8404"
     sodipodi:nodetypes="cc"
     inkscape:connector-curvature="0" />
  <path
     id="l137"
     style="color:#000000;display:inline;overflow:visible;visibility:visible;fill:none;stroke:#000000;stroke-width:2;stroke-linecap:round;stroke-linejoin:round;stroke-miterlimit:4;stroke-dasharray:none;stroke-dashoffset:0;stroke-opacity:1;marker:none"
     d="m 112.98508,219.04744 -5.21655,5.20998"
     sodipodi:nodetypes="cc"
     inkscape:connector-curvature="0" />
  <path
     id="l138"
     style="color:#000000;display:inline;overflow:visible;visibility:visible;fill:none;stroke:#000000;stroke-width:2;stroke-linecap:round;stroke-linejoin:round;stroke-miterlimit:4;stroke-dasharray:none;stroke-dashoffset:0;stroke-opacity:1;marker:none"
     d="m 102.26817,201.39607 -5.216542,3.31876"
     sodipodi:nodetypes="cc"
     inkscape:connector-curvature="0" />
  <path
     id="f201"
     style="color:#000000;display:inline;overflow:visible;visibility:visible;fill:#fcef3c;fill-opacity:1;fill-rule:nonzero;stroke:#000000;stroke-width:2;stroke-linecap:round;stroke-linejoin:round;stroke-miterlimit:4;stroke-dasharray:none;stroke-dashoffset:0;stroke-opacity:1;marker:none"
     d="m 130.63889,468.31593 c -0.007,0.0925 -8.5987,0.21085 -10.99799,0.7236 -4.09865,0.87599 -6.44071,5.07703 -5.78911,12.45547 0.37484,2.44676 0.62385,5.01936 2.82161,5.64322 2.2262,-10.2463 4.93051,-7.95757 7.29245,-7.92154 2.85414,0.0437 5.84166,0.39702 5.88539,0.12911 0.60795,-4.04163 2.53673,-7.25828 0.78765,-11.02986 z"
     inkscape:connector-curvature="0"
     sodipodi:nodetypes="ccccccc" />
  <path
     id="f202"
     style="color:#000000;display:inline;overflow:visible;visibility:visible;fill:#fcef3c;fill-opacity:1;fill-rule:nonzero;stroke:#000000;stroke-width:2;stroke-linecap:round;stroke-linejoin:round;stroke-miterlimit:4;stroke-dasharray:none;stroke-dashoffset:0;stroke-opacity:1;marker:none"
     d="m 162.05931,432.39966 -8.0107,8.01066 -3.312,-2.78714 c -2.44757,-2.35884 -6.71176,-2.92495 -12.30365,-1.66267 5.72154,-11.10289 17.71793,-10.51574 20.61694,-6.48436 z"
     inkscape:connector-curvature="0"
     sodipodi:nodetypes="cccccc" />
  <path
     id="f203"
     style="color:#000000;display:inline;overflow:visible;visibility:visible;fill:#fcef3c;fill-opacity:1;fill-rule:nonzero;stroke:#000000;stroke-width:2;stroke-linecap:round;stroke-linejoin:round;stroke-miterlimit:4;stroke-dasharray:none;stroke-dashoffset:0;stroke-opacity:1;marker:none"
     d="m 163.53907,513.10781 c 6.05358,-1.46851 2.24387,-17.94952 -5.8193,-11.97116 -8.06317,5.97841 -16.91519,10.21763 -7.31568,24.10852 0.48563,-10.03452 7.08141,-10.66887 13.13498,-12.13736 z"
     inkscape:connector-curvature="0" />
  <path
     id="f204"
     style="color:#000000;display:inline;overflow:visible;visibility:visible;fill:#fcef3c;fill-opacity:1;fill-rule:nonzero;stroke:#000000;stroke-width:2;stroke-linecap:round;stroke-linejoin:round;stroke-miterlimit:4;stroke-dasharray:none;stroke-dashoffset:0;stroke-opacity:1;marker:none"
     d="m 239.23505,474.39241 c 14.15592,-8.12824 19.49544,-4.75409 21.23692,6.62608 -7.52325,-3.62024 -9.88001,-3.04 -13.42243,2.18603 z"
     inkscape:connector-curvature="0"
     sodipodi:nodetypes="cccc" />
  <path
     id="f205"
     style="color:#000000;display:inline;overflow:visible;visibility:visible;fill:#fcef3c;fill-opacity:1;fill-rule:nonzero;stroke:#000000;stroke-width:2;stroke-linecap:round;stroke-linejoin:round;stroke-miterlimit:4;stroke-dasharray:none;stroke-dashoffset:0;stroke-opacity:1;marker:none"
     d="m 524.72485,479.66435 c -0.93662,-3.93223 -1.53866,-11.00224 -1.10619,-11.00092 0.005,0.0925 8.71452,-0.13665 11.11383,0.3761 4.09864,0.87599 6.44069,5.07703 5.7891,12.45547 -0.37482,2.44676 -0.62387,5.01936 -2.82162,5.64322 -2.22619,-10.2463 -4.93052,-7.95757 -7.29245,-7.92154 -7.66138,0.49852 2.11635,0.16663 -5.68267,0.44767 z"
     inkscape:connector-curvature="0"
     sodipodi:nodetypes="ccccccc" />
  <path
     id="f206"
     style="color:#000000;display:inline;overflow:visible;visibility:visible;fill:#fcef3c;fill-opacity:1;fill-rule:nonzero;stroke:#000000;stroke-width:2;stroke-linecap:round;stroke-linejoin:round;stroke-miterlimit:4;stroke-dasharray:none;stroke-dashoffset:0;stroke-opacity:1;marker:none"
     d="m 492.89322,432.5155 7.31569,7.54732 3.42786,-2.43964 c 2.44756,-2.35884 6.71174,-2.92495 12.30364,-1.66267 -5.72154,-11.10289 -17.71794,-10.51574 -20.61694,-6.48436 z"
     inkscape:connector-curvature="0"
     sodipodi:nodetypes="cccccc" />
  <path
     id="f207"
     style="color:#000000;display:inline;overflow:visible;visibility:visible;fill:#fcef3c;fill-opacity:1;fill-rule:nonzero;stroke:#000000;stroke-width:2;stroke-linecap:round;stroke-linejoin:round;stroke-miterlimit:4;stroke-dasharray:none;stroke-dashoffset:0;stroke-opacity:1;marker:none"
     d="m 490.83431,513.10781 c -6.05358,-1.46851 -2.24386,-17.94952 5.8193,-11.97116 8.06316,5.97841 16.91519,10.21763 7.31569,24.10852 -0.48565,-10.03452 -7.08145,-10.66887 -13.13499,-12.13736 z"
     inkscape:connector-curvature="0" />
  <path
     id="f208"
     style="color:#000000;display:inline;overflow:visible;visibility:visible;fill:#fcef3c;fill-opacity:1;fill-rule:nonzero;stroke:#000000;stroke-width:2;stroke-linecap:round;stroke-linejoin:round;stroke-miterlimit:4;stroke-dasharray:none;stroke-dashoffset:0;stroke-opacity:1;marker:none"
     d="m 415.54785,473.40955 c -14.15591,-8.12824 -19.90497,-3.77123 -21.64644,7.60894 7.52324,-3.62024 10.28956,-4.02286 13.83195,1.20317 z"
     inkscape:connector-curvature="0"
     sodipodi:nodetypes="cccc" />
  <path
     inkscape:connector-curvature="0"
     d="m 314.6547,53.935915 c 10.70135,0.365698 13.53936,2.816204 15.60993,2.91597 -2.6494,-4.442313 -8.24544,-10.197436 -20.54776,-16.055764 -33.39468,11.02705 -39.80808,12.889592 -42.79207,-8.174192 -1.59437,-5.759448 -11.92519,-9.067279 -9.17028,2.351352 8.63706,41.254592 25.23687,17.39257 56.90018,18.962634 z"
     style="color:#000000;display:inline;overflow:visible;visibility:visible;fill:#e20909;fill-opacity:1;fill-rule:nonzero;stroke:#000000;stroke-width:2;stroke-linecap:butt;stroke-linejoin:round;stroke-miterlimit:4;stroke-dasharray:none;stroke-dashoffset:0;stroke-opacity:1;marker:none"
     id="f401"
     sodipodi:nodetypes="cccccc" />
  <path
     style="fill:none;stroke:#000000;stroke-width:2;stroke-linecap:butt;stroke-linejoin:miter;stroke-miterlimit:4;stroke-dasharray:none;stroke-opacity:1"
     d="m 342.18044,22.244139 c 5.53642,0.429978 10.60113,3.786784 13.18779,10.957936 -9.26718,8.715169 -21.94058,-3.726924 -13.18779,-10.957936 z"
     id="f502"
     sodipodi:nodetypes="ccc"
     inkscape:connector-curvature="0" />
  <path
     style="fill:none;stroke:#000000;stroke-width:2;stroke-linecap:butt;stroke-linejoin:miter;stroke-miterlimit:4;stroke-dasharray:none;stroke-opacity:1"
     d="m 333.47417,13.336 c -0.71151,3.560816 1.72263,7.437539 9.24442,9.069514"
     id="l141"
     sodipodi:nodetypes="cc"
     inkscape:connector-curvature="0" />
  <path
     style="fill:none;stroke:#000000;stroke-width:2;stroke-linecap:butt;stroke-linejoin:miter;stroke-miterlimit:4;stroke-dasharray:none;stroke-opacity:1"
     d="m 355.23567,33.021449 c 1.54043,2.802651 1.01229,5.614976 3.13134,6.622928"
     id="l142"
     sodipodi:nodetypes="cc"
     inkscape:connector-curvature="0" />
  <path
     style="fill:none;stroke:#000000;stroke-width:2;stroke-linecap:butt;stroke-linejoin:miter;stroke-miterlimit:4;stroke-dasharray:none;stroke-opacity:1"
     d="m 346.09462,23.147266 c -3.54671,4.42861 1.01839,11.324284 6.68422,5.539176 -1.83941,-3.78969 -4.34294,-4.258834 -6.68422,-5.539176 z"
     id="f501"
     sodipodi:nodetypes="ccc"
     inkscape:connector-curvature="0" />
  <path
     style="fill:none;fill-rule:evenodd;stroke:#000000;stroke-width:1px;stroke-linecap:butt;stroke-linejoin:miter;stroke-opacity:1"
     d="m 310.19761,10.18735 c 19.66019,19.74479 42.69846,55.485651 15.05813,58.610899 l -0.39805,8.32e-4 c -18.63575,-5.270552 -27.89811,3.269321 -38.6286,6.82603 4.98706,-6.432399 9.97284,-31.527509 44.65246,-17.373446 C 325.62528,42.680132 285.83977,26.095473 278.44642,43.203015 268.17123,18.979323 310.19761,10.18735 310.19761,10.18735 Z"
     id="f301"
     inkscape:connector-curvature="0"
     sodipodi:nodetypes="ccccccc" />
</svg>
