<?xml version="1.0" encoding="UTF-8" standalone="no"?>
<!-- Created with Inkscape (http://www.inkscape.org/) -->

<svg
   xmlns:dc="http://purl.org/dc/elements/1.1/"
   xmlns:cc="http://creativecommons.org/ns#"
   xmlns:rdf="http://www.w3.org/1999/02/22-rdf-syntax-ns#"
   xmlns:svg="http://www.w3.org/2000/svg"
   xmlns="http://www.w3.org/2000/svg"
   xmlns:sodipodi="http://sodipodi.sourceforge.net/DTD/sodipodi-0.dtd"
   xmlns:inkscape="http://www.inkscape.org/namespaces/inkscape"
   version="1.0"
   width="225"
   height="305"
   id="svg2"
   inkscape:version="0.91 r13725"
   sodipodi:docname="arbre_arrache.svg">
  <metadata
     id="metadata11">
    <rdf:RDF>
      <cc:Work
         rdf:about="">
        <dc:format>image/svg+xml</dc:format>
        <dc:type
           rdf:resource="http://purl.org/dc/dcmitype/StillImage" />
      </cc:Work>
    </rdf:RDF>
  </metadata>
  <sodipodi:namedview
     pagecolor="#ffffff"
     bordercolor="#666666"
     borderopacity="1"
     objecttolerance="10"
     gridtolerance="10"
     guidetolerance="10"
     inkscape:pageopacity="0"
     inkscape:pageshadow="2"
     inkscape:window-width="1233"
     inkscape:window-height="776"
     id="namedview9"
     showgrid="false"
     inkscape:zoom="2.8762874"
     inkscape:cx="133.27042"
     inkscape:cy="152.1498"
     inkscape:window-x="47"
     inkscape:window-y="24"
     inkscape:window-maximized="1"
     inkscape:current-layer="svg2" />
  <defs
     id="defs4" />
  <g
     id="layer1">
    <g
       transform="translate(-17.58058,-735.9956)"
       id="g7256">
      <path
         d="m 103.30715,872.93971 -6.62748,12.78157 14.67513,13.72835 3.31374,67.22158 -6.62748,12.30818 -23.196175,11.83479 c -12.980371,7.81498 -14.75923,12.57502 -18.935658,17.98892 l 17.515483,-10.41465 -1.420175,5.68065 c 6.263768,-6.08258 12.560957,-12.13655 24.616355,-13.25492 l 7.10087,-3.78714 c -3.01725,2.39116 -7.367,2.50597 -9.94122,10.41462 l -8.047654,5.20734 -2.366956,7.1008 c 2.84035,-3.8349 5.6807,-6.0554 8.52105,-6.1541 3.02177,6.4004 -5.388419,15.5811 -18.46227,22.7228 3.762891,0.2161 7.893514,0.5057 8.047655,0 9.131855,-2.8076 14.107615,-9.9 17.042095,-14.6751 0.54195,-3.9449 -0.28373,-7.8899 -1.42018,-11.83478 1.52622,-5.50396 5.99576,-7.6909 9.94122,-7.57427 1.15869,0.34832 3.32226,4.72321 1.42018,12.78155 1.14983,6.0862 4.63656,7.8262 8.04765,11.3614 2.81927,5.4319 -2.12984,14.4682 -8.04765,19.8825 8.24718,-4.4752 22.15736,-9.6384 7.10087,-28.8769 l 8.99443,2.3669 c -1.7139,-2.3669 -4.84065,-4.7339 -9.94122,-7.1008 -1.5956,-8.41017 4.10731,-8.30535 7.10088,-11.36143 l -1.42018,3.31374 c 5.6526,-0.28749 5.88052,4.84969 6.62748,9.46779 l 6.62748,8.0477 -2.36696,13.255 c 1.42836,-2.4242 2.52276,-2.5108 4.73392,-10.4147 3.94493,6.9071 7.88986,8.9312 11.83478,12.7816 l -7.10087,-10.4146 -5.2073,-11.8348 6.62748,1.8936 c -7.20211,-4.2644 -12.3684,-7.3585 -10.41461,-16.56872 l 1.42017,2.36696 4.26052,-0.47341 9.94122,8.52107 12.78157,3.7871 6.15409,5.2073 -1.42017,-4.2605 8.52104,0 -13.72835,-4.2605 -12.78157,-7.10089 -9.46783,-11.8348 4.26053,3.78715 16.5687,4.26052 17.98887,5.6807 -12.30818,-8.52105 24.14297,3.31374 -14.20175,-5.20732 -22.72279,-2.84033 -19.88244,-11.83479 5.20731,3.78714 c -3.91589,-23.82737 -4.06796,-47.65475 -4.73391,-71.48212 6.42243,-6.32795 11.90579,-9.83866 17.51548,-13.72835 l -9.94122,-11.36139 -8.99444,8.52104 0.47339,-15.14852 -10.41461,12.78157 -8.04765,-16.09531 -4.26053,18.46226 -14.67513,-14.20174 z"
         style="fill:#604100;fill-opacity:1;fill-rule:evenodd;stroke:#000000;stroke-width:3;stroke-linecap:butt;stroke-linejoin:miter;stroke-miterlimit:4;stroke-dasharray:none;stroke-opacity:1"
         id="f2"
         inkscape:connector-curvature="0" />
      <path
         d="m 108.75265,877.31771 -4.04368,-0.4493 2.69579,9.88454 -5.84087,-1.34789 -2.695783,6.29016 -5.391569,-0.44929 -3.145083,5.84086 -5.840866,2.69579 -4.942271,-3.14509 -7.188758,5.39157 -0.898595,-5.39157 -3.594379,3.59438 -1.347892,-2.69578 c -1.200319,3.58561 -3.385418,3.2321 -5.391569,3.59438 l -0.898595,-4.04368 c -2.096158,2.09785 -4.259657,4.06101 -7.188758,4.49298 l -0.449298,-3.59438 -4.942271,3.59438 -0.449298,-5.39157 -3.59438,0 0,-4.49298 -2.246487,-0.89859 c -0.445062,-2.91937 2.044863,-5.105 4.942272,-7.18876 l -5.391568,0 4.942271,-5.84087 c -3.444613,1.23164 -6.889228,2.92309 -10.333841,5.84087 l -2.246487,-3.59438 -2.246487,1.79719 -4.942271,0.4493 c -2.02639,-2.54602 -0.959293,-5.09204 1.79719,-7.63806 -1.305027,-2.24648 0.692624,-4.49297 2.695784,-6.73946 l -3.594379,-0.4493 c 0.752002,-1.94695 1.135836,-3.89391 7.638057,-5.84086 l -5.39157,-3.59438 c 4.282463,0.39275 8.664607,0.38677 12.131029,4.04368 l 0.449299,-4.49298 4.492973,3.59438 1.347893,-2.24649 3.145081,-2.69578 -4.942271,-1.34789 4.043677,-4.49298 -7.638057,3.59438 -2.246487,-4.49297 -4.492974,4.94227 -3.14508,-4.94227 -7.638057,1.34789 3.594379,-4.49297 -5.391569,-1.79719 3.594379,-1.79719 -1.347892,-2.24649 6.739461,0.89859 -0.898595,-4.04367 6.290165,-1.34789 -8.536652,0 0.898595,-3.14509 -7.638056,0 3.59438,-5.84086 -2.695785,-2.24649 4.942272,-3.14508 0,-4.94227 5.391568,1.34789 -0.898593,-4.94227 7.638054,2.69578 -1.797188,-5.39157 7.188758,0 0.449297,-2.24648 -3.145081,-0.8986 1.347891,-2.69578 -5.391569,2.69578 -1.347891,-3.59438 -4.942271,2.24649 -3.145083,-3.14508 -4.492974,0.44929 0,-3.14508 4.492974,0 0.898596,-3.59438 4.043675,1.79719 6.290165,-1.79719 -4.942273,-3.14508 6.739461,-2.24649 -3.145082,-2.69578 2.246487,-4.04368 -4.942271,-1.79719 -1.797188,-4.04367 6.290163,-1.79719 -3.145083,-3.59438 4.942273,-1.34789 -2.246487,-2.24649 2.246487,-2.24649 -2.695786,-4.04367 4.492975,-1.3479 -0.898596,-4.94227 4.492975,-0.4493 c 0,0 -1.347892,-5.39156 2.246487,-3.14508 3.594379,2.24649 13.029625,-0.44929 13.029625,-0.44929 l -0.449298,4.94227 5.840867,-1.3479 1.347892,4.94228 1.79719,-2.24649 3.145081,4.04368 3.594379,-2.24649 c -1.690324,-0.70593 -2.231578,-2.56093 -3.145081,-4.04368 l 4.043676,-0.4493 2.246488,3.14509 c 1.647424,-3.06151 3.294846,-1.96961 4.94227,-0.8986 l 1.347892,-1.79719 -2.695783,-10.33384 3.594379,-2.24649 2.695785,7.63806 3.594379,-4.49297 2.246487,3.59438 c 1.628713,-3.00468 3.441015,-5.91755 6.739465,-8.08736 1.41936,3.51609 1.61477,5.80822 1.34789,7.63806 l 3.14508,-1.34789 3.59438,4.04367 -2.24649,-8.53665 c 4.28392,-0.39 5.79931,1.98851 7.63806,4.04368 -0.81218,-2.54602 0.57561,-5.09204 3.14508,-7.63806 l 1.34789,6.73946 1.79719,-4.49297 6.73946,-0.89859 0,5.84086 c 2.49823,-4.53438 5.6465,-6.46856 8.98595,-7.63806 l 1.34789,8.98595 5.84087,-5.39157 4.49297,-0.44929 -2.69578,7.18876 5.84087,-0.4493 5.39156,-4.94227 2.69579,8.53665 c 1.05453,-2.04269 1.48272,-4.50293 4.94227,-4.94227 l 0,4.04367 c 2.30728,-2.60459 5.4336,-3.98063 9.43525,-4.04367 l 4.49297,3.14508 -5.39157,4.04367 6.29016,-1.34789 2.24649,3.14508 4.94227,-4.49297 c 1.33319,1.57622 -0.23455,3.87766 -2.24648,6.29016 l 9.43524,-1.34789 3.59438,3.14508 -5.39157,1.3479 3.59438,2.24648 2.69579,0 4.49297,-2.24648 -6.29016,7.18875 c 2.78833,1.71878 4.13352,3.72618 2.69578,6.29017 l -7.18876,-0.8986 -0.89859,0.8986 3.59438,3.59438 -4.94228,3.14508 2.24649,2.69578 -3.14508,5.84087 4.94227,-2.69578 1.34789,4.49297 c 1.41755,-2.3266 2.37658,-5.11172 5.39157,-5.84087 l 2.69579,-0.89859 0.44929,2.69578 7.18876,0.4493 -2.69578,5.39157 c 3.4861,-3.01149 5.82834,-1.44754 8.53665,-1.34789 l -4.49298,2.69578 3.14509,2.69579 -3.59438,0.89859 c 1.3933,2.59481 0.17369,4.5364 -1.79719,6.29016 l 4.04367,0 1.79719,-3.14508 3.59438,1.34789 1.3479,3.14509 5.84086,-1.3479 -0.89859,3.14509 7.18876,2.24648 -2.69579,2.24649 3.14509,4.49297 -4.04368,3.14509 -2.24648,-3.14509 -1.79719,4.94227 -3.14509,-3.59437 -0.8986,4.49297 4.94227,2.24649 4.49297,-1.34789 1.79719,4.49297 1.79719,6.29016 -6.29016,-2.69578 -0.89858,5.84086 -2.6958,-1.79719 -2.69578,2.24649 3.59439,2.69579 -1.79719,2.69578 -4.04369,-0.4493 2.69579,3.14508 -2.24649,0.8986 6.29016,4.49297 0.4493,4.49298 -2.69578,0.4493 -3.14508,-2.69579 3.59437,4.94227 -1.34789,3.14508 -3.14508,-1.79718 0.8986,5.84086 c -3.55833,1.57532 -4.71638,-1.64991 -6.73947,-3.14508 l 1.79719,6.29016 c -1.86504,1.97507 -4.49029,0.90931 -7.18875,-0.44929 0.10889,3.30163 -1.21491,5.52874 -4.49298,6.29016 l -1.79719,-3.59438 -1.34789,4.49297 -3.59438,-0.89859 3.14508,5.39157 -6.73946,0.4493 2.69579,6.29016 -5.39157,0.4493 -3.59438,4.49297 -4.04368,-4.94227 -2.24649,6.29016 -5.39157,-2.69578 -4.49297,2.69578 -6.73946,-3.14508 -4.04368,4.49297 -1.79719,-3.59437 -4.49297,3.59437 -3.14508,-4.04367 -1.34789,4.04367 -2.24649,-6.29016 -4.49298,3.59438 c -1.59067,-2.99532 -0.84713,-5.99063 1.79719,-8.98595 l -6.29016,0.4493 0,-4.49297 -11.23243,4.49297 -4.94228,-4.49297 -4.94227,3.59437 -1.79719,-5.39156 -3.14508,1.34789 -2.69578,-3.59438 -4.04368,0.4493 z"
         style="fill:#5ab532;fill-opacity:1;fill-rule:evenodd;stroke:#000000;stroke-width:3;stroke-linecap:butt;stroke-linejoin:miter;stroke-miterlimit:4;stroke-dasharray:none;stroke-opacity:1"
         id="f12"
         inkscape:connector-curvature="0" />
    </g>
  </g>
</svg>
