<?xml version="1.0" encoding="UTF-8" standalone="no"?>
<!-- Created with Inkscape (http://www.inkscape.org/) -->

<svg
   xmlns:dc="http://purl.org/dc/elements/1.1/"
   xmlns:cc="http://creativecommons.org/ns#"
   xmlns:rdf="http://www.w3.org/1999/02/22-rdf-syntax-ns#"
   xmlns:svg="http://www.w3.org/2000/svg"
   xmlns="http://www.w3.org/2000/svg"
   xmlns:sodipodi="http://sodipodi.sourceforge.net/DTD/sodipodi-0.dtd"
   xmlns:inkscape="http://www.inkscape.org/namespaces/inkscape"
   width="210mm"
   height="297mm"
   id="svg2"
   version="1.1"
   inkscape:version="0.91 r13725"
   sodipodi:docname="autruche.svg">
  <defs
     id="defs4" />
  <sodipodi:namedview
     id="base"
     pagecolor="#ffffff"
     bordercolor="#666666"
     borderopacity="1.0"
     inkscape:pageopacity="0.0"
     inkscape:pageshadow="2"
     inkscape:zoom="2.3211398"
     inkscape:cx="246.14174"
     inkscape:cy="751.1664"
     inkscape:document-units="px"
     inkscape:current-layer="layer1"
     showgrid="false"
     inkscape:window-width="1233"
     inkscape:window-height="776"
     inkscape:window-x="47"
     inkscape:window-y="24"
     inkscape:window-maximized="1" />
  <metadata
     id="metadata7">
    <rdf:RDF>
      <cc:Work
         rdf:about="">
        <dc:format>image/svg+xml</dc:format>
        <dc:type
           rdf:resource="http://purl.org/dc/dcmitype/StillImage" />
        <dc:title />
      </cc:Work>
    </rdf:RDF>
  </metadata>
  <g
     inkscape:label="Calque 1"
     inkscape:groupmode="layer"
     id="layer1">
    <path
       inkscape:connector-curvature="0"
       style="fill:none;stroke:#000000;stroke-width:1.39529693px;stroke-linecap:butt;stroke-linejoin:miter;stroke-opacity:1"
       id="l101"
       d="m 365.79822,502.44083 c 7.59649,3.32346 6.61068,14.73468 1.22237,22.35518"
       sodipodi:nodetypes="cc" />
    <path
       inkscape:connector-curvature="0"
       style="fill:#2b5df2;stroke:#000000;stroke-width:1.39529693px;stroke-linecap:butt;stroke-linejoin:miter;stroke-opacity:1"
       id="l102"
       d="m 259.3734,601.2725 c 0,0 -2.24244,12.70718 0.24916,21.9261" />
    <path
       style="fill:none;stroke:#000000;stroke-width:1.39529693px;stroke-linecap:butt;stroke-linejoin:miter;stroke-opacity:1"
       d="m 487.90378,431.09765 c 0,0 25.16133,17.61293 37.36054,38.11631 -1.27291,1.39396 -0.2428,7.00941 -1.48144,6.51603 l -18.28869,-7.28483 c -3.52448,-2.1479 -6.69855,-4.20682 -10.11561,-5.95332"
       id="l103"
       inkscape:connector-curvature="0" />
    <path
       style="fill:none;stroke:#000000;stroke-width:1.39529693px;stroke-linecap:butt;stroke-linejoin:miter;stroke-opacity:1"
       d="m 526.76555,471.87839 c 4.76721,8.97225 6.79731,18.36737 2.99714,26.99083 0,0 -7.72455,-16.09282 -23.7291,-27.94908 1.54374,6.834 7.29544,21.7877 -1.83196,21.11961 4.74139,7.53052 8.21975,15.4377 8.61821,23.27408 l -4e-5,-4e-5 c 0,0 -8.96977,-18.43785 -20.92946,-20.43113 0,0 18.93618,11.95969 8.47145,36.8757 0,0 -7.58541,-27.8132 -25.08144,-43.52393 l -0.0608,0.0295 c -0.38565,3.19575 -2.2981,7.59515 -3.26197,11.10364 0,0 -10.67439,-35.30758 -39.73734,-45.93199 -2.30818,3.69266 -8.46175,12.69366 -23.79225,18.38942 18.34224,7.52422 37.53508,13.49904 29.64381,22.55938 -4.69148,5.38652 -14.47234,3.80545 -25.22293,-0.53908 l -2.25112,1.15957 c -2.32097,2.82562 -5.85781,5.4685 -11.20475,6.45867 -1.03539,0.19174 -2.20651,0.20646 -3.48636,0.0702 l -2.10047,1.34849 c 5.04347,7.90609 12.86453,19.54379 19.61059,23.96363 10.2186,6.69495 4.93312,31.36053 1.05709,35.94129 -3.87602,4.58075 -9.51387,18.32302 -8.1044,25.01796 1.40946,6.69495 -7.75204,57.43561 1.05709,78.57755 8.80914,21.14194 19.73249,22.90377 19.73249,22.90377 0,0 -22.19905,9.51388 -26.07507,-9.51387 0,0 10.57098,22.5514 -51.09303,21.84666 0,0 -4.93311,-3.87602 11.27571,-8.45676 16.20882,-4.58076 15.50409,-7.04733 15.50409,-7.04733 0,0 -26.42743,13.03754 -39.46496,4.93313 0,0 -5.63786,-1.76183 11.98044,-5.28548 17.61829,-3.52367 35.9413,-9.16152 39.46496,-15.5041 3.52365,-6.34258 2.11419,-103.24315 2.11419,-103.24315 0,0 -8.80915,-13.74225 -5.28548,-31.71291 0,0 -8.66265,-3.43237 -18.54949,-9.98225 l -1.00495,0.38957 c -2.46972,2.78893 -5.67229,5.01335 -9.41863,6.06903 -14.96267,4.21632 -30.30345,29.59871 -69.7684,45.1028 0,0 -6.2728,3.40067 -11.89151,9.79279 l -0.54773,0.92801 c -3.98657,20.43112 7.48624,26.877 -1.98185,20.89716 -1.80047,-1.13714 -3.27658,-2.73379 -4.48658,-4.57407 l -0.99494,2.58079 c 0.49833,20.43114 7.4748,26.41098 4.48489,33.38746 -2.98993,6.97649 -12.45802,-14.94961 -12.95634,-23.42105 -0.49832,-8.47144 1.15497,14.80064 0.49832,20.92946 -0.74748,6.97648 -7.22565,-6.47817 -8.72061,-15.69711 -0.75673,-4.66651 -10.21555,-9.21892 -8.22228,-22.67356 1.99328,-13.45465 17.44122,-22.42441 27.40761,-27.90594 9.96641,-5.48153 36.3774,-22.92273 45.34717,-28.40425 8.96976,-5.48152 22.92273,-22.42443 26.41097,-21.9261 3.48824,0.49832 -13.95297,-5.97985 -15.44793,-21.42778 -0.1203,-1.24313 -0.0715,-2.36381 0.11985,-3.3737 l -0.85896,-1.39015 c -2.13017,0.67015 -3.33418,1.05258 -3.33418,1.05258 0,0 -25.92304,8.1044 -13.62563,7.8479 9.76927,-0.20375 -3.50292,10.30412 -7.7313,11.36121 -4.22839,1.05709 -21.84669,1.40946 -33.82711,-15.15173 0,0 -8.80914,-1.40946 -4.22838,4.58076 4.58074,5.99021 -15.50409,8.1044 -19.02775,-7.04732 0,-1.76183 -11.98044,10.92333 -23.25614,-15.50409 0,0 -22.19903,0.70473 -18.32301,-23.96087 0,0 -14.96177,-0.6253 -11.70929,-24.33397 2.93201,-8.46039 12.15301,-9.81654 4.30227,-29.18286 -2.41355,-5.95991 -7.40701,-29.1596 10.22594,-102.58115 0,0 4.22839,-18.32303 -9.86623,-31.71293 0,0 -18.67539,-0.35235 -21.84668,-9.86622 l -31.0082,-4.2284 c 0,0 8.80917,-6.34258 27.48455,-10.21861 0,0 0.39555,-0.59332 1.12798,-1.50928 2.67066,-3.33988 9.82032,-10.96948 18.60449,-9.76642 8.78412,1.20305 30.72392,4.47457 27.32116,17.57257 0,0 8.00092,13.71286 6.50595,38.45358 -1.04139,17.23449 -8.12944,47.36295 -9.53892,65.3336 -1.40945,17.97065 -7.02227,54.82309 6.71999,50.94707 13.74227,-3.87602 28.54162,-10.57096 35.58893,-5.63785 0,0 14.09462,-11.2757 31.36054,-6.69494 0,0 12.68518,-13.3899 39.81734,-12.33281 0,0 29.95108,-17.26592 53.2072,-2.11419 0,0 50.77182,-5.16819 58.68985,15.94906 l 0.0148,0.36307 c 15.11228,-1.0859 44.12434,-1.09838 56.73195,12.95011 0,0 -11.46135,-2.98992 -16.44456,0.99664 0,0 58.08199,35.2012 47.72327,59.29465 z"
       id="f101"
       inkscape:connector-curvature="0"
       sodipodi:nodetypes="cccccccccccccsccsccsssscccsccssccccscccsccssssssssscccsscsccccccccccsscssscccccccccc" />
    <path
       inkscape:connector-curvature="0"
       style="fill:none;stroke:#000000;stroke-width:1.39529693px;stroke-linecap:butt;stroke-linejoin:miter;stroke-opacity:1"
       id="l111"
       d="m 300.516,466.56586 c 0,0 37.37403,46.84212 57.80517,38.37067 3.06926,-1.27262 5.55374,-2.37656 7.55987,-3.33377"
       sodipodi:nodetypes="csc" />
    <path
       inkscape:connector-curvature="0"
       style="fill:none;stroke:#000000;stroke-width:1.39529693px;stroke-linecap:butt;stroke-linejoin:miter;stroke-opacity:1"
       id="l105"
       d="m 317.9613,474.48203 c 0,0 46.84212,32.39084 60.29677,26.41099 1.75624,-0.78055 3.26625,-1.51865 4.5644,-2.21208"
       sodipodi:nodetypes="csc" />
    <path
       inkscape:connector-curvature="0"
       style="fill:none;stroke:#000000;stroke-width:1.39529693px;stroke-linecap:butt;stroke-linejoin:miter;stroke-opacity:1"
       id="l106"
       d="m 349.56092,476.54753 c 0,0 28.42346,21.41493 44.31379,24.66491"
       sodipodi:nodetypes="cc" />
    <path
       inkscape:connector-curvature="0"
       style="fill:none;stroke:#000000;stroke-width:1.39529693px;stroke-linecap:butt;stroke-linejoin:miter;stroke-opacity:1"
       id="l107"
       d="m 411.8186,493.42179 c -19.8442,-8.29212 -42.51504,-25.44843 -42.51504,-25.44843"
       sodipodi:nodetypes="cc" />
    <path
       inkscape:connector-curvature="0"
       style="fill:none;stroke:#000000;stroke-width:1.39529693px;stroke-linecap:butt;stroke-linejoin:miter;stroke-opacity:1"
       id="l108"
       d="m 375.39374,452.22492 c 0,0 -11.38154,1.39987 -11.38154,7.87803 0,6.47817 -11.95969,-1.49496 -18.43784,10.46473 -6.47817,11.95969 -1.01317,-10.99177 -26.54802,3.09645 -14.45129,7.97313 2.84143,-11.74662 -16.09476,-4.77013"
       sodipodi:nodetypes="csssc" />
    <path
       inkscape:connector-curvature="0"
       style="fill:#000000;fill-opacity:1;stroke:#000000;stroke-width:0.37688142;stroke-linecap:round;stroke-linejoin:round;stroke-miterlimit:4;stroke-dasharray:none;stroke-opacity:1"
       id="f201"
       d="m 191.60146,244.59288 c -7.8e-4,2.19768 -3.19299,2.7558 -4.94629,2.7558 -1.75329,0 -3.30134,-0.33578 -3.30221,-2.53346 -7.8e-4,-2.19922 1.80062,-2.87092 3.55515,-2.87092 1.75452,0 4.69422,0.44936 4.69335,2.64858 z"
       sodipodi:nodetypes="sssss" />
    <path
       style="fill:none;stroke:#000000;stroke-width:1.39529693px;stroke-linecap:butt;stroke-linejoin:miter;stroke-opacity:1"
       d="m 466.47601,455.51535 c 0,0 23.47828,15.91305 37.02652,35.84807"
       id="l113"
       inkscape:connector-curvature="0" />
    <path
       style="fill:none;stroke:#000000;stroke-width:1.39529693px;stroke-linecap:butt;stroke-linejoin:miter;stroke-opacity:1"
       d="m 438.86705,396.13056 c 0,0 37.22105,9.05019 32.99266,18.56407 0,0 -2.17583,2.85618 -14.50862,-1.72457 -10.88515,-4.04305 5.82835,3.08147 7.91344,8.59663 2.35406,6.22658 -12.34806,12.84672 -19.47796,13.90411"
       id="l109" />
    <path
       style="fill:none;stroke:#000000;stroke-width:1.39529693px;stroke-linecap:butt;stroke-linejoin:miter;stroke-opacity:1"
       d="m 475.10208,487.8742 c 3.02914,-36.47476 -30.05384,-52.78999 -30.05384,-52.78999 0,0 -48.97595,11.54852 -13.5952,18.02669"
       id="l114"
       inkscape:connector-curvature="0" />
    <path
       style="fill:none;stroke:#000000;stroke-width:1.39529693px;stroke-linecap:butt;stroke-linejoin:miter;stroke-opacity:1"
       d="m 406.9944,471.53413 c -12.29985,-4.26787 -24.06234,-7.81384 -26.22947,-13.52717 -5.48154,-14.45129 -57.80516,-27.40762 -57.80516,-27.40762"
       id="l110" />
  </g>
</svg>
