<?xml version="1.0" encoding="UTF-8" standalone="no"?>
<!-- Created with Inkscape (http://www.inkscape.org/) -->

<svg
   xmlns:dc="http://purl.org/dc/elements/1.1/"
   xmlns:cc="http://creativecommons.org/ns#"
   xmlns:rdf="http://www.w3.org/1999/02/22-rdf-syntax-ns#"
   xmlns:svg="http://www.w3.org/2000/svg"
   xmlns="http://www.w3.org/2000/svg"
   xmlns:sodipodi="http://sodipodi.sourceforge.net/DTD/sodipodi-0.dtd"
   xmlns:inkscape="http://www.inkscape.org/namespaces/inkscape"
   width="508.06842"
   height="401.21735"
   id="svg5535"
   version="1.1"
   inkscape:version="0.91 r13725"
   sodipodi:docname="cerbere.svg">
  <defs
     id="defs5537" />
  <sodipodi:namedview
     id="base"
     pagecolor="#ffffff"
     bordercolor="#666666"
     borderopacity="1.0"
     inkscape:pageopacity="0.0"
     inkscape:pageshadow="2"
     inkscape:zoom="3.2867187"
     inkscape:cx="90.602887"
     inkscape:cy="205.3629"
     inkscape:document-units="px"
     inkscape:current-layer="layer1"
     showgrid="false"
     fit-margin-top="0"
     fit-margin-left="0"
     fit-margin-right="0"
     fit-margin-bottom="0"
     inkscape:window-width="1233"
     inkscape:window-height="776"
     inkscape:window-x="47"
     inkscape:window-y="24"
     inkscape:window-maximized="1" />
  <metadata
     id="metadata5540">
    <rdf:RDF>
      <cc:Work
         rdf:about="">
        <dc:format>image/svg+xml</dc:format>
        <dc:type
           rdf:resource="http://purl.org/dc/dcmitype/StillImage" />
        <dc:title />
      </cc:Work>
    </rdf:RDF>
  </metadata>
  <g
     inkscape:label="Calque 1"
     inkscape:groupmode="layer"
     id="layer1"
     transform="translate(-153.19535,-102.60312)">
    <path
       d="m 394.10784,258.88204 50.44239,21.74981 c 13.87388,2.48512 47.28331,2.63343 61.04733,4.0548 20.68383,2.13599 43.89515,6.38961 60.67487,13.5318 8.59212,3.12161 44.37513,32.0558 67.71201,25.15637 11.69644,-3.38059 6.16248,-45.34654 -26.77704,-36.31325 6.96101,-2.86617 11.81636,-8.05209 23.47891,-5.73873 0,0 -4.18236,-6.11832 -10.83768,-10.30713 -6.65531,-4.18882 -15.77287,-1.88667 -15.77287,-1.88667 9.64925,-3.67343 18.47817,-6.08908 23.60233,-2.82435 -10.88689,-13.90598 -27.69689,-18.25546 -46.27329,-19.75498 13.73939,-3.58801 27.35583,-5.37958 40.49896,-0.25537 -18.51129,-25.87324 -71.34328,-1.90188 -105.73195,8.6076 -25.80971,7.88769 -34.61818,-1.4522 -31.25696,-14.08189 4.11508,-15.46228 15.12182,-23.6878 25.52904,-29.75782 0,0 -3.80102,-14.14138 7.96442,-14.16608 13.64494,-0.0287 21.63632,-1.81838 31.41136,7.84774 -1.03296,-2.56104 -18.77974,5.34176 -25.21494,15.78613 -5.18065,8.40822 -11.6163,-3.71061 -11.6163,-3.71061 -18.93123,11.22566 -33.58078,37.19515 1.71148,29.05699 41.0799,-9.47276 91.90089,-39.74903 116.95808,2.37705 14.23142,23.92583 25.39875,63.23514 16.53464,76.91585 l 3e-5,-1e-4 c -15.12743,23.34744 -49.95475,2.02096 -82.64135,-15.38722 5.21485,4.94107 15.08734,7.94924 20.09062,16.14638 5.0033,8.19711 7.87261,16.64291 8.36733,21.4437 -0.64302,-1.69603 -1.69321,-2.85274 -3.12876,-3.80651 -1.06861,1.06858 -1.11261,5.9641 -1.03301,8.02529 2.15038,3.2495 3.52866,9.56773 3.87756,14.86762 -2.7141,-3.72911 -5.58886,-5.45819 -7.48183,-6.75099 -1.23851,4.26663 -2.5145,10.0638 -2.06135,17.92767 0.61082,10.7597 10.00788,11.90987 15.76866,11.90987 11.65307,-0.97774 17.81123,-8.41645 28.19234,-11.82321 -1.2743,4.8935 1.11101,8.98003 3.15373,13.06548 3.08082,6.16164 5.83202,12.59003 10.81283,17.57083 3.05448,3.05449 14.40802,14.32814 19.34796,19.14107 1.87447,1.82626 2.46535,7.62019 0.65745,11.23601 -1.20439,-2.05129 -2.21146,-2.77731 -4.23673,-3.79558 -4.10729,2.05364 -6.19685,6.97185 -8.61481,11.00178 -0.21717,5.04292 1.50261,12.67041 -2.56186,17.50677 -1.06815,-2.36824 -2.37701,-4.48329 -3.559,-6.08884 -10.48183,11.77786 -8.0143,34.07559 -20.41125,36.84383 -0.60072,-0.15019 -1.80213,-0.45053 -1.80213,-0.45053 -1.53222,-1.29426 -12.4449,7.2382 -26.22122,7.2382 l -18.72677,0 c -2.66684,0 -8.71849,-2.10276 -8.71849,-5.96052 0,-3.43722 -0.4062,-8.28693 0.45054,-11.71388 0.15017,-0.60071 0.30043,-1.20143 0.45053,-1.80214 0.52736,-2.10944 2.95197,-11.0146 6.30748,-7.65906 2.85393,2.85393 3.77928,4.05527 9.01068,4.28007 12.87824,0.55337 20.29551,-0.98688 29.62258,-14.41709 3.58845,-5.16705 9.81812,-19.70821 10.0244,-29.05944 0.13647,-6.18614 -18.38415,-22.07616 -27.93311,-22.07616 -13.49946,0 -7.63554,9.74216 -28.10014,9.74216 -36.77949,-5.03124 -58.66274,-51.99203 -55.19213,-75.25612 -3.88408,28.76885 18.42519,66.40742 54.01552,75.96506 -9.16698,3.98581 -18.88183,15.73366 -23.24115,23.20509 0.33481,5.17506 -0.74519,11.68841 -3.26635,15.99398 -0.78842,-2.27094 -2.9401,-3.75002 -4.78694,-4.33639 -5.79621,4.46964 -10.2314,10.98802 -12.94371,15.43782 -1.27759,2.09598 -0.99677,8.18841 -7.49928,11.31263 0,-1.02086 -0.4556,-3.56977 -2.0274,-4.3364 -3.29621,1.57653 -7.68927,7.18073 -11.41464,13.51619 -1.13473,1.12 -11.1083,6.85449 -13.59693,7.1642 l -57.12129,0 c -2.39705,-0.79902 -5.71411,-12.64278 -4.95653,-14.91552 1.13516,-3.40544 2.64895,-9.14346 5.74432,-11.20702 2.16889,-0.84523 3.31697,-1.69306 5.68799,-2.87215 3.48675,-0.43824 17.31673,5.7443 21.79457,5.7443 3.35728,0 8.33061,0.27201 11.26335,-0.90107 17.47798,-6.49826 41.93274,-35.133 41.89964,-46.85552 -0.049,-17.26072 -34.63535,-19.02028 -36.04271,-40.99858 -0.79166,-12.36288 2.84066,-20.07857 9.21887,-29.79411 3.83147,-5.83625 -1.07986,-15.80064 -13.01862,-13.88039 -44.29018,7.12375 -79.85692,39.24449 -103.396,29.951 5.13878,16.29565 11.86624,2.22937 14.78938,21.85553 -1.85307,-3.92303 -5.96142,-5.37248 -10.42302,-8.7278 0.1019,1.85275 0.57621,6.69018 -0.0116,8.72456 -1.30534,-2.70601 -4.06148,-5.26675 -7.10568,-6.67007 0.0747,11.05157 7.23217,33.3039 7.64509,35.87219 3.37379,20.98383 6.0677,24.81069 5.08567,37.67417 -1.38778,-2.85266 -3.13283,-5.66722 -5.21551,-8.12368 -0.27656,3.43237 -1.43055,7.45186 -2.98782,9.43895 -0.27747,-2.5584 -1.13326,-6.6216 -1.19466,-6.5308 -5.75513,8.50864 -13.47798,21.87357 -18.49316,31.89663 -7.93385,5.00666 -6.24568,3.46076 -18.1615,9.95851 -17.25438,-0.19977 -35.91062,0.37957 -50.6584,0.36087 -0.29219,-2.67859 -3.36475,-14.85888 -2.80152,-17.5134 0.16994,-1.35957 2.67159,-4.67694 2.9388,-6.01292 0.14871,-0.74346 0.44244,-1.28045 0.90791,-1.9011 1.18846,-1.66384 2.90122,-4.12495 3.20723,-5.0315 9.31745,-0.69089 13.25421,6.38696 25.22988,6.30746 24.03664,-0.15929 31.33541,-28.5354 30.6363,-35.59219 -2.0807,-21.00299 -10.96064,-39.97971 -19.14768,-51.13557 -8.37919,-11.41769 -2.63475,-2.96388 -9.13151,-11.02371 -3.66691,6.59327 -13.3,16.65614 -11.57185,31.13066 -4.20932,-6.06238 -5.95584,-17.83176 -9.12331,-26.24359 -3.07278,2.95779 -5.31427,7.46366 -5.51901,12.72759 -1.94522,-5.52719 -1.06302,-11.43089 -1.73181,-16.76868 -0.54597,-0.10919 -13.60301,-8.17236 -20.73475,-10.97484 -6.56958,-2.58155 -24.74812,-4.91291 -31.87006,-6.5468 3.12237,-0.59733 3.96009,-2.46084 8.45475,-3.543 -8.26759,-5.83255 -14.16988,-6.7907 -21.85307,-7.12127 -7.46079,-0.32102 -8.61275,2.40626 -12.03727,6.03243 -2.68419,-0.95559 -8.48722,2.53105 -12.43508,5.90614 -1.59246,5.1729 -4.53603,-6.11508 -8.78201,-2.64467 -1.96577,-0.33973 -3.99417,-0.81434 -5.94197,-2.24521 -1.11455,-2.26141 -2.06294,-4.7901 -5.9403,-4.62018 0.23903,-2.27173 0.6452,-6.31242 -1.56223,-8.18799 -1.09068,-0.92671 -1.56156,-1.5117 -2.6146,-2.69823 0.0372,-2.18959 1.74769,-4.36061 3.42069,-6.03361 3.61031,-4.11186 8.74322,-3.40646 13.93202,-3.04578 0.42939,-0.34353 17.85797,-11.43008 25.68536,-11.768 3.35257,-0.14472 19.01846,3.64989 26.88785,5.97726 12.82665,3.79346 25.53436,6.66403 38.43479,9.29504 1.98875,-66.33234 4.37059,-41.1136 2.30766,-66.98934 l 0.62428,-5.2109 c -1.87422,-7.55745 -34.40888,-16.77252 -37.46865,-23.7902 0.007,18.6196 -7.60658,12.11748 -29.73356,30.69781 -4.34299,3.64687 -11.34805,14.32994 -16.81037,6.96845 -1.84524,-4.91947 -0.79504,-10.5278 3.68328,-9.22863 5.20431,-5.06343 11.43871,-8.67562 17.19866,-13.04437 6.77348,-4.66509 -1.01384,-5.03939 -0.79182,-12.40213 0.4722,-15.65904 -9.21566,-9.93672 -24.4296,5.02624 -5.40264,5.31351 -12.3267,11.18581 -13.34771,19.09081 -4.57976,7.08564 -16.36987,-2.18288 -21.51703,-6.57737 6.73214,-13.17355 8.32256,-16.68408 17.37856,-27.37172 -4.40322,-9.6567 19.50327,-29.17247 27.30259,-36.29214 0.96963,-6.49826 5.24409,-19.88486 8.20288,-32.64332 6.23134,11.7257 10.7406,20.5891 16.65457,26.53952 19.27397,-5.5955 67.67688,3.85951 86.71956,8.58669 -2.29071,0.4182 -6.00986,1.71466 -7.76796,2.70314 3.07348,0.71593 8.65824,1.48692 12.02865,2.32774 9.67221,-21.34354 27.98038,-47.41006 56.84343,-59.30978 2.59269,-8.20181 2.61739,-18.14841 2.88735,-31.4475 8.39742,9.32822 18.25236,18.49795 22.04987,23.53283 10.17278,1.9592 40.31319,5.99492 40.74106,16.56268 12.90421,4.34126 19.08808,11.34738 31.04016,19.03758 -2.61047,6.4688 -12.13039,15.75621 -19.41461,12.12611 -4.47812,-6.20853 -12.85059,-9.80244 -20.52591,-9.24805 -9.54671,0.68956 -23.30178,-1.33645 -24.06918,8.60856 -0.59161,7.66686 -3.26018,10.59876 4.88954,11.00442 7.11153,0.68783 14.3051,0.47938 21.23421,2.05357 3.41028,-3.47353 6.87811,0.75917 7.45121,5.93266 -1.55293,9.16782 -12.6248,3.74756 -18.1461,2.92776 -28.13024,-4.17683 -28.41939,10.03619 -36.81474,-5.86103 -5.03684,18.66803 -20.442,52.91125 29.37752,66.14597"
       style="display:inline;fill:#000000;fill-opacity:1;fill-rule:evenodd;stroke:#313131;stroke-width:3.00000024;stroke-linecap:butt;stroke-linejoin:miter;stroke-miterlimit:4;stroke-dasharray:none;stroke-opacity:1"
       id="f11"
       sodipodi:nodetypes="ccsccccsccccsscscscsscscsccccccccsssccccccsssssssssssccccccscccccsccscsssscccccscccsccccsccssscccccsccscccccscccssccccscccsscccccccccccccccsscccscc"
       inkscape:connector-curvature="0" />
    <path
       inkscape:connector-curvature="0"
       id="f12"
       style="fill:#000000;fill-opacity:1;fill-rule:evenodd;stroke:#313131;stroke-width:3.00000024;stroke-linecap:butt;stroke-linejoin:miter;stroke-miterlimit:4;stroke-dasharray:none;stroke-opacity:1"
       d="m 463.76492,346.71186 c 28.67171,-4.79285 24.69821,-0.44706 31.94852,2.41762 -3.55702,4.83184 5.09079,11.08981 12.51435,9.25168 -0.53764,-2.53557 0.12793,-10.62491 0.14909,-12.88596 -19.76214,-10.9595 -22.34987,-7.97539 -44.61196,1.21666 z"
       sodipodi:nodetypes="ccccc" />
    <path
       inkscape:connector-curvature="0"
       d="m 166.59228,344.25737 c 1.74082,1.4277 3.43222,2.399 3.99848,4.58984 -2.58999,0.70271 -6.21929,7.64693 -6.44826,11.88284 -2.86335,-5.25921 -0.81516,-11.76916 2.44978,-16.47268 z"
       style="fill:#000000;fill-opacity:1;fill-rule:evenodd;stroke:#313131;stroke-width:3;stroke-linecap:butt;stroke-linejoin:miter;stroke-miterlimit:4;stroke-dasharray:none;stroke-opacity:1"
       id="f21" />
    <path
       inkscape:connector-curvature="0"
       d="m 170.81421,354.94952 c 3.224,-0.0358 4.39265,1.55729 5.37378,3.59636 -2.4041,1.19254 -5.20291,8.95135 -4.6045,13.15102 -3.83061,-4.60266 -3.05815,-11.49913 -0.76928,-16.74738 z"
       style="fill:#000000;fill-opacity:1;fill-rule:evenodd;stroke:#313131;stroke-width:3;stroke-linecap:butt;stroke-linejoin:miter;stroke-miterlimit:4;stroke-dasharray:none;stroke-opacity:1"
       id="f22" />
    <path
       inkscape:connector-curvature="0"
       d="m 176.74374,359.65287 c 2.4899,1.45951 3.98188,1.77442 5.90878,2.28606 -1.97837,1.81326 -2.738,11.35336 -0.99686,15.22167 -4.95812,-3.35786 -5.65332,-11.83028 -4.91192,-17.50773 z"
       style="fill:#000000;fill-opacity:1;fill-rule:evenodd;stroke:#313131;stroke-width:3;stroke-linecap:butt;stroke-linejoin:miter;stroke-miterlimit:4;stroke-dasharray:none;stroke-opacity:1"
       id="f23" />
    <path
       inkscape:connector-curvature="0"
       d="m 203.94685,358.59223 c -2.08504,-0.38752 -3.84203,0.26644 -5.84496,1.35493 0.61108,2.41152 -2.17212,6.35041 -5.16245,8.55383 5.07827,-0.21227 8.99312,-5.04833 11.00741,-9.90876 z"
       style="fill:#000000;fill-opacity:1;fill-rule:evenodd;stroke:#313131;stroke-width:3;stroke-linecap:butt;stroke-linejoin:miter;stroke-miterlimit:4;stroke-dasharray:none;stroke-opacity:1"
       id="f24"
       sodipodi:nodetypes="cccc" />
    <path
       sodipodi:nodetypes="cccc"
       inkscape:connector-curvature="0"
       d="m 280.72745,472.05797 c -0.87267,2.07538 -1.32193,3.97339 -3.26066,5.14027 -1.4114,-2.2825 -8.92318,-1.28331 -12.15594,2.56101 -0.23866,-5.85001 9.97789,-9.49111 15.4166,-7.70128 z"
       style="fill:#000000;fill-opacity:1;fill-rule:evenodd;stroke:#313131;stroke-width:3;stroke-linecap:butt;stroke-linejoin:miter;stroke-miterlimit:4;stroke-dasharray:none;stroke-opacity:1"
       id="f25" />
    <path
       inkscape:connector-curvature="0"
       d="m 275.28352,482.45121 c 1.43136,2.8995 0.29983,4.65927 -1.37096,6.44624 -2.26524,-1.64774 -8.41242,-0.21923 -11.9331,5.56793 -3.35614,-7.45913 6.92136,-11.76806 13.30406,-12.01417 z"
       style="fill:#000000;fill-opacity:1;fill-rule:evenodd;stroke:#313131;stroke-width:3;stroke-linecap:butt;stroke-linejoin:miter;stroke-miterlimit:4;stroke-dasharray:none;stroke-opacity:1"
       id="f26"
       sodipodi:nodetypes="cccc" />
    <path
       inkscape:connector-curvature="0"
       d="m 276.99082,494.16513 c -0.21166,1.77556 -0.0402,4.67336 0.18649,6.6541 -2.41005,-1.1805 -10.4392,-3.72464 -13.40568,-0.69226 1.3176,-5.84141 7.66262,-4.58087 13.21926,-5.96184 z"
       style="fill:#000000;fill-opacity:1;fill-rule:evenodd;stroke:#313131;stroke-width:3;stroke-linecap:butt;stroke-linejoin:miter;stroke-miterlimit:4;stroke-dasharray:none;stroke-opacity:1"
       id="f27"
       sodipodi:nodetypes="ccccc" />
    <path
       d="m 443.81982,187.81152 3.22229,-5.39865 c -1.92688,-1.02424 -4.17297,-1.99517 -6.53709,-2.9214 -0.0484,-0.11653 -0.0484,-0.11653 -0.0484,-0.11653 -0.0832,-0.036 -0.0832,-0.036 -0.0832,-0.036 l -0.0348,0.0806 -0.0348,0.0806 0.21551,7.26733 0.43301,2.19594 0,0 2.86749,-1.15185 z"
       id="f13"
       style="fill:#000000;fill-opacity:1;stroke:#313131;stroke-width:1.88212526;stroke-miterlimit:4;stroke-dasharray:none;stroke-opacity:1"
       inkscape:connector-curvature="0"
       inkscape:transform-center-x="2.1074982"
       inkscape:transform-center-y="0.22988637" />
    <path
       d="m 424.25604,195.39348 3.72672,-3.68842 0.98093,4.89191 0.24676,2.0525 c -2.82903,-0.61491 -5.4073,-0.87368 -7.59529,-0.67252 l 2.64088,-2.58347 z"
       id="f14"
       style="fill:#000000;fill-opacity:1;stroke:#313131;stroke-width:1.62441742;stroke-miterlimit:4;stroke-dasharray:none;stroke-opacity:1"
       inkscape:connector-curvature="0" />
    <path
       d="m 436.93405,181.77972 -3.46669,4.67141 -1.89822,-5.19967 -0.61571,-2.20935 c 3.2058,0.19867 6.07671,0.0489 8.44232,-0.53953 l -2.46172,3.27713 z"
       id="f15"
       style="fill:#000000;fill-opacity:1;stroke:#313131;stroke-width:1.80220056;stroke-miterlimit:4;stroke-dasharray:none;stroke-opacity:1"
       inkscape:connector-curvature="0" />
    <path
       d="m 239.50852,132.52413 0.79299,-6.23696 c 2.14847,0.3821 4.51534,1.00304 6.94755,1.73195 0.10994,-0.0619 0.10994,-0.0619 0.10994,-0.0619 0.0877,0.023 0.0877,0.023 0.0877,0.023 l -0.0223,0.0849 -0.0223,0.0849 -4.65161,5.58775 -1.69516,1.46154 0,0 -1.54683,-2.67517 z"
       id="f16"
       style="fill:#000000;fill-opacity:1;stroke:#313131;stroke-width:1.88212526;stroke-miterlimit:4;stroke-dasharray:none;stroke-opacity:1"
       inkscape:connector-curvature="0"
       inkscape:transform-center-x="-3.1132408"
       inkscape:transform-center-y="2.4905895" />
    <path
       d="m 250.23263,150.55801 -0.65883,-5.2018 -3.78915,3.24582 -1.46008,1.46349 c 2.60618,1.26071 4.79532,2.6471 6.39359,4.15485 l -0.48553,-3.66236 z"
       id="f18"
       style="fill:#000000;fill-opacity:1;stroke:#313131;stroke-width:1.62441742;stroke-miterlimit:4;stroke-dasharray:none;stroke-opacity:1"
       inkscape:connector-curvature="0" />
    <path
       d="m 248.64881,132.0227 -0.1521,5.81523 4.70102,-2.92237 1.84724,-1.35942 c -2.64605,-1.82072 -4.81363,-3.70915 -6.31284,-5.63133 l -0.0833,4.09789 z"
       id="f19"
       style="fill:#000000;fill-opacity:1;stroke:#313131;stroke-width:1.80220056;stroke-miterlimit:4;stroke-dasharray:none;stroke-opacity:1"
       inkscape:connector-curvature="0" />
    <path
       d="m 183.16771,265.69964 -5.57405,-2.90834 c 1.104,-1.8823 2.50781,-3.88655 4.03554,-5.91459 -0.0199,-0.12457 -0.0199,-0.12457 -0.0199,-0.12457 0.052,-0.0743 0.052,-0.0743 0.052,-0.0743 l 0.0718,0.0505 0.0719,0.0504 3.62601,6.30178 0.78235,2.09704 0,0 -3.04573,0.52222 z"
       id="f110"
       style="fill:#000000;fill-opacity:1;stroke:#313131;stroke-width:1.88212526;stroke-miterlimit:4;stroke-dasharray:none;stroke-opacity:1"
       inkscape:connector-curvature="0"
       inkscape:transform-center-x="-2.4447333"
       inkscape:transform-center-y="-2.2257067" />
    <path
       d="m 203.8026,261.90109 -5.10713,-1.1875 1.72898,4.68013 0.86577,1.87726 c 2.08687,-2.00663 4.14685,-3.57854 6.11559,-4.55418 l -3.60321,-0.81571 z"
       id="f111"
       style="fill:#000000;fill-opacity:1;stroke:#313131;stroke-width:1.62441742;stroke-miterlimit:4;stroke-dasharray:none;stroke-opacity:1"
       inkscape:connector-curvature="0" />
    <path
       d="m 185.86974,256.95348 5.40097,2.16092 -1.10916,-5.42307 -0.6338,-2.20423 c -2.6259,1.84967 -5.14924,3.2271 -7.47226,3.96601 l 3.81425,1.50035 z"
       id="f112"
       style="fill:#000000;fill-opacity:1;stroke:#313131;stroke-width:1.80220056;stroke-miterlimit:4;stroke-dasharray:none;stroke-opacity:1"
       inkscape:connector-curvature="0" />
    <path
       sodipodi:nodetypes="cscsssscc"
       d="m 262.07342,162.95874 c 2.19405,-2.38947 -8.02453,-14.9982 -14.68329,-19.63145 -24.37999,-16.96386 -25.364,-6.01544 -40.66848,-12.59771 -2.87326,-1.2355 -5.3669,-6.43059 -6.38977,-6.97623 -2.36864,-1.26358 -4.96612,-1.23812 -5.56921,1.21133 -0.90259,3.66581 3.4331,11.47263 11.70747,15.00803 16.00063,6.83665 17.78687,-10.33699 40.11274,5.19759 8.97193,6.24277 11.84027,13.76017 15.49054,17.78847 z"
       style="fill:#000000;fill-opacity:1;fill-rule:evenodd;stroke:#313131;stroke-width:3.00000024;stroke-linecap:butt;stroke-linejoin:miter;stroke-miterlimit:4;stroke-dasharray:none;stroke-opacity:1"
       id="f31"
       inkscape:connector-curvature="0" />
    <path
       inkscape:connector-curvature="0"
       id="f113"
       style="fill:#000000;fill-opacity:1;fill-rule:evenodd;stroke:#313131;stroke-width:3.00000024;stroke-linecap:butt;stroke-linejoin:miter;stroke-miterlimit:4;stroke-dasharray:none;stroke-opacity:1"
       d="m 289.98544,197.43204 c -9.10841,-3.31031 6.02134,4.41657 -2.86344,-14.76078 -15.2065,10.10906 -16.13056,-2.64223 -41.20609,-20.09006 -4.92173,-3.42459 -17.05804,-7.63285 -12.80081,-15.21394 3.56523,-3.22756 8.88814,-3.6945 9.53911,1.22317 6.50402,3.91379 12.15012,9.2745 18.26844,13.94462 6.78187,5.62133 7.28554,2.89614 10.52834,-4.2048 3.12274,-6.83805 -7.79919,-15.9769 -14.14279,-23.50719 -5.35354,-6.35503 -14.69934,-9.49122 -22.0188,-8.36523 -8.02301,-2.72353 -4.89693,-15.90761 -3.10826,-22.35471 14.20506,3.24786 18.18294,2.54086 31.14162,8.83699 6.68672,-7.13117 33.29026,11.87297 42.6277,17.86668 6.06891,-0.79287 19.47959,-0.10683 31.81605,-0.58882 -7.76638,9.56023 -13.71715,16.58205 -16.56033,24.23657 24.70793,26.04065 19.49105,14.13117 -5.67384,49.20513 -1.44717,2.01701 -6.18726,2.30373 -6.68642,0.38681 -0.51672,-1.98431 3.20306,-6.16061 1.36488,-3.07082"
       sodipodi:nodetypes="ccscccssccccccssc" />
    <path
       sodipodi:nodetypes="cscssssc"
       d="m 215.46729,256.97542 c -1.48815,-3.18835 -15.31301,2.18933 -21.1888,7.12331 -21.51323,18.06494 -12.90474,28.57244 -24.99411,38.66937 -2.26947,1.89575 -7.5402,1.07883 -8.43284,1.69051 -2.0671,1.41646 -3.20404,3.81249 -1.51151,5.82809 2.53305,3.01657 10.71572,3.70484 17.23319,-1.76797 12.60324,-10.58311 -0.60508,-26.31945 19.09556,-42.86235 7.91695,-6.64797 15.27602,-6.57011 19.79851,-8.68096 z"
       style="fill:#000000;fill-opacity:1;fill-rule:evenodd;stroke:#313131;stroke-width:3;stroke-linecap:butt;stroke-linejoin:miter;stroke-miterlimit:4;stroke-dasharray:none;stroke-opacity:1"
       id="f32"
       inkscape:connector-curvature="0" />
    <path
       inkscape:connector-curvature="0"
       id="f114"
       style="fill:#000000;fill-opacity:1;fill-rule:evenodd;stroke:#313131;stroke-width:3;stroke-linecap:butt;stroke-linejoin:miter;stroke-miterlimit:4;stroke-dasharray:none;stroke-opacity:1"
       d="m 407.76947,269.84677 c -10.06838,-0.53019 -25.65334,-3.6062 -28.04336,-4.86466 4.79929,9.10725 14.39488,17.35641 27.0496,21.80697 -6.29427,0.16466 -26.39045,-2.0226 -30.45512,-8.1775 -0.49417,4.2527 7.44301,23.52918 9.15177,26.68344 -12.518,-5.69521 -20.75371,-12.43697 -19.49498,-22.57954 -4.22216,11.5316 -8.20274,13.77035 -9.13772,20.2626 -3.65916,-11.24409 -10.28303,-38.96624 -17.2572,-40.49468 8.31303,5.22646 4.92091,27.63607 3.64358,35.36406 -2.30929,-7.18371 -4.91258,-15.68792 -10.79543,-19.54447 4.11497,8.56154 0.28269,21.00281 -4.86728,29.01429 -0.82957,-5.32281 0.34921,-8.49124 -8.45813,-16.55283 5.65103,8.38672 -4.94237,21.35832 -13.05776,33.05032 0.0353,-3.71712 -4.34525,-27.73226 -6.68601,-31.2665 -0.6923,7.63886 -15.9622,20.85222 -21.40922,24.02866 4.53468,-10.68166 12.32812,-25.48438 12.31532,-36.14583 -2.15093,3.48445 -13.41423,11.32282 -16.01302,13.1935"
       sodipodi:nodetypes="ccccccccccccccccc" />
    <path
       sodipodi:nodetypes="cscssssc"
       d="m 408.59123,197.33869 c -0.11061,-3.50729 14.65335,-6.21655 22.1233,-5.10739 27.34999,4.06098 25.33606,17.81177 40.04945,12.91558 2.76229,-0.91896 5.07182,-5.97574 6.05293,-6.41218 2.27195,-1.01074 4.79345,-0.66131 5.43092,1.94417 0.95407,3.8994 -3.08762,11.42516 -11.04291,14.04823 -15.38359,5.07239 -15.98261,-16.7133 -41.02825,-20.43212 -10.0649,-1.49446 -16.59706,2.45761 -21.58544,3.04371 z"
       style="fill:#000000;fill-opacity:1;fill-rule:evenodd;stroke:#313131;stroke-width:3.00000024;stroke-linecap:butt;stroke-linejoin:miter;stroke-miterlimit:4;stroke-dasharray:none;stroke-opacity:1"
       id="f33"
       inkscape:connector-curvature="0" />
    <path
       style="fill:#ffffff;fill-opacity:1;fill-rule:evenodd;stroke:#313131;stroke-width:3.00000024;stroke-linecap:butt;stroke-linejoin:miter;stroke-miterlimit:4;stroke-dasharray:none;stroke-opacity:1"
       d="m 177.43938,237.34464 c 8.5077,-3.97916 15.01025,-10.51087 21.74901,-16.56047 -3.10893,2.37238 -8.52454,7.90566 -9.21551,11.40653 -0.42133,2.13476 -1.66597,4.72025 -3.6346,4.753 -1.46142,0.0243 -3.23215,-1.18241 -4.50183,-1.10576 -1.26967,0.0766 -2.03827,1.43663 -4.39707,1.5067 l 0,0 z"
       id="f41"
       sodipodi:nodetypes="ccssscc"
       inkscape:connector-curvature="0" />
    <path
       style="fill:#ffffff;fill-opacity:1;fill-rule:evenodd;stroke:#313131;stroke-width:3.00000024;stroke-linecap:butt;stroke-linejoin:miter;stroke-miterlimit:4;stroke-dasharray:none;stroke-opacity:1"
       d="m 261.66919,117.89059 c 8.03511,4.86329 17.07863,6.64126 25.85251,8.88346 -3.69978,-1.267 -11.30926,-2.69589 -14.60402,-1.32546 -2.00909,0.83565 -4.85033,1.23716 -5.97125,-0.38152 -0.8321,-1.20164 -0.81251,-3.34436 -1.58162,-4.35748 -0.76907,-1.01315 -2.3269,-0.89664 -3.69562,-2.819 l 0,0 z"
       id="f42"
       sodipodi:nodetypes="ccssscc"
       inkscape:connector-curvature="0"
       inkscape:transform-center-x="-23.571429"
       inkscape:transform-center-y="-16.071429" />
    <path
       style="fill:#ffffff;fill-opacity:1;fill-rule:evenodd;stroke:#313131;stroke-width:3.00000024;stroke-linecap:butt;stroke-linejoin:miter;stroke-miterlimit:4;stroke-dasharray:none;stroke-opacity:1"
       d="m 433.65827,160.21707 c -9.28996,-1.38251 -17.38765,-5.78407 -25.57398,-9.65613 3.65717,1.38523 10.42797,5.14053 12.09038,8.29805 1.01371,1.92539 2.94519,4.04749 4.84109,3.5164 1.40745,-0.39427 2.75959,-2.05659 3.99825,-2.3459 1.23862,-0.28936 2.36376,0.79438 4.64426,0.18758 l 0,0 z"
       id="f43"
       sodipodi:nodetypes="ccssscc"
       inkscape:connector-curvature="0" />
    <path
       id="f28"
       style="fill:#000000;fill-opacity:1;fill-rule:evenodd;stroke:#313131;stroke-width:3;stroke-linecap:butt;stroke-linejoin:miter;stroke-miterlimit:4;stroke-dasharray:none;stroke-opacity:1"
       d="m 430.99515,472.23116 c -0.87267,2.07538 -5.11,3.34204 -7.04873,4.50892 -1.4114,-2.2825 -7.91303,-0.52569 -12.15594,2.56101 -0.23866,-5.85001 8.84146,-12.01649 19.20467,-7.06993 z"
       inkscape:connector-curvature="0"
       sodipodi:nodetypes="cccc" />
    <path
       sodipodi:nodetypes="cccc"
       id="f29"
       style="fill:#000000;fill-opacity:1;fill-rule:evenodd;stroke:#313131;stroke-width:3;stroke-linecap:butt;stroke-linejoin:miter;stroke-miterlimit:4;stroke-dasharray:none;stroke-opacity:1"
       d="m 424.03599,479.84648 c -1.15969,2.4284 -2.15761,6.88707 -2.88619,8.84535 -2.26524,-1.64774 -8.41242,-0.21923 -11.9331,5.56793 -3.35614,-7.45913 8.43659,-14.16717 14.81929,-14.41328 z"
       inkscape:connector-curvature="0" />
    <path
       sodipodi:nodetypes="cccc"
       id="f210"
       style="fill:#000000;fill-opacity:1;fill-rule:evenodd;stroke:#313131;stroke-width:3;stroke-linecap:butt;stroke-linejoin:miter;stroke-miterlimit:4;stroke-dasharray:none;stroke-opacity:1"
       d="m 422.33402,493.70697 c -0.21166,1.77556 2.99026,5.05217 3.21695,7.03291 -2.41005,-1.1805 -12.0807,-1.4518 -15.04718,1.58058 2.67029,-6.25838 6.17703,-8.06639 11.83023,-8.61349 z"
       inkscape:connector-curvature="0" />
    <path
       id="f211"
       style="fill:#000000;fill-opacity:1;fill-rule:evenodd;stroke:#313131;stroke-width:3;stroke-linecap:butt;stroke-linejoin:miter;stroke-miterlimit:4;stroke-dasharray:none;stroke-opacity:1"
       d="m 567.58532,474.3793 c -0.87267,2.07538 -1.61779,3.14552 -3.55652,4.3124 -1.4114,-2.2825 -11.40524,-0.32917 -15.64815,2.75753 -0.23866,-5.85001 8.84146,-12.01649 19.20467,-7.06993 z"
       inkscape:connector-curvature="0"
       sodipodi:nodetypes="cccc" />
    <path
       sodipodi:nodetypes="cccc"
       id="f212"
       style="fill:#000000;fill-opacity:1;fill-rule:evenodd;stroke:#313131;stroke-width:3;stroke-linecap:butt;stroke-linejoin:miter;stroke-miterlimit:4;stroke-dasharray:none;stroke-opacity:1"
       d="m 564.37091,480.78794 c -1.15969,2.42839 -2.15761,6.88706 -2.88619,8.84534 -2.26524,-1.64774 -8.41242,-0.21923 -11.9331,5.56793 -3.35614,-7.45913 8.43659,-14.16716 14.81929,-14.41327 z"
       inkscape:connector-curvature="0" />
    <path
       sodipodi:nodetypes="cccc"
       id="f213"
       style="fill:#000000;fill-opacity:1;fill-rule:evenodd;stroke:#313131;stroke-width:3;stroke-linecap:butt;stroke-linejoin:miter;stroke-miterlimit:4;stroke-dasharray:none;stroke-opacity:1"
       d="m 562.16386,493.38573 c -0.21166,1.77556 2.99026,5.05217 3.21695,7.03291 -2.41005,-1.1805 -12.0807,-1.4518 -15.04718,1.58058 2.67029,-6.25838 6.17703,-8.06639 11.83023,-8.61349 z"
       inkscape:connector-curvature="0" />
    <path
       style="fill:none;stroke:#313131;stroke-width:3;stroke-linecap:butt;stroke-linejoin:miter;stroke-opacity:1"
       d="m 275.42381,338.15543 c 4.10228,13.77483 4.37706,27.35829 34.34518,42.42641"
       id="l1"
       inkscape:connector-curvature="0"
       sodipodi:nodetypes="cc" />
  </g>
</svg>
