<?xml version="1.0" encoding="UTF-8" standalone="no"?>
<svg
   xmlns:dc="http://purl.org/dc/elements/1.1/"
   xmlns:cc="http://creativecommons.org/ns#"
   xmlns:rdf="http://www.w3.org/1999/02/22-rdf-syntax-ns#"
   xmlns:svg="http://www.w3.org/2000/svg"
   xmlns="http://www.w3.org/2000/svg"
   xmlns:sodipodi="http://sodipodi.sourceforge.net/DTD/sodipodi-0.dtd"
   xmlns:inkscape="http://www.inkscape.org/namespaces/inkscape"
   height="242.80266"
   width="162.92883"
   version="1.0"
   id="svg2"
   sodipodi:version="0.32"
   inkscape:version="0.91 r13725"
   sodipodi:docname="cerf_passant.svg"
   inkscape:export-filename="/Users/olivier/Desktop/Blason Rouge/Blason_Vide_3D.png"
   inkscape:export-xdpi="144"
   inkscape:export-ydpi="144"
   inkscape:output_extension="org.inkscape.output.svg.inkscape">
  <metadata
     id="metadata49">
    <rdf:RDF>
      <cc:Work
         rdf:about="">
        <dc:format>image/svg+xml</dc:format>
        <dc:type
           rdf:resource="http://purl.org/dc/dcmitype/StillImage" />
        <dc:title>Blason de Voiron( Isère)</dc:title>
        <dc:date>4 decembre 2007</dc:date>
        <dc:creator>
          <cc:Agent>
            <dc:title>Aups alias MG05</dc:title>
          </cc:Agent>
        </dc:creator>
        <cc:license
           rdf:resource="http://creativecommons.org/licenses/GPL/2.0/" />
        <dc:language>fr</dc:language>
        <dc:subject>
          <rdf:Bag>
            <rdf:li>blason projet wikipédia</rdf:li>
          </rdf:Bag>
        </dc:subject>
        <dc:source>http://www.gaso.fr/</dc:source>
      </cc:Work>
      <cc:License
         rdf:about="http://creativecommons.org/licenses/GPL/2.0/">
        <cc:permits
           rdf:resource="http://web.resource.org/cc/Reproduction" />
        <cc:permits
           rdf:resource="http://web.resource.org/cc/Distribution" />
        <cc:requires
           rdf:resource="http://web.resource.org/cc/Notice" />
        <cc:permits
           rdf:resource="http://web.resource.org/cc/DerivativeWorks" />
        <cc:requires
           rdf:resource="http://web.resource.org/cc/ShareAlike" />
        <cc:requires
           rdf:resource="http://web.resource.org/cc/SourceCode" />
      </cc:License>
    </rdf:RDF>
  </metadata>
  <sodipodi:namedview
     inkscape:window-height="723"
     inkscape:window-width="1024"
     inkscape:pageshadow="2"
     inkscape:pageopacity="0.0"
     guidetolerance="10.0"
     gridtolerance="50"
     objecttolerance="10.0"
     borderopacity="1.0"
     bordercolor="#666666"
     pagecolor="#ffffff"
     id="base"
     showgrid="false"
     height="660px"
     inkscape:zoom="30.780101"
     inkscape:cx="24.461457"
     inkscape:cy="176.8133"
     inkscape:window-x="57"
     inkscape:window-y="34"
     inkscape:current-layer="svg2"
     inkscape:showpageshadow="false"
     showguides="false"
     inkscape:guide-bbox="true"
     inkscape:object-paths="false"
     inkscape:grid-bbox="false"
     inkscape:grid-points="true"
     inkscape:window-maximized="0" />
  <desc
     id="desc4">Flag of Canton of Valais (Wallis)</desc>
  <defs
     id="defs6" />
  <path
     style="display:inline;fill:#ffffff;fill-opacity:1;fill-rule:evenodd;stroke:#000000;stroke-width:1.5;stroke-miterlimit:4;stroke-dasharray:none;stroke-opacity:1"
     d="m 49.233142,55.173409 c 0.354209,-0.329536 0.751111,-0.703166 1.207468,-1.118609 0.29998,-0.13051 1.13271,-0.83712 1.34539,-1.00741 1.78344,-1.14958 3.12301,-2.63974 7.37184,-3.19517 2.2506,-0.42492 4.7033,-0.48699 8.4855,0.78938 -3.52561,3.19569 -4.44352,6.32667 -9.54361,8.41363 -1.47341,0.8472 -3.2013,1.44029 -5.10061,1.85885 l 0.33278,1.61005 c 1.1655,5.21793 2.55427,11.03267 3.09391,16.4018 0.63645,5.49538 0.5518,10.91862 1.40093,16.37262 0.55181,2.55486 2.96965,10.7219 5.74927,13.17601 3.24412,3.9029 7.46809,5.31401 12.78138,6.25086 7.64854,0.76656 14.95848,1.95381 22.99111,2.42224 6.84068,0 13.72685,0.079 20.61037,0.12254 7.22318,0.25464 12.56134,2.0058 18.04393,5.33199 2.71987,1.74639 5.10855,3.46465 7.40464,6.23489 2.29398,2.76865 4.00283,5.63862 5.06728,9.26083 0.59307,2.72727 -0.20051,4.42644 -1.00837,6.72878 -0.45076,0.9846 -1.06869,1.61854 -1.75858,1.99784 l -1.14117,0.42652 c 0,2.76864 0.58513,6.18767 1.09356,8.99982 0.67983,3.96226 1.7464,7.28208 3.57534,10.77592 2.67596,5.11183 4.70118,7.7834 7.8882,11.02206 1.74218,1.53366 3.24469,2.23391 2.94684,4.83227 -0.50842,2.72726 -0.68405,4.87205 -0.72745,8.2375 -0.38039,4.6832 -0.20685,9.29372 -0.25025,13.98116 l 0.2111,11.92603 c 0.0413,3.23654 -0.11587,6.56698 0.6465,9.84702 0.72163,2.55539 -0.39679,2.66891 -1.54325,3.64927 -1.86862,2.21534 -1.01896,6.62692 -3.48435,9.56745 -0.701,0.94693 -4.26153,1.80097 -6.84702,1.86097 l -1.37237,-0.06 c -1.20254,-0.15755 -1.82259,-0.63235 -1.09937,-1.55647 l 3.32722,-4.00575 1.3602,-1.1517 c 0.54545,-0.83553 1.34909,-1.98776 1.53531,-3.02594 0.7211,-2.68324 0.89672,-5.74206 0.93802,-8.5123 l -0.17353,-18.02458 c -0.3386,-4.55906 -0.51425,-9.029 -1.49194,-13.46128 -1.23164,-4.17551 -2.84155,-8.03008 -5.09426,-11.31012 -2.59131,-3.19569 -5.85875,-5.89803 -8.66538,-7.98658 l -4.74541,-3.20803 c 0.14852,3.29771 0.01,7.30624 1.01663,10.38747 0.25448,1.65992 2.0977,3.26201 0.56662,5.81899 l -6.08624,10.473 -5.17309,9.255 -4.08959,8.93298 c -0.72111,3.32407 -2.29398,5.34048 -1.5295,10.1128 0.5518,2.55485 -0.41319,2.28165 -1.5168,2.41003 -2.24636,-0.16605 -1.93422,1.61005 -2.05643,2.72514 -0.3386,2.93841 -0.31162,4.90495 -1.71308,7.29217 -0.84913,2.17184 -9.48383,1.48963 -8.61777,-0.37294 1.16763,-1.95858 1.79403,-2.81214 2.34583,-5.11449 0.8904,-0.33155 2.99656,-0.42917 1.25439,-3.1994 l 2.50666,-6.44921 3.36055,-7.41418 4.89164,-11.708 c 1.57023,-4.51556 2.9262,-9.45392 3.86262,-14.22836 0.84913,-3.66359 0.85971,-5.019 0.30579,-8.59771 -0.72163,-3.74847 -1.44907,-7.20092 -3.53196,-10.69476 -0.56736,-0.87979 -1.03368,-2.15078 -1.92507,-3.66959 l -0.42796,-0.16874 c -4.36144,2.74758 -9.85593,4.47073 -14.96876,5.19483 2.03159,-2.5578 1.05799,-3.51034 1.10429,-4.25452 l -1.18708,-0.92345 c -4.278299,0.78559 -7.67314,0.85371 -11.63098,1.32103 -3.27167,0.16976 -6.62164,0.0541 -9.85152,0.0122 -5.73706,0 -11.0731,0.64668 -16.81017,0.30504 -0.8904,-0.27798 -1.9776,-0.54323 -2.90768,-0.70291 l -1.28137,-0.1549 -3.28966,15.23047 c -1.40147,5.28425 -0.4899,10.26611 -0.78776,15.21031 -0.66714,4.13202 -1.77498,4.76861 -2.2998,7.28209 -0.29786,3.02328 -0.24813,6.60199 -0.0354,10.1807 0.0831,4.72882 1.18879,8.55845 2.0813,12.94776 0.1693,0.80794 -0.0122,1.59731 0.92161,2.57767 -1.12635,0.78724 -1.86174,0.44349 -2.79816,0.87054 l -0.84914,7.92822 c -0.84966,1.7883 -2.60612,1.99148 -4.56097,2.67316 -1.80831,0.61538 -3.34416,1.06523 -5.556135,0.65808 -1.162855,-0.26446 -1.460185,-0.35145 -2.032625,-0.9212 2.08289,-2.22383 3.50075,-3.38402 5.213035,-7.41869 l 0.959975,-2.77899 c 0.8904,-5.24075 2.15325,-9.41626 2.02522,-15.59545 0.12591,-6.1776 -2.25272,-6.81791 -1.74218,-17.76942 l -0.22538,-5.82535 c -0.25394,-4.64394 -0.32007,-9.28788 -0.53117,-13.93341 -0.25394,-2.89703 -0.21691,-4.30018 -2.93836,-12.48358 l -1.5295,-0.27957 c -0.84966,-0.008 -1.63055,0.16976 -2.38909,-0.58476 -0.242358,0.038 -0.517976,0.11231 -0.797621,0.18521 -4.178732,1.0893 -9.25641,1.85066 -13.414769,2.0565 -7.26657,0.72307 -12.27406,1.80262 -16.09913,4.2726 -4.16418,4.68744 -4.05679,10.42155 -3.07698,15.57741 0.67772,2.72462 1.55384,5.98238 4.69906,7.55954 1.98025,0.26896 1.5131,0.19893 0.88881,2.43868 -0.46715,3.19569 1.14276,4.61901 2.41778,5.17231 0.38251,0.21167 0.91156,0.25941 1.20889,1.06948 0.19681,3.66995 0.16983,6.17123 -1.10308,8.98284 -0.66343,0.79203 -1.18032,0.0398 -1.7919,-0.17188 L 9.55558,207.93284 C 6.62303,204.5207 4.31689,200.17543 2.62232,196.35216 1.72716,193.02809 2.46731,190.18889 2.04142,186.73697 1.83086,184.39324 0.932,182.06809 0.88808,179.17107 L 0.75,169.36118 c 0.63645,-3.36545 2.20722,-4.66039 6.20158,-6.96061 4.67472,-2.72727 11.7778,-5.18504 16.28323,-8.21045 0.327984,-0.27481 2.055251,-0.97247 3.970387,-3.98004 l 0.03079,-0.60259 3e-4,10e-6 c -0.338509,-2.18753 -1.599134,-6.10637 -2.836867,-9.84298 -0.801623,-4.70695 -2.575923,-9.14387 3.085527,-17.75456 -4.23455,5.31078 -8.67808,3.75696 -9.50446,5.70652 -1.19783,-10.63932 1.70253,-9.39606 8.87171,-19.82719 -5.40217,3.75695 -9.45261,3.84024 -11.06041,6.79721 2.7201,-12.25354 0.94099,-15.1991 9.67354,-19.95373 -1.80037,0.13687 -9.14025,2.66919 -11.56438,5.59115 -2.37942,-1.86284 0.0563,-5.68029 1.40305,-7.62373 1.86809,-2.42913 3.27802,-3.54582 5.70003,-5.93091 2.61618,-3.13522 5.29055,-6.87573 7.22689,-10.99926 l 0.5518,-1.07584 C 27.3093,73.92337 25.83377,73.15257 24.35771,72.37964 20.95853,70.93086 17.25092,69.61523 12.91532,69.65873 10.28222,69.4041 7.00261,70.12079 5.17579,69.86616 3.83834,69.86616 3.56587,68.32189 2.8008217,66.285849 1.9306287,65.632083 1.49727,65.506899 1.49727,64.96121 1.0735,63.59731 1.31739,63.18512 1.65599,61.73634 2.71833,59.69129 3.3696,58.46055 7.64541,58.03986 c 7.18139,-0.0833 11.93018,-1.60421 17.07206,-3.18084 3.69544,-0.98035 5.83229,-2.5469 11.69739,-2.20526 0.227186,-0.503575 0.650258,-0.819611 1.151709,-0.991713 l 0.847144,-1.638033 C 38.146691,48.784505 37.215808,47.261133 34.82563,46.38636 32.48827,45.87656 30.54347,44.7535 28.92932,42.2379 c -1.74218,-2.25884 -3.14311,-4.271 -3.86421,-7.93459 -0.58937,-2.17184 -0.0519,-4.27313 1.63636,-2.36653 0.64492,0.93473 1.11419,1.87741 1.70938,2.94265 1.65752,2.72726 3.6473,5.49962 6.02804,7.67359 1.36602,1.48962 3.36055,4.35163 8.6511,3.0254 2.50667,-0.46842 4.91861,-2.71453 6.31955,-5.01476 1.23164,-2.38509 0.80628,-5.02112 0.89516,-7.40622 -0.29574,-2.94052 -0.29997,-5.71766 -1.87232,-8.10276 -0.42378,-1.70341 0.36981,-2.02648 1.55806,-0.783 2.03952,2.00155 2.56063,3.55165 3.24259,5.76911 0.50842,4.13202 0.80786,8.51496 0.34071,12.86023 1.01894,0.0414 2.10405,0.25092 3.12512,0.25092 3.99436,0.21114 7.42739,-0.42492 10.86995,-1.53365 3.22828,-0.97823 5.09056,-1.78618 6.83431,-3.49171 1.57078,-1.31987 3.05054,-3.69489 3.9002,-5.73994 0.67771,-2.13047 0.76872,-4.22538 1.27924,-6.52773 0.38198,-1.57715 1.86175,-3.03389 2.96325,-0.39787 0.3079,2.21534 -0.0804,3.52513 -0.84543,5.86832 -0.46663,1.3204 -3.25686,7.7399 -5.33763,11.0226 1.14064,1.26417 5.78627,0.28806 7.52844,-0.52042 1.40094,-0.89282 3.42034,-2.12197 4.86465,-3.05829 1.27343,-1.19149 2.34583,-2.46627 3.65207,-4.55694 1.35966,-2.79358 1.82893,-4.84288 0.51053,-9.48894 -1.27343,-4.38877 -3.22828,-8.01735 -4.80117,-12.15149 -0.1693,-2.02648 0.40737,-3.72406 3.26532,-1.3326 0.97769,2.21534 2.00036,4.09488 2.80875,6.4386 1.61415,3.11029 2.50454,6.51287 3.77956,9.66719 1.02531,2.94212 3.71397,2.86573 5.44556,-0.45835 1.52951,-3.0254 2.16596,-6.89641 2.37651,-9.87832 0.0418,-5.32562 0.55604,-9.60034 1.19462,-14.37319 0.7957,-1.42756 1.20888,-3.39622 2.96376,-0.0493 0.85336,3.57659 0.83061,5.854 0.43171,11.01199 -0.93378,4.00522 -1.87233,7.50542 -2.21092,11.8942 -1.05017,3.30762 0.69835,4.15111 2.48391,3.46889 2.08077,-1.10661 2.96165,-2.33523 3.93669,-3.57022 2.12469,-2.85352 3.27802,-5.54737 4.93925,-8.69903 1.03113,-0.95967 2.3707,-0.78354 1.85169,2.66042 -1.65752,4.51556 -3.87056,8.1521 -8.24795,12.37111 -2.08289,1.80739 -0.77665,3.95589 1.81677,3.16228 3.14311,-0.76657 5.21806,-2.25832 7.72684,-3.40843 0.97769,-0.5533 2.05008,-1.32411 2.86853,0.52413 -0.12591,1.53366 -0.64068,2.07211 -3.83564,3.72566 -7.05336,2.47051 -11.30854,2.21746 -18.44655,2.98402 -5.86297,1.15011 -9.42985,1.96071 -15.6362,5.02961 -3.78168,1.40475 -6.12751,3.27845 -10.97363,4.2169 -3.61028,-0.0414 -9.72561,-1.23711 -14.69767,-1.45037 -5.94763,-0.42493 -8.40084,-0.3236 -15.423046,6.135233 0.910758,1.09559 1.46995,1.44948 1.785036,2.100787 z"
     id="f101"
     inkscape:connector-curvature="0" />
  <path
     style="display:inline;fill:#ffffff;fill-opacity:1;fill-rule:evenodd;stroke:#000000;stroke-width:1.5;stroke-miterlimit:4;stroke-dasharray:none;stroke-opacity:1"
     d="m 147.73453,145.4882 c -0.0958,-2.45156 -1.04955,-3.62047 -2.18636,-4.20521 0.91326,1.92551 1.25408,3.43574 1.14991,4.95903"
     id="l125"
     inkscape:connector-curvature="0" />
  <path
     style="fill:#ffffff;fill-opacity:1;fill-rule:evenodd;stroke:#000000;stroke-width:1.5;stroke-miterlimit:4;stroke-dasharray:none;stroke-opacity:1"
     d="M 3.7306473,66.960533 C 5.4197598,67.465801 7.5762056,67.444538 8.1482276,66.421046 5.4574571,66.740396 5.0779113,67.48242 3.3918213,66.25963"
     id="l101"
     inkscape:connector-curvature="0" />
  <path
     style="fill:#ffffff;fill-opacity:1;fill-rule:evenodd;stroke:#000000;stroke-width:1.5;stroke-miterlimit:4;stroke-dasharray:none;stroke-opacity:1"
     d="m 52.324298,61.033452 c -1.410988,0.26388 -2.49603,0.587584 -2.689428,1.355928 1.546237,-0.327287 2.415526,-0.474076 2.952235,-0.387496"
     id="l102"
     inkscape:connector-curvature="0" />
  <path
     style="fill:#ffffff;fill-opacity:1;fill-rule:evenodd;stroke:#000000;stroke-width:1.5;stroke-miterlimit:4;stroke-dasharray:none;stroke-opacity:1"
     d="m 28.818123,75.872268 c 2.645517,0.387039 3.509077,-0.558582 3.424077,-1.822638 -1.055426,0.63525 -1.779005,0.916078 -2.413065,0.913706 -0.08075,-3.02e-4 -0.160048,-0.0052 -0.238395,-0.01454"
     id="l103"
     inkscape:connector-curvature="0" />
  <path
     style="fill:#ffffff;fill-opacity:1;fill-rule:evenodd;stroke:#000000;stroke-width:1.5;stroke-miterlimit:4;stroke-dasharray:none;stroke-opacity:1"
     d="m 38.183285,51.523626 c 0.519836,-0.06324 1.069234,-0.01094 1.546091,0.119013 0.25448,2.55698 2.43894,1.65143 4.94772,0.57187 0.278444,0.268642 0.596329,0.473287 0.927823,0.64928 0.02405,0.01277 0.04818,0.02539 0.07237,0.03787"
     id="l104"
     inkscape:connector-curvature="0" />
  <path
     style="display:inline;fill:#ffffff;fill-opacity:1;fill-rule:evenodd;stroke:#000000;stroke-width:1.5;stroke-miterlimit:4;stroke-dasharray:none;stroke-opacity:1"
     d="m 27.90742,149.82416 11.720736,13.70953"
     id="l105"
     inkscape:connector-curvature="0" />
  <path
     style="display:inline;fill:#ffffff;fill-opacity:1;fill-rule:evenodd;stroke:#000000;stroke-width:1.5;stroke-miterlimit:4;stroke-dasharray:none;stroke-opacity:1"
     d="m 149.95618,241.28207 c 0.022,-0.70384 0.36629,-1.54307 0.53124,-1.90131 -0.80552,-0.14031 -1.27184,0.92046 -1.62996,2.01888"
     id="l106"
     inkscape:connector-curvature="0" />
  <path
     style="display:inline;fill:#ffffff;fill-opacity:1;fill-rule:evenodd;stroke:#000000;stroke-width:1.5;stroke-miterlimit:4;stroke-dasharray:none;stroke-opacity:1"
     d="m 151.65519,236.38794 c 0.81252,-0.008 1.83392,-0.22286 2.1822,-0.77417 -0.36087,-10e-4 -0.91773,0.0368 -1.27363,-0.15831"
     id="l107"
     inkscape:connector-curvature="0"
     sodipodi:nodetypes="ccc" />
  <path
     style="display:inline;fill:none;fill-opacity:1;fill-rule:evenodd;stroke:#000000;stroke-width:1.5;stroke-miterlimit:4;stroke-dasharray:none;stroke-opacity:1"
     d="m 134.5238,169.75369 0.2042,-0.44941 -4.32832,-4.00565 c -4.44543,-2.51214 -8.30238,-7.01906 -11.97681,-4.80908 -4.21862,0.76377 -11.04353,2.73011 -14.30672,4.53145"
     id="l108"
     inkscape:connector-curvature="0"
     sodipodi:nodetypes="ccccc" />
  <path
     style="display:inline;fill:#ffffff;fill-opacity:1;fill-rule:evenodd;stroke:#000000;stroke-width:1.5;stroke-miterlimit:4;stroke-dasharray:none;stroke-opacity:1"
     d="m 61.969193,165.42221 c 0.33512,-2.09923 0.331371,-4.42622 -0.04705,-5.06002 -0.1995,1.22177 -0.77127,3.10046 -1.172194,4.7596"
     id="l110"
     inkscape:connector-curvature="0" />
  <path
     style="display:inline;fill:#ffffff;fill-opacity:1;fill-rule:evenodd;stroke:#000000;stroke-width:1.5;stroke-miterlimit:4;stroke-dasharray:none;stroke-opacity:1"
     d="m 44.149913,241.5355 c 0.248515,-0.50382 0.578097,-1.24041 0.400257,-1.78971 -0.417295,0.59095 -0.913742,1.37803 -1.307409,1.73084"
     id="l111"
     inkscape:connector-curvature="0" />
  <path
     style="display:inline;fill:#ffffff;fill-opacity:1;fill-rule:evenodd;stroke:#000000;stroke-width:1.5;stroke-miterlimit:4;stroke-dasharray:none;stroke-opacity:1"
     d="m 46.824658,233.89518 c 1.291928,-0.52304 2.639168,-2.24849 2.326162,-2.29777 -0.718173,0.46966 -1.437549,1.05285 -1.967483,1.23777"
     id="l112"
     inkscape:connector-curvature="0"
     sodipodi:nodetypes="ccc" />
  <path
     style="display:inline;fill:#ffffff;fill-opacity:1;fill-rule:evenodd;stroke:#000000;stroke-width:1.5;stroke-miterlimit:4;stroke-dasharray:none;stroke-opacity:1"
     d="m 9.904335,207.84055 c -0.08385,-1.10446 0.039795,-1.55838 0.244315,-2.48856 -0.5696792,0.0196 -0.8512325,0.57031 -0.9561317,1.6745"
     id="l113"
     inkscape:connector-curvature="0" />
  <path
     style="display:inline;fill:#ffffff;fill-opacity:1;fill-rule:evenodd;stroke:#000000;stroke-width:1.5;stroke-miterlimit:4;stroke-dasharray:none;stroke-opacity:1"
     d="m 43.499237,163.93291 c -0.541897,-1.03658 -1.114359,-2.11619 -1.164217,-3.35321 -0.513541,0.92492 -0.306467,2.13956 -0.04313,3.24342"
     id="l114"
     inkscape:connector-curvature="0" />
  <path
     inkscape:connector-curvature="0"
     id="l115"
     d="m 156.47632,182.86043 c 1.59139,0.64667 2.02522,2.39146 2.60612,6.17547 0.22485,-1.53153 0.34282,-7.95316 -2.60612,-6.17547 z"
     style="display:inline;fill:#ffffff;fill-opacity:1;fill-rule:evenodd;stroke:#000000;stroke-width:1.5;stroke-miterlimit:4;stroke-dasharray:none;stroke-opacity:1"
     sodipodi:nodetypes="ccc" />
  <path
     style="display:inline;fill:#ffffff;fill-opacity:1;fill-rule:evenodd;stroke:#000000;stroke-width:1.5;stroke-miterlimit:4;stroke-dasharray:none;stroke-opacity:1"
     d="m 58.61609,55.78527 c -0.0286,-0.0271 0.88881,-0.78142 1.51098,-0.8228 3.4907,-1.71562 3.4616,-3.19569 0.15713,-2.30446 -1.67181,0.24031 -7.59722,4.78717 -8.90716,5.193 -1.06869,0.98247 1.4258,0.73579 1.86386,0.53686 -0.54546,0.27957 -1.07874,0.6403 -1.77921,0.73579 -1.86809,0.55331 -1.5295,-1.3204 -0.67772,-1.70341 2.76061,-0.63819 5.86298,-3.749 9.26268,-5.32563 2.59131,-0.89335 3.99436,-0.0414 3.1865,1.31987 -0.67772,1.27637 -2.2506,1.66204 -3.48435,2.00155 -0.7793,0.40848 -0.97558,0.62386 -1.06816,1.1273 -0.2111,-0.27957 -0.31215,-0.24615 -0.0624,-0.75807 l -0.002,0 z"
     id="l122"
     inkscape:connector-curvature="0" />
  <path
     style="display:inline;fill:#ffffff;fill-opacity:1;fill-rule:evenodd;stroke:#000000;stroke-width:1.5;stroke-miterlimit:4;stroke-dasharray:none;stroke-opacity:1"
     d="m 7.46553,61.28489 c 0.7502,-0.83924 0.73169,-1.38459 0.0476,-1.23286 -1.15546,0.76656 -2.22362,1.48326 -3.23676,2.27104 -0.71052,-0.23024 -0.59518,0.86417 -0.35129,1.17716 -0.64439,0.13846 -0.73962,-0.49972 -0.35711,-1.52145 1.44432,-0.59468 2.46328,-1.53313 3.7383,-2.30022 1.99612,-0.3809 1.10361,1.2769 0.15924,1.60633 z"
     id="l116" />
  <path
     style="fill:#ffffff;fill-opacity:1;stroke:#000000;stroke-width:1.5;stroke-miterlimit:4;stroke-dasharray:none;stroke-opacity:1"
     d="m 32.014883,57.977268 a 1.1976256,1.2484339 0 0 1 -1.197626,1.248434 1.1976256,1.2484339 0 0 1 -1.197626,-1.248434 1.1976256,1.2484339 0 0 1 1.197626,-1.248434 1.1976256,1.2484339 0 0 1 1.197626,1.248434 z"
     id="f202"
     inkscape:connector-curvature="0" />
  <path
     inkscape:connector-curvature="0"
     style="display:inline;fill:none;fill-rule:evenodd;stroke:#000000;stroke-width:1.5;stroke-linecap:butt;stroke-linejoin:miter;stroke-miterlimit:4;stroke-dasharray:none;stroke-opacity:1"
     d="m 26.54649,60.44479 c 1.15208,-3.9876 1.04945,-4.05337 3.80147,-4.05145 2.75203,0.002 8.35872,0.0715 8.35872,0.0715 0,0 -4.0853,1.28102 -6.07116,2.54032 -1.98586,1.2593 -1.50838,1.52652 -6.08903,1.43962 z"
     id="f201"
     sodipodi:nodetypes="cszsc" />
  <path
     inkscape:connector-curvature="0"
     id="l119"
     d="m 132.1414,181.42201 c 0.13862,3.09596 -0.25236,3.89753 -1.56653,7.52823 1.24011,-1.03818 3.26109,-4.66675 1.56653,-7.52823 z"
     style="display:inline;fill:#ffffff;fill-opacity:1;fill-rule:evenodd;stroke:#000000;stroke-width:1.5;stroke-miterlimit:4;stroke-dasharray:none;stroke-opacity:1"
     sodipodi:nodetypes="ccc" />
  <path
     sodipodi:nodetypes="ccscscsc"
     style="display:inline;fill:#ffffff;fill-opacity:1;fill-rule:evenodd;stroke:#000000;stroke-width:1.5;stroke-miterlimit:4;stroke-dasharray:none;stroke-opacity:1"
     d="m 61.261278,103.43912 c 0.50831,5.78854 2.58799,10.39719 -3.00349,18.05262 -0.9091,-8.59313 -3.60085,-12.95007 -4.94627,-12.28034 -1.34542,0.66972 0.80034,11.48075 -5.77764,17.21967 0.68149,-8.61504 -2.74111,-13.55782 -4.66398,-12.71794 -1.92287,0.83986 -0.53116,10.59715 -9.68967,18.51314 -0.0842,-13.69746 0.77097,-12.20648 -1.59448,-9.946 -2.71272,2.59233 -6.03271,6.73994 -8.72918,9.81405"
     id="l120"
     inkscape:connector-curvature="0" />
  <path
     style="fill:none;fill-rule:evenodd;stroke:#000000;stroke-width:1px;stroke-linecap:butt;stroke-linejoin:miter;stroke-opacity:1"
     d="m 118.17547,165.08417 7.02332,-3.34832"
     id="l121"
     inkscape:connector-curvature="0" />
  <path
     style="display:inline;fill:#ffffff;fill-opacity:1;fill-rule:evenodd;stroke:#000000;stroke-width:1.5;stroke-miterlimit:4;stroke-dasharray:none;stroke-opacity:1"
     d="m 47.551154,55.308939 c -0.647577,0.497342 -1.040095,0.854614 -1.997944,1.439701 1.213176,0.431989 1.924914,0.01598 3.170705,-1.10721"
     id="l126"
     inkscape:connector-curvature="0" />
</svg>
