<?xml version="1.0" encoding="UTF-8" standalone="no"?>
<!-- Created with Inkscape (http://www.inkscape.org/) -->

<svg
   xmlns:dc="http://purl.org/dc/elements/1.1/"
   xmlns:cc="http://creativecommons.org/ns#"
   xmlns:rdf="http://www.w3.org/1999/02/22-rdf-syntax-ns#"
   xmlns:svg="http://www.w3.org/2000/svg"
   xmlns="http://www.w3.org/2000/svg"
   xmlns:sodipodi="http://sodipodi.sourceforge.net/DTD/sodipodi-0.dtd"
   xmlns:inkscape="http://www.inkscape.org/namespaces/inkscape"
   version="1.0"
   width="498.48962"
   height="468.81912"
   id="svg6188"
   sodipodi:version="0.32"
   inkscape:version="0.91 r13725"
   sodipodi:docname="cheval_cabre.svg"
   inkscape:output_extension="org.inkscape.output.svg.inkscape">
  <metadata
     id="metadata34">
    <rdf:RDF>
      <cc:Work
         rdf:about="">
        <dc:format>image/svg+xml</dc:format>
        <dc:type
           rdf:resource="http://purl.org/dc/dcmitype/StillImage" />
      </cc:Work>
    </rdf:RDF>
  </metadata>
  <sodipodi:namedview
     inkscape:window-height="723"
     inkscape:window-width="1024"
     inkscape:pageshadow="2"
     inkscape:pageopacity="0.0"
     guidetolerance="10.0"
     gridtolerance="10.0"
     objecttolerance="10.0"
     borderopacity="1.0"
     bordercolor="#666666"
     pagecolor="#ffffff"
     id="base"
     inkscape:zoom="3.5779747"
     inkscape:cx="66.836379"
     inkscape:cy="249.55389"
     inkscape:window-x="57"
     inkscape:window-y="34"
     inkscape:current-layer="svg6188"
     showgrid="false"
     inkscape:window-maximized="0" />
  <defs
     id="defs6190" />
  <path
     inkscape:connector-curvature="0"
     id="f116"
     style="color:#000000;display:inline;overflow:visible;visibility:visible;fill:#ffffff;fill-opacity:1;fill-rule:evenodd;stroke:#000000;stroke-width:2;stroke-linecap:butt;stroke-linejoin:miter;stroke-miterlimit:4;stroke-dasharray:none;stroke-dashoffset:0;stroke-opacity:1;marker:none;marker-start:none;marker-mid:none;marker-end:none;enable-background:accumulate"
     d="m 1,246.34706 3.25494,8.83484 11.384793,-3.42171 6.01441,-9.62482 z"
     sodipodi:nodetypes="ccccc" />
  <path
     inkscape:connector-curvature="0"
     id="f117"
     style="color:#000000;display:inline;overflow:visible;visibility:visible;fill:#ffffff;fill-opacity:1;fill-rule:evenodd;stroke:#000000;stroke-width:2;stroke-linecap:butt;stroke-linejoin:miter;stroke-miterlimit:4;stroke-dasharray:none;stroke-dashoffset:0;stroke-opacity:1;marker:none;marker-start:none;marker-mid:none;marker-end:none;enable-background:accumulate"
     d="m 9.8753868,223.5188 c -2.38308,6.21926 -6.1229368,14.1279 -8.6938568,22.26693 9.85299,-0.9007 11.954598,-0.73218 21.254428,-3.929 l 8.274181,-12.97176 C 25.34006,224.34028 18.224641,222.84993 9.8753868,223.5188 Z"
     sodipodi:nodetypes="ccccc" />
  <path
     inkscape:connector-curvature="0"
     id="f110"
     style="color:#000000;display:inline;overflow:visible;visibility:visible;fill:#ffffff;fill-opacity:1;fill-rule:evenodd;stroke:#000000;stroke-width:2;stroke-linecap:butt;stroke-linejoin:miter;stroke-miterlimit:4;stroke-dasharray:none;stroke-dashoffset:0;stroke-opacity:1;marker:none;marker-start:none;marker-mid:none;marker-end:none;enable-background:accumulate"
     d="m 289.94119,454.56686 0,7.20737 18.49693,0 c 0.92526,-1.63081 2.75687,-3.76141 3.30958,-6.50988"
     sodipodi:nodetypes="cccc" />
  <path
     inkscape:connector-curvature="0"
     id="f107"
     style="color:#000000;display:inline;overflow:visible;visibility:visible;fill:#ffffff;fill-opacity:1;fill-rule:evenodd;stroke:#000000;stroke-width:2;stroke-linecap:butt;stroke-linejoin:miter;stroke-miterlimit:4;stroke-dasharray:none;stroke-dashoffset:0;stroke-opacity:1;marker:none;marker-start:none;marker-mid:none;marker-end:none;enable-background:accumulate"
     d="m 306.49292,434.20245 c -4.3593,5.46365 -12.71554,11.64582 -16.31923,20.59691 9.00541,-0.43024 13.09041,-0.13454 21.66675,0 3.9081,-7.82772 9.3413,-10.89485 8.58569,-12.75482 -3.44115,-3.4162 -8.25897,-5.91461 -13.93321,-7.84209 z"
     sodipodi:nodetypes="ccccc" />
  <path
     inkscape:connector-curvature="0"
     d="m 113.04851,96.308054 c -4.06601,4.285786 -6.28359,8.118636 -14.71781,13.613246 2.4451,4.50558 1.363068,2.65906 3.47849,4.19755 9.47006,-4.79221 8.55212,-11.66202 11.23932,-17.810796 z"
     style="color:#000000;display:inline;overflow:visible;visibility:visible;fill:#ffffff;fill-opacity:1;fill-rule:evenodd;stroke:#000000;stroke-width:2;stroke-linecap:butt;stroke-linejoin:miter;stroke-miterlimit:4;stroke-dasharray:none;stroke-dashoffset:0;stroke-opacity:1;marker:none;marker-start:none;marker-mid:none;marker-end:none;enable-background:accumulate"
     id="f103"
     sodipodi:nodetypes="cccc" />
  <path
     d="m 283.04895,302.8367 c 0,0 2.15015,4.56894 7.62034,10.59731 10.53104,-3.79564 10.62557,-3.53515 18.84946,-3.27467 -1.60012,-6.14 -1.97144,-8.82566 -1.97144,-8.82566 -8.16612,0.50101 -16.33224,1.00201 -24.49836,1.50302 z"
     style="color:#000000;display:inline;overflow:visible;visibility:visible;fill:#ffffff;fill-opacity:1;fill-rule:evenodd;stroke:#000000;stroke-width:2;stroke-linecap:butt;stroke-linejoin:miter;stroke-miterlimit:4;stroke-dasharray:none;stroke-dashoffset:0;stroke-opacity:1;marker:none;marker-start:none;marker-mid:none;marker-end:none;enable-background:accumulate"
     id="f114"
     inkscape:connector-curvature="0"
     sodipodi:nodetypes="ccccc" />
  <path
     d="m 138.20156,16.220798 c -5.78274,-4.07813 -14.47926,-4.843308 -19.43189,-7.862318 -1.39113,1.24966 -5.11411,1.6190433 8.97593,10.336313 3.37552,-0.934467 6.40061,-2.219357 10.45596,-2.473995 z"
     style="color:#000000;display:inline;overflow:visible;visibility:visible;fill:#ffffff;fill-opacity:1;fill-rule:evenodd;stroke:#000000;stroke-width:2;stroke-linecap:butt;stroke-linejoin:miter;stroke-miterlimit:4;stroke-dasharray:none;stroke-dashoffset:0;stroke-opacity:1;marker:none;marker-start:none;marker-mid:none;marker-end:none;enable-background:accumulate"
     id="f113"
     inkscape:connector-curvature="0"
     sodipodi:nodetypes="cccc" />
  <path
     d="m 111.52298,174.4959 c 0,0 -12.34864,-14.59142 -25.3765,-13.73316 -9.8646,0.64987 -45.99916,24.70693 -65.97889,39.40821 -3.07123,2.25984 -5.59776,14.25562 -10.1506,22.98812 9.77741,-0.52246 15.2259,1.71664 21.79393,5.97094 5.0753,-6.79194 5.40301,-8.27153 8.06077,-11.64333 -0.32536,-2.73474 -2.64926,-5.7577 -1.49273,-7.16513 1.684,-2.04934 5.218413,-0.91403 10.207777,-3.90017 3.445424,-6.83284 11.490344,-12.25282 17.01005,-20.42472 4.918203,-1.96126 13.385324,-1.26567 17.360974,-2.52415 8.830154,0.0287 9.399583,-0.77258 19.764559,6.36454 z"
     style="color:#000000;display:inline;overflow:visible;visibility:visible;fill:#ffffff;fill-opacity:1;fill-rule:evenodd;stroke:#000000;stroke-width:2;stroke-linecap:butt;stroke-linejoin:miter;stroke-miterlimit:4;stroke-dasharray:none;stroke-dashoffset:0;stroke-opacity:1;marker:none;marker-start:none;marker-mid:none;marker-end:none;enable-background:accumulate"
     id="f104"
     inkscape:connector-curvature="0"
     sodipodi:nodetypes="csscccsccccc" />
  <path
     d="m 348.60523,350.64564 c 4.39545,5.57789 7.25806,11.60828 10.38883,19.70914 -7.04145,21.09368 -13.19005,28.02886 -21.98342,42.13489 -17.60792,9.31322 -23.17419,13.46484 -30.4104,21.61703 6.68662,3.02272 6.46983,1.82966 13.79764,8.97427 18.23932,-17.31097 -1.05531,-2.51587 33.77281,-23.38868 15.41365,-14.2766 24.69336,-40.40664 22.09942,-41.70362 -8.54409,-15.88976 -18.08912,-21.77005 -27.66488,-27.34303 z"
     style="color:#000000;display:inline;overflow:visible;visibility:visible;fill:#ffffff;fill-opacity:1;fill-rule:evenodd;stroke:#000000;stroke-width:2;stroke-linecap:butt;stroke-linejoin:miter;stroke-miterlimit:4;stroke-dasharray:none;stroke-dashoffset:0;stroke-opacity:1;marker:none;marker-start:none;marker-mid:none;marker-end:none;enable-background:accumulate"
     id="f115"
     inkscape:connector-curvature="0"
     sodipodi:nodetypes="cccccccc" />
  <path
     d="m 402.70138,242.64023 c 31.82527,20.05184 51.64577,78.25184 85.26209,46.00949 -12.54887,6.22864 -16.30437,3.02272 -24.91454,-0.73278 37.55501,-4.12189 22.8078,-34.89868 34.44069,-52.39382 -3.38911,-2.47313 -6.22864,-0.91598 -9.89254,1.46556 -4.03029,-22.8994 -20.42626,-28.85324 -25.28093,-50.56187 -3.38911,5.03787 -2.28994,2.10674 -4.39669,10.62532 -21.89183,-20.05987 -14.28923,-43.87525 -9.52615,-57.52329 -23.08259,7.96899 -23.90697,25.92212 -24.18176,54.22578 -7.96899,-10.90011 -7.05302,-20.33466 -5.12947,-32.97513 -31.41797,47.44755 27.20449,71.17132 28.94485,87.56729 -8.51858,16.76236 -35.41468,-6.71562 -54.83337,-18.07372 3.39996,4.23773 8.75721,9.45411 9.50782,12.36717 z"
     style="color:#000000;display:inline;overflow:visible;visibility:visible;fill:#ffffff;fill-opacity:1;fill-rule:evenodd;stroke:#000000;stroke-width:2;stroke-linecap:butt;stroke-linejoin:miter;stroke-miterlimit:4;stroke-dasharray:none;stroke-dashoffset:0;stroke-opacity:1;marker:none;marker-start:none;marker-mid:none;marker-end:none;enable-background:accumulate"
     id="f102"
     sodipodi:nodetypes="ccccccccccccc"
     inkscape:connector-curvature="0" />
  <path
     style="color:#000000;display:inline;overflow:visible;visibility:visible;fill:#ffffff;fill-opacity:1;fill-rule:evenodd;stroke:#000000;stroke-width:2;stroke-linecap:butt;stroke-linejoin:miter;stroke-miterlimit:4;stroke-dasharray:none;stroke-dashoffset:0;stroke-opacity:1;marker:none;marker-start:none;marker-mid:none;marker-end:none;enable-background:accumulate"
     d="m 140.55193,25.88821 c -2.63569,2.995106 -9.95588,-0.513858 -19.01199,6.6937 -7.1227,-2.92712 -1.59558,-1.24101 -9.21894,-7.09149 7.32891,-5.162102 16.21563,-7.792764 25.23549,-8.983137 6.16976,3.126976 7.25973,6.253952 2.99544,9.380927 z"
     id="f112"
     inkscape:connector-curvature="0"
     sodipodi:nodetypes="ccccc" />
  <path
     style="color:#000000;display:inline;overflow:visible;visibility:visible;fill:#ffffff;fill-opacity:1;fill-rule:evenodd;stroke:#000000;stroke-width:2;stroke-linecap:butt;stroke-linejoin:miter;stroke-miterlimit:4;stroke-dasharray:none;stroke-dashoffset:0;stroke-opacity:1;marker:none;marker-start:none;marker-mid:none;marker-end:none;enable-background:accumulate"
     d="m 156.51562,25.27818 c -0.87233,0.946185 -3.54306,-9.237532 -0.7557,-9.694447 7.11633,-1.166537 18.77687,1.678714 23.22112,2.106047 0,2.39338 0.88644,-0.26593 0,4.2549 5.90618,-0.22178 10.34603,-0.2477 17.77125,2.11681 -0.73713,2.15231 -2.27237,2.41465 -4.8027,4.59884 12.95026,-3.56278 38.99962,25.30066 47.93137,33.90972 -5.31127,-0.88627 -3.91283,0.40946 -8.73492,-0.75167 5.95148,4.31696 7.35977,14.74721 15.74136,19.66294 -3.85279,0.53327 0.61989,2.24877 -6.31855,1.46083 6.39157,5.78576 6.58057,16.17833 12.16372,19.49098 -2.45138,1.48662 -4.55991,1.97642 -10.28266,1.06372 17.43657,8.25308 0.35192,39.10033 15.06186,66.81871 -11.0057,-2.36318 -11.4118,4.79716 -22.44643,2.63375 6.88279,-67.89002 5.50309,-131.115725 -78.54972,-147.67113 z"
     id="f111"
     inkscape:connector-curvature="0"
     sodipodi:nodetypes="csccccccccccccc" />
  <path
     inkscape:connector-curvature="0"
     id="f108"
     style="color:#000000;display:inline;overflow:visible;visibility:visible;fill:#ffffff;fill-opacity:1;fill-rule:evenodd;stroke:#000000;stroke-width:2;stroke-linecap:butt;stroke-linejoin:miter;stroke-miterlimit:4;stroke-dasharray:none;stroke-dashoffset:0;stroke-opacity:1;marker:none;marker-start:none;marker-mid:none;marker-end:none;enable-background:accumulate"
     d="m 15.273,308.41783 5.8124,6.04489 28.13198,-31.38692 -6.74238,-6.04489" />
  <path
     inkscape:connector-curvature="0"
     id="f109"
     style="color:#000000;display:inline;overflow:visible;visibility:visible;fill:#ffffff;fill-opacity:1;fill-rule:evenodd;stroke:#000000;stroke-width:2;stroke-linecap:butt;stroke-linejoin:miter;stroke-miterlimit:4;stroke-dasharray:none;stroke-dashoffset:0;stroke-opacity:1;marker:none;marker-start:none;marker-mid:none;marker-end:none;enable-background:accumulate"
     d="m 12.57382,281.82256 c 0.92998,6.74238 -0.0581,19.93651 2.78995,26.737 7.03299,-8.54421 19.82025,-20.80836 28.13197,-30.22444 -4.476779,-5.13716 -5.030602,-5.12652 -9.710172,-7.01619 z"
     sodipodi:nodetypes="ccccc" />
  <path
     inkscape:connector-curvature="0"
     id="f105"
     style="color:#000000;display:inline;overflow:visible;visibility:visible;fill:#ffffff;fill-opacity:1;fill-rule:evenodd;stroke:#000000;stroke-width:2;stroke-linecap:butt;stroke-linejoin:miter;stroke-miterlimit:4;stroke-dasharray:none;stroke-dashoffset:0;stroke-opacity:1;marker:none;marker-start:none;marker-mid:none;marker-end:none;enable-background:accumulate"
     d="m 309.00584,460.37926 0,7.43986 41.15174,-0.46499 0,-6.74238" />
  <path
     inkscape:connector-curvature="0"
     id="f106"
     style="color:#000000;display:inline;overflow:visible;visibility:visible;fill:#ffffff;fill-opacity:1;fill-rule:evenodd;stroke:#000000;stroke-width:2;stroke-linecap:butt;stroke-linejoin:miter;stroke-miterlimit:4;stroke-dasharray:none;stroke-dashoffset:0;stroke-opacity:1;marker:none;marker-start:none;marker-mid:none;marker-end:none;enable-background:accumulate"
     d="m 322.72309,440.15213 c -4.3593,5.05678 -9.4742,11.62479 -13.71725,20.22713 12.49664,-0.2325 30.34069,-0.0581 41.38424,0.23249 -1.51122,-7.38174 -1.39498,-3.75237 -1.85997,-6.77481 -8.0663,-11.53018 -17.03831,-11.28605 -25.80702,-13.68481 z"
     sodipodi:nodetypes="ccccc" />
  <path
     style="color:#000000;display:inline;overflow:visible;visibility:visible;fill:#ffffff;fill-opacity:1;fill-rule:evenodd;stroke:#000000;stroke-width:2;stroke-linecap:butt;stroke-linejoin:miter;stroke-miterlimit:4;stroke-dasharray:none;stroke-dashoffset:0;stroke-opacity:1;marker:none;marker-start:none;marker-mid:none;marker-end:none;enable-background:accumulate"
     d="m 139.20802,247.96668 c 4.11564,-20.10333 -6.96493,-27.3057 -16.46256,-32.29196 -7.8511,-11.42635 -12.35373,-18.81025 -19.1774,-24.71143"
     id="l102"
     inkscape:connector-curvature="0" />
  <path
     style="color:#000000;display:inline;overflow:visible;visibility:visible;fill:#ffffff;fill-opacity:1;fill-rule:evenodd;stroke:#000000;stroke-width:2;stroke-linecap:butt;stroke-linejoin:miter;stroke-miterlimit:4;stroke-dasharray:none;stroke-dashoffset:0;stroke-opacity:1;marker:none;marker-start:none;marker-mid:none;marker-end:none;enable-background:accumulate"
     d="m 100.74497,188.70796 c -1.761243,-1.2992 -3.690152,-2.5357 -5.85923,-3.74225 -8.86446,-2.29526 -17.72892,-1.42465 -29.12608,1.26635 -18.99527,19.15356 -50.55136,62.26331 -53.18674,72.4986 -2.62493,10.19468 -1.26636,16.93745 -10e-6,23.74408 7.59811,-4.59052 12.98011,-7.12322 21.21139,-11.08057 0.63317,-16.30427 9.89336,-8.23128 11.71374,-4.74881 4.35308,-3.79905 4.35308,-6.25261 5.0654,-11.08058 0.71233,-4.82796 0,-2.29526 -1.58293,-6.64834 10.44739,-15.43365 19.30973,-32.36951 31.65877,-31.65877 11.00143,0.63317 12.84924,15.12887 17.41233,25.32702 3.78441,8.45785 23.65926,30.50622 30.07584,37.99053 4.58947,-0.068 8.54787,0.23744 13.61327,0 1.16434,-2.44189 2.39147,-4.56327 3.66179,-6.40331 l 1.84341,-0.81816 c 77.70584,30.86606 89.01245,31.59196 160.03069,27.84932 4.02667,13.38766 2.98904,23.49801 10.33616,29.53714 25.36883,20.85249 43.75304,17.63235 57.39346,46.80898 2.33294,4.99012 -9.76566,25.94967 -21.04026,41.67977 -19.84208,10.76143 -24.55607,14.02381 -31.73833,21.24065 17.45834,0.81668 19.30849,5.21086 27.32989,14.02685 4.50131,-16.14462 17.34352,-8.65358 18.83605,-1.80345 4.05259,-8.19023 7.92158,-12.2268 7.61457,-19.4372 12.1733,-21.29075 32.14612,-46.14053 41.07862,-65.72579 2.09671,-4.59722 -1.67777,-6.9603 -5.49111,-13.78457 -11.81354,-2.66417 -22.13682,-10.50532 -22.56258,-16.07258 -1.15727,-15.13236 20.09224,-37.65614 22.52371,-45.88782 8.68299,-29.39602 -10.86578,-61.43145 -36.78981,-77.70993 C 329.53346,185.6716 290.31439,215.89714 235.21892,171.62975 245.67216,89.6006 227.21399,36.15611 156.79044,25.48499 151.60143,21.43187 158.79897,18.14857 151.74949,12.02732 142.80915,5.90608 132.31063,7.43188 127.33194,1 c -2.55764,1.74478 -4.10797,2.62768 -3.06062,4.20836 3.88088,6.63176 12.09016,7.44886 16.8594,12.5861 4.66582,5.02586 1.81742,5.63329 0.24639,7.96289 -7.73088,0.23525 -19.29035,5.40576 -21.31415,7.76177 -13.90523,16.18782 -29.60232,34.03696 -42.46615,48.96998 -8.38571,9.73458 -2.46297,9.27752 -1.53031,16.45085 -1.68075,7.69602 0.335,9.95063 2.82176,14.15899 2.66098,3.68567 8.09746,2.28242 9.73868,-0.8101 1.64884,-3.10689 0.49054,-6.72824 2.43195,-7.95867 10.87096,-6.88981 18.57972,-12.66052 22.88282,-15.33725 -1.09794,10.04185 -2.80476,16.05649 -5.84465,20.48498 -2.43432,3.54632 -8.89309,5.0567 -10.01527,8.42033 -0.50964,1.52761 1.86982,3.84104 3.09836,3.96227 4.51721,0.44578 12.96007,-3.12082 14.8828,-4.34846 6.35016,-4.05446 6.00632,-8.40548 7.44321,-15.89405 7.36061,-4.70094 12.2425,-9.18187 12.2425,-9.18187 0,0 11.90259,1.19847 20.63917,-2.63764 6.07484,21.00682 -10.36502,39.1991 -17.9295,54.42824 -5.19848,1.03319 -10.41367,4.00083 -12.32841,6.48834 -8.95342,12.94856 -11.46928,18.20532 -23.21738,38.27413 z"
     id="f101" />
  <path
     style="color:#000000;display:inline;overflow:visible;visibility:visible;fill:#ffffff;fill-opacity:1;fill-rule:evenodd;stroke:#000000;stroke-width:2;stroke-linecap:butt;stroke-linejoin:miter;stroke-miterlimit:4;stroke-dasharray:none;stroke-dashoffset:0;stroke-opacity:1;marker:none;marker-start:none;marker-mid:none;marker-end:none;enable-background:accumulate"
     d="m 147.44637,271.48872 c 4.41186,-5.23195 9.19629,-7.50917 13.60621,-8.32583"
     id="l103"
     inkscape:connector-curvature="0" />
  <path
     d="m 110.74288,50.50335 c 9.09671,8.50949 14.2719,-14.43244 23.67879,-3.18878 -5.7268,1.75034 -8.55878,10.41016 -14.57932,11.13832 -3.62426,-0.56859 -6.66732,-4.65728 -9.09947,-7.94954 z"
     style="color:#000000;display:inline;overflow:visible;visibility:visible;opacity:1;fill:#ffffff;fill-opacity:1;fill-rule:evenodd;stroke:#000000;stroke-width:2;stroke-linecap:butt;stroke-linejoin:miter;stroke-miterlimit:4;stroke-dasharray:none;stroke-dashoffset:0;stroke-opacity:1;marker:none;marker-start:none;marker-mid:none;marker-end:none;enable-background:accumulate"
     id="f201"
     sodipodi:nodetypes="cccc"
     inkscape:connector-curvature="0" />
  <path
     d="m 127.5146,51.96188 c 4e-5,1.71893 -1.96582,3.11513 -4.3998,3.12482 -2.43397,0.01 -4.422,-1.37076 -4.4494,-3.08959 -0.0274,-1.71882 1.91611,-3.13054 4.34977,-3.15955 2.43367,-0.029 4.44355,1.33557 4.49831,3.05407 l -4.42362,0.0703 4.42474,0 z"
     style="fill:#000000;fill-opacity:1;stroke:#000000;stroke-width:2;stroke-miterlimit:4;stroke-dasharray:none;stroke-opacity:1"
     id="f202"
     inkscape:connector-curvature="0" />
  <path
     d="m 81.51719,89.81104 c 8.43423,-4.17591 10.90681,5.93417 2.41764,6.81331"
     style="color:#000000;display:inline;overflow:visible;visibility:visible;fill:#ffffff;fill-opacity:1;fill-rule:evenodd;stroke:#000000;stroke-width:2;stroke-linecap:butt;stroke-linejoin:miter;stroke-miterlimit:4;stroke-dasharray:none;stroke-dashoffset:0;stroke-opacity:1;marker:none;marker-start:none;marker-mid:none;marker-end:none;enable-background:accumulate"
     id="l104"
     inkscape:connector-curvature="0" />
  <path
     inkscape:connector-curvature="0"
     d="m 373.79564,333.86027 c 3.96298,7.53743 7.92596,12.35517 17.71685,21.75753 17.25061,0.69935 9.71318,13.36535 6.52726,18.3385"
     style="color:#000000;display:inline;overflow:visible;visibility:visible;fill:#ffffff;fill-opacity:1;fill-rule:evenodd;stroke:#000000;stroke-width:2;stroke-linecap:butt;stroke-linejoin:miter;stroke-miterlimit:4;stroke-dasharray:none;stroke-dashoffset:0;stroke-opacity:1;marker:none;marker-start:none;marker-mid:none;marker-end:none;enable-background:accumulate"
     id="l101" />
</svg>
