<?xml version="1.0" encoding="UTF-8" standalone="no"?>
<!-- Created with Inkscape (http://www.inkscape.org/) -->

<svg
   xmlns:dc="http://purl.org/dc/elements/1.1/"
   xmlns:cc="http://creativecommons.org/ns#"
   xmlns:rdf="http://www.w3.org/1999/02/22-rdf-syntax-ns#"
   xmlns:svg="http://www.w3.org/2000/svg"
   xmlns="http://www.w3.org/2000/svg"
   xmlns:sodipodi="http://sodipodi.sourceforge.net/DTD/sodipodi-0.dtd"
   xmlns:inkscape="http://www.inkscape.org/namespaces/inkscape"
   version="1.0"
   width="190"
   height="275"
   id="svg2185"
   inkscape:version="0.91 r13725"
   sodipodi:docname="dauphin.svg">
  <metadata
     id="metadata33">
    <rdf:RDF>
      <cc:Work
         rdf:about="">
        <dc:format>image/svg+xml</dc:format>
        <dc:type
           rdf:resource="http://purl.org/dc/dcmitype/StillImage" />
        <dc:title />
      </cc:Work>
    </rdf:RDF>
  </metadata>
  <sodipodi:namedview
     pagecolor="#ffffff"
     bordercolor="#666666"
     borderopacity="1"
     objecttolerance="10"
     gridtolerance="10"
     guidetolerance="10"
     inkscape:pageopacity="0"
     inkscape:pageshadow="2"
     inkscape:window-width="1233"
     inkscape:window-height="776"
     id="namedview31"
     showgrid="false"
     inkscape:zoom="10.918039"
     inkscape:cx="60.029566"
     inkscape:cy="216.52601"
     inkscape:window-x="47"
     inkscape:window-y="24"
     inkscape:window-maximized="1"
     inkscape:current-layer="svg2185" />
  <defs
     id="p" />
  <path
     style="fill:none;stroke:#000000;stroke-width:1.73628521"
     d="m 110.33375,266.18573 c -8.76224,1.75314 -19.995637,-3.7127 -20.493167,-13.46524 -1.731005,-26.90236 13.471867,-43.69176 27.406787,-63.06271 -2.49469,1.32572 -5.75442,-0.0276 -4.52151,-3.22411 -11.7549,7.13295 -25.03482,14.61155 -39.310754,12.43882 -7.655574,-0.74911 -15.40223,-1.74723 -22.581253,-4.7428 -5.693246,-2.02594 -11.254748,-4.72487 -15.149054,-9.51072 -4.99732,-5.3217 -9.087199,-11.48062 -14.595505,-16.32114 -2.730035,-4.44733 -9.26509,-3.87069 -13.4906675,-2.10927 -3.9875345,4.75017 6.7231295,1.43289 8.7722425,4.76116 5.692698,3.90764 8.603523,11.36947 7.450529,18.12603 -6.027203,4.1234 0.670121,9.87057 4.820981,11.99586 5.005903,2.3039 6.986604,7.56523 11.254878,10.61681 10.151058,7.15261 23.373756,5.48551 34.86252,3.3552 5.64008,-1.21079 -5.41481,4.91635 -7.727293,5.99887 -6.259127,3.25819 -13.321063,4.02936 -20.207182,4.72799 -3.666601,-0.0857 -8.872874,4.68182 -2.310211,4.40948 9.808653,-0.76406 17.770715,6.49501 22.602702,14.29195 1.666986,5.28517 4.947185,5.15581 9.134322,2.59018 5.408091,1.53721 7.500802,8.69283 11.119762,12.87732 3.266904,5.12014 7.7054,10.36032 14.080153,11.27851 3.37375,2.13347 13.00949,-0.39152 11.70392,-4.47546 -0.89272,-0.38745 -1.86528,-0.48513 -2.8222,-0.55673 z"
     id="f201"
     inkscape:connector-curvature="0"
     sodipodi:nodetypes="ccccccccccccccccccccccc" />
  <path
     style="fill:none;stroke:#000000;stroke-width:1.73628521"
     d="m 161.06804,245.46144 c -6.3871,-2.71021 -10.3628,-9.41129 -12.71289,-15.61916 -3.44003,-13.70415 -2.33546,-27.99229 -1.7863,-41.96633 -0.14883,-6.58582 3.51146,-12.7931 2.24811,-19.39512 -4.43815,4.99335 -9.07695,11.18349 -14.47829,15.8772 -8.37023,8.70255 -17.92225,16.24682 -26.0986,25.09845 2.07738,2.67254 10.52126,-2.26432 14.3213,2.34353 5.70587,0.39863 3.31013,12.93471 9.56201,6.64902 9.25576,-2.10658 12.23303,6.27134 13.40336,13.57874 1.01936,6.65135 5.02403,12.06096 10.90228,15.06192 1.53292,0.93277 9.85866,1.22213 4.63902,-1.62825 z"
     id="f202"
     inkscape:connector-curvature="0" />
  <path
     style="fill:none;stroke:#000000;stroke-width:1.73628521"
     d="m 186.07925,142.5623 c -5.52492,-4.51168 -10.58553,-9.83707 -13.69474,-16.32795 -0.79223,-1.71841 -2.18187,-3.0247 -3.20058,-4.57913 -1.2845,-2.16211 -2.1046,-4.55474 -2.87751,-6.93596 -0.42275,7.24475 -1.59754,14.44041 -3.61288,21.41512 -1.2045,4.25673 -2.45157,8.52386 -4.04385,12.64763 -0.72992,1.33741 -1.45984,2.67481 -2.18976,4.01222 1.53604,-0.55156 3.07207,-1.10312 4.60811,-1.65468 1.17026,-2.20746 3.42789,0.68341 4.52933,1.66975 1.34873,1.34928 2.69746,2.69855 4.04619,4.04783 -0.47211,1.24734 0.9224,3.70338 1.58959,1.34283 1.6743,-3.35137 1.60327,-7.18576 2.01491,-10.81828 0.8485,-2.17302 3.68679,-2.16828 5.10736,-3.74517 2.25864,-0.34249 4.44006,0.75325 6.6331,1.1555 1.11192,0.43193 4.31424,0.71651 2.42552,-1.06529 -0.42543,-0.41048 -0.93183,-0.73017 -1.33479,-1.16442 z"
     id="f203"
     inkscape:connector-curvature="0" />
  <path
     style="fill:none;stroke:#000000;stroke-width:1.73628497"
     d="m 91.038125,169.71614 c 0,1.90586 0,3.81172 0,5.71758 3.293731,0.25605 4.301249,2.81733 4.943527,5.54124 3.540368,-1.03152 6.276888,-5.00025 8.800738,-7.87543 2.02425,-3.91209 2.16113,-8.47838 3.57413,-12.62534 1.86665,-6.52305 3.9684,-13.03452 4.27885,-19.86855 0.9204,-5.52707 0.10593,-11.08273 -0.15932,-16.62322 -2.63945,8.46148 -3.74807,17.55027 -7.92719,25.43838 -3.13165,4.56618 -6.435844,9.02193 -10.058976,13.21216 -4.110587,2.31645 -8.451784,4.17969 -13.130258,4.92138 -1.884808,0.4229 -4.711329,0.86132 -0.873115,1.17559 3.474254,0.68703 7.00057,1.21332 10.551614,0.98621 z"
     id="f204"
     inkscape:connector-curvature="0" />
  <path
     id="f205"
     style="fill:none;stroke:#000000;stroke-width:1.73628521"
     d="m 88.182212,83.254332 c -4.546312,-1.802655 -8.881686,-4.268167 -13.72693,-5.196427 -4.432081,-1.09371 -8.75415,-2.663538 -12.830149,-4.701863 0.887097,1.410116 2.349252,2.666444 3.417348,4.052631 1.986073,2.363684 3.98853,4.759613 6.533843,6.547087 1.711895,1.607544 2.793297,3.923969 3.048721,6.255737 0.06352,3.020082 -0.250857,6.08948 -1.082668,8.999922 -0.362983,1.047931 -1.89501,3.327071 0.08243,2.233551 1.04132,-0.34654 2.08264,-0.69309 3.12396,-1.03963 2.142959,-2.247519 4.4646,-5.057113 4.144985,-8.36058 -0.371079,-2.607577 -0.7522,-5.245127 -0.533736,-7.884442 2.126209,1.407706 3.44155,3.628486 4.182795,6.013049 1.598824,3.854028 3.311614,7.724739 4.268603,11.787383 0.03092,2.06761 0.428832,4.31028 -0.296934,6.27436 -1.064559,1.91599 -2.129119,3.83198 -3.193678,5.74797 2.678372,-0.84688 5.477229,-1.71648 7.657155,-3.53632 1.133692,-1.73553 2.413826,-3.6591 2.375961,-5.81363 -0.06484,-3.79162 0.114315,-7.598804 -0.371051,-11.375657 -0.395645,-1.365239 0.219821,-3.211762 -1.002405,-4.201772 -1.932747,-1.933789 -3.865504,-3.867582 -5.798245,-5.801369 z"
     inkscape:connector-curvature="0" />
  <path
     style="fill:none;stroke:#000000;stroke-width:1.73628521"
     d="m 148.70495,67.282674 c 0.001,0.966486 0.69857,2.360479 2.40111,4.348172 10.57506,14.726567 18.69136,33.256334 14.06452,51.643724 -2.00421,17.0429 -9.65534,32.76869 -18.73382,47.06724 -14.24185,17.49497 -32.35971,31.94225 -48.389165,47.72781 5.626375,-11.78268 14.220455,-20.12623 19.526375,-29.60821 -4.21959,1.70692 -5.9079,-0.0913 -5.25537,-1.55017 -2.25229,0.93009 -11.22585,7.40956 -15.838991,7.54161 -6.848282,3.58826 -20.832899,5.80514 -24.277971,2.71013 10.94771,-2.7796 20.846344,-9.14435 27.186046,-18.59675 8.096416,-6.62602 8.027696,-17.46445 11.193466,-26.67254 4.03889,-15.33978 3.5628,-32.42103 -4.58181,-46.37715 C 101.67393,95.863332 94.403652,87.242815 85.656855,81.392037 76.878592,77.169758 66.919287,76.132985 58.504773,71.045943 47.412414,67.549696 35.52672,65.911429 23.870161,66.105052 c 4.117357,-9.989996 17.625248,-3.40157 25.836358,-3.822106 5.287593,0.98462 11.645795,1.685751 3.765476,-2.703147 -11.510527,-8.386692 -28.459102,-2.155971 -38.855259,-12.576497 -5.5481864,-11.80397 13.335857,1.348889 18.636941,-3.976049 11.64357,-1.540068 -2.199245,-11.98359 6.260264,-17.903415 4.059193,-4.422549 9.994186,-5.957168 15.566073,-8.023823 l 0.63033,0.03147 c 1.428965,0.313591 4.662851,0.440373 6.122065,0.502863 7.80723,-0.578291 15.418267,1.848071 22.543724,4.794725 9.667962,2.175756 17.147367,11.492159 17.300837,21.381902 0.16409,3.682383 -0.6248,7.638626 -3.577357,10.133796 -1.05965,1.776419 -5.560427,2.796242 -5.13738,3.830608 4.345154,1.268063 8.578977,-1.324457 12.496337,-2.914135 4.94054,-1.638612 6.74185,-7.662643 5.40845,-12.313919 -2.72642,-2.979648 0.67952,-6.103432 2.98117,-2.63596 5.77146,3.121273 8.85142,11.151138 5.33048,16.998508 -1.79627,3.333622 3.64807,0.512496 3.81085,-1.557157 1.76471,-4.597015 3.26337,1.343891 5.08434,2.882279 1.7388,1.975053 3.9873,4.712093 6.53976,4.94685 -0.0139,-3.054605 -5.49084,-6.062805 -2.5228,-9.092374 4.01234,4.535565 10.96649,9.736658 16.56835,11.988472 z"
     id="f101"
     inkscape:connector-curvature="0"
     sodipodi:nodetypes="ccccccccccccccccccccccccccccccccccccc" />
  <path
     style="fill:none;stroke:#000000;stroke-width:1.73628497"
     d="m 45.18802,35.780929 c 5.156081,-1.670622 9.470575,-5.29045 14.793598,-6.536725 3.426368,-1.181274 7.34516,-2.017785 10.741155,-0.266947 4.224134,1.571696 8.73019,3.869446 10.579715,8.255022 1.417231,2.871958 3.025939,6.510376 1.414196,9.6062 -2.208461,1.32997 -2.853844,-2.50858 -3.878055,-3.831387 -1.554207,-3.292188 -3.394349,-6.996754 -7.098588,-8.246867 -4.113738,-1.88548 -8.997111,-2.939222 -13.307082,-1.034804 -3.784321,1.124379 -7.53631,3.225565 -11.594196,2.751753 -0.563331,-0.201236 -1.084219,-0.502981 -1.650743,-0.696245 z"
     id="f206"
     inkscape:connector-curvature="0" />
  <path
     inkscape:connector-curvature="0"
     id="f301"
     d="m 67.358656,40.420297 a 5.1567694,4.6393507 0 0 1 -5.156769,4.639351 5.1567694,4.6393507 0 0 1 -5.15677,-4.639351 5.1567694,4.6393507 0 0 1 5.15677,-4.639351 5.1567694,4.6393507 0 0 1 5.156769,4.639351 z"
     style="fill:none;stroke:#000000;stroke-width:1.73628497" />
  <path
     inkscape:connector-curvature="0"
     id="f302"
     d="m 62.201887,39.131974 a 1.8040012,1.8039991 0 0 1 -1.804001,1.804 1.8040012,1.8039991 0 0 1 -1.804002,-1.804 1.8040012,1.8039991 0 0 1 1.804002,-1.803999 1.8040012,1.8039991 0 0 1 1.804001,1.803999 z"
     style="fill:none;stroke:#000000;stroke-width:1.73628497" />
  <path
     style="fill:none;stroke:#000000;stroke-width:1.73628497"
     d="m 71.996276,34.751313 c 0,0 1.574001,4.423636 1.031354,5.668967 -0.542648,1.245331 -2.215952,6.513671 -4.670626,6.951975 -2.454674,0.438304 -3.413029,0.308918 -5.123763,0.265757"
     id="l106"
     inkscape:connector-curvature="0"
     sodipodi:nodetypes="czzc" />
  <path
     style="fill:none;stroke:#000000;stroke-width:1.73628521"
     d="m 108.60094,63.104752 c 11.73914,9.329587 23.96407,20.156619 27.46124,35.416098 2.48486,9.06962 0.87289,18.5607 2.31247,27.78233 1.63489,8.62064 -4.2059,15.45914 -5.65161,23.58489 -1.55227,3.44158 -2.00271,6.9612 -2.46505,10.6604"
     id="l107"
     inkscape:connector-curvature="0" />
  <path
     style="fill:none;stroke:#000000;stroke-width:1.73628521"
     d="m 104.99293,81.667362 c 1.71835,1.54645 3.43669,3.0929 5.15504,4.63935 0.84145,2.216004 1.9617,4.31968 3.09832,6.383907 0.63995,1.628552 0.38701,3.610626 1.62275,4.960562 1.18259,1.346604 1.43522,3.117989 2.02371,4.739999 0.62505,1.81835 1.23197,3.65766 1.50779,5.56699"
     id="l108"
     inkscape:connector-curvature="0" />
  <path
     style="fill:none;stroke:#000000;stroke-width:1.73628521"
     d="m 39.517572,46.610052 c 4.424228,-0.391634 8.635422,1.295401 12.781721,2.572864 2.582382,-0.278583 4.694205,1.320791 6.485395,2.905779 2.777381,1.860283 5.63246,4.004394 7.140993,7.066661 0.918291,2.003044 0.285749,5.07407 -2.17996,5.499899"
     id="l109"
     inkscape:connector-curvature="0" />
  <path
     style="fill:none;stroke:#000000;stroke-width:1.73628521"
     d="m 42.095956,40.935882 c 4.560346,1.024884 8.915615,2.836093 13.03411,4.986655 2.497654,2.187371 5.688736,2.833756 8.584414,4.218744 1.595032,1.050555 3.350118,1.220608 5.191482,1.106391"
     id="l110"
     inkscape:connector-curvature="0" />
  <path
     style="fill:none;stroke:#000000;stroke-width:1.73628497"
     d="m 69.419628,55.885361 2.576648,2.580118 c 1.194568,1.196176 0.431057,3.33941 0.492747,5.033243 0.03204,0.879856 -1.026824,1.455302 -1.522322,2.186226"
     id="l111"
     inkscape:connector-curvature="0"
     sodipodi:nodetypes="cssc" />
  <path
     style="fill:none;stroke:#000000;stroke-width:1.73628521"
     d="m 74.059262,60.526372 c 2.635421,0.528747 5.320488,0.798322 7.977644,1.211275 1.233135,0.19389 2.497272,0.273935 3.642778,0.813793 1.493293,0.565935 3.033527,1.044108 4.490969,1.683063 0.644609,0.483456 1.289219,0.966913 1.933829,1.450369"
     id="l112"
     inkscape:connector-curvature="0" />
  <path
     style="fill:none;stroke:#000000;stroke-width:1.73628521"
     d="m 64.263127,67.745842 c 6.731773,0.977167 13.558066,0.348949 20.331121,0.495603 2.723481,-0.530868 5.112421,0.890782 6.983871,2.748474 3.210485,3.259123 6.950645,6.266915 11.564231,7.142659 2.14894,0.399687 4.33007,0.614181 6.48994,0.954668"
     id="l113"
     inkscape:connector-curvature="0" />
  <path
     style="fill:none;stroke:#000000;stroke-width:1.73628521"
     d="m 118.56756,155.56281 c -0.34378,2.57722 -0.68757,5.15445 -1.03135,7.73167 -2.21154,2.09282 -4.40181,4.5193 -5.0261,7.59667 -1.69532,3.05793 -5.12407,4.71707 -6.64271,7.9036 -0.74794,1.22463 -2.1185,1.81058 -3.2841,2.54493"
     id="l114"
     inkscape:connector-curvature="0" />
  <path
     style="fill:none;stroke:#000000;stroke-width:1.73628497"
     d="m 108.31134,151.26465 c -1.37466,3.09401 -2.7492,6.18808 -4.12368,9.28217 -2.06271,1.03078 -4.12541,2.06155 -6.188122,3.09233 -0.581498,0.88425 -1.026438,1.88074 -1.694957,2.69473 -0.809574,0.64821 -1.619149,1.29641 -2.428723,1.94462"
     id="l115"
     inkscape:connector-curvature="0" />
  <path
     style="fill:none;stroke:#000000;stroke-width:1.73628521"
     d="m 165.82894,121.8797 c 1.03077,1.71834 2.06155,3.43669 3.09232,5.15503 0.3187,-0.3614 0.36123,1.48744 0.5075,1.97719 0.49328,3.09903 0.57541,6.24061 0.52386,9.37227 0,1.54492 0,3.08984 0,4.63476 -0.55871,1.57957 -1.35896,3.10077 -1.6434,4.76006 -0.008,1.57468 0.56616,3.07296 1.12772,4.51864"
     id="l116"
     inkscape:connector-curvature="0" />
  <path
     style="fill:none;stroke:#000000;stroke-width:1.73628521"
     d="m 25.082092,190.44728 c 1.903862,4.89458 7.555954,4.33388 11.744604,6.13804 6.537663,2.24281 13.381655,3.17053 20.250902,3.48946 8.000644,1.52548 16.09415,2.0926 24.199404,2.74526"
     id="l117"
     inkscape:connector-curvature="0" />
  <path
     style="fill:none;stroke:#000000;stroke-width:1.73628521"
     d="m 67.358931,235.29897 c 3.194135,-5.44268 7.406242,-10.17589 11.909523,-14.5583 2.707021,-2.90331 5.293384,-5.92647 8.196678,-8.64019"
     id="l118"
     inkscape:connector-curvature="0" />
  <path
     style="fill:none;stroke:#000000;stroke-width:1.73628521"
     d="m 72.512232,238.39476 c 3.500954,-4.29594 5.540382,-9.58027 9.18329,-13.77993 2.388251,-3.15905 4.992205,-6.22113 8.254731,-8.5094 3.171251,-2.93705 5.093698,-6.95946 8.345431,-9.82496 3.021066,-3.43123 5.257196,-7.52297 8.650916,-10.62988 0.86025,-1.49597 1.43022,-3.13247 2.17175,-4.6859"
     id="l119"
     inkscape:connector-curvature="0" />
  <path
     style="fill:none;stroke:#000000;stroke-width:1.73628521"
     d="m 129.96484,214.45424 c -0.79875,-1.72945 -0.5259,-3.76117 -0.27725,-5.58897 1.29928,-6.25845 4.75704,-11.75787 6.93102,-17.7147 1.52835,-3.39815 3.14077,-6.7817 4.94729,-10.0348 0.42971,-0.57295 0.85942,-1.14589 1.28913,-1.71884"
     id="l120"
     inkscape:connector-curvature="0" />
  <path
     style="fill:none;stroke:#000000;stroke-width:1.73628521"
     d="m 81.792682,71.355572 c 5.950551,2.713895 12.230667,6.027954 16.768938,10.601928 3.50081,4.668908 7.20711,9.074025 10.26205,14.043584 2.6009,4.655186 3.51577,10.002256 6.10186,14.685476 2.83337,6.38194 5.09887,13.52617 2.95412,20.47183"
     id="l121"
     inkscape:connector-curvature="0" />
  <path
     style="fill:none;stroke:#000000;stroke-width:1.73628521"
     d="m 149.19369,66.898596 c -5.60186,-2.251814 -12.55601,-7.452907 -16.56835,-11.988472 -2.96804,3.029569 2.50886,6.037769 2.5228,9.092374 -2.55246,-0.234757 -4.80096,-2.971797 -6.53976,-4.94685 -1.82097,-1.538388 -3.31963,-7.479294 -5.08434,-2.882279 -0.16278,2.069653 -5.60712,4.890779 -3.81085,1.557157 3.52094,-5.84737 0.44098,-13.877235 -5.33048,-16.998508 -2.30165,-3.467472 -5.70759,-0.343688 -2.98117,2.63596 1.3334,4.651276 -0.46791,10.675307 -5.40845,12.313919 -3.91736,1.589678 -8.151184,4.182198 -12.496338,2.914135 -0.423047,-1.034366 4.07773,-2.054189 5.13738,-3.830608 2.952558,-2.49517 3.741448,-6.451413 3.577358,-10.133796 C 102.05802,34.741885 94.578614,25.425482 84.910652,23.249726 77.785195,20.303072 70.174158,17.87671 62.366929,18.455001 c -1.459214,-0.06249 -4.6931,-0.189272 -6.122065,-0.502863 l 0.212216,-1.379057 c 1.702392,-0.67472 3.352142,-1.427683 4.882721,-2.36051 9.538592,-1.955304 21.56017,1.046913 28.077177,-8.2069664 1.876339,5.9625374 -12.57971,11.2167074 -1.830109,9.7586294 10.773282,1.543728 21.625841,-3.023842 29.029661,-10.7524955 2.9969,7.8857725 -12.49651,12.0472385 -11.82474,15.8559725 10.02238,2.008268 20.10024,8.463146 30.52073,4.149922 4.41452,0.293751 12.97721,-12.599866 8.56575,-2.140507 -4.6519,8.044519 -14.45639,10.53961 -23.17716,9.955517 8.82397,5.152148 14.61124,13.962314 22.27149,20.550379 6.47827,7.175499 17.85383,11.553461 26.92245,6.85096 9.06737,-6.117746 -3.96992,9.819452 -9.60837,5.471887 -3.21656,-0.128723 -8.52843,-1.03847 -10.65728,0.113905 z"
     id="f207"
     inkscape:connector-curvature="0"
     sodipodi:nodetypes="ccccccccccccccccccccccccccccc" />
</svg>
