<?xml version="1.0" encoding="UTF-8" standalone="no"?>
<!-- Created with Inkscape (http://www.inkscape.org/) -->

<svg
   xmlns:i="http://ns.adobe.com/AdobeIllustrator/10.0/"
   xmlns:dc="http://purl.org/dc/elements/1.1/"
   xmlns:cc="http://creativecommons.org/ns#"
   xmlns:rdf="http://www.w3.org/1999/02/22-rdf-syntax-ns#"
   xmlns:svg="http://www.w3.org/2000/svg"
   xmlns="http://www.w3.org/2000/svg"
   xmlns:sodipodi="http://sodipodi.sourceforge.net/DTD/sodipodi-0.dtd"
   xmlns:inkscape="http://www.inkscape.org/namespaces/inkscape"
   width="210mm"
   height="297mm"
   id="svg2521"
   sodipodi:version="0.32"
   inkscape:version="0.91 r13725"
   sodipodi:docname="dragon.svg"
   inkscape:output_extension="org.inkscape.output.svg.inkscape"
   version="1.1">
  <defs
     id="defs2523">
    <linearGradient
       id="linearGradient4050">
      <stop
         style="stop-color:#e80000;stop-opacity:0.27551019;"
         offset="0"
         id="stop4052" />
      <stop
         style="stop-color:red;stop-opacity:0;"
         offset="1"
         id="stop4054" />
    </linearGradient>
  </defs>
  <sodipodi:namedview
     id="base"
     pagecolor="#ffffff"
     bordercolor="#666666"
     borderopacity="1.0"
     inkscape:pageopacity="0.0"
     inkscape:pageshadow="2"
     inkscape:zoom="0.56045226"
     inkscape:cx="485.96981"
     inkscape:cy="496.54748"
     inkscape:document-units="px"
     inkscape:current-layer="layer1"
     inkscape:window-width="1233"
     inkscape:window-height="748"
     inkscape:window-x="47"
     inkscape:window-y="24"
     showgrid="false"
     inkscape:window-maximized="0" />
  <metadata
     id="metadata2526">
    <rdf:RDF>
      <cc:Work
         rdf:about="">
        <dc:format>image/svg+xml</dc:format>
        <dc:type
           rdf:resource="http://purl.org/dc/dcmitype/StillImage" />
        <dc:title />
        <dc:date>août 2007</dc:date>
        <dc:creator>
          <cc:Agent>
            <dc:title>Zigeuner (http://fr.wikipedia.org/wiki/Utilisateur:Zigeuner)</dc:title>
          </cc:Agent>
        </dc:creator>
        <dc:source>http://commons.wikimedia.org/wiki/Image:Ennetmoos-coat_of_arms.svg</dc:source>
        <cc:license
           rdf:resource="http://creativecommons.org/licenses/by-sa/2.5/" />
      </cc:Work>
      <cc:License
         rdf:about="http://creativecommons.org/licenses/by-sa/2.5/">
        <cc:permits
           rdf:resource="http://web.resource.org/cc/Reproduction" />
        <cc:permits
           rdf:resource="http://web.resource.org/cc/Distribution" />
        <cc:requires
           rdf:resource="http://web.resource.org/cc/Notice" />
        <cc:requires
           rdf:resource="http://web.resource.org/cc/Attribution" />
        <cc:permits
           rdf:resource="http://web.resource.org/cc/DerivativeWorks" />
        <cc:requires
           rdf:resource="http://web.resource.org/cc/ShareAlike" />
      </cc:License>
    </rdf:RDF>
  </metadata>
  <g
     inkscape:label="Calque 1"
     inkscape:groupmode="layer"
     id="layer1">
    <path
       inkscape:connector-curvature="0"
       style="fill:none;stroke:#000000;stroke-width:3.54330707;stroke-linecap:round;stroke-linejoin:round;stroke-miterlimit:4;stroke-dasharray:none;stroke-opacity:1"
       i:knockout="Off"
       d="m 461.92981,940.68678 c -2.10425,-1.53554 -22.78552,-2.61023 -11.39749,18.60482 0,0 -13.33325,-2.41196 -13.33325,-19.29046 0,-9.30103 7.67085,-11.66529 7.67085,-11.66529 l 7.45212,-2.80255 c -0.18603,0.0254 8.46169,1.69173 9.60777,15.15348 z"
       id="f207"
       sodipodi:nodetypes="ccsccc" />
    <path
       inkscape:connector-curvature="0"
       style="fill:none;stroke:#000000;stroke-width:3.54330707;stroke-linecap:round;stroke-linejoin:round;stroke-miterlimit:4;stroke-dasharray:none;stroke-opacity:1"
       i:knockout="Off"
       d="m 589.01975,939.30375 c 0,0 13.12455,0.18337 18.1985,15.77971 0,0 4.14198,-10.51415 2.39165,-17.74128 -2.29564,-9.17626 -8.52495,-9.25115 -16.41194,-10.66059 -0.32375,5.1576 -0.78542,10.1926 -4.17821,12.62216 z"
       id="f208"
       sodipodi:nodetypes="ccccc" />
    <path
       inkscape:connector-curvature="0"
       style="fill:none;stroke:#000000;stroke-width:3.54330707;stroke-linecap:round;stroke-linejoin:round;stroke-miterlimit:4;stroke-dasharray:none;stroke-opacity:1"
       i:knockout="Off"
       d="m 574.05544,869.71824 6.80147,-1.26895 c 0,0 18.96695,-1.97852 28.57561,13.2602 l -27.75403,3.73284 c 1.0732,-4.85063 -3.78661,-10.3397 -7.62305,-15.72409 z"
       id="f209"
       sodipodi:nodetypes="ccccc" />
    <path
       inkscape:connector-curvature="0"
       style="fill:none;stroke:#000000;stroke-width:3.54330707;stroke-linecap:round;stroke-linejoin:round;stroke-miterlimit:4;stroke-dasharray:none;stroke-opacity:1"
       i:knockout="Off"
       d="m 619.26753,924.71137 c 0,0 -1.94704,-13.95893 -10.61573,-20.05289 -7.17103,-5.04132 -16.49236,-2.82483 -16.49236,-2.82483 1.64345,3.72342 7.28888,5.86716 1.49034,15.08768 0,0 9.24022,-4.74068 25.61775,7.79004 z"
       id="f210"
       sodipodi:nodetypes="ccccc" />
    <path
       inkscape:connector-curvature="0"
       style="fill:none;stroke:#000000;stroke-width:3.54330707;stroke-linecap:round;stroke-linejoin:round;stroke-miterlimit:4;stroke-dasharray:none;stroke-opacity:1"
       i:knockout="Off"
       d="m 548.8913,275.51142 c 0,0 0.36321,-8.33815 -7.91767,-10.88676 0,0 2.28023,7.97461 0.34287,15.25688 3.33551,-1.79903 5.94072,-2.82994 7.5748,-4.37012 z"
       id="f204"
       sodipodi:nodetypes="cccc" />
    <path
       inkscape:connector-curvature="0"
       style="fill:none;stroke:#000000;stroke-width:3.54330707;stroke-linecap:round;stroke-linejoin:round;stroke-miterlimit:4;stroke-dasharray:none;stroke-opacity:1"
       i:knockout="Off"
       d="m 539.87521,219.58108 c 0,0 7.82411,1.2118 7.29642,17.77833 0,0 -5.86217,-6.31302 -13.08643,-9.40692 1.33294,-1.6848 2.5006,-3.31855 5.79001,-8.37141 z"
       id="f201"
       sodipodi:nodetypes="cccc" />
    <path
       inkscape:connector-curvature="0"
       style="fill:none;stroke:#000000;stroke-width:3.54330707;stroke-linecap:round;stroke-linejoin:round;stroke-miterlimit:4;stroke-dasharray:none;stroke-opacity:1"
       i:knockout="Off"
       d="m 472.0542,269.73742 c 11.77139,-20.27146 23.54028,-9.36925 35.31166,-1.26066 11.77013,8.10858 22.88659,-5.06754 27.79175,-10.47415 4.90515,-5.40656 21.2511,3.96399 36.29091,15.78911 15.03984,11.82513 24.19522,10.47412 31.38828,8.10858 11.57928,-3.80678 21.90605,2.36425 21.90605,2.36425 0,0 1.30738,-8.10858 -4.90391,-11.14961 -13.12491,-6.42371 -20.92552,2.36425 -32.04321,-5.06754 -11.11644,-7.4331 -33.67618,-14.86749 -33.67618,-14.86749 14.71298,4.39206 33.0225,4.39206 40.86924,-3.03974 15.69353,-14.86489 28.44543,-8.1086 40.21433,-8.78282 18.95945,-1.08801 21.90604,-22.97604 21.90604,-22.97604 0,0 -14.38612,16.89397 -31.38828,11.48739 -17.00088,-5.40532 -35.43639,3.7436 -43.81083,10.47412 -2.89171,2.323 -7.69084,2.87475 -13.22223,2.68267 12.55981,-8.03512 21.23114,-25.49758 26.95343,-33.76604 8.86596,-12.8113 38.25448,-19.25951 35.31289,-31.76013 0,0 -6.86622,4.72979 -27.13681,10.47413 -8.20353,2.32428 -19.02433,7.53622 -24.36361,17.50759 -5.84576,10.91114 -16.70398,31.84345 -28.86458,39.26106 -5.94931,-0.64842 -11.40463,0.80611 -15.10469,1.93013 -11.11644,3.37879 -13.40561,12.92873 -21.25235,14.61749 -7.84678,1.68874 -19.61691,-14.18941 -33.6762,-14.18941 -14.05928,0 -24.19519,10.98512 -24.19519,10.98512 2.57297,4.32165 10.81034,10.92346 15.69349,11.6519 z"
       id="f301"
       sodipodi:nodetypes="ccsscccccccccccccccccssccc" />
    <path
       inkscape:connector-curvature="0"
       style="fill:none;stroke:#000000;stroke-width:3.54330707;stroke-linecap:round;stroke-linejoin:round;stroke-miterlimit:4;stroke-dasharray:none;stroke-opacity:1"
       i:knockout="Off"
       d="m 533.89177,280.47543 c 0,0 1.44319,-8.07309 -5.95572,-11.16699 0,0 -0.90111,4.61308 -3.54331,11.16699 2.97963,0.26289 6.13735,0.92295 9.49903,0 z"
       id="f205"
       sodipodi:nodetypes="cccc" />
    <path
       inkscape:connector-curvature="0"
       style="fill:none;stroke:#000000;stroke-width:3.54330707;stroke-linecap:round;stroke-linejoin:round;stroke-miterlimit:4;stroke-dasharray:none;stroke-opacity:1"
       i:knockout="Off"
       d="m 508.18526,279.38354 c 0,0 -10.04111,-4.20246 -8.98449,-11.48471 0,0 0,-1.10705 -4.57956,2.89696 -2.07956,5.90936 -8.98571,3.79181 -8.98571,3.79181 10.50157,3.0995 12.75464,2.94076 22.54976,4.79594 z"
       id="f206"
       sodipodi:nodetypes="ccccc" />
    <path
       inkscape:connector-curvature="0"
       style="fill:none;stroke:#000000;stroke-width:3.54330707;stroke-linecap:round;stroke-linejoin:round;stroke-miterlimit:4;stroke-dasharray:none;stroke-opacity:1"
       i:knockout="Off"
       d="m 529.87465,231.22396 c 0,0 2.79899,-1.44283 1.56646,12.75816 0,0 -3.68096,-4.61438 -11.07862,-7.70955 3.38558,-1.46843 6.0457,-2.46597 9.51216,-5.04861 z"
       id="f202"
       sodipodi:nodetypes="cccc" />
    <path
       inkscape:connector-curvature="0"
       style="fill:none;stroke:#000000;stroke-width:3.54330707;stroke-linecap:round;stroke-linejoin:round;stroke-miterlimit:4;stroke-dasharray:none;stroke-opacity:1"
       i:knockout="Off"
       d="m 510.01121,236.07162 c 0,0 -4.80503,7.4684 -4.4028,14.33298 0,0 -3.13548,-10.08462 -7.79796,-11.10798 -5.06931,-1.11364 -5.95948,-8.45294 -5.95948,-8.45294 11.86703,3.96223 12.53762,0.83014 18.16024,5.22794 z"
       id="f203"
       sodipodi:nodetypes="ccccc" />
    <path
       style="fill:none;fill-opacity:1;stroke:#000000;stroke-width:3.54330707;stroke-linecap:round;stroke-linejoin:round;stroke-miterlimit:4;stroke-dasharray:none;stroke-opacity:1"
       d="m 290.40657,732.28896 c -59.05683,31.64412 -20.7027,105.68976 11.65353,104.83706 59.27585,-1.56217 58.89601,-43.77628 49.23161,-62.20999 -3.93715,-7.50978 -10.12742,-20.91573 -31.34165,-33.95136 -15.67696,-7.60684 -13.31842,-12.34223 -16.69467,-12.42843 l 47.92246,-20.86258 c 5.24189,13.39398 16.12197,19.20865 25.76523,21.15414 4.14369,26.22328 8.0972,29.51292 26.24321,37.50361 -10.14125,18.9047 -0.57643,37.04901 3.3003,47.29508 -13.35238,24.43578 -8.53072,18.38857 -6.39578,41.67068 -20.59467,7.83781 -25.32558,2.20036 -38.35194,34.20182 -27.13595,-10.68755 -29.72697,-9.75434 -56.44675,12.20519 -18.53012,-20.79651 -23.02291,-21.37978 -50.73374,-10.36073 -12.9317,-21.55061 -8.63016,-30.67849 -49.11776,-16.91876 1.16054,-20.06977 -4.57489,-34.5434 -4.57496,-34.5434 -2.7458,2.36556 -6.15693,-7.35664 -28.20058,-8.08366 5.49565,-22.02081 4.84801,-32.10691 4.84801,-32.10691 0,0 7.4211,-10.728 -21.05369,-30.28525 27.89599,-21.43164 26.99429,-31.21885 26.99429,-31.21885 8e-5,0 -4.02942,-28.00895 -17.38924,-32.44847 0,0 35.48024,-17.73741 17.18217,-50.76094 23.59503,-12.93183 32.9708,-5.74671 32.70948,-50.66049 20.44931,0.98438 31.68301,-16.37225 31.68301,-16.37225 -23.6825,-16.30614 -52.86011,-7.29864 -56.42403,-6.28475 -11.33224,3.22388 -13.01554,-9.82867 -13.36054,-7.99257 -9.75917,-80.78426 -60.40344,-91.29481 -71.74199,-90.85575 -7.080313,0.27417 -3.37557,-10.62308 -8.444273,-10.90724 4.146773,-5.89688 26.721223,-22.5245 26.721153,-69.04126 7e-5,-46.51673 -38.670252,-69.04445 -45.703652,-70.49857 -7.032093,-1.45414 -11.251335,-6.54166 -6.327505,-9.44992 4.923881,-2.90825 41.492937,-37.08246 41.492937,-77.78526 0,-40.7015 -60.958362,-134.19965 -68.555456,-153.589468 -11.841225,-2.790953 5.576337,-8.288602 5.576337,-8.288602 121.937719,114.37055 247.962599,192.40895 264.138929,217.12018 16.17749,24.71123 -1.30389,47.79612 -15.43182,47.24955 -13.99441,-0.54015 -32.95541,-6.34762 -37.53257,2.43647 -5.29936,10.17247 4.44058,16.43733 19.91573,41.87561 15.47274,25.43701 11.44871,76.85167 11.44864,76.85167 0,0 32.72148,-18.99969 69.60247,-15.14262 15.7809,1.6488 32.52922,8.09559 43.22277,13.95853 7.75695,0.45118 19.55004,0.46711 27.42672,-2.66419 1.48455,-46.1558 -55.96875,-49.77711 -55.96875,-49.77711 1.6741,-41.533 -39.4672,-51.66709 -39.4672,-51.66709 21.77009,-49.32058 -2.64024,-69.33725 -2.64024,-69.33725 25.95668,-17.30522 24.26299,-53.35215 24.26299,-53.35215 -14.57324,-2.59242 -21.29711,-8.96919 -28.76964,-16.69104 -18.02383,-18.62656 -20.21156,-52.03142 -20.21156,-52.03142 21.57183,7.89466 35.35788,17.04825 48.93568,21.29075 13.57774,4.24252 28.83791,8.51631 28.83791,8.51631 2.33407,-5.83457 -0.0806,-1.34416 3.00442,-5.10068 -3.34953,-5.1913 -14.28274,-6.95411 -24.33128,-9.72314 -26.60914,-7.33255 -28.83795,-42.55875 -28.83795,-42.55875 12.72827,8.99809 33.83731,9.62953 48.93572,18.33055 16.41207,2.13739 25.15067,15.11984 25.15067,15.11984 4.46729,-1.22465 8.6747,-1.347 12.04045,-0.81975 9.49595,1.48636 20.21158,-0.31879 20.21158,-0.31879 4.0734,-4.59092 8.3099,-7.30066 12.31702,-8.65765 9.24537,-3.13091 17.26963,0.93934 19.25218,5.72022 2.8418,6.85299 16.43328,16.3267 16.43328,16.3267 0,0 4.80666,-6.5567 9.19536,-9.40437 8.15986,-5.29315 25.21491,-2.11781 28.72411,-4.00767 6.55811,-3.53219 17.26581,-0.86671 17.11611,5.30561 -0.22456,9.29459 -7.64763,14.59612 -7.64763,14.59612 8.21102,30.02242 -16.36726,41.02449 -27.8592,38.50554 -12.17433,-2.6685 -28.99257,-7.47841 -35.98479,-4.12153 -9.7018,4.6576 -22.16901,15.64358 -22.16901,15.64358 2e-5,0 -1.89045,5.67951 3.02719,12.95662 9.45977,14.00117 49.77924,21.47293 75.0423,21.47293 15.16207,0 15.34292,-11.56031 18.93697,-6.19369 5.68485,8.48503 -0.24187,25.95879 -16.97955,25.95879 -2.5262,0 -1.59324,9.47268 -1.59324,9.47268 -3.78993,0 -7.57381,-9.79147 -11.99495,-9.79147 -4.42112,0 -5.05289,7.17282 -5.05289,7.17282 -3.78988,-1.30588 -4.41915,-9.46532 -9.78713,-9.79148 -5.36799,-0.32743 -3.4824,8.49354 -3.4824,8.49354 -3.78862,-3.26406 -3.15365,-7.19663 -9.46849,-14.04962 -6.31607,-6.8517 -24.64491,-8.26583 -34.1184,-8.26583 -7.76442,0 -14.03467,-8.46932 -17.57133,-12.00024 -3.97202,8.97747 -13.75234,9.16793 -21.44065,-0.66036 -2.66591,-3.40844 -6.98467,-7.76739 -10.85691,-10.67953 -9.77911,48.12558 15.37528,73.92348 52.16772,72.47965 36.79244,-1.44381 44.2511,25.52042 52.16771,37.07097 8.40935,12.2686 41.44668,10.58916 53.55612,35.61363 10.11222,20.89797 -7.92074,51.00673 -7.92074,51.00673 2e-5,0 26.52903,6.30089 27.92748,39.50745 1.97422,17.63984 -9.81602,39.31616 -20.96269,39.21142 3.99556,13.60101 4.08816,32.76759 -14.97659,41.30634 -2.06837,3.44839 -1.07683,32.97081 -12.92813,37.4353 -19.56601,20.72755 -10.92355,20.09351 -42.33505,35.93242 14.44891,22.6652 21.72537,83.79423 -41.3791,136.07868 -16.89079,13.99466 47.11749,91.40932 60.5892,108.70808 8.83418,4.3009 11.72021,5.24998 24.7865,-4.03043 7.4908,-7.24997 9.55403,-12.13759 16.22843,-15.34756 8.70814,-4.1881 17.36648,-5.51056 17.36648,-5.51056 15.1462,13.41826 4.21074,19.49186 4.21074,19.49186 -10.28207,0.1669 -7.77971,-5.04284 -19.3239,1.45734 -11.54421,6.49886 -13.8158,9.65484 -13.8158,9.65484 -0.1033,0.35606 -0.25261,0.6732 -0.43246,0.95638 13.5096,-3.23654 40.44039,-8.15152 49.48195,1.50287 7.16563,7.65224 -1.4567,13.93577 -1.4567,13.93577 -8.80231,-5.45681 -20.50187,-6.27073 -29.45245,-5.87488 6.86841,1.19088 29.52974,3.35731 30.29461,16.8049 0.81709,14.34535 -9.35468,9.81423 -9.35468,9.81423 -1.22503,-18.14054 -18.17177,-9.86762 -28.40547,-12.91107 -4.04416,-1.20271 -11.38705,-2.42841 -24.90028,2.04938 -13.51323,-7.59421 -26.38462,13.44707 -30.27185,-8.67571 -10.41184,1.92409 -15.92315,0.23157 -19.59702,5.7155 -3.67391,5.48393 -18.39072,16.91874 -18.39072,16.91874 0.81585,-16.03412 -11.83561,-15.59803 -11.83561,-15.59803 30.53589,-18.09477 46.70513,-23.47676 46.70513,-23.47676 10e-6,-11.82515 -51.66421,-79.8481 -72.7207,-97.82363 -12.43477,-10.61536 22.61464,-61.56384 5.21222,-71.06786 -30.29848,-16.54691 -50.58706,-10.73444 -65.96075,-24.97964 -5.59718,-3.63913 -1.02616,-0.74419 -5.34881,-4.78187 l -0.83287,1.01389 c -28.83591,15.73891 -47.23485,20.4949 -61.01506,26.21952 z"
       id="f101"
       inkscape:connector-curvature="0"
       sodipodi:nodetypes="cssccccccccccccccccccccscscscssccccccccccccccccsccscccccsscccccssccscscsccccscccsccccccccsccsccccccccccsccscccssccccc" />
    <path
       inkscape:connector-curvature="0"
       sodipodi:nodetypes="cc"
       style="fill:none;stroke:#000000;stroke-width:3.54330707;stroke-linecap:round;stroke-linejoin:round;stroke-miterlimit:4;stroke-dasharray:none;stroke-opacity:1"
       i:knockout="Off"
       d="m 494.48631,649.30713 c -4.7188,-14.02844 -38.33154,-84.49723 -96.3095,-73.18209"
       id="l110" />
    <path
       inkscape:connector-curvature="0"
       style="fill:none;stroke:#000000;stroke-width:3.54330707;stroke-linecap:round;stroke-linejoin:round;stroke-miterlimit:4;stroke-dasharray:none;stroke-opacity:1"
       i:knockout="Off"
       d="m 451.0501,520.28641 c 0,0 -10.15212,-33.67192 -44.80509,-52.6762"
       id="l111" />
    <path
       inkscape:connector-curvature="0"
       style="fill:none;stroke:#000000;stroke-width:3.54330707;stroke-linecap:round;stroke-linejoin:round;stroke-miterlimit:4;stroke-dasharray:none;stroke-opacity:1"
       i:knockout="Off"
       d="m 378.45949,607.62326 c 0,0 -52.28885,-43.22046 -94.75239,10.4058 -4.12046,5.2029 -11.43829,6.46754 -14.41728,-1.49538 -5.25698,-13.5822 -13.02137,-22.66023 -21.64533,-28.59663"
       id="l112" />
    <path
       inkscape:connector-curvature="0"
       style="fill:none;stroke:#000000;stroke-width:3.54330707;stroke-linecap:round;stroke-linejoin:round;stroke-miterlimit:4;stroke-dasharray:none;stroke-opacity:1"
       i:knockout="Off"
       d="m 345.00063,657.25223 c 0,0 -5.7371,18.0596 0.21348,28.55333 7.91913,17.71382 12.22461,17.24903 12.22461,17.24903"
       id="l113"
       sodipodi:nodetypes="ccc" />
    <path
       inkscape:connector-curvature="0"
       style="fill:none;stroke:#000000;stroke-width:3.54330707;stroke-linecap:round;stroke-linejoin:round;stroke-miterlimit:4;stroke-dasharray:none;stroke-opacity:1"
       i:knockout="Off"
       d="m 441.16121,272.16614 c -2.17814,-2.78324 -3.15869,-5.99056 -3.91716,-8.89883 -2.88669,-11.08259 8.23972,-25.54141 8.23972,-25.54141"
       id="l101" />
    <path
       inkscape:connector-curvature="0"
       style="fill:none;stroke:#000000;stroke-width:3.54330707;stroke-linecap:round;stroke-linejoin:round;stroke-miterlimit:4;stroke-dasharray:none;stroke-opacity:1"
       i:knockout="Off"
       d="m 394.26529,190.22941 c 5.67612,-6.90841 12.24296,-10.61207 18.30827,-12.27503"
       id="l102" />
    <path
       inkscape:connector-curvature="0"
       style="fill:none;stroke:#000000;stroke-width:3.54330707;stroke-linecap:round;stroke-linejoin:round;stroke-miterlimit:4;stroke-dasharray:none;stroke-opacity:1"
       i:knockout="Off"
       d="m 483.34032,203.81421 c -5.34802,0.73094 -10.49394,-14.72438 -23.02131,-10.51411 -12.30282,4.13423 -12.47249,0.26995 -30.25058,2.85266 0,0 20.75588,17.87388 30.25058,19.45565 6.94356,1.15762 15.31054,-1.58177 17.10568,-9.61172 0.50773,-2.26885 3.46555,-1.91951 5.91563,-2.18248 z"
       id="f401"
       sodipodi:nodetypes="ccccsc" />
    <path
       inkscape:connector-curvature="0"
       style="fill:none;stroke:#000000;stroke-width:3.54330707;stroke-linecap:round;stroke-linejoin:round;stroke-miterlimit:4;stroke-dasharray:none;stroke-opacity:1"
       i:knockout="Off"
       d="m 328.47222,195.63916 c 10.93057,2.3101 37.30663,16.41637 53.43298,17.45668 0,0 -5.95319,12.56515 -5.95319,14.12886 0,0 -16.63162,4.68595 -26.71016,-6.25098 -8.60641,-9.33711 -13.20978,-21.16811 -20.76963,-25.33456 z"
       id="l104"
       sodipodi:nodetypes="ccccc" />
    <path
       inkscape:connector-curvature="0"
       i:knockout="Off"
       d="m 469.49933,193.76548 c 0.0437,0 0.0849,0.007 0.12719,0.009 2.26422,1.08674 4.19286,2.76646 5.9094,4.44878 0.85079,1.70937 1.35354,3.7913 1.35354,6.04342 0,2.21857 -0.48777,4.27214 -1.31237,5.96735 -1.47953,2.12446 -3.5803,3.61727 -5.95804,4.52353 -0.0399,10e-4 -0.0786,0.009 -0.11843,0.009 -4.08058,0 -7.38894,-4.70144 -7.38894,-10.50119 0,-5.79979 3.71358,-12.69426 7.38767,-10.49993 1e-5,10e-6 -2e-5,4e-5 -2e-5,4e-5 z"
       id="f402"
       style="fill:none;stroke:#000000;stroke-width:3.54330707;stroke-miterlimit:4;stroke-dasharray:none;stroke-opacity:1"
       sodipodi:nodetypes="cccsccssac" />
    <path
       inkscape:connector-curvature="0"
       style="fill:none;stroke:#000000;stroke-width:3.54330707;stroke-linecap:round;stroke-linejoin:round;stroke-miterlimit:4;stroke-dasharray:none;stroke-opacity:1"
       i:knockout="Off"
       d="m 491.86821,213.21578 c 12.55107,-17.79506 34.14898,-16.58845 34.14898,-16.58845"
       id="l103" />
    <path
       inkscape:connector-curvature="0"
       style="fill:none;stroke:#000000;stroke-width:3.54330707;stroke-linecap:round;stroke-linejoin:round;stroke-miterlimit:4;stroke-dasharray:none;stroke-opacity:1"
       i:knockout="Off"
       d="m 50.209727,81.093719 c 0,0 -17.323275,-21.405543 -37.096356,-2.504448 0,0 22.695182,4.603631 27.30455,11.148634 1.975246,-1.754822 12.864468,-9.282424 9.791806,-8.644186 z"
       id="f215"
       sodipodi:nodetypes="cccc" />
    <path
       inkscape:connector-curvature="0"
       style="fill:none;stroke:#000000;stroke-width:3.54330707;stroke-linecap:round;stroke-linejoin:round;stroke-miterlimit:4;stroke-dasharray:none;stroke-opacity:1"
       i:knockout="Off"
       d="m 76.391846,318.45214 c 0,0 -15.637392,-1.35617 -23.655052,7.59551 -5.094786,5.68633 -6.676602,13.49841 -3.628974,20.6247 8.825627,-5.57972 10.096605,-23.57066 27.587143,-14.91517 -12.799899,-4.3366 -0.958492,-12.64967 -0.303117,-13.30504 z"
       id="f216"
       sodipodi:nodetypes="ccccc" />
    <path
       inkscape:connector-curvature="0"
       style="fill:none;stroke:#000000;stroke-width:3.54330707;stroke-linecap:round;stroke-linejoin:round;stroke-miterlimit:4;stroke-dasharray:none;stroke-opacity:1"
       i:knockout="Off"
       d="m 106.11343,482.79737 c -27.442417,-0.87659 -24.304945,26.01068 -24.304945,26.01068 0,0 -14.735446,-13.93028 -5.017438,-27.85926 8.6526,-12.40396 24.452163,-11.985 24.452163,-11.985 0,0 -3.425634,8.55462 4.87022,13.83358 z"
       id="f217" />
    <path
       inkscape:connector-curvature="0"
       style="fill:none;stroke:#000000;stroke-width:3.54330707;stroke-linecap:round;stroke-linejoin:round;stroke-miterlimit:4;stroke-dasharray:none;stroke-opacity:1"
       i:knockout="Off"
       d="m 191.21771,581.64483 c -10.7884,7.23973 -20.50386,16.58329 -10.45401,34.23527 0,0 -18.42058,-6.92003 -16.07654,-26.302 1.27124,-10.50636 13.16731,-15.92712 13.16731,-15.92712 0,0 1.71408,7.67674 13.36324,7.99385 z"
       id="f218" />
    <path
       inkscape:connector-curvature="0"
       style="fill:none;stroke:#000000;stroke-width:3.54330707;stroke-linecap:round;stroke-linejoin:round;stroke-miterlimit:4;stroke-dasharray:none;stroke-opacity:1"
       i:knockout="Off"
       d="m 283.7071,618.02906 c 0,0 -4.17909,17.25493 22.44747,31.66735 0,0 -23.48535,-1.46832 -31.69766,-10.22019 -8.11493,-8.64873 -4.8191,-21.48968 -4.8191,-21.48968 0,0 6.83632,5.32664 14.06929,0.0425 z"
       id="f211" />
    <path
       inkscape:connector-curvature="0"
       style="fill:none;stroke:#000000;stroke-width:3.54330707;stroke-linecap:round;stroke-linejoin:round;stroke-miterlimit:4;stroke-dasharray:none;stroke-opacity:1"
       i:knockout="Off"
       d="m 438.73357,522.14939 c -6.92175,-20.76522 -62.00621,-66.55868 -92.64036,-55.4596 -31.52184,11.4207 -38.0923,19.33555 -44.10529,60.7706 -6.01292,41.43501 -18.27956,90.56867 -18.27956,90.56867"
       id="l105"
       sodipodi:nodetypes="cssc" />
    <path
       inkscape:connector-curvature="0"
       style="fill:none;stroke:#000000;stroke-width:3.54330707;stroke-linecap:round;stroke-linejoin:round;stroke-miterlimit:4;stroke-dasharray:none;stroke-opacity:1"
       i:knockout="Off"
       d="m 269.63781,617.98783 c 0,0 15.93307,-82.23709 17.45378,-102.67746 1.52071,-20.44035 2.53617,-30.90932 -2.02844,-30.92221 -5.90689,-0.0172 -14.20398,9.4338 -45.14065,41.92746 -30.93675,32.49367 -48.70479,55.32921 -48.70479,55.32921"
       id="l106" />
    <path
       inkscape:connector-curvature="0"
       style="fill:none;stroke:#000000;stroke-width:3.54330707;stroke-linecap:round;stroke-linejoin:round;stroke-miterlimit:4;stroke-dasharray:none;stroke-opacity:1"
       i:knockout="Off"
       d="m 177.85447,573.64969 c 0,0 75.86404,-91.41436 90.47101,-111.27332 14.60572,-19.86024 7.37144,-53.8712 -22.99509,-42.35287 -30.3666,11.51832 -100.46843,44.11897 -139.21943,62.7726"
       id="l107" />
    <path
       inkscape:connector-curvature="0"
       style="fill:none;stroke:#000000;stroke-width:3.54330707;stroke-linecap:round;stroke-linejoin:round;stroke-miterlimit:4;stroke-dasharray:none;stroke-opacity:1"
       i:knockout="Off"
       d="m 101.24072,468.96251 c 0,0 96.00616,-46.31951 128.21649,-64.47554 32.2104,-18.15601 18.54533,-37.32143 -1.46579,-40.34699 C 207.98158,361.11439 76.694963,331.75589 76.694963,331.75589"
       id="l108" />
    <path
       inkscape:connector-curvature="0"
       sodipodi:nodetypes="ccscc"
       style="fill:none;stroke:#000000;stroke-width:3.54330707;stroke-linecap:round;stroke-linejoin:round;stroke-miterlimit:4;stroke-dasharray:none;stroke-opacity:1"
       i:knockout="Off"
       d="m 77.357422,318.33997 c 0,0 110.015498,14.32345 166.134118,23.85524 0,0 -2.0047,-17.8982 24.51712,-17.8982 26.52174,0 34.97978,-15.88716 18.83593,-37.33561 C 265.45114,270.7636 170.58726,208.40256 60.566396,108.61596"
       id="l109" />
    <path
       style="display:inline;opacity:1;fill:none;fill-opacity:1;stroke:#000000;stroke-width:3.54330707;stroke-linecap:round;stroke-linejoin:round;stroke-miterlimit:4;stroke-dasharray:none;stroke-opacity:1"
       i:knockout="Off"
       d="m 706.20822,576.71406 c 0,0 4.76485,13.16393 18.87969,11.49654 0,0 -2.4109,13.33914 -19.28193,13.33914 -9.29693,0 -15.20344,-12.98921 -15.20344,-12.98921 1.71705,-9.33449 8.59307,-10.69604 15.60568,-11.84647 z"
       id="f212"
       inkscape:connector-curvature="0"
       sodipodi:nodetypes="ccscc" />
    <path
       style="display:inline;opacity:1;fill:none;fill-opacity:1;stroke:#000000;stroke-width:3.54330707;stroke-linecap:round;stroke-linejoin:round;stroke-miterlimit:4;stroke-dasharray:none;stroke-opacity:1"
       i:knockout="Off"
       d="m 705.10889,449.66192 c 0,0 0.18329,-13.13035 15.77275,-18.20656 0,0 -10.50953,-4.14381 -17.73346,-2.3927 -9.17506,2.2982 -9.24776,8.53269 -10.65588,16.41919 4.20553,-0.17238 8.41106,-5.6e-4 12.61659,4.18007 z"
       id="f213"
       inkscape:connector-curvature="0"
       sodipodi:nodetypes="ccccc" />
    <path
       style="display:inline;opacity:1;fill:none;fill-opacity:1;stroke:#000000;stroke-width:3.54330707;stroke-linecap:round;stroke-linejoin:round;stroke-miterlimit:4;stroke-dasharray:none;stroke-opacity:1"
       i:knockout="Off"
       d="m 636.95676,463.52502 c -3.40405,-1.94517 -0.96042,-30.82643 10.58331,-34.28489 -0.56029,9.66153 -0.25272,19.38981 5.50286,29.53718 -7.92379,-4.5906 -11.29216,1.37946 -16.08617,4.74771 z"
       id="f219"
       inkscape:connector-curvature="0"
       sodipodi:nodetypes="cccc" />
    <path
       style="display:inline;opacity:1;fill:none;fill-opacity:1;stroke:#000000;stroke-width:3.54330707;stroke-linecap:round;stroke-linejoin:round;stroke-miterlimit:4;stroke-dasharray:none;stroke-opacity:1"
       i:knockout="Off"
       d="m 690.52295,419.40076 c 0,0 -13.95275,1.9479 -20.04403,10.62042 -5.03909,7.17421 -4.59444,16.49967 -4.59444,16.49967 5.43911,-3.34788 10.92817,-5.89669 16.85188,-1.49101 0,0 -4.73859,-9.24431 7.78659,-25.62908 z"
       id="f214"
       inkscape:connector-curvature="0"
       sodipodi:nodetypes="ccccc" />
    <path
       sodipodi:nodetypes="cccsccccccccscccsccscccsccc"
       style="display:inline;opacity:1;fill:none;fill-opacity:1;stroke:#000000;stroke-width:3.54330707;stroke-linecap:round;stroke-linejoin:round;stroke-miterlimit:4;stroke-dasharray:none;stroke-opacity:1"
       i:knockout="Off"
       d="m 586.45867,608.20634 c 13.98848,16.89826 57.25081,-70.76554 74.54193,-84.24322 4.299,-8.83807 5.24961,-11.72895 -4.02671,-24.80102 -7.24675,-7.49414 -12.13185,-9.55694 -15.34041,-16.23429 -4.18624,-8.71199 -5.51856,-17.3771 -5.51856,-17.3771 13.41233,-15.1529 19.48453,-4.21723 19.48453,-4.21723 0.16686,10.28661 -5.04707,7.78073 1.45023,19.33003 6.496,11.54933 9.66448,13.82996 9.66448,13.82996 4.21743,1.22558 3.04329,8.37378 3.04329,8.37378 0,0 -13.65636,-45.19103 -0.58269,-57.44562 7.64886,-7.1688 13.91519,1.44872 13.91519,1.44872 -10.12031,16.33945 -4.31438,42.7829 -4.31438,42.7829 2.95337,8.98595 -3.43025,22.51016 -1.50448,20.44999 1.34985,-1.44406 -0.27823,-32.60408 -0.27823,-32.60408 1.17882,-4.90215 2.69471,-30.65403 17.03246,-31.47026 14.33903,-0.81746 9.79302,9.36644 9.79302,9.36644 -18.13253,1.22559 -9.85338,18.18173 -12.89549,28.41995 -1.20219,4.04595 -2.43334,11.38991 2.04247,24.90912 -7.59087,13.51921 13.43893,26.40215 -8.67408,30.29109 1.92321,10.41645 0.23779,15.93009 5.71929,19.60559 5.48152,3.67551 16.9201,18.38252 16.9201,18.38252 -16.02705,-0.81623 -15.60439,11.84522 -15.60439,11.84522 -18.08679,-30.54938 -23.46273,-46.72124 -23.46273,-46.72124 -11.81991,0 -45.6825,75.33013 -63.65009,96.39594 -10.61067,12.44028 -67.72095,0.71792 -90.21288,1.41651 12.40924,-14.08508 28.96404,-28.76213 34.42088,-47.25259 10.85257,-1.11977 24.46791,8.85304 38.03725,15.51889 z"
       id="f102"
       inkscape:connector-curvature="0" />
    <path
       inkscape:connector-curvature="0"
       style="display:inline;fill:none;fill-opacity:1;stroke:#000000;stroke-width:3.54330707;stroke-linecap:round;stroke-linejoin:round;stroke-miterlimit:4;stroke-dasharray:none;stroke-opacity:1"
       d="m 50.16654,480.20092 c -1.704816,3.59268 -6.408187,24.38249 -6.025453,29.68644 1.366875,18.94272 4.713942,36.9138 5.388691,55.63485 0.894331,24.81353 -8.701639,37.97569 -8.701639,37.97567 26.947013,2.66667 33.86494,-48.25954 34.378427,-32.4574 5.598889,9.59027 18.841709,31.77547 30.529974,44.12752 26.42424,27.92491 45.49626,35.96067 82.7509,58.31899 0.0261,-5.49986 -1.48015,-11.70243 -5.26396,-18.53127 5.57931,-3.05789 15.24457,-7.05076 19.29435,-8.81381 -28.0715,-9.83109 -72.76638,-28.28905 -85.5859,-41.52474 -15.08398,-15.57365 -32.38074,-39.6321 -32.38074,-39.6321 -1.7e-5,0 10.026815,3.95248 19.39069,1.61142 9.67837,-2.4201 23.79522,9.3999 23.79522,9.39991 C 116.77831,552.96232 95.198885,539.91512 75.204985,524.32371 59.994073,510.61653 50.16654,480.20092 50.16654,480.20092 Z"
       id="f104"
       sodipodi:nodetypes="cssscscccscsscc" />
  </g>
</svg>
