<?xml version="1.0" encoding="UTF-8" standalone="no"?>
<!-- Created with Inkscape (http://www.inkscape.org/) -->

<svg
   xmlns:dc="http://purl.org/dc/elements/1.1/"
   xmlns:cc="http://creativecommons.org/ns#"
   xmlns:rdf="http://www.w3.org/1999/02/22-rdf-syntax-ns#"
   xmlns:svg="http://www.w3.org/2000/svg"
   xmlns="http://www.w3.org/2000/svg"
   xmlns:sodipodi="http://sodipodi.sourceforge.net/DTD/sodipodi-0.dtd"
   xmlns:inkscape="http://www.inkscape.org/namespaces/inkscape"
   width="403.72781"
   height="400.70813"
   id="svg2"
   sodipodi:version="0.32"
   inkscape:version="0.91 r13725"
   sodipodi:docname="ecureuil.svg"
   version="1.0">
  <defs
     id="defs4" />
  <sodipodi:namedview
     id="base"
     pagecolor="#ffffff"
     bordercolor="#666666"
     borderopacity="1.0"
     inkscape:pageopacity="0.0"
     inkscape:pageshadow="2"
     inkscape:zoom="4.1990707"
     inkscape:cx="34.894573"
     inkscape:cy="253.7077"
     inkscape:document-units="px"
     inkscape:current-layer="layer2"
     showgrid="false"
     inkscape:window-width="1233"
     inkscape:window-height="776"
     inkscape:window-x="47"
     inkscape:window-y="24"
     inkscape:window-maximized="1" />
  <metadata
     id="metadata7">
    <rdf:RDF>
      <cc:Work
         rdf:about="">
        <dc:format>image/svg+xml</dc:format>
        <dc:type
           rdf:resource="http://purl.org/dc/dcmitype/StillImage" />
      </cc:Work>
    </rdf:RDF>
  </metadata>
  <g
     inkscape:groupmode="layer"
     id="layer2"
     inkscape:label="ecureuil"
     style="display:inline"
     transform="translate(-150.3789,-197.365)">
    <g
       id="g25230">
      <path
         style="fill:#ffffff;fill-opacity:1;fill-rule:evenodd;stroke:#000000;stroke-width:2;stroke-linecap:butt;stroke-linejoin:miter;stroke-miterlimit:4;stroke-dasharray:none;stroke-opacity:1"
         d="m 265.91461,592.48628 c 12.65505,-2.67463 26.90773,-4.22441 38.56327,-4.31372 68.71424,0.61337 84.67008,8.01763 101.40816,7.91544 16.77092,-1.02319 18.84303,-6.94611 -0.71422,-20.09988 4.62029,2.36831 10.33339,4.01042 21.87969,1.58923 28.77898,-17.71905 51.59842,-35.3693 73.85549,-63.91896 15.41637,-23.57415 19.87157,-56.28018 -13.96053,-118.49627 -16.42221,-24.57433 -20.11743,-46.22599 -10.68299,-64.86053 6.02016,13.85322 13.14425,26.24136 22.39204,35.79577 -2.23899,-11.84929 -0.84943,-18.46543 1.727,-23.35128 3.73428,7.16435 5.82963,14.57999 13.12334,21.23777 14.86109,2.91077 27.68851,-1.41283 39.60092,-5.63604 -2.86945,-17.84583 -6.11886,-60.96231 -50.35246,-105.39416 5.92904,-2.27513 12.35109,-1.24483 18.80893,0.1955 -4.24914,-13.65852 -50.70574,-58.16023 -92.89835,-54.57998 -15.07952,3.14129 -26.90029,10.66537 -27.81095,32.80838 -3.60576,-4.45082 -3.39121,-13.97929 -3.93028,-22.51456 -87.95127,51.66889 -46.78745,155.72762 -9.58537,175.94955 40.40033,17.31903 77.87125,106.84041 31.93092,183.77163 l -7.49701,3.2134 c 9.29373,-15.02376 18.85846,-17.98486 13.60363,-76.96581 -9.39014,-56.86094 -25.79025,-67.04756 -46.54998,-83.55582 -12.2343,-10.75225 -24.47559,-21.1191 -36.44193,-43.13938 -17.08364,-23.228 -25.84906,-25.8146 -37.24238,-33.68226 -19.48184,-10.93367 -51.93407,-2.64527 -41.18949,-41.01172 7.12733,-18.51868 6.21886,-34.20902 2.92747,-45.52286 -2.79548,0.9852 -6.96049,3.42693 -11.00728,6.85014 l -2.24765,-0.26275 c -0.49401,-2.51549 -1.53369,-6.17088 -3.57705,-9.09661 -8.47664,5.82586 -13.8402,14.38185 -16.65707,20.6166 -0.2955,0.65405 -0.56298,1.28256 -0.80308,1.8797 -0.2167,0.53893 -3.19637,1.75583 -3.19637,1.75583 -74.11101,25.46461 -54.44394,52.73335 -74.90259,64.16891 -5.65407,3.26053 -3.26589,13.80959 4.48208,15.30237 7.96553,6.29465 7.63724,6.37164 18.63407,4.95512 -8.67214,6.51253 16.471,5.91392 22.42915,7.22427 29.21757,7.46418 42.4388,18.62804 39.77423,26.18826 -2.19429,6.22589 -21.83763,7.14168 -56.55412,-2.14662 -6.31638,-3.744 -12.65516,-7.34595 -19.17102,-9.17152 0.15828,5.17308 3.22895,5.53525 4.94547,8.13432 l -14.90121,-2.01425 c -2.28918,3.10194 -0.94745,4.0475 -0.79849,5.70063 -1.06636,1.81399 -1.72793,3.81495 -0.49409,6.73051 -0.95982,3.06148 0.0246,4.31307 1.15061,5.42323 0.038,2.1228 0.48512,3.99677 2.49441,4.88476 5.73779,-0.0181 16.91865,-2.62031 27.64822,-0.68374 41.8769,14.04556 67.8262,29.34778 71.96387,28.80379 1.79863,-0.89361 3.69586,-2.6966 5.66094,-5.01361 l 1.62081,1.108 c 14.54736,16.18453 11.38849,36.54896 18.09408,55.19425 -0.0132,0.81011 -0.0266,1.64555 -0.0363,2.5064 -0.18175,16.05338 0.91481,40.94364 28.71286,75.15654 -23.53161,2.28612 -32.1868,2.24903 -48.0855,16.39027 -4.02833,4.73583 -7.96437,9.76324 -10.70473,18.56855 5.26117,-2.92222 9.58208,-3.53454 14.56083,-4.58679 z"
         id="f101"
         inkscape:connector-curvature="0"
         sodipodi:nodetypes="accccccccccccccccccccccccccccsscccccsccccccccccccccccca" />
      <path
         style="fill:#ffffff;fill-opacity:1;fill-rule:evenodd;stroke:#000000;stroke-width:2;stroke-linecap:butt;stroke-linejoin:miter;stroke-miterlimit:4;stroke-dasharray:none;stroke-opacity:1"
         d="m 254.84247,255.967 c -5.27846,5.23193 -11.54068,13.49278 -11.39548,20.72063 -0.23302,-6.74713 2.71046,-9.53989 4.06482,-12.66209"
         id="l101"
         inkscape:connector-curvature="0" />
      <path
         style="fill:#ffffff;fill-opacity:1;fill-rule:evenodd;stroke:#000000;stroke-width:2;stroke-linecap:butt;stroke-linejoin:miter;stroke-miterlimit:4;stroke-dasharray:none;stroke-opacity:1"
         d="m 245.81356,264.50966 c -4.06003,1.16706 -7.89836,2.34059 -11.52839,3.51882"
         id="l102"
         inkscape:connector-curvature="0" />
      <path
         style="fill:#ffffff;fill-opacity:1;fill-rule:evenodd;stroke:#000000;stroke-width:2;stroke-linecap:butt;stroke-linejoin:miter;stroke-miterlimit:4;stroke-dasharray:none;stroke-opacity:1"
         d="m 263.73093,425.68598 c 2.69574,-3.51243 5.4955,-7.71557 8.32479,-11.65098 l -9.33095,13.24873"
         id="l103"
         inkscape:connector-curvature="0" />
      <path
         id="l104"
         d="m 153.50306,388.09514 7.1068,0.64658"
         style="fill:none;fill-opacity:1;fill-rule:evenodd;stroke:#000000;stroke-width:2;stroke-linecap:butt;stroke-linejoin:miter;stroke-miterlimit:4;stroke-dasharray:none;stroke-opacity:1"
         inkscape:connector-curvature="0" />
      <path
         id="l105"
         d="m 152.98172,394.73771 7.41979,-0.29074"
         style="fill:none;fill-opacity:1;fill-rule:evenodd;stroke:#000000;stroke-width:2;stroke-linecap:butt;stroke-linejoin:miter;stroke-miterlimit:4;stroke-dasharray:none;stroke-opacity:1"
         inkscape:connector-curvature="0" />
      <path
         id="f301"
         d="m 198.4626,313.65304 c 0.60034,4.21818 -2.47311,8.1484 -6.86039,8.7728 -4.38727,0.6244 -8.43518,-2.29229 -9.03551,-6.51048 -0.60034,-4.21819 2.47311,-8.14841 6.86038,-8.77281 4.38728,-0.6244 8.43519,2.2923 9.03552,6.51049 z"
         style="display:inline;fill:none;fill-opacity:1;fill-rule:evenodd;stroke:#000000;stroke-width:2;stroke-linecap:round;stroke-linejoin:round;stroke-miterlimit:4;stroke-dasharray:none;stroke-opacity:1"
         inkscape:connector-curvature="0" />
      <path
         sodipodi:nodetypes="cc"
         id="l107"
         d="m 281.64025,483.68921 c 11.34719,-100.38834 116.03721,-45.15508 96.39754,58.9792"
         style="fill:none;fill-rule:evenodd;stroke:#000000;stroke-width:2;stroke-linecap:butt;stroke-linejoin:miter;stroke-miterlimit:4;stroke-dasharray:none;stroke-opacity:1"
         inkscape:connector-curvature="0" />
      <path
         id="l108"
         d="m 154.02824,399.89076 6.4525,-0.28703"
         style="fill:none;fill-rule:evenodd;stroke:#000000;stroke-width:2;stroke-linecap:butt;stroke-linejoin:miter;stroke-miterlimit:4;stroke-dasharray:none;stroke-opacity:1"
         inkscape:connector-curvature="0" />
    </g>
    <path
       style="fill:none;fill-rule:evenodd;stroke:#000000;stroke-width:1px;stroke-linecap:butt;stroke-linejoin:miter;stroke-opacity:1"
       d="m 178.6678,382.33378 -14.07154,-5.90567 c -0.32362,3.28028 0.63017,4.9172 4.30166,7.6555 l -13.38633,-2.16972 c 1.29565,-8.62935 5.39969,-20.09317 13.33904,-24.87537 10.00524,13.13729 9.67202,15.15546 9.81717,25.29526 z"
       id="f201"
       inkscape:connector-curvature="0"
       sodipodi:nodetypes="cccccc" />
    <path
       style="fill:none;fill-rule:evenodd;stroke:#000000;stroke-width:1px;stroke-linecap:butt;stroke-linejoin:miter;stroke-opacity:1"
       d="m 264.55525,576.20027 c -5.24949,13.70699 0.29164,16.33173 0.29164,16.33173"
       id="l109"
       inkscape:connector-curvature="0" />
  </g>
</svg>
