<?xml version="1.0" encoding="UTF-8" standalone="no"?>
<!-- Created with Inkscape (http://www.inkscape.org/) -->

<svg
   xmlns:dc="http://purl.org/dc/elements/1.1/"
   xmlns:cc="http://creativecommons.org/ns#"
   xmlns:rdf="http://www.w3.org/1999/02/22-rdf-syntax-ns#"
   xmlns:svg="http://www.w3.org/2000/svg"
   xmlns="http://www.w3.org/2000/svg"
   xmlns:sodipodi="http://sodipodi.sourceforge.net/DTD/sodipodi-0.dtd"
   xmlns:inkscape="http://www.inkscape.org/namespaces/inkscape"
   version="1.0"
   width="720.19177"
   height="928.2121"
   id="svg2"
   sodipodi:version="0.32"
   inkscape:version="0.91 r13725"
   sodipodi:docname="lys.svg"
   inkscape:output_extension="org.inkscape.output.svg.inkscape"
   sodipodi:modified="true">
  <metadata
     id="metadata12">
    <rdf:RDF>
      <cc:Work
         rdf:about="">
        <dc:format>image/svg+xml</dc:format>
        <dc:type
           rdf:resource="http://purl.org/dc/dcmitype/StillImage" />
      </cc:Work>
    </rdf:RDF>
  </metadata>
  <sodipodi:namedview
     inkscape:window-height="721"
     inkscape:window-width="1024"
     inkscape:pageshadow="2"
     inkscape:pageopacity="0.0"
     guidetolerance="10.0"
     gridtolerance="10.0"
     objecttolerance="10.0"
     borderopacity="1.0"
     bordercolor="#666666"
     pagecolor="#ffffff"
     id="base"
     inkscape:zoom="0.45522603"
     inkscape:cx="274.04246"
     inkscape:cy="479.65015"
     inkscape:window-x="57"
     inkscape:window-y="34"
     inkscape:current-layer="svg2"
     showgrid="false"
     inkscape:window-maximized="0" />
  <defs
     id="defs4" />
  <path
     d="m 407.61506,609.19929 c 1.42457,-61.95601 16.75116,-119.53947 45.28957,-174.1086 74.71442,-157.1858 302.92034,-153.43174 252.61522,38.81131 -18.53686,70.83937 -81.50861,112.47386 -156.31886,119.61501 5.39959,-18.66537 35.10029,-84.65245 11.12447,-97.56156 -38.33816,1.4484 -85.94434,67.7051 -97.39282,99.30072 -1.6527,4.5361 -1.19041,9.77801 -3.03584,14.24007"
     style="display:inline;fill:#fcef3c;fill-opacity:1;fill-rule:evenodd;stroke:#000000;stroke-width:15;stroke-linecap:butt;stroke-linejoin:miter;stroke-miterlimit:4;stroke-dasharray:none;stroke-opacity:1"
     id="f11"
     sodipodi:nodetypes="ccscscc"
     inkscape:connector-curvature="0" />
  <path
     d="M 312.57669,613.29534 C 311.15212,551.33933 295.82553,493.75587 267.28712,439.18674 192.5727,282.00094 -35.63322,285.755 14.671899,477.99805 c 18.536864,70.83937 81.508607,112.47386 156.318861,119.61501 -5.39959,-18.66537 -35.10029,-84.65245 -11.12447,-97.56156 38.33816,1.4484 85.94434,67.7051 97.39282,99.30072 1.6527,4.5361 1.19041,9.77801 3.03584,14.24007"
     style="fill:#fcef3c;fill-opacity:1;fill-rule:evenodd;stroke:#000000;stroke-width:15;stroke-linecap:butt;stroke-linejoin:miter;stroke-miterlimit:4;stroke-dasharray:none;stroke-opacity:1"
     id="f12"
     sodipodi:nodetypes="ccscscc"
     inkscape:connector-curvature="0" />
  <path
     d="m 355.67967,13.043268 c -78.7143,84.84944 -131.56461,182.961582 -108.78125,298.031252 12.56957,63.48391 43.04182,122.27973 64.53125,183.4375 13.43648,38.36985 16.87223,78.45173 15.28125,118.78125 l 66.78125,0 c -3.19651,-40.62617 3.80671,-79.99824 15.28125,-118.78125 20.47419,-61.5383 51.62579,-119.90553 64.53125,-183.4375 C 497.43269,192.29533 440.79776,102.715 364.86717,13.418268 L 360.22674,7.5 l -4.54707,5.543268 z"
     style="fill:#fcef3c;fill-opacity:1;fill-rule:nonzero;stroke:#000000;stroke-width:15;stroke-linecap:butt;stroke-linejoin:miter;stroke-miterlimit:4;stroke-dasharray:none;stroke-opacity:1"
     id="f13"
     sodipodi:nodetypes="csccccsccc"
     inkscape:connector-curvature="0" />
  <path
     d="m 293.39842,660.32452 c -13.96166,39.13002 -70.88818,110.79207 -101.125,131.21875 -7.84217,5.29785 37.48637,-3.05157 57.78125,-7.5 26.61901,-5.83464 61.21745,-34.19759 60.40625,-24.1875 -0.0756,45.83826 12.81104,122.32424 46.40625,157.46875 l 3.18208,3.3876 3.28667,-3.3876 c 33.57769,-39.17095 46.23761,-108.04198 46.40625,-157.46875 -0.8112,-10.01009 33.78725,18.35286 60.40625,24.1875 20.29488,4.44843 65.62342,12.79785 57.78125,7.5 C 497.69285,771.11659 440.7976,699.45454 426.83592,660.32452 l -133.4375,0 z"
     style="fill:#fcef3c;fill-opacity:1;fill-rule:evenodd;stroke:#000000;stroke-width:15;stroke-linecap:butt;stroke-linejoin:miter;stroke-miterlimit:4;stroke-dasharray:none;stroke-opacity:1"
     id="f14"
     sodipodi:nodetypes="cssscccssscc"
     inkscape:connector-curvature="0" />
  <path
     style="fill:#fcef3c;fill-opacity:1;stroke:#000000;stroke-width:15;stroke-miterlimit:4;stroke-dasharray:none;stroke-opacity:1"
     d="m 201.40587,611.30255 317.88772,0 0,51.50335 -317.88772,0 z"
     id="f15"
     inkscape:connector-curvature="0" />
</svg>
