<?xml version="1.0" encoding="UTF-8" standalone="no"?>
<svg
   xmlns:dc="http://purl.org/dc/elements/1.1/"
   xmlns:cc="http://creativecommons.org/ns#"
   xmlns:rdf="http://www.w3.org/1999/02/22-rdf-syntax-ns#"
   xmlns:svg="http://www.w3.org/2000/svg"
   xmlns="http://www.w3.org/2000/svg"
   xmlns:sodipodi="http://sodipodi.sourceforge.net/DTD/sodipodi-0.dtd"
   xmlns:inkscape="http://www.inkscape.org/namespaces/inkscape"
   height="326"
   width="181"
   id="svg2"
   version="1.1"
   inkscape:version="0.91 r13725"
   sodipodi:docname="hermine.svg">
  <metadata
     id="metadata17">
    <rdf:RDF>
      <cc:Work
         rdf:about="">
        <dc:format>image/svg+xml</dc:format>
        <dc:type
           rdf:resource="http://purl.org/dc/dcmitype/StillImage" />
        <dc:title></dc:title>
      </cc:Work>
    </rdf:RDF>
  </metadata>
  <defs
     id="defs15" />
  <sodipodi:namedview
     pagecolor="#ffffff"
     bordercolor="#666666"
     borderopacity="1"
     objecttolerance="10"
     gridtolerance="10"
     guidetolerance="10"
     inkscape:pageopacity="0"
     inkscape:pageshadow="2"
     inkscape:window-width="1233"
     inkscape:window-height="776"
     id="namedview13"
     showgrid="false"
     inkscape:zoom="1.7730541"
     inkscape:cx="90.5"
     inkscape:cy="163"
     inkscape:window-x="47"
     inkscape:window-y="24"
     inkscape:window-maximized="1"
     inkscape:current-layer="svg2" />
  <path
     style="stroke:#000000;stroke-width:3;stroke-linecap:round;stroke-linejoin:round"
     inkscape:connector-curvature="0"
     id="f101"
     d="m 90.5,90.5 c -13,69.5 -40,120.5 -68,155.5 12,-4 25,-14 37.5,-22 -7.5,18 -15.5,34 -23.5,50 4,-2 20,-18 40,-42 3,33 8,70 14,92.5 6,-22.5 11,-59.5 14,-92.5 20,24 36,40 40,42 -8,-16 -16,-32 -23.5,-50 12.5,8 25.5,18 37.5,22 -28,-35 -55,-86 -68,-155.5 z" />
  <path
     style="stroke:#000000;stroke-width:3;stroke-linecap:round;stroke-linejoin:round"
     inkscape:connector-curvature="0"
     d="m 146.5,98.85 c 2.3,-3.7 17.2,13 33,-11.5 -29.4,21.7 -42.2,-39.76 -69,-6.3 -10.6,13.2 11,46.4 36,17.8 z"
     id="f102" />
  <path
     id="f103"
     d="m 34.5,98.85 c -2.3,-3.7 -17.2,13 -33,-11.5 29.4,21.7 42.2,-39.76 69,-6.3 10.6,13.2 -11,46.4 -36,17.8 z"
     inkscape:connector-curvature="0"
     style="stroke:#000000;stroke-width:3;stroke-linecap:round;stroke-linejoin:round" />
  <path
     id="f104"
     d="m 96.338141,38.29932 c -3.7,-2.3 12.999999,-17.2 -11.5,-33 21.699999,29.4 -39.76,42.2 -6.3,69 13.2,10.6 46.399999,-11 17.8,-36 z"
     inkscape:connector-curvature="0"
     style="stroke:#000000;stroke-width:3;stroke-linecap:round;stroke-linejoin:round" />
</svg>
