<?xml version="1.0" encoding="UTF-8" standalone="no"?>
<!-- Generator: Adobe Illustrator 19.2.0, SVG Export Plug-In . SVG Version: 6.00 Build 0)  -->

<svg
   xmlns:dc="http://purl.org/dc/elements/1.1/"
   xmlns:cc="http://creativecommons.org/ns#"
   xmlns:rdf="http://www.w3.org/1999/02/22-rdf-syntax-ns#"
   xmlns:svg="http://www.w3.org/2000/svg"
   xmlns="http://www.w3.org/2000/svg"
   xmlns:sodipodi="http://sodipodi.sourceforge.net/DTD/sodipodi-0.dtd"
   xmlns:inkscape="http://www.inkscape.org/namespaces/inkscape"
   version="1.1"
   id="Layer_1"
   x="0px"
   y="0px"
   viewBox="0 0 603 319.1"
   style="enable-background:new 0 0 603 319.1;"
   xml:space="preserve"
   inkscape:version="0.91 r13725"
   sodipodi:docname="leopard_passant.svg"><metadata
     id="metadata77"><rdf:RDF><cc:Work
         rdf:about=""><dc:format>image/svg+xml</dc:format><dc:type
           rdf:resource="http://purl.org/dc/dcmitype/StillImage" /></cc:Work></rdf:RDF></metadata><defs
     id="defs75" /><sodipodi:namedview
     pagecolor="#ffffff"
     bordercolor="#666666"
     borderopacity="1"
     objecttolerance="10"
     gridtolerance="10"
     guidetolerance="10"
     inkscape:pageopacity="0"
     inkscape:pageshadow="2"
     inkscape:window-width="1233"
     inkscape:window-height="776"
     id="namedview73"
     showgrid="false"
     inkscape:zoom="8.4302707"
     inkscape:cx="219.04732"
     inkscape:cy="253.27688"
     inkscape:window-x="47"
     inkscape:window-y="24"
     inkscape:window-maximized="1"
     inkscape:current-layer="Layer_1" /><style
     type="text/css"
     id="style3">
	.st0{fill:#FCEF3C;stroke:#000000;stroke-width:3;stroke-miterlimit:10;}
	.st1{fill:#FFFFFF;}
	.st2{fill-rule:evenodd;clip-rule:evenodd;fill:#FCEF3C;stroke:#000000;stroke-width:3;stroke-miterlimit:10;}
</style><path
     class="st0"
     d="m 305.2,244 c -0.7,-0.4 10.5,-7.2 8.4,-10.3 -11.8,-10.1 -23,-15.8 -29.9,9.3 9.7,-9 15.4,-3.5 21.5,1 z"
     id="f212"
     inkscape:connector-curvature="0"
     style="fill:#fcef3c;stroke:#000000;stroke-width:3;stroke-miterlimit:10" /><path
     class="st0"
     d="m 298.9,286.1 c 1.6,1.9 -2.4,-24.7 -10.5,-16.7 -14.9,9.2 -14.4,19.1 -2.6,29.6 2.3,-15.6 7.8,-14.1 13.1,-12.9 z"
     id="f215"
     inkscape:connector-curvature="0"
     style="fill:#fcef3c;stroke:#000000;stroke-width:3;stroke-miterlimit:10" /><path
     class="st0"
     d="m 343.8,298.7 c 1.2,-2.7 -4.2,-5 -9.5,-5.2 -5.3,-0.3 -10.4,1.4 -8.6,6.4 3.8,10.5 8.2,14.9 11,17.3 2.1,-1.6 6.2,-8.2 7.1,-18.5 z"
     id="f216"
     inkscape:connector-curvature="0"
     style="fill:#fcef3c;stroke:#000000;stroke-width:3;stroke-miterlimit:10" /><path
     class="st0"
     d="m 372.3,284.4 c 0.6,-6.8 -19.5,-0.2 -15.3,2.2 4.2,2.4 7.1,5.8 1.9,15.8 16.8,-3.3 12.7,-11.2 13.4,-18 z"
     id="f217"
     inkscape:connector-curvature="0"
     style="fill:#fcef3c;stroke:#000000;stroke-width:3;stroke-miterlimit:10" /><path
     class="st0"
     d="m 397.25896,140.11474 c 0.0678,2.40482 -11.5969,1.95399 -13.94777,4.16452 -4.58985,4.31584 -13.54502,8.80943 -25.91119,15.62074 -16.4,10.8 -32.5,25.5 -6.4,58.7 4.6,5.9 10.2,16 -12.5,30.4 -2.5,0.8 -7,2.2 -13.2,0.7 -1.9,-4.9 -2.1,-8.7 -1.7,-12.2 -3,-16.5 -28.2,-2.6 -19.5,12.2 11.1,9.5 7.7,12.2 -3.8,11.1 -5.8,1.1 -11.7,2.1 -19.8,5.9 -0.1,2 -0.1,3.8 0.7,4.9 12.6,-1.5 14,13.4 13.9,16.7 1.7,0.4 3.3,0.9 5.9,0.3 12.9,-8.7 14.2,-8.3 17.6,-8 5.1,1.8 -2.3,19.4 7.8,25 6.3,-13.2 17.1,-5.5 18.6,-0.4 2.6,-3.8 2.4,-9.9 1.9,-16.3 1.9,-14.3 8.3,-6.4 11.1,-0.3 6.5,-8.6 10,-5.4 14.4,1 3.1,0.4 3.4,0 4.7,-1.4 l 1.7,-10.1 c 0.6,-13.5 10.1,-13.5 12.2,-1.6 1.7,-1.8 3.8,-2.8 3.8,-4.7 0.3,-18.2 1.4,-14 9.5,-2.1 3.9,-37.3 7.1,-12.1 10.6,-17.3 3.9,-9.3 -10,-22.2 11.5,-19.8 -3.4,-5.2 -12,-5.9 -9,-16.7 1.1,-6.9 -5.3,-9.8 -13.6,-11.8 -17.2,-6.1 -7.1,-11.6 -3.1,-16 l 15,-9.7 c -0.33316,-7.12527 -4.31771,-19.46348 -13.11478,-20.75565 5.9236,-10.22898 2.25739,-12.49432 -5.32626,-17.52961 z"
     id="f104"
     inkscape:connector-curvature="0"
     style="fill:#fcef3c;stroke:#000000;stroke-width:3;stroke-miterlimit:10"
     sodipodi:nodetypes="cscccccccccccccccccccccccccccccc" /><path
     class="st0"
     d="m 428.4,92.9 c 35.6,12.1 71.3,23.7 113.1,15.5 37.3,-14 38.8,-46.6 2,-63.8 C 527.1,38.9 526.3,26.7 433.1,52.7 399,66.4 368.8,69 345,53.8 325.7,41.5 304.7,31.4 258.9,57.5 c 6,-20.5 20.4,-25.7 32.8,-34.8 -5.2,-1.3 -16.1,-0.4 -26,0 8.7,-9.7 24.1,-6 38.8,-4.1 -4.1,-2.5 -9.2,-5.4 -19.6,-10.1 19.1,-0.3 26.5,3.6 38.8,5.7 -1.1,-2.1 -2.6,-4.6 -8.1,-9.8 13.2,0.7 24.3,3 33.8,12.5 -1.5,-3.9 -2.3,-7.3 -2,-9.5 5.5,3.4 10.8,7.9 15.9,16.2 0.6,-6.2 3.2,-9.6 7.4,-10.8 0.2,3.4 0.5,7.5 0.7,11.8 3.2,-1 5.2,-1.5 7.1,-2 -1.6,7.4 2.7,9.3 7.8,10.5 14,5.2 28.6,4 43.6,-2 14,-5.1 28.7,-9.9 46.3,-13.2 56.8,-6.4 84.1,5.2 103.3,21.6 10.3,6.7 30.5,40.1 -1.7,71.6 -11.6,7.2 -14.4,15.9 -44.2,16.9 -25.36205,1.24324 -49.21281,-1.01698 -72.74794,-4.0477 C 452.9536,116.19934 432.1885,99.522441 416.14211,94.820574 421.35281,91.015329 425.12836,91.105505 428.4,92.9 Z"
     id="f105"
     inkscape:connector-curvature="0"
     style="fill:#fcef3c;stroke:#000000;stroke-width:3;stroke-miterlimit:10"
     sodipodi:nodetypes="ccccccccccccccccccccccccccc" /><path
     class="st0"
     d="m 42.028346,30.956693 c 1,2.7 -1.8,3.2 -10.9,5.1 C 26.528346,30.256693 26.4,26 15.4,24.3 30.3,13.8 41.128346,14.156693 42.028346,30.956693 Z"
     id="f202"
     inkscape:connector-curvature="0"
     style="fill:#fcef3c;stroke:#000000;stroke-width:3;stroke-miterlimit:10"
     sodipodi:nodetypes="cccc" /><path
     class="st0"
     d="m 82.543307,51.3 c -4.65415,-4.566178 -7.777941,-7.051576 -11.8,-10 7.4,-1.4 9.856693,-9.4 3.556693,-17.8 18.9,5.9 17.043307,25.8 8.243307,27.8 z"
     id="f201"
     inkscape:connector-curvature="0"
     style="fill:#fcef3c;stroke:#000000;stroke-width:3;stroke-miterlimit:10"
     sodipodi:nodetypes="cccc" /><path
     class="st0"
     d="M 22.9,84 C 31.6,85.7 27.6,63 15.3,64.9 2.9,66.9 -1.7,76.5 3.8,96.2 7.4,85.2 14.2,82.3 22.9,84 Z"
     id="f203"
     inkscape:connector-curvature="0"
     style="fill:#fcef3c;stroke:#000000;stroke-width:3;stroke-miterlimit:10" /><path
     class="st0"
     d="M 45.156693,124.2 C 42.240936,112.1 38.014587,112.53783 31.428346,110.17165 27.428346,114.87165 26,120.2 14.1,112.2 c 0.2,26.2 24.756693,16.5 31.056693,12 z"
     id="f204"
     inkscape:connector-curvature="0"
     style="fill:#fcef3c;stroke:#000000;stroke-width:3;stroke-miterlimit:10"
     sodipodi:nodetypes="cccc" /><path
     class="st0"
     d="m 128.14764,189.8 c 5.86992,-10.4504 13.32286,-19.3866 14.06531,-34.74153 l 3.4197,-30.00065 c -4.71295,0.81382 -11.88149,0.78265 -17.88081,-1.86183 3.043,-1.45571 10.41338,-3.22967 8.57338,-4.58499 C 122.66493,108.54894 95.55184,93.569938 78.9,81.2 63.5,72 75,60.4 82.4,59.6 c 2.1,-2.7 0.8,-5.7 -1,-9.1 -5,-5.4 -7.9,-8.3 -10.3,-9.1 -3,-1 -6.8,-4.4 -5.4,5.9 1.1,7.3 -6.7,22.9 -15.2,6.6 -0.8,-5.6 -0.9,-11.6 -0.5,-16 -1.4,-2.7 -1,-7.2 -5.4,-6.9 -6.9,2.5 -12.1,3.9 -15.7,4.4 -1.4,6.5 -3,12.3 8.8,13.8 0.7,4.6 2.2,9.9 -1.5,10.8 -8.9,-0.7 -20.4,-7.7 -26,6.9 16,2.3 14.5,13.3 8.8,17.2 1.5,4.8 4.3,5.9 8.4,3.4 12.4,-5.9 13,-3.1 15.7,-1.5 2,8.2 0.8,14.5 -10.8,14.2 -2.8,1 -3.9,5.2 -2.2,10.1 13.4,3 13.5,7.5 14.7,14 6.4,2.9 6.7,8.2 7.1,-8.1 1.7,-8.6 10.9,-0.5 7.1,4.9 7.2,4.2 11.6,0.3 3.4,10.1 2.4,3.7 24.5,1.3 7.4,11.3 7.6,3 25.7,2.1 9.1,14.3 3.8,4 30.9,2.3 8.4,12.8 35.1,5.2 22.1,8.9 15.7,12.8 l 23.1,6.4 z"
     id="f102"
     inkscape:connector-curvature="0"
     style="fill:#fcef3c;stroke:#000000;stroke-width:3;stroke-miterlimit:10"
     sodipodi:nodetypes="ccccscccsccccccccccccccccccccccc" /><path
     class="st0"
     d="M 19.556693,250.57165 C 5.8566929,260.07165 7.5,276 24.8,281.8 c -3.6,-11.1 -2.171654,-16.52835 6.328346,-20.62835 -0.473811,-5.12552 -5.442599,-8.13576 -11.571653,-10.6 z"
     id="f205"
     inkscape:connector-curvature="0"
     style="fill:#fcef3c;stroke:#000000;stroke-width:3;stroke-miterlimit:10"
     sodipodi:nodetypes="cccc" /><path
     class="st0"
     d="M 57.228346,272.44331 C 50.328346,291.84331 59.5,298.8 81.9,299.7 73.2,292 72.6,287.14331 76.6,278.14331 c -5.573892,-6.53747 -12.492025,-6.01766 -19.371654,-5.7 z"
     id="f206"
     inkscape:connector-curvature="0"
     style="fill:#fcef3c;stroke:#000000;stroke-width:3;stroke-miterlimit:10"
     sodipodi:nodetypes="cccc" /><path
     class="st0"
     d="m 118.4,257.4 c 5.6,16.7 -2.4,22.8 -13.8,26.3 4.9,-9.6 3.7,-16.9 -1,-22.7"
     id="f207"
     inkscape:connector-curvature="0"
     style="fill:#fcef3c;stroke:#000000;stroke-width:3;stroke-miterlimit:10" /><path
     class="st0"
     d="M 58.328346,195.42835 C 44.428346,180.52835 29.6,184.5 24.3,201.5 c 12.8,-3.9 16.4,-2.67165 17.2,2.32835 8.147221,0.92206 13.712559,-1.94263 16.828346,-8.4 z"
     id="f208"
     inkscape:connector-curvature="0"
     style="fill:#fcef3c;stroke:#000000;stroke-width:3;stroke-miterlimit:10"
     sodipodi:nodetypes="cccc" /><path
     class="st0"
     d="M 504.35669,263.07165 C 493.45669,271.77165 489.5,279.6 502.7,294.9 c 0.9,-11.4 2.95669,-17.12835 12.85669,-21.32835 -2.09619,-4.72786 -5.1067,-8.76998 -11.2,-10.5 z"
     id="f209"
     inkscape:connector-curvature="0"
     style="fill:#fcef3c;stroke:#000000;stroke-width:3;stroke-miterlimit:10"
     sodipodi:nodetypes="cccc" /><path
     class="st0"
     d="m 533.32835,283.37165 c -9.9,9.5 -9.92835,16.72835 1.77165,24.92835 2.5,-6.4 -0.37165,-12.62835 13.12835,-13.92835 -3.80999,-4.74072 -6.62383,-10.40644 -14.9,-11 z"
     id="f210"
     inkscape:connector-curvature="0"
     style="fill:#fcef3c;stroke:#000000;stroke-width:3;stroke-miterlimit:10"
     sodipodi:nodetypes="cccc" /><path
     class="st0"
     d="m 575,291.54331 c 9.6,4 11.3,8.75669 12,17.55669 15.2,-7.5 10.9,-15.75669 10.3,-26.65669 -7.79414,-3.46123 -14.93991,4.74834 -22.3,9.1 z"
     id="f211"
     inkscape:connector-curvature="0"
     style="fill:#fcef3c;stroke:#000000;stroke-width:3;stroke-miterlimit:10"
     sodipodi:nodetypes="cccc" /><path
     style="fill:#fcef3c;stroke:#000000;stroke-width:3;stroke-miterlimit:10"
     d="m 222.19288,220.54406 c 13.62625,-11.38287 13.09657,-0.116 14.40712,6.15594 20.7,-35.2 12,-22.9 18.7,-17.7 15.8,-30.2 11.2,-12.4 14.5,-13 12.2,-26.9 12.6,-17.7 17.1,-20.8 20.1,-23.6 61.1,-30.2 99.8,-38.7 14.98129,3.39123 22.30881,13.14359 14.95684,20.9 7.38772,-1.05539 15.40403,11.26273 14.44316,22.5 33.2,33.6 72.8,25.9 109.6,36.3 4.5,6.3 9.5,12.3 15.4,17.7 -0.9,4.6 0.2,8.7 1.5,12.8 -8.2,2.1 -13.6,-1.7 -26.7,10.6 l -8.8,0.8 c -5.7,-0.5 -5.6,2.2 -3.7,5.7 3,-1.1 8.3,3.8 14.9,12.2 21.3,-13.1 22.4,-8.7 25,-6.6 -9.3,6.3 -14.1,4.3 -11.1,14.9 8.6,-1.7 12,6 16.4,12 4.1,0.3 8.5,2.4 11.3,-5.9 2.3,-10.8 11.6,-7.4 13.2,2.4 18.1,-15.1 20.4,-10.5 25.7,-9.8 5.1,-5.4 2.6,-9.2 -1.2,-12.8 -26.5,-11.9 -7.9,-19.1 -3,-20.3 -6,-3.7 -5.9,-11.7 -0.7,-23.5 -3.9,-0.2 -6.6,-1 -16,1.9 -13.7,-6.2 -2.1,-7.1 -0.5,-10.1 -22.9,-16.7 -0.9,-8.9 -1,-13.2 -25.6,-16.2 -3.4,-10.4 -3.2,-14.9 -4,-5.3 -20.7,6.7 -13,-14 -10.2,1.3 -22.3,5.3 -19.1,-12.5 -10.2,4.9 -36.2,14 -67.5,-23.8 -13,-17.7 -47.1,-48 -71.4,-47.1 -40.4,4.8 -60.3,-1.4 -126.6,17.4 L 254.69068,110.87663 251,109.8 c -5.2,-3.3 -8.8,-6.8 -11.7,-10.5 l 7.9,-0.5 c -2.8,-3.4 -6,-6.8 -11,-9.3 l 1.2,-4.3 c -4.9,-2.2 -6.2,-5.6 -8.6,-8.6 -0.2,-4 0.3,-6.7 1,-9.3 5.7,-1.5 1.3,-7.8 -1.2,-13.1 2.4,-4.1 4.7,-6.2 5.9,-18.2 26.2,-5.5 10.3,-34.3 -8,-21.5 C 223,12.1 219.5,6 216,9.7 l -1,-5.2 c -2.2,0.2 -5.6,1.6 -9.6,3.6 -1.5,-1.9 -1.7,-3.8 -1.9,-5.7 -4.8,2.5 -7.1,4.9 -10.3,6.9 l -4.5,-5.7 c -1,1.5 -2.1,3.1 -6.2,6 -3.3,-1 -6.5,-2 -12.9,4.1 -17.2,-24.1 -46.3,5.9 -18.1,24.1 -0.8,7.5 -1.9,15 -1.4,22.4 -3.1,1.4 -3.6,3.7 -4.1,6 2.1,-1.3 4.3,-2.5 6.4,-2.9 -1.1,10.1 -4.3,14.4 -7.2,19.8 l 8.1,-3.6 c 2,15.3 -10.8,19.7 -21.7,25.6 4,2.5 8.4,3.2 13.1,3.5 -4,6.3 -9.4,11.4 -17,14.6 2.69538,1.28221 13.4498,3.28809 17.6557,1.5621 -2.10653,24.85585 -7.54553,58.50864 -26.15566,72.8379 -0.8,0.6 -10.8,5.2 -11.6,5.6 -15.4,9.5 -29.1,19 -35.4,17 -7.2,-1 -9.2,-4.4 -7.4,-9.5 0.8,-4.4 1.4,-8.8 0,-12.8 -1.2,-1.9 -0.9,-5 -5.4,-4.4 -4.3,8.6 -11.5,11.1 -20.3,9.8 -2.2,1 -3.6,4.2 -1.7,7.8 13.1,8 10.4,9.4 11.5,20.6 -7.4,2 -14.8,4.1 -16.5,8.8 -4.1,-0.4 -8.3,-0.9 -11.5,0 -1.6,3.7 -2.3,7.2 -1.7,10.5 14.4,5.7 10.1,8.2 12.2,11.8 8.1,-1.8 14.7,-8.3 21.9,-12.5 11.4,-4.3 10.7,4.8 8.1,9.5 -2.6,0.5 -5.2,4.1 -7.8,7.1 -1.6,3.6 -1,5 -0.3,6.4 20.5,-1.9 17.8,3.2 23.6,5.7 9.9,2 5.1,-3.9 6.1,-6.8 -2.4,-9 1.7,-9.5 3.4,-13.2 3.1,-2.6 8.4,-6.1 8.1,3.7 1.6,8.4 6.4,7 11.1,5.7 -1.5,-9.9 3.5,-11.5 12.8,-7.4 1.8,-0.9 3.2,-2.6 3.7,-5.7 -5.6,-12.4 7.9,-15.1 15.2,-9.1 l -1,12.2 c 7.2,-11.9 13.4,-17.3 17.9,-18.6 -1.5,7.2 -1.7,13 0,16.5 10.3,-18.2 15.6,-19.3 20.6,-18.9 -0.8,6.5 -0.4,10.1 -0.3,14.5 6.6,-5.2 10.3,-10.9 13.8,-16.5 7.5,-5.2 8.4,0.7 7.4,9.8 2,0.4 4.8,-2.2 9.5,-7.4 5.3,-11.3 9.1,-11.6 13.8,-9.8 0.0947,-1.30736 0.2505,-2.73678 0.42036,-4.21615 0.21014,-1.59573 1.8367,-2.45614 2.77248,-3.23979 z"
     id="f101"
     inkscape:connector-curvature="0"
     sodipodi:nodetypes="cccccccccccccccccccccccccccccccccccccccccccccccccccccccccccccccccccccccccccccccccccccccccccccccccc" /><path
     style="fill:#fcef3c;stroke:#000000;stroke-width:3;stroke-miterlimit:10"
     d="m 219.9014,223.04757 c 0.51423,-5.02605 0.69149,-13.39162 -1.20136,-15.34757 1.2,-1.5 5.1,0.9 8.4,2.4 1,-6.4 -0.2,-15.3 -1.3,-24.3 3.6,0 5.5,1.7 7.8,3 -0.9,-8.4 -1.8,-16.7 -4.1,-20.3"
     id="l113"
     inkscape:connector-curvature="0" /><path
     style="fill:#fcef3c;stroke:#000000;stroke-width:3;stroke-miterlimit:10"
     d="m 146.01697,125.25519 c 1.77578,-0.16314 5.31832,-0.32934 7.28303,-0.35519 0.7,4.9 -2.2,9.1 -5.5,13.1 7.5,-0.2 12.6,-1.8 17.9,-3.3 1.8,4.9 -0.5,9.7 -1.7,14.6 5.6,-3.4 9,-8 11.9,-10 -0.1,6.9 4.4,9.7 7.6,13.6 1.6,-4 3.2,-7.8 5.3,-10 4,2.4 7.1,5.1 9.8,7.9 1.7,-3.6 3.6,-6.8 5.7,-8.6 8.4,3.6 9.6,5.3 12.9,7.6 0.7,-2.3 0.3,-5.7 1.4,-10.3 5.6,4.8 13.3,4.8 20.5,5.7 -2,-3.4 -3.9,-6.9 -5.5,-10.7 7.3,-0.6 12.4,0 17.4,0.7 -2.6,-3.7 -5.8,-7.4 -12.4,-11.5 5.2,0.4 9.5,0.3 13.8,0.2 -4.7,-3.5 -9.4,-6.9 -13.6,-11.7 2.70632,-1.47015 6.19366,-0.56629 10.31911,-2.28035"
     id="l101"
     inkscape:connector-curvature="0"
     sodipodi:nodetypes="ccccccccccccccccccc" /><path
     d="m 195.1,38.9 c 0.3,-0.8 -0.9,-1.4 -2.3,-1.6 -0.7,-0.1 -0.3,-1.4 -0.6,-1.4 -0.8,0 -0.1,2.4 -2.1,1.5 -1.1,-0.5 -0.5,-2.9 -0.5,-3 0.5,-0.7 0.2,-2.5 -1.6,-2.9 -1.2,-0.3 -0.6,-2 -1.2,-1.5 -0.3,0.2 0.4,5.9 0.1,6.2 -1.7,1.6 -3.7,3.9 -3.8,3.6 -1.3,-3.2 -3.6,-3.8 -7.9,-4.7 -1.2,-0.4 -4.7,-0.1 -6.2,0 -4.2,0.8 -7.2,2.3 -9.4,7.3"
     id="l103"
     inkscape:connector-curvature="0"
     sodipodi:nodetypes="cssccccccccc"
     style="fill:none;stroke:#000000;stroke-opacity:1" /><path
     d="m 223.7,41.3 c 0.6,0.6 -0.9,-3.2 -0.8,-4.1 -3,-2.4 -4.8,-2.4 -9.6,-3.9 -1.2,-0.3 -5.8,-0.3 -7.8,0.5 -11,7.8 -10.2,-4.3 -11,-2.7"
     id="l104"
     inkscape:connector-curvature="0"
     sodipodi:nodetypes="ccccc"
     style="fill:none;stroke:#000000;stroke-opacity:1" /><path
     class="st1"
     d="m 169.7,38.7 c -0.4,0.2 -0.4,1.9 -0.3,2.4 0.6,1.7 0.2,1.1 1.2,1.9 1,0.9 3.8,0.8 5,0.6 2.3,-0.4 2.9,-1.2 2.9,-3.9 0,-0.5 -0.9,0.1 -0.9,-0.5 -0.1,-0.4 -0.5,-1.2 -1.2,-0.9 -0.5,0.2 0,2 -0.3,2.7 -0.6,1.4 -1.7,1.3 -2.4,1.4 -0.3,0.1 -1.6,-1.1 -2.1,-1.5 C 170,39.3 171,38 169.7,38.7 Z"
     id="f401"
     inkscape:connector-curvature="0"
     style="fill:#ffffff" /><path
     class="st1"
     d="m 207.5,36.7 c -0.4,0.3 -0.3,3.2 -0.1,3.6 0.6,1.7 0.1,0.6 0.9,1.6 0.6,0.7 3,0.9 5,0.6 1.2,-0.2 2.3,-1.4 2.9,-3.9 0,-0.5 -0.9,0.1 -1,-0.4 -0.1,-0.4 -0.5,-1.2 -1.2,-0.9 -0.5,0.2 -0.1,2 -0.3,2.7 -0.4,1.2 -1.1,0.2 -1.9,0.4 -0.3,0.1 -1.3,-0.4 -1.9,-0.6 -2.8,-0.7 -0.5,-4.3 -2.4,-3.1 z"
     id="f403"
     inkscape:connector-curvature="0"
     style="fill:#ffffff" /><path
     class="st1"
     d="m 173.1,37.8 c 0,0.2 0,0.4 0.1,0.5 0.8,0.2 1.1,0.7 1.2,1.3 l 0.6,0 c 0.9,-2.1 -0.6,-2.3 -1.9,-1.8 z"
     id="f402"
     inkscape:connector-curvature="0"
     style="fill:#ffffff" /><path
     class="st1"
     d="m 211.1,35.8 c 0,0.2 0,0.4 0.1,0.5 0.8,0.2 1.1,0.7 1.3,1.3 l 0.6,0 c 0.7,-2.1 -0.8,-2.3 -2,-1.8 z"
     id="f404"
     inkscape:connector-curvature="0"
     style="fill:#ffffff" /><path
     d="m 157.3,10.9 c -1.1,0 -2,0.1 -3.2,0.3 -2.9,0.5 -6,1.1 -7,8.7 -0.4,0.7 0.8,3.2 1.6,3 0.7,-0.2 0.5,-0.9 0.9,-1.7 1.2,-2.4 1.9,-3.8 2.8,-4.9 1.1,-1.4 2.8,-2.1 3.7,-2.2 0.9,-0.1 1.8,1.9 0.5,3 -1.3,1.1 -2.4,3.5 -2.8,5.6 0.4,0.6 -0.1,4.9 0.2,4.3 3.3,-5.2 5.7,-6.5 7.3,-9.4 1.1,-2 0.6,-2.7 0,-4.3 -0.3,-0.9 -2.9,-2.4 -4,-2.4 z"
     id="l109"
     inkscape:connector-curvature="0" /><path
     d="m 235.3,16.4 c 2.4,-0.3 5.7,-0.8 7.3,6 -2.1,-1.3 -1.9,-2.1 -5.3,-3 -1.9,0.2 -4.4,0.1 -4.6,1.6 -0.1,0.9 0.2,1.4 0.3,3.1 -0.4,0.6 0.5,4.4 0.1,3.8 -3.2,-4.6 -4.3,-3.5 -4.6,-6.6 -0.3,-5.2 3.9,-4.6 6.8,-4.9 z"
     id="l110"
     inkscape:connector-curvature="0" /><path
     d="m 183.2,57.5 c -0.2,0.4 -0.1,2.5 0.1,2.9 9.01154,4.917325 12.43565,11.205739 11.7,11.328346 -0.46902,-0.201008 1.94668,-5.70834 10,-10.028346 0.7,-0.5 0.6,-3.6 -0.1,-4.1"
     id="l111"
     inkscape:connector-curvature="0"
     sodipodi:nodetypes="ccccc"
     style="fill:none;stroke:#000000;stroke-opacity:1" /><path
     d="m 218.3,65.7 c -0.8,0.1 -1.9,0.9 -1.8,1.7 0.2,3.4 -0.2,5.5 -1.2,6.6 -0.9,1.1 -2.3,1.6 -4.3,1.6 -4.1,0.1 -7.14838,-1.059249 -13.04838,-2.759249 1.01422,0.741363 -1.83361,-1.576374 -5.95162,0.278266 -6.9,5.6 -11.8,4.380983 -14.2,3.380983 -1.2,-0.5 -2.8,-1.5 -3.6,-2.6 -0.9,-1.3 -0.9,-3.4 -0.4,-5.6 0.1,-0.5 -1,-1.6 -1.5,-1.4"
     id="l112"
     inkscape:connector-curvature="0"
     sodipodi:nodetypes="ccccccsccc"
     style="fill:none;stroke:#000000;stroke-opacity:1" /><path
     class="st1"
     d="m 200.7,77.2 c -1.1,0.1 -3.9,-2.3 -4.1,-1.3 l 0.3,11.3 -3.1,0.1 -0.1,-10.6 c -0.3,-1.3 -2.4,1.8 -3.8,2 -1.3,0.3 -2.4,1.8 -2.1,3.2 -0.1,3.5 -0.3,8.4 0.3,11.6 l 1.1,3.3 c 0.4,1.2 2,8.2 6,8.3 3.1,0.1 6.1,-2.3 7.5,-8.4 0.7,-2.9 1,-9.3 1.2,-11.6 0.2,-0.8 0.1,-5.9 -0.4,-6.5 -0.5,-0.5 -1.8,-1 -2.8,-1.4 z"
     id="f301"
     inkscape:connector-curvature="0"
     style="fill:#ffffff" /><path
     class="st1"
     d="m 181.9,81.8 c 0.8,1.8 1.2,2.7 2.8,3.7 0.6,0.1 -0.1,-1.3 0.2,-1.8 0.3,-0.5 -0.7,-1.9 -1,-2.4 l -0.1,-0.8 c -1.1,-0.6 -1.7,0 -1.9,1.3 z"
     id="f213"
     inkscape:connector-curvature="0"
     style="fill:#ffffff" /><path
     class="st1"
     d="m 207.2,78.5 0.1,1.4 c -0.2,0.5 -0.1,1.1 0.2,1.5 0.4,0.4 1,1 1.6,0.9 l 1.3,-2.5 c 0.2,-0.5 0.1,-1 -0.2,-1.4 -0.3,-0.4 -0.9,-0.2 -1.4,-0.2 -0.8,0 -1.2,-0.1 -1.6,0.3 z"
     id="f214"
     inkscape:connector-curvature="0"
     style="fill:#ffffff" /><path
     class="st2"
     d="m 395.2,141.2 c -3.2,-2.5 -1.5,-1.6 -8.2,-3.9 -10.8,3.3 -24.6,8.4 -36.3,15.1 20.9,-5.1 29.5,-9.5 44.5,-11.2 z"
     id="f106"
     inkscape:connector-curvature="0"
     style="clip-rule:evenodd;fill:#fcef3c;fill-rule:evenodd;stroke:#000000;stroke-width:3;stroke-miterlimit:10" /></svg>