<?xml version="1.0" encoding="UTF-8" standalone="no"?>
<!-- Created with Inkscape (http://www.inkscape.org/) -->

<svg
   xmlns:dc="http://purl.org/dc/elements/1.1/"
   xmlns:cc="http://creativecommons.org/ns#"
   xmlns:rdf="http://www.w3.org/1999/02/22-rdf-syntax-ns#"
   xmlns:svg="http://www.w3.org/2000/svg"
   xmlns="http://www.w3.org/2000/svg"
   xmlns:sodipodi="http://sodipodi.sourceforge.net/DTD/sodipodi-0.dtd"
   xmlns:inkscape="http://www.inkscape.org/namespaces/inkscape"
   width="437.13678"
   height="533.05127"
   id="svg2"
   sodipodi:version="0.32"
   inkscape:version="0.91 r13725"
   version="1.0"
   sodipodi:docname="licorne_passante.svg"
   inkscape:output_extension="org.inkscape.output.svg.inkscape"
   inkscape:export-filename="C:\Users\yves\Desktop\Heraldique_meuble_licorne_passante_scg.png"
   inkscape:export-xdpi="385"
   inkscape:export-ydpi="385">
  <defs
     id="defs4">
    <inkscape:perspective
       sodipodi:type="inkscape:persp3d"
       inkscape:vp_x="0 : 266.46069 : 1"
       inkscape:vp_y="0 : 1000 : 0"
       inkscape:vp_z="437.86188 : 266.46069 : 1"
       inkscape:persp3d-origin="218.93094 : 177.64046 : 1"
       id="perspective10" />
    <inkscape:perspective
       id="perspective3651"
       inkscape:persp3d-origin="0.5 : 0.33333333 : 1"
       inkscape:vp_z="1 : 0.5 : 1"
       inkscape:vp_y="0 : 1000 : 0"
       inkscape:vp_x="0 : 0.5 : 1"
       sodipodi:type="inkscape:persp3d" />
    <inkscape:perspective
       id="perspective3668"
       inkscape:persp3d-origin="0.5 : 0.33333333 : 1"
       inkscape:vp_z="1 : 0.5 : 1"
       inkscape:vp_y="0 : 1000 : 0"
       inkscape:vp_x="0 : 0.5 : 1"
       sodipodi:type="inkscape:persp3d" />
    <inkscape:perspective
       id="perspective3693"
       inkscape:persp3d-origin="0.5 : 0.33333333 : 1"
       inkscape:vp_z="1 : 0.5 : 1"
       inkscape:vp_y="0 : 1000 : 0"
       inkscape:vp_x="0 : 0.5 : 1"
       sodipodi:type="inkscape:persp3d" />
    <inkscape:perspective
       id="perspective3719"
       inkscape:persp3d-origin="0.5 : 0.33333333 : 1"
       inkscape:vp_z="1 : 0.5 : 1"
       inkscape:vp_y="0 : 1000 : 0"
       inkscape:vp_x="0 : 0.5 : 1"
       sodipodi:type="inkscape:persp3d" />
    <inkscape:perspective
       id="perspective3749"
       inkscape:persp3d-origin="0.5 : 0.33333333 : 1"
       inkscape:vp_z="1 : 0.5 : 1"
       inkscape:vp_y="0 : 1000 : 0"
       inkscape:vp_x="0 : 0.5 : 1"
       sodipodi:type="inkscape:persp3d" />
    <inkscape:perspective
       id="perspective3780"
       inkscape:persp3d-origin="0.5 : 0.33333333 : 1"
       inkscape:vp_z="1 : 0.5 : 1"
       inkscape:vp_y="0 : 1000 : 0"
       inkscape:vp_x="0 : 0.5 : 1"
       sodipodi:type="inkscape:persp3d" />
    <inkscape:perspective
       id="perspective3797"
       inkscape:persp3d-origin="0.5 : 0.33333333 : 1"
       inkscape:vp_z="1 : 0.5 : 1"
       inkscape:vp_y="0 : 1000 : 0"
       inkscape:vp_x="0 : 0.5 : 1"
       sodipodi:type="inkscape:persp3d" />
    <inkscape:perspective
       id="perspective3808"
       inkscape:persp3d-origin="0.5 : 0.33333333 : 1"
       inkscape:vp_z="1 : 0.5 : 1"
       inkscape:vp_y="0 : 1000 : 0"
       inkscape:vp_x="0 : 0.5 : 1"
       sodipodi:type="inkscape:persp3d" />
    <inkscape:perspective
       id="perspective3855"
       inkscape:persp3d-origin="0.5 : 0.33333333 : 1"
       inkscape:vp_z="1 : 0.5 : 1"
       inkscape:vp_y="0 : 1000 : 0"
       inkscape:vp_x="0 : 0.5 : 1"
       sodipodi:type="inkscape:persp3d" />
    <inkscape:perspective
       id="perspective3829"
       inkscape:persp3d-origin="0.5 : 0.33333333 : 1"
       inkscape:vp_z="1 : 0.5 : 1"
       inkscape:vp_y="0 : 1000 : 0"
       inkscape:vp_x="0 : 0.5 : 1"
       sodipodi:type="inkscape:persp3d" />
    <inkscape:perspective
       id="perspective2828"
       inkscape:persp3d-origin="0.5 : 0.33333333 : 1"
       inkscape:vp_z="1 : 0.5 : 1"
       inkscape:vp_y="0 : 1000 : 0"
       inkscape:vp_x="0 : 0.5 : 1"
       sodipodi:type="inkscape:persp3d" />
    <inkscape:perspective
       id="perspective3773"
       inkscape:persp3d-origin="0.5 : 0.33333333 : 1"
       inkscape:vp_z="1 : 0.5 : 1"
       inkscape:vp_y="0 : 1000 : 0"
       inkscape:vp_x="0 : 0.5 : 1"
       sodipodi:type="inkscape:persp3d" />
    <inkscape:perspective
       id="perspective3795"
       inkscape:persp3d-origin="0.5 : 0.33333333 : 1"
       inkscape:vp_z="1 : 0.5 : 1"
       inkscape:vp_y="0 : 1000 : 0"
       inkscape:vp_x="0 : 0.5 : 1"
       sodipodi:type="inkscape:persp3d" />
  </defs>
  <sodipodi:namedview
     id="base"
     pagecolor="#ffffff"
     bordercolor="#666666"
     borderopacity="1.0"
     inkscape:pageopacity="1"
     inkscape:pageshadow="2"
     inkscape:zoom="0.70000973"
     inkscape:cx="277.54287"
     inkscape:cy="312.064"
     inkscape:document-units="px"
     inkscape:current-layer="layer1"
     showgrid="false"
     showborder="true"
     inkscape:window-width="1233"
     inkscape:window-height="776"
     inkscape:window-x="47"
     inkscape:window-y="24"
     inkscape:window-maximized="1"
     showguides="false"
     inkscape:guide-bbox="true" />
  <metadata
     id="metadata7">
    <rdf:RDF>
      <cc:Work
         rdf:about="">
        <dc:format>image/svg+xml</dc:format>
        <dc:type
           rdf:resource="http://purl.org/dc/dcmitype/StillImage" />
      </cc:Work>
    </rdf:RDF>
  </metadata>
  <g
     inkscape:label="Calque 1"
     inkscape:groupmode="layer"
     id="layer1"
     transform="translate(-1129.9408,281.09337)">
    <path
       style="fill:#ffffff;stroke:#000000;stroke-width:1px;stroke-linecap:butt;stroke-linejoin:miter;stroke-opacity:1"
       d="m 1410.0691,185.05225 c 3.9788,-11.28185 7.7714,-22.67266 16.8828,-30.95167 7.0942,-10.17449 18.1732,-18.12922 22.1976,-30.01375 -0.7225,-8.07228 -1.6519,-16.0663 -7.5034,-22.19767 -2.0897,-8.197144 -4.4627,-17.677991 3.0283,-23.873663 4.1305,-11.606402 9.8217,-4.949697 10.85,3.924845 -1.6942,12.263274 2.897,10.231336 9.8826,2.753438 2.9568,-14.408788 3.641,0.804183 5.0023,7.1908 -4,7.83945 -7.5178,15.40595 4.6896,14.06894 6.015,-6.76855 15.8865,-11.62277 14.5569,-22.037092 0.4648,2.535384 0.4738,14.580329 0.7626,20.786522 -7.9724,9.44807 5.8311,12.97621 9.4444,4.20542 2.653,-12.2992 6.6504,-9.045097 11.1901,0.48423 0.804,16.00332 3.0991,32.22654 2.9801,48.09373 -4.025,9.79811 -8.3894,19.53338 -6.7318,30.38332 1.9967,8.74977 -3.1883,15.27776 -8.1288,21.88142 8.2384,3.38637 13.7208,10.59821 20.3218,16.25744 4.8116,-5.95759 0.1706,-15.112 2.6897,-22.34425 0.06,-7.89323 3.775,-14.96904 6.0643,-22.36373 -1.8499,7.77759 -2.6719,15.38379 2.8217,21.93712 2.6343,-1.37704 4.0127,-14.26001 6.1842,-19.87603 2.8851,-7.44178 3.9754,-14.72307 -1.1898,-21.44496 -0.6289,-17.35722 -0.568,-34.98642 4.6856,-51.62688 1.988,-6.96815 3.6944,-16.739186 -4.2671,-20.258969 -7.5967,-1.856393 -14.2154,-7.447755 -18.1037,-13.797717 -1.4567,-12.814941 -5.1504,-26.751749 2.106,-38.461565 6.2275,-14.55347 13.1371,-30.5309639 11.2398,-46.4580304 -2.7451,-6.2198766 -5.0918,-14.5371316 -0.6629,-20.4218386 8.8833,1.635741 19.3702,1.43392 23.9082,-7.85832 7.9535,-8.401723 14.0651,-20.359418 9.8857,-31.93263 -2.0407,-20.195566 -16.0411,-36.05384 -26.2904,-52.75144 -2.5133,-7.56802 2.6256,-17.62327 10.6298,-10.62987 7.9657,-0.0772 13.8323,-7.23823 16.7372,-13.46699 1.4861,-13.84509 -5.0606,-5.44765 -11.3468,-3.73921 -4.8065,-7.42191 -11.1148,-11.32427 -20.0526,-9.0649 -5.4226,4.04469 -13.2808,10.2972 -16.753,0.59512 -7.6123,-1.77876 -15.6454,1.97259 -22.3594,5.97946 -7.4629,0.6659 -16.2328,-2.47751 -21.5724,4.377 -8.1467,0.91321 -16.1685,1.35534 -22.429,-4.8522 -5.5957,-4.61485 -11.7873,-12.60532 -10.4696,-20.25572 0.5612,-7.28799 1.8394,-15.81389 6.2364,-21.39058 7.182,-3.36711 17.7605,-8.36269 23.8484,-1.02327 1.2421,5.45563 -3.6332,23.30957 5.0878,13.60738 7.0693,-4.92992 13.0644,-12.8478 22.6403,-10.80514 10.0284,0.0812 19.9656,-0.2505 28.7971,-5.58938 11.2367,-3.86051 17.0979,-15.85844 28.5131,-19.84784 4.8676,-4.94049 -12.097,-5.67977 -16.8607,-5.67744 -3.782,-2.24369 4.3713,-12.70951 7.4821,-17.02084 10.8795,-7.07333 6.0927,-8.93469 -4.6252,-8.82281 -10.5546,-2.15176 -16.8564,9.81283 -24.0753,15.63826 -4.7674,7.63332 -18.4222,5.51962 -8.052,-3.12587 9.9333,-10.02614 -3.2497,-6.21918 -9.3091,-2.22521 -9.1929,7.40238 -20.9285,9.83423 -32.4306,7.85855 -7.2551,-1.74568 -15.3264,7.0736 -12.7996,14.12532 -9.5034,6.86134 -21.489,11.29489 -26.1253,22.91672 -3.4537,6.62529 -3.6025,15.09511 -4.1738,22.40227 2.9086,15.5027 12.6526,29.25168 25.2696,38.22791 22.0746,7.65151 45.0108,12.84646 66.9123,20.80974 9.7555,3.03072 17.9238,9.30419 21.6341,19.066521 5.8251,9.605508 8.8191,20.824137 7.882,31.882749 -2.6447,7.02483 -5.7011,16.526781 -15.1193,13.91741 -16.1788,-3.020683 -29.986,-13.026452 -45.6941,-17.81391 -25.2696,-5.907382 -24.0265,-4.326925 -38.7142,3.66162 -9.6632,4.924151 -19.8085,7.582113 -30.6982,6.741074 -15.8547,-0.106051 -32.1489,4.781278 -47.2821,-1.811236 -9.6846,-2.089292 -18.3347,-7.023795 -27.3805,-10.870058 -3.7782,-7.459154 -2.7443,-17.156614 7.7149,-14.176559 8.4143,1.072236 15.3837,-2.357511 21.8086,-7.483229 4.6544,-1.593725 16.5784,-16.336722 9.2517,-14.038452 -5.8418,1.16414 -18.8532,7.357313 -14.1112,-3.45154 5.1693,-4.31573 14.0501,-4.74047 20.3037,-8.63341 5.6839,-4.31013 12.416,-12.53073 4.0009,-12.79589 2.5745,-5.22122 8.7757,-18.22145 0.2202,-18.78042 -9.4365,-3.70266 1.4744,-12.69952 6.949,-14.96528 3.964,-8.97492 -0.3036,-11.38652 -6.9277,-15.91315 -7.1213,-8.29163 7.8974,-16.14389 4.2519,-24.82394 -9.7129,0.25403 -11.931,-10.62923 -18.2784,-16.0987 -1.8707,-1.74603 17.7368,-8.92338 7.5857,-13.0229 -15.4544,0.15672 -31.2575,-0.4359 -45.0064,-8.2847 -6.774,-1.41147 -17.4832,5.1017 -21.2626,-1.8766 -3.3509,-8.67659 -7.3761,-12.61464 -13.7048,-3.54922 -0.7797,8.05387 -11.2876,16.51521 -8.7541,3.24933 2.3322,-12.82199 -2.6837,-10.00452 -9.8698,-2.56801 -4.0024,4.20039 -5.0127,16.71756 -2.0119,20.59922 -8.9101,7.93477 -18.2224,12.23485 -21.6506,16.34873 -4.8876,-2.56648 -8.3976,-5.05421 -12.9387,5.04102 10.2954,0.56617 1.46,7.03901 -3.1591,13.42716 -5.2905,9.4122 -16.2923,14.16039 -22.4194,22.08714 0.425,7.20133 -5.9126,14.88019 -1.5971,21.30945 7.5251,8.64549 10.661,-5.78423 15.8264,-8.69619 6.7597,-1.47426 18.7821,-0.45408 13.2071,8.98365 1.3379,6.35677 -17.2191,10.29368 -10.3624,13.97187 6.6605,1.86314 17.8847,-1.59542 15.2699,-10.11395 2.0002,-10.02954 13.5528,-4.36674 9.3928,4.09878 -2.645,8.21475 -8.9202,12.74845 -16.681,15.77575 -1.3068,2.59188 -1.6513,21.94375 4.0366,12.29833 7.8961,-13.03707 10.6412,7.84966 12.1111,0.78608 2.5433,-10.16532 16.234,-10.60248 18.1666,-21.00807 4.4546,-9.25088 -7.6911,-19.30761 -1.6395,-28.42543 5.2856,-3.37848 14.9119,-1.56199 20.4832,-7.40001 5.8781,-2.82315 3.127,13.35593 3.1757,18.44213 -0.8968,8.70992 -2.7538,17.02192 -9.0928,23.47624 -7.989,12.21397 -16.5055,23.964 -28.2067,32.91237 -12.8939,11.267931 -25.5561,22.745057 -34.725,37.374742 -10.0323,10.751254 -8.3531,26.72423 -11.9258,40.19521 0.5982,9.4241899 -3.1681,13.4502881 -12.8466,12.1968336 -16.3179,2.20077333 -31.0101,12.2976074 -47.4142,13.7817874 -10.1371,1.922122 -11.6559,14.905125 -17.0734,22.296797 6.9706,13.499768 15.4701,26.436336 17.1284,41.89294 3.558,10.87598 1.8005,23.367085 6.2472,33.66495 4.7139,6.59943 9.4277,13.19886 14.1416,19.79829 7.295,-4.68965 14.5901,-9.3793 21.8851,-14.06895 -5.8204,-5.40761 -14.7009,-9.41249 -18.6855,-15.66169 -1.7868,-13.8647 4.3967,-6.30972 10.2441,0.34218 -0.027,-7.985421 1.5775,-16.493702 -5.2169,-22.310435 -5.5661,-7.929927 -11.4811,-15.826479 -11.1093,-26.005257 -1.4072,-7.315683 -1.3124,-17.897602 8.1645,-18.595914 8.0836,-2.489396 16.6516,3.421806 25.1723,3.173732 15.9677,-0.791029 -1.3481,6.228678 -1.701,9.661609 8.0596,2.921421 16.6743,0.473642 25.0214,0.614275 4.2949,6.468799 -13.5968,15.614953 -8.2587,15.593699 8.5662,-2.598874 15.329,-8.504943 22.6403,-13.405199 0.4025,18.746044 1.7548,37.592611 1.5632,56.27578 12.312,2.876 -4.4225,10.29608 -3.4391,17.25863 -1.8257,8.77945 4.2309,16.5009 1.2774,25.04 -3.0895,16.46831 -4.556,33.65601 -8.6439,49.68177 -7.8283,6.82264 -8.9846,12.43034 1.9695,15.8328 8.3394,7.35947 12.3123,5.82911 11.4892,-5.46529 -0.1081,-4.28155 9.1832,-19.67897 9.8173,-11.6939 1.8601,7.70487 3.6714,20.56078 5.7454,5.71079 6.226,-17.98153 1.2034,-37.59454 4.5653,-55.92496 7.5739,-10.6893 8.219,-23.64075 10.757,-36.03112 4.9772,-15.512037 11.3924,-30.722329 11.3638,-47.284732 2.7418,-7.278491 6.1883,-16.696563 15.5095,-11.4528 11.599,1.157505 23.6006,7.607633 34.6277,1.246639 16.9746,-5.227666 33.4249,-13.017272 50.7384,-16.589274 8.8062,-3.240189 5.7971,11.458692 4.5655,16.237894 -4.5669,6.537485 -8.197,13.298745 -5.9364,21.467273 5.4297,9.744095 -15.7276,5.192728 -6.1604,13.954008 5.4337,8.745295 12.0683,5.695771 18.9258,0.45741 2.0125,4.489537 -1.8701,15.996912 -11.2572,15.016152 -3.503,4.8009 7.6359,13.12957 14.6678,8.65569 3.2662,2.97321 3.2052,14.68571 0.227,20.14459 -4.8496,9.40218 -6.6206,21.18354 -16.8926,26.39521 -9.2854,7.46675 -19.7861,14.00497 -23.862,25.81666 -2.5377,5.77425 -16.9096,11.95126 -8.5381,17.35424 5.4101,4.2597 12.2051,14.15092 16.7465,14.8779 4.2514,-9.18847 1.4244,-21.51478 11.6399,-27.17852 7.5966,-10.19166 -2.4195,8.82007 4.0141,9.20255 6.2049,-3.7097 9.9968,-10.05961 14.9053,-15.1941"
       id="f101"
       inkscape:connector-curvature="0"
       sodipodi:nodetypes="cccccccccccccccccccccccccccccccccccccccccccccccccccccccccccccccccccccccccccccccccccccccccccccccccccccccccccccccccccccccccccccccccccccccccccccccccccccc" />
    <path
       style="fill:#f2f2f2;stroke:#000000;stroke-width:1px;stroke-linecap:butt;stroke-linejoin:miter;stroke-opacity:1"
       d="m 1279.7429,-208.15943 c -3.8806,5.40568 -11.8815,9.01615 -1.0528,8.04007 10.8287,-0.97608 0,0 12.8339,-3.29972 7.1689,-1.84319 2.702,-11.52121 -4.7646,-9.34358 -7.4666,2.17763 -3.1359,-0.80245 -7.0165,4.60323 z"
       id="f501"
       inkscape:connector-curvature="0"
       sodipodi:nodetypes="zzszz" />
    <path
       inkscape:export-ydpi="385"
       inkscape:export-xdpi="385"
       inkscape:export-filename="C:\Users\yves\Desktop\path2849.png"
       style="fill:none;stroke:#000000;stroke-width:1;stroke-linecap:butt;stroke-linejoin:miter;stroke-miterlimit:4;stroke-dasharray:none;stroke-opacity:1"
       d="m 1246.3543,-154.47463 c -22.8446,20.59848 -21.8481,19.57855 -29.0683,29.89303 -2.7409,3.91539 -11.4651,6.95011 -11.4651,6.95011 0,0 4.7474,6.51907 19.1454,-6.12655 8.9554,-7.86525 20.8512,-18.28367 26.8036,-25.03201 0.8631,-0.97846 0.1388,-3.00374 -1.0288,-4.52191 -1.1168,-1.45217 -3.4599,-1.99842 -4.3868,-1.16267 z"
       id="f401"
       sodipodi:nodetypes="sscssss"
       inkscape:label="#path3592"
       inkscape:connector-curvature="0" />
    <path
       inkscape:connector-curvature="0"
       style="fill:#ffff00;fill-opacity:1;stroke:#000000;stroke-width:3.003088px;stroke-linecap:butt;stroke-linejoin:miter;stroke-opacity:1"
       d="m 1331.8664,231.85859 c 0,0 19.1917,-32.6529 26.2661,-32.42221 5.7545,0.1877 21.1828,19.9257 20.9308,23.80365 -0.5684,8.74761 -39.8096,15.59552 -39.8096,15.59552 0,0 14.519,-14.40455 15.1851,-27.49736 0.023,-0.44103 -2.7637,14.5178 -9.0289,16.41632 l -13.5435,4.10408 z"
       id="f201"
       sodipodi:nodetypes="csscssc" />
    <path
       inkscape:connector-curvature="0"
       sodipodi:nodetypes="csscssc"
       id="f202"
       d="m 1473.0468,244.17084 c 0,0 15.4398,-29.54595 24.2141,-34.06385 5.0772,-2.61431 23.8321,16.55368 22.5724,20.9308 -3.0335,10.54096 -39.3992,20.11 -39.3992,20.11 0,0 14.519,-14.40455 15.1851,-27.49736 0.024,-0.44103 -2.7637,14.5178 -9.0289,16.41633 l -13.5435,4.10408 z"
       style="fill:#ffff00;fill-opacity:1;stroke:#000000;stroke-width:3.003088px;stroke-linecap:butt;stroke-linejoin:miter;stroke-opacity:1" />
    <path
       inkscape:connector-curvature="0"
       style="fill:#ffff00;fill-opacity:1;stroke:#000000;stroke-width:3.003088px;stroke-linecap:butt;stroke-linejoin:miter;stroke-opacity:1"
       d="m 1209.26,240.9766 c 0,0 12.8843,-33.50497 19.9142,-34.33028 5.7184,-0.67128 27.1809,15.28914 25.4732,18.77993 -8.2885,16.94288 -36.2227,17.65582 -36.2227,17.65582 0,0 11.3914,-12.71223 10.1005,-25.75824 -0.042,-0.43971 -0.5712,14.76747 -6.4839,17.57773 l -12.7813,6.07504 z"
       id="f203"
       sodipodi:nodetypes="csscssc" />
    <path
       inkscape:connector-curvature="0"
       sodipodi:nodetypes="csscssc"
       id="f204"
       d="m 1211.3448,162.02262 c 0,0 -30.6779,-21.47283 -29.2663,-28.40882 1.1482,-5.64193 22.0152,-19.64155 25.7962,-18.74405 8.5291,2.02454 8.7122,42.26877 8.7122,42.26877 0,0 -11.7711,-16.72519 -24.5677,-19.57338 -0.4308,-0.0976 15.3377,6.0724 16.7254,12.47015 l 2.6002,11.98733 z"
       style="fill:#ffff00;fill-opacity:1;stroke:#000000;stroke-width:3.003088px;stroke-linecap:butt;stroke-linejoin:miter;stroke-opacity:1" />
    <path
       style="display:inline;overflow:visible;visibility:visible;fill:#ffff00;fill-opacity:1;fill-rule:nonzero;stroke:#000000;stroke-width:2.63109517;stroke-linecap:butt;stroke-linejoin:miter;stroke-miterlimit:4;stroke-dasharray:none;stroke-dashoffset:0;stroke-opacity:1;marker:none"
       d="m 1262.0974,-209.52239 20.1914,-14.4715 -150.5157,-54.87363 z"
       id="f301"
       inkscape:connector-curvature="0"
       sodipodi:nodetypes="cccc" />
    <path
       style="display:inline;overflow:visible;visibility:visible;fill:#ffff00;fill-opacity:1;fill-rule:nonzero;stroke:#000000;stroke-width:2.63109517;stroke-linecap:butt;stroke-linejoin:miter;stroke-miterlimit:4;stroke-dasharray:none;stroke-dashoffset:0;stroke-opacity:1;marker:none"
       d="m 1267.3555,-229.76432 -13.2497,16.53105"
       id="l101"
       inkscape:connector-curvature="0"
       sodipodi:nodetypes="cc" />
    <path
       style="display:inline;overflow:visible;visibility:visible;fill:#ffff00;fill-opacity:1;fill-rule:nonzero;stroke:#000000;stroke-width:2.63109517;stroke-linecap:butt;stroke-linejoin:miter;stroke-miterlimit:4;stroke-dasharray:none;stroke-dashoffset:0;stroke-opacity:1;marker:none"
       d="m 1253.9595,-234.76238 -11.1568,15.47828"
       id="l102"
       inkscape:connector-curvature="0"
       sodipodi:nodetypes="cc" />
    <path
       style="display:inline;overflow:visible;visibility:visible;fill:#ffff00;fill-opacity:1;fill-rule:nonzero;stroke:#000000;stroke-width:2.63109517;stroke-linecap:butt;stroke-linejoin:miter;stroke-miterlimit:4;stroke-dasharray:none;stroke-dashoffset:0;stroke-opacity:1;marker:none"
       d="m 1242.2434,-237.92363 -9.8732,12.55611"
       id="l103"
       inkscape:connector-curvature="0"
       sodipodi:nodetypes="cc" />
    <path
       style="display:inline;overflow:visible;visibility:visible;fill:#ffff00;fill-opacity:1;fill-rule:nonzero;stroke:#000000;stroke-width:2.63109517;stroke-linecap:butt;stroke-linejoin:miter;stroke-miterlimit:4;stroke-dasharray:none;stroke-dashoffset:0;stroke-opacity:1;marker:none"
       d="m 1230.3897,-242.75879 -9.2767,10.3609"
       id="l104"
       inkscape:connector-curvature="0"
       sodipodi:nodetypes="cc" />
    <path
       style="display:inline;overflow:visible;visibility:visible;fill:#ffff00;fill-opacity:1;fill-rule:nonzero;stroke:#000000;stroke-width:2.63109517;stroke-linecap:butt;stroke-linejoin:miter;stroke-miterlimit:4;stroke-dasharray:none;stroke-dashoffset:0;stroke-opacity:1;marker:none"
       d="m 1218.4901,-247.56137 -8.5884,9.87218"
       id="l105"
       inkscape:connector-curvature="0"
       sodipodi:nodetypes="cc" />
    <path
       style="display:inline;overflow:visible;visibility:visible;fill:#ffff00;fill-opacity:1;fill-rule:nonzero;stroke:#000000;stroke-width:2.63109517;stroke-linecap:butt;stroke-linejoin:miter;stroke-miterlimit:4;stroke-dasharray:none;stroke-dashoffset:0;stroke-opacity:1;marker:none"
       d="m 1206.407,-252.23362 -7.6707,9.22056"
       id="l106"
       inkscape:connector-curvature="0"
       sodipodi:nodetypes="cc" />
    <path
       style="display:inline;overflow:visible;visibility:visible;fill:#ffff00;fill-opacity:1;fill-rule:nonzero;stroke:#000000;stroke-width:2.63109517;stroke-linecap:butt;stroke-linejoin:miter;stroke-miterlimit:4;stroke-dasharray:none;stroke-dashoffset:0;stroke-opacity:1;marker:none"
       d="m 1194.2321,-256.8407 -6.5695,8.43859"
       id="l107"
       inkscape:connector-curvature="0"
       sodipodi:nodetypes="cc" />
    <path
       style="display:inline;overflow:visible;visibility:visible;fill:#ffff00;fill-opacity:1;fill-rule:nonzero;stroke:#000000;stroke-width:2.63109517;stroke-linecap:butt;stroke-linejoin:miter;stroke-miterlimit:4;stroke-dasharray:none;stroke-dashoffset:0;stroke-opacity:1;marker:none"
       d="m 1181.9195,-261.35004 -5.2847,7.52631"
       id="l108"
       inkscape:connector-curvature="0"
       sodipodi:nodetypes="cc" />
    <path
       style="display:inline;overflow:visible;visibility:visible;fill:#ffff00;fill-opacity:1;fill-rule:nonzero;stroke:#000000;stroke-width:2.63109517;stroke-linecap:butt;stroke-linejoin:miter;stroke-miterlimit:4;stroke-dasharray:none;stroke-dashoffset:0;stroke-opacity:1;marker:none"
       d="m 1169.4234,-265.72906 -3.6328,6.35338"
       id="l109"
       inkscape:connector-curvature="0"
       sodipodi:nodetypes="cc" />
    <path
       style="display:inline;overflow:visible;visibility:visible;fill:#ffff00;fill-opacity:1;fill-rule:nonzero;stroke:#000000;stroke-width:2.63109517;stroke-linecap:butt;stroke-linejoin:miter;stroke-miterlimit:4;stroke-dasharray:none;stroke-dashoffset:0;stroke-opacity:1;marker:none"
       d="m 1158.3776,-269.88001 -3.2018,4.78948"
       id="l110"
       inkscape:connector-curvature="0"
       sodipodi:nodetypes="cc" />
    <path
       style="fill:none;stroke:#000000;stroke-opacity:1"
       d="m 1373.7252,-142.31162 c 0.395,-1.56567 0.4895,-1.60193 2.4154,-0.92559 3.6112,1.26823 5.1615,2.34665 6.0172,4.18581 0.5919,1.2722 0.6186,1.50401 0.647,5.60612 0.022,3.32918 0.1022,4.34841 0.3565,4.59137 0.1845,0.17618 1.2807,0.40364 2.5166,0.52129 l 2.1896,0.20936"
       id="l111"
       inkscape:connector-curvature="0" />
    <path
       style="fill:none;stroke:#000000;stroke-opacity:1"
       d="m 1374.2471,-164.07509 2.5377,0.15384 c 2.8541,0.17317 4.7232,0.63749 5.7842,1.43728 1.1209,0.8448 2.9415,2.81477 3.8672,4.18435"
       id="l112"
       inkscape:connector-curvature="0" />
    <path
       style="fill:none;stroke:#000000;stroke-opacity:1"
       d="m 1371.9895,-186.79977 c -0.2445,-0.61029 5.6761,-2.43509 7.9008,-2.43509 1.7501,0 2.7277,0.29503 5.4031,1.63246 1.852,0.92559 1.8671,0.92872 1.9991,0.40907"
       id="l113"
       inkscape:connector-curvature="0" />
    <path
       style="fill:none;stroke:#000000;stroke-opacity:1"
       d="m 1357.1686,-223.8797 5.6734,0.14059 c 4.0061,0.0989 6.2921,0.26305 7.7789,0.55748 1.4231,0.28178 3.1671,0.4157 5.3809,0.41389"
       id="l114"
       inkscape:connector-curvature="0" />
    <path
       style="fill:none;stroke:#000000;stroke-opacity:1"
       d="m 1307.0285,-223.94542 c -0.05,-0.0483 0.2717,-0.48628 0.7152,-0.97662 1.2247,-1.3536 2.3254,-3.0397 2.8019,-4.29181 0.5346,-1.40482 1.2712,-5.57759 1.5822,-8.96264 0.3306,-3.59742 0.5711,-10.62924 0.3636,-10.62924 -0.3166,0 -3.3857,2.62085 -4.4392,3.79091 -1.69,1.87694 -2.6204,3.65685 -3.9603,7.57658 -0.6957,2.03519 -1.5935,4.4885 -1.995,5.45173 -0.4015,0.96324 -1.1463,3.33425 -1.6553,5.26898"
       id="l115"
       inkscape:connector-curvature="0" />
    <path
       style="fill:none;stroke:#000000;stroke-opacity:1"
       d="m 1270.3701,-135.73753 0,2.39448 c 0,3.06383 -0.3495,5.18681 -1.0412,6.36592 -0.3015,0.51404 -1.3504,1.65333 -2.3308,2.53198 -2.5002,2.24069 -2.5583,2.38494 -2.6523,6.57883 -0.043,1.92726 0.012,3.97723 0.1231,4.55541 l 0.2014,1.05126"
       id="l116"
       inkscape:connector-curvature="0" />
    <path
       style="fill:none;stroke:#000000;stroke-opacity:1"
       d="m 1279.2578,-132.38084 c 0,0.11159 -0.5858,1.04378 -1.3069,2.07145 -0.8195,1.16771 -1.8325,3.10667 -2.701,5.17003 -1.058,2.51322 -1.6248,3.54608 -2.3736,4.32536"
       id="l117"
       inkscape:connector-curvature="0"
       sodipodi:nodetypes="cccc" />
    <path
       style="fill:none;stroke:#000000;stroke-opacity:1"
       d="m 1320.2876,-198.9251 c 0.808,1.50068 1.4563,6.20837 1.5848,7.69107 0.2688,3.1527 0.035,6.23312 -0.6116,8.06221 -0.5003,1.41501 -6.116,10.60101 -6.9418,11.35525 -1.2931,1.18091 -2.284,1.81617 -5.2276,3.35131 -1.544,0.80528 -2.8407,1.49714 -2.8814,1.53744"
       id="l118"
       inkscape:connector-curvature="0"
       sodipodi:nodetypes="cccccc" />
    <path
       style="fill:none;stroke:#000000;stroke-opacity:1"
       d="m 1273.6758,116.1443 c 0.08,0.12828 0.2796,1.54273 0.443,3.14329 0.3116,3.05109 0.2058,5.96226 -0.2768,7.62139 -0.6159,2.11722 -2.4458,4.21248 -5.4274,6.21479 -2.743,1.842 -2.5639,1.81409 -3.2747,0.50985 l 1e-4,2.8e-4"
       id="l119"
       inkscape:connector-curvature="0" />
    <path
       style="fill:none;stroke:#000000;stroke-opacity:1"
       d="m 1530.4913,95.056184 1.4196,1.81761 c 3.5211,4.508296 4.2088,7.598686 2.3235,10.440976 -1.2303,1.85459 -5.0247,4.30631 -8.5471,5.52275 l -1.2128,0.4187"
       id="l120"
       inkscape:connector-curvature="0" />
    <path
       style="fill:none;stroke:#000000;stroke-opacity:1"
       d="m 1481.5568,75.855944 c 0.1,0.482112 0.1825,3.293877 0.1834,6.249122 0,7.105127 -0.2662,8.139902 -3.0992,11.928177 -1.7017,2.275482 -5.1287,5.94301 -5.5531,5.94301"
       id="l121"
       inkscape:connector-curvature="0" />
    <path
       style="fill:none;stroke:#000000;stroke-opacity:1"
       d="m 1270.4698,99.501754 c -0.1391,0.0027 -0.5795,-0.447063 -0.9787,-1.002074 l 0,3.5e-5 c -2.9655,-4.123324 -4.4594,-13.187523 -4.2031,-25.50266 0.1897,-9.118249 1.5993,-17.584527 4.6666,-28.028457 0.6428,-2.18849 1.2197,-4.152862 1.2821,-4.365328"
       id="l122"
       inkscape:connector-curvature="0" />
    <path
       style="fill:none;stroke:#000000;stroke-opacity:1"
       d="m 1498.0172,61.08017 4.8577,4.905826 c 7.7577,7.834845 9.631,10.426797 11.9655,16.557039 1.403,3.68415 4.4563,14.492637 4.4563,15.775229"
       id="l123"
       inkscape:connector-curvature="0" />
    <path
       style="fill:none;stroke:#000000;stroke-opacity:1"
       d="m 1460.9671,81.287514 c -0.05,0 -0.5922,-1.077564 -1.2046,-2.394542 -2.0941,-4.503268 -3.0752,-7.61717 -3.3938,-10.772023 -0.2403,-2.379758 0.1232,-3.950123 1.6563,-7.157581 1.2282,-2.569368 4.5057,-7.709159 4.9159,-7.709159"
       id="l124"
       inkscape:connector-curvature="0" />
    <path
       style="fill:none;stroke:#000000;stroke-opacity:1"
       d="m 1242.7673,31.99595 c 0.3204,0 1.4317,2.466719 2.235,4.961201 0.8888,2.759883 0.8575,5.190739 -0.1013,7.887389 -0.6411,1.802885 -2.3102,5.633014 -2.4353,5.588208"
       id="l125"
       inkscape:connector-curvature="0" />
    <path
       style="fill:none;stroke:#000000;stroke-opacity:1"
       d="m 1260.7219,6.956975 0.5104,1.5776824 c 0.82,2.5344996 1.4774,3.5665046 4.0069,6.2901036 4.1025,4.41727 5.2387,6.703442 5.2247,10.512523 -0.01,1.557267 -0.1422,2.484304 -0.5264,3.574846 -1.1476,3.258044 -3.4603,8.283834 -5.2349,11.376236 -2.037,3.549522 -5.8215,9.477206 -6.0238,9.43508 -0.069,-0.01204 -0.6531,-0.228846 -1.2981,-0.476632 l 0,6.63e-4 -1.1727,-0.450737 -0.01,-4.954847 c -0.011,-8.301238 -0.4754,-9.46486 -5.7898,-14.499141 -3.6339,-3.442416 -5.0296,-5.140213 -6.2585,-7.613496 -2.0535,-4.132899 -2.2546,-7.058063 -0.7854,-11.428269 0.6473,-1.9255281 3.3328,-7.9230099 3.6298,-8.1062674"
       id="l126"
       inkscape:connector-curvature="0" />
    <path
       style="fill:none;stroke:#000000;stroke-opacity:1"
       d="m 1510.288,-29.432762 0.6814,1.337848 c 3.4697,6.811545 7.3527,17.20461 8.6024,23.0250074 0.7651,3.5632227 0.7279,8.0809742 -0.094,11.3703947 -1.5821,6.3351499 -4.5155,13.0681309 -9.3971,21.5688269 -2.4522,4.270477 -5.7468,9.507889 -5.9662,9.484703"
       id="l127"
       inkscape:connector-curvature="0" />
    <path
       style="fill:none;stroke:#000000;stroke-opacity:1"
       d="m 1253.4614,12.970054 1.4804,1.277925 c 2.3962,2.068527 4.8418,5.236448 6.7337,8.722435 0.9431,1.737694 1.7648,3.350697 1.826,3.584451"
       id="l128"
       inkscape:connector-curvature="0" />
    <path
       style="fill:none;stroke:#000000;stroke-opacity:1"
       d="m 1231.5808,-0.68943264 -0.1732,-2.28824926 0,5.721e-4 c -0.2181,-2.8821951 0.034,-16.9293952 0.3592,-20.0426562 0.5476,-5.23609 1.1055,-7.888496 2.4073,-11.446943 1.4658,-4.006305 5.7967,-13.666223 6.1271,-13.666223"
       id="l129"
       inkscape:connector-curvature="0" />
    <path
       style="fill:none;stroke:#000000;stroke-opacity:1"
       d="m 1268.905,-24.424757 c -0.029,0.01174 -1.0016,0.438024 -2.1596,0.940064 -5.8229,2.525586 -10.8747,5.494773 -12.9767,7.627076 -1.9055,1.932996 -4.6395,6.2052799 -7.1146,11.117881 -0.4694,0.9314936 -0.931,1.6887029 -1.0259,1.6826505"
       id="l130"
       inkscape:connector-curvature="0" />
    <path
       style="fill:none;stroke:#000000;stroke-opacity:1"
       d="m 1348.0348,-101.47473 c 0.093,0.1074 0.3579,0.72111 0.5889,1.36355 0.6951,1.932742 2.0183,4.298323 2.7466,4.910234 1.1835,0.994366 5.5557,1.981255 8.7776,1.981255 l 1.0005,0"
       id="l131"
       inkscape:connector-curvature="0" />
    <path
       style="fill:none;stroke:#000000;stroke-opacity:1"
       d="m 1354.3913,-103.96575 c -0.1173,0 -0.8461,-0.46517 -1.6195,-1.03358 l 10e-5,0 c -1.897,-1.39444 -2.6845,-2.99595 -3.3227,-6.75718 -0.2582,-1.52247 -0.4697,-3.28332 -0.4697,-3.91297 l 0,-1.14484"
       id="l132"
       inkscape:connector-curvature="0" />
    <path
       style="fill:none;stroke:#000000;stroke-opacity:1"
       d="m 1354.0895,-126.1815 1.8961,2.79347 c 2.0807,3.06552 4.398,5.42917 5.764,5.87938 1.1117,0.36623 5.8867,0.16835 8.1525,-0.33847 0.8918,-0.1991 1.6618,-0.32219 1.711,-0.27332"
       id="l133"
       inkscape:connector-curvature="0" />
    <path
       style="fill:none;stroke:#000000;stroke-opacity:1"
       d="m 1537.3264,-147.69502 c -0.6844,0.22806 -4.4844,2.89676 -5.6717,3.9835 -2.1465,1.96478 -2.3868,2.6807 -2.4939,7.42967 l -0.09,4.01034"
       id="l134"
       inkscape:connector-curvature="0" />
    <path
       style="fill:none;stroke:#000000;stroke-opacity:1"
       d="m 1335.4928,-224.00732 c 0.029,0.0483 0.6851,0.81831 1.458,1.71771 5.0656,5.89519 11.1882,13.94612 15.5051,20.38829 5.7532,8.58573 8.5388,14.48605 9.9508,21.07762 1.8979,8.85994 2.684,22.12711 2.245,37.89152 -0.1299,4.66406 -0.2994,8.82181 -0.3767,9.23939"
       id="l135"
       inkscape:connector-curvature="0" />
    <path
       style="fill:none;stroke:#000000;stroke-opacity:1"
       d="m 1499.8078,-136.30623 c -0.2867,0.10982 -0.5005,-0.2769 -0.9982,-1.80628 l 2e-4,-6e-5 c -0.4793,-1.47294 -0.6358,-2.42887 -0.6435,-3.9318 -0.012,-2.35713 0.8507,-6.30745 1.3775,-6.30745"
       id="l136"
       inkscape:connector-curvature="0" />
    <path
       style="fill:none;stroke:#000000;stroke-opacity:1"
       d="m 1231.843,-169.14887 0.6066,0.38915 c 2.476,1.58703 4.4083,3.53287 5.0637,5.09926 1.1345,2.7113 -1.0062,5.35303 -6.0311,7.44258 -0.4797,0.1997 -0.9205,0.28479 -0.9794,0.18943 l 0,-2.2e-4"
       id="l137"
       inkscape:connector-curvature="0" />
    <path
       style="fill:none;stroke:#000000;stroke-opacity:1"
       d="m 1373.829,-176.3518 2.3727,0.81686 c 1.305,0.44949 3.5308,1.3708 4.9462,2.04786 2.6888,1.28608 3.559,2.02506 5.206,4.42038 0.4184,0.60865 0.916,1.16608 1.1058,1.23884 0.1897,0.0724 1.1425,-0.13574 2.1171,-0.46276 1.2769,-0.42898 1.8002,-0.51646 1.8731,-0.31494"
       id="l138"
       inkscape:connector-curvature="0" />
    <path
       style="fill:none;stroke:#000000;stroke-opacity:1"
       d="m 1327.0187,-208.35387 c 0.7305,0.95859 3.192,6.10388 3.5764,7.4757 0.5288,1.88743 0.4632,3.72334 -0.2122,5.93423 -0.6038,1.97654 -3.1127,7.14959 -3.5161,7.24968"
       id="l139"
       inkscape:connector-curvature="0" />
    <path
       style="fill:none;stroke:#000000;stroke-opacity:1"
       d="m 1472.5831,-202.31528 c 0.1506,2.4e-4 1.2627,0.26483 2.4712,0.58826 3.4623,0.92619 5.4176,2.07917 6.2609,3.69191 0.4456,0.85204 0.6564,3.40278 0.4444,5.37903"
       id="l140"
       inkscape:connector-curvature="0" />
    <path
       style="fill:none;stroke:#000000;stroke-opacity:1"
       d="m 1365.4738,-208.03902 2.1056,0.0603 c 4.3263,0.12008 7.1813,0.77427 8.6493,1.98252 0.465,0.38252 1.3542,1.44675 1.9761,2.36443 0.6219,0.91774 1.3301,1.84689 1.5739,2.06482 0.3132,0.27994 1.3679,0.50499 3.597,0.76757 4.5248,0.53275 4.4406,0.50862 4.4406,1.27848"
       id="l141"
       inkscape:connector-curvature="0"
       sodipodi:nodetypes="ccccccc" />
    <path
       style="fill:none;stroke:#000000;stroke-opacity:1"
       d="m 1531.9301,-209.24088 c 0,0.0422 -0.9883,0.7794 -2.1962,1.63439 -1.6611,1.17579 -3.2142,1.98463 -6.3752,3.32025 l -4.179,1.76574 -6.5507,0.68588 c -7.1506,0.74868 -8.7089,0.79049 -12.0485,0.32339 l 0,-0.003 c -1.2224,-0.17133 -2.9069,-0.45552 -3.7432,-0.63164"
       id="l142"
       inkscape:connector-curvature="0" />
    <path
       style="fill:none;stroke:#000000;stroke-opacity:1"
       d="m 1466.8913,-219.91597 c 0,0.18341 -0.5089,0.84208 -1.1309,1.46316 -0.8987,0.89736 -1.3815,1.18292 -2.351,1.39053 -1.1615,0.2486 -4.1089,0.30045 -5.4485,0.0959 l 10e-5,10e-4 c -0.6116,-0.0935 -0.6222,-0.12427 -0.494,-1.42509"
       id="l143"
       inkscape:connector-curvature="0" />
    <path
       style="fill:none;stroke:#000000;stroke-opacity:1"
       d="m 1512.0442,-222.48931 c 0,-0.15444 0.7633,-0.47604 1.6961,-0.71508 2.8096,-0.71937 5.249,-1.75554 6.7767,-2.87854 1.9618,-1.44211 5.2441,-4.80815 8.6266,-8.84668 2.8239,-3.37153 6.5521,-6.95194 8.7804,-8.4326 1.1139,-0.74006 3.4685,-1.67379 5.1258,-2.03265"
       id="l144"
       inkscape:connector-curvature="0" />
    <path
       style="fill:none;stroke:#000000;stroke-opacity:1"
       d="m 1485.3433,-227.40998 c 0.2099,-0.0616 1.7502,-0.49052 3.423,-0.95419 1.6728,-0.46336 3.8987,-1.25489 4.9466,-1.75886 1.7042,-0.81964 2.203,-1.2287 4.7278,-3.87785 l 2.8225,-2.96163"
       id="l145"
       inkscape:connector-curvature="0" />
    <path
       style="fill:none;stroke:#000000;stroke-opacity:1"
       d="m 1339.9574,-233.3348 c 0.1707,-0.17073 5.0013,0.65915 7.1152,1.22213 1.1131,0.29624 2.6029,0.80244 3.3106,1.12445 1.1362,0.51707 5.802,3.08162 6.0417,3.32097"
       id="l146"
       inkscape:connector-curvature="0"
       sodipodi:nodetypes="cccc" />
    <path
       style="fill:none;stroke:#000000;stroke-opacity:1"
       d="m 1447.4231,71.257846 c 0.4168,-1.28217 0.4536,-5.29369 0.075,-8.188592 -0.1425,-1.088735 -0.259,-2.889001 -0.259,-4.00056 0,-3.172558 -0.045,-3.27581 -2.6026,-5.9646 -2.7144,-2.85368 -3.5777,-4.258282 -3.9923,-6.495192 -0.3374,-1.821042 -0.3456,-7.82307 -0.015,-10.586145 l 0.2032,-1.693702 -0.8326,-0.006 c -1.0576,-0.006 -36.835,2.608152 -36.9374,2.698004"
       id="l147"
       inkscape:connector-curvature="0" />
    <path
       style="fill:none;stroke:#000000;stroke-opacity:1"
       d="m 1431.0757,137.19431 -3.8353,3.93257 c -5.4462,5.58436 -7.5422,8.26544 -9.376,11.99319 -1.5544,3.15964 -3.9531,9.39831 -5.277,13.72462"
       id="l148"
       inkscape:connector-curvature="0" />
    <path
       style="fill:none;stroke:#000000;stroke-opacity:1"
       d="m 1438.2843,109.0897 0.1473,1.22403 c 0.3692,3.06943 0.059,6.38221 -0.8229,8.76658 -0.6124,1.65745 -2.0463,3.10631 -3.6172,3.65488 -1.1602,0.40548 -4.6895,0.64261 -6.5953,0.44345 l 3e-4,-4.2e-4"
       id="l149"
       inkscape:connector-curvature="0" />
    <path
       style="fill:none;stroke:#000000;stroke-opacity:1"
       d="m 1397.4142,82.782832 c 0,-0.117133 1.0379,-0.866935 2.2985,-1.665999 l 2.292,-1.452871 0.757,-3.686589 c 0.4163,-2.027636 1.3547,-5.560958 2.0853,-7.851797 l 1.3283,-4.165238 1.7318,-0.799004 c 0.9526,-0.439234 1.8094,-0.798974 1.9041,-0.798974"
       id="l150"
       inkscape:connector-curvature="0" />
    <path
       style="fill:none;stroke:#000000;stroke-opacity:1"
       d="m 1184.5107,10.263395 1.812,1.442603 c 3.5271,2.808212 7.8732,5.327776 10.5695,6.127262 1.7049,0.505629 9.1819,0.920744 12.9415,0.718576"
       id="l151"
       inkscape:connector-curvature="0" />
    <path
       style="fill:none;stroke:#000000;stroke-opacity:1"
       d="m 1217.5952,36.863193 c -0.091,-0.37341 -0.065,-3.310832 -0.5596,-4.402939 -0.4941,-1.092198 -0.9715,-2.248533 -1.061,-2.56973 -0.09,-0.321017 -0.8524,-2.332393 -1.6954,-4.469212 l -1.5325,-3.885143 0.07,-3.144826 0,-0.637456 c 0,-1.149169 0.909,-4.217181 1.6863,-5.69131 0.4686,-0.888706 1.4616,-2.1345013 2.5792,-3.2357022 l 1.8173,-1.7906297 0,-3.261146 c 0,-1.7937311 -0.066,-3.58978086 -0.1463,-3.99128516 -0.1354,-0.67617974 -1.8628,-1.48759254 -2.7566,-1.48711074"
       id="l152"
       inkscape:connector-curvature="0"
       sodipodi:nodetypes="ccccccssscscc" />
    <path
       style="fill:none;stroke:#000000;stroke-opacity:1"
       d="m 1166.0617,23.115752 c 0.351,0 2.8645,2.457173 3.9493,3.861294 3.0515,3.949491 2.9535,6.617715 -0.3722,10.13818 -1.3411,1.419658 -4.6248,3.99812 -5.5362,4.347381"
       id="l153"
       inkscape:connector-curvature="0" />
  </g>
</svg>
