<?xml version="1.0" encoding="UTF-8" standalone="no"?>
<svg
   xmlns:dc="http://purl.org/dc/elements/1.1/"
   xmlns:cc="http://creativecommons.org/ns#"
   xmlns:rdf="http://www.w3.org/1999/02/22-rdf-syntax-ns#"
   xmlns:svg="http://www.w3.org/2000/svg"
   xmlns="http://www.w3.org/2000/svg"
   xmlns:xlink="http://www.w3.org/1999/xlink"
   xmlns:sodipodi="http://sodipodi.sourceforge.net/DTD/sodipodi-0.dtd"
   xmlns:inkscape="http://www.inkscape.org/namespaces/inkscape"
   height="660"
   width="600"
   version="1.0"
   id="svg2"
   sodipodi:version="0.32"
   inkscape:version="0.91 r13725"
   sodipodi:docname="marmitte.svg"
   inkscape:export-filename="/Users/olivier/Desktop/Blason Rouge/Blason_Vide_3D.png"
   inkscape:export-xdpi="144"
   inkscape:export-ydpi="144">
  <metadata
     id="metadata49">
    <rdf:RDF>
      <cc:Work
         rdf:about="">
        <dc:format>image/svg+xml</dc:format>
        <dc:type
           rdf:resource="http://purl.org/dc/dcmitype/StillImage" />
        <dc:title />
        <dc:date>26-11-2006</dc:date>
        <dc:creator>
          <cc:Agent>
            <dc:title>Antoine Fabrice (Darkbob)</dc:title>
          </cc:Agent>
        </dc:creator>
        <cc:license
           rdf:resource="http://web.resource.org/cc/PublicDomain" />
        <dc:language />
        <dc:subject>
          <rdf:Bag>
            <rdf:li>blason corcieux</rdf:li>
          </rdf:Bag>
        </dc:subject>
      </cc:Work>
      <cc:License
         rdf:about="http://web.resource.org/cc/PublicDomain">
        <cc:permits
           rdf:resource="http://web.resource.org/cc/Reproduction" />
        <cc:permits
           rdf:resource="http://web.resource.org/cc/Distribution" />
        <cc:permits
           rdf:resource="http://web.resource.org/cc/DerivativeWorks" />
      </cc:License>
    </rdf:RDF>
  </metadata>
  <sodipodi:namedview
     inkscape:window-height="776"
     inkscape:window-width="1233"
     inkscape:pageshadow="2"
     inkscape:pageopacity="0.0"
     guidetolerance="10.0"
     gridtolerance="10.0"
     objecttolerance="10.0"
     borderopacity="1.0"
     bordercolor="#666666"
     pagecolor="#ffffff"
     id="base"
     showgrid="false"
     height="660px"
     inkscape:zoom="0.81915772"
     inkscape:cx="140.19794"
     inkscape:cy="606.925"
     inkscape:window-x="47"
     inkscape:window-y="24"
     inkscape:current-layer="svg2"
     showguides="true"
     inkscape:guide-bbox="true"
     inkscape:window-maximized="1" />
  <desc
     id="desc4">Flag of Canton of Valais (Wallis)</desc>
  <defs
     id="defs6">
    <linearGradient
       id="linearGradient2893">
      <stop
         style="stop-color:white;stop-opacity:0.3137255;"
         offset="0"
         id="stop2895" />
      <stop
         id="stop2897"
         offset="0.19"
         style="stop-color:white;stop-opacity:0.25098041;" />
      <stop
         style="stop-color:#6b6b6b;stop-opacity:0.1254902;"
         offset="0.60000002"
         id="stop2901" />
      <stop
         style="stop-color:black;stop-opacity:0.1254902;"
         offset="1"
         id="stop2899" />
    </linearGradient>
    <linearGradient
       id="linearGradient2885">
      <stop
         id="stop2887"
         offset="0"
         style="stop-color:white;stop-opacity:1;" />
      <stop
         style="stop-color:white;stop-opacity:1;"
         offset="0.22857143"
         id="stop2891" />
      <stop
         id="stop2889"
         offset="1"
         style="stop-color:black;stop-opacity:1;" />
    </linearGradient>
    <linearGradient
       id="linearGradient2955">
      <stop
         id="stop2867"
         offset="0"
         style="stop-color:#fd0000;stop-opacity:1;" />
      <stop
         style="stop-color:#e77275;stop-opacity:0.65882355;"
         offset="0.5"
         id="stop2873" />
      <stop
         style="stop-color:black;stop-opacity:0.32291666;"
         offset="1"
         id="stop2959" />
    </linearGradient>
    <radialGradient
       inkscape:collect="always"
       xlink:href="#linearGradient2955"
       id="radialGradient2961"
       cx="225.52438"
       cy="218.90099"
       fx="225.52438"
       fy="218.90099"
       r="300"
       gradientTransform="matrix(-4.167939e-4,2.182867,-1.884232,-3.599562e-4,615.5972,-289.1214)"
       gradientUnits="userSpaceOnUse" />
    <polygon
       id="star"
       transform="scale(53,53)"
       points="0,-1 0.58778525,0.80901699 -0.95105652,-0.30901699 0.95105652,-0.30901699 -0.58778525,0.80901699 0,-1 " />
    <clipPath
       id="clip">
      <path
         d="M 0,-200 L 0,600 L 300,600 L 300,-200 L 0,-200 z "
         id="path10" />
    </clipPath>
    <radialGradient
       inkscape:collect="always"
       xlink:href="#linearGradient2955"
       id="radialGradient1911"
       gradientUnits="userSpaceOnUse"
       gradientTransform="matrix(-4.167939e-4,2.182867,-1.884232,-3.599562e-4,615.5972,-289.1214)"
       cx="225.52438"
       cy="218.90099"
       fx="225.52438"
       fy="218.90099"
       r="300" />
    <radialGradient
       inkscape:collect="always"
       xlink:href="#linearGradient2955"
       id="radialGradient2865"
       gradientUnits="userSpaceOnUse"
       gradientTransform="matrix(0,1.748721,-1.593162,-1.049767e-7,551.7876,-191.2898)"
       cx="225.52438"
       cy="218.90099"
       fx="225.52438"
       fy="218.90099"
       r="300" />
    <radialGradient
       inkscape:collect="always"
       xlink:href="#linearGradient2955"
       id="radialGradient2871"
       gradientUnits="userSpaceOnUse"
       gradientTransform="matrix(0,1.386237,-1.323286,-5.741131e-8,-158.0823,-109.5408)"
       cx="225.52438"
       cy="218.90099"
       fx="225.52438"
       fy="218.90099"
       r="300" />
    <radialGradient
       gradientTransform="matrix(1.353218,0,0,1.348928,-77.62935,-85.74693)"
       gradientUnits="userSpaceOnUse"
       xlink:href="#linearGradient2893"
       id="radialGradient9547"
       fy="226.33101"
       fx="221.44487"
       r="300"
       cy="226.33101"
       cx="221.44487" />
    <radialGradient
       gradientTransform="matrix(0,1.386237,-1.323286,-5.741131e-8,-158.0823,-109.5408)"
       gradientUnits="userSpaceOnUse"
       xlink:href="#linearGradient2955"
       id="radialGradient9545"
       fy="218.90099"
       fx="225.52438"
       r="300"
       cy="218.90099"
       cx="225.52438" />
    <radialGradient
       gradientTransform="matrix(0,1.748721,-1.593162,-1.049767e-7,551.7876,-191.2898)"
       gradientUnits="userSpaceOnUse"
       xlink:href="#linearGradient2955"
       id="radialGradient9543"
       fy="218.90099"
       fx="225.52438"
       r="300"
       cy="218.90099"
       cx="225.52438" />
    <radialGradient
       gradientTransform="matrix(-4.167939e-4,2.182867,-1.884232,-3.599562e-4,615.5972,-289.1214)"
       gradientUnits="userSpaceOnUse"
       xlink:href="#linearGradient2955"
       id="radialGradient9541"
       fy="218.90099"
       fx="225.52438"
       r="300"
       cy="218.90099"
       cx="225.52438" />
    <clipPath
       id="clipPath9537">
      <path
         id="path9539"
         d="M 0,-200 L 0,600 L 300,600 L 300,-200 L 0,-200 z " />
    </clipPath>
    <polygon
       id="polygon9535"
       transform="scale(53,53)"
       points="0,-1 0.58778525,0.80901699 -0.95105652,-0.30901699 0.95105652,-0.30901699 -0.58778525,0.80901699 0,-1 " />
    <radialGradient
       gradientTransform="matrix(-4.167939e-4,2.182867,-1.884232,-3.599562e-4,615.5972,-289.1214)"
       gradientUnits="userSpaceOnUse"
       xlink:href="#linearGradient2955"
       id="radialGradient9533"
       fy="218.90099"
       fx="225.52438"
       r="300"
       cy="218.90099"
       cx="225.52438" />
    <linearGradient
       id="linearGradient9525">
      <stop
         id="stop9527"
         offset="0"
         style="stop-color:#fd0000;stop-opacity:1" />
      <stop
         id="stop9529"
         offset="0.5"
         style="stop-color:#e77275;stop-opacity:0.65882355" />
      <stop
         id="stop9531"
         offset="1"
         style="stop-color:black;stop-opacity:0.32291666" />
    </linearGradient>
    <linearGradient
       id="linearGradient9517">
      <stop
         id="stop9519"
         offset="0"
         style="stop-color:white;stop-opacity:1" />
      <stop
         id="stop9521"
         offset="0.22857143"
         style="stop-color:white;stop-opacity:1" />
      <stop
         id="stop9523"
         offset="1"
         style="stop-color:black;stop-opacity:1" />
    </linearGradient>
    <linearGradient
       id="linearGradient9507">
      <stop
         id="stop9509"
         offset="0"
         style="stop-color:white;stop-opacity:0.3137255" />
      <stop
         id="stop9511"
         offset="0.19"
         style="stop-color:white;stop-opacity:0.25098041" />
      <stop
         id="stop9513"
         offset="0.60000002"
         style="stop-color:#6b6b6b;stop-opacity:0.1254902" />
      <stop
         id="stop9515"
         offset="1"
         style="stop-color:black;stop-opacity:0.1254902" />
    </linearGradient>
  </defs>
  <path
     inkscape:connector-curvature="0"
     sodipodi:nodetypes="ccsssccsssc"
     id="f101"
     d="M 501.20914,290.03495 486.34066,276.01448 C 529.65453,248.5083 536.25104,229.10915 536.25104,187.59579 536.25093,105.74587 424.49076,36.836787 298.39761,36.836787 172.30445,36.836821 62.894305,103.10233 62.894305,184.95229 c 0,37.49364 12.805476,66.33861 48.173015,92.43765 L 98.368063,290.459 C 58.9399,261.36347 43.838479,226.69025 43.838479,184.95229 c 0,-91.11537 114.192101,-166.561756 254.559131,-166.561756 140.36696,0 256.90918,78.089887 256.90925,169.205256 0,46.21273 -7.8162,73.04836 -54.09772,102.43916 z"
     style="display:inline;fill:#000000;fill-opacity:1;stroke:#313131;stroke-width:4.28811884;stroke-miterlimit:4;stroke-dasharray:none;stroke-opacity:0.99541285" />
  <path
     style="fill:#000000;fill-opacity:1;fill-rule:evenodd;stroke:#313131;stroke-width:4.28811884;stroke-linecap:butt;stroke-linejoin:miter;stroke-miterlimit:4;stroke-dasharray:none;stroke-opacity:0.99541285"
     d="m 425.03646,584.48126 c 26.23897,-13.24719 49.32961,-30.39978 68.06249,-50.58828"
     id="l103"
     inkscape:connector-curvature="0" />
  <path
     style="fill:none;fill-opacity:1;fill-rule:evenodd;stroke:#313131;stroke-width:4.28811884;stroke-linecap:butt;stroke-linejoin:miter;stroke-miterlimit:4;stroke-dasharray:none;stroke-opacity:0.99541285"
     d="m 505.08958,297.98687 c -8.71137,-12.08537 -18.8156,-23.34726 -30.11869,-33.61834 4.28226,-6.24989 4.33037,-20.28973 2.62791,-18.51839 -3.86248,4.01876 -34.44572,18.66101 -74.87231,23.91068 -36.22215,4.70369 -79.00257,5.33124 -103.1538,8.00808 -38.83161,4.30396 -97.27076,-5.2062 -136.9771,-15.85162 -22.11155,-5.92819 -38.26496,-13.02728 -42.3452,-16.32391 -3.71495,-3.0015 -2.87427,13.10804 -0.03,22.45522 -38.815312,37.0028 -62.46539,86.05889 -62.46539,139.85022 0.574572,40.95041 22.052225,83.55277 47.25843,125.47358 -16.179853,7.97905 -30.060981,81.68003 -35.41421,90.67108 -15.505574,26.04255 -28.84533,16.68349 20.730297,18.85963 18.580613,0.81558 8.418516,-33.28162 20.730273,-44.97288 14.74243,-13.344 51.48187,-20.47745 75.86469,-5.45723 28.87353,13.14407 61.19845,21.39549 95.48817,23.47209 l 3.70297,1.55723 c 1.23315,7.43049 1.95671,15.61756 2.23545,25.22978 8.04645,0.41716 16.12356,0 24.18533,0 -0.87652,-9.70146 -0.34222,-17.7077 0.88309,-24.81379 l 4.318,-2.03588 c 28.46371,-8.28074 79.87611,-4.53941 97.48701,-27.382 25.39011,-12.15283 52.19796,-9.90223 72.55599,9.4298 12.31177,11.69125 2.14879,44.32381 20.73027,43.52213 50.43939,-2.1761 36.23587,8.63367 20.7303,-17.40888 -6.74172,-19.53004 -15.00149,-82.35626 -36.27801,-89.63019 l 1.12033,-3.78505 c 29.72504,-34.13656 47.30691,-76.3497 47.30691,-122.72942 0,-38.78967 -12.29817,-75.11698 -33.71281,-106.2378 z"
     id="f102"
     inkscape:connector-curvature="0"
     sodipodi:nodetypes="ccssssscccsscccccccccsscccscc" />
  <path
     style="fill:#000000;fill-opacity:1;fill-rule:evenodd;stroke:#313131;stroke-width:4.28811884;stroke-linecap:butt;stroke-linejoin:miter;stroke-miterlimit:4;stroke-dasharray:none;stroke-opacity:0.99541285"
     d="m 314.25091,617.21222 c 2.10839,-9.66213 5.32429,-17.82228 7.55659,-26.79024 l -44.91562,-3.54328 c 3.79845,8.70122 6.56281,20.52398 8.43719,29.86864"
     id="l101"
     inkscape:connector-curvature="0"
     sodipodi:nodetypes="cccc" />
  <path
     style="fill:#000000;fill-opacity:1;fill-rule:evenodd;stroke:#313131;stroke-width:4.28811884;stroke-linecap:butt;stroke-linejoin:miter;stroke-miterlimit:4;stroke-dasharray:none;stroke-opacity:0.99541285"
     d="m 175.34897,585.97682 c -28.09633,-13.7209 -50.92767,-32.15138 -70.59215,-54.045"
     id="l102"
     inkscape:connector-curvature="0"
     sodipodi:nodetypes="cc" />
  <path
     inkscape:connector-curvature="0"
     style="display:inline;fill:none;fill-opacity:1;stroke:#313131;stroke-width:4.28811884;stroke-miterlimit:4;stroke-dasharray:none;stroke-opacity:0.99541285"
     d="m 496.93247,221.7107 c 0,30.68457 -88.43466,53.63701 -197.35978,55.58805 -108.94263,1.95135 -197.35982,-24.90348 -197.35982,-55.58805 0,-30.68465 88.41719,-55.58809 197.35982,-55.58809 108.94259,0 197.35978,24.90344 197.35978,55.58809 z"
     id="f104"
     sodipodi:nodetypes="sssss" />
  <path
     inkscape:connector-curvature="0"
     id="f201"
     d="m 451.86474,221.7107 c 0,19.33115 -68.22683,35.02026 -152.29205,35.02026 -84.06526,0 -152.29209,-15.68911 -152.29209,-35.02026 0,-19.33119 68.22683,-35.02031 152.29209,-35.02031 84.06522,0 152.29205,15.68912 152.29205,35.02031 z"
     style="display:inline;fill:none;fill-opacity:1;stroke:#313131;stroke-width:4.28811884;stroke-miterlimit:4;stroke-dasharray:none;stroke-opacity:0.99541285" />
</svg>
