<?xml version="1.0" encoding="UTF-8" standalone="no"?>
<!-- Created with Inkscape (http://www.inkscape.org/) -->

<svg
   xmlns:dc="http://purl.org/dc/elements/1.1/"
   xmlns:cc="http://creativecommons.org/ns#"
   xmlns:rdf="http://www.w3.org/1999/02/22-rdf-syntax-ns#"
   xmlns:svg="http://www.w3.org/2000/svg"
   xmlns="http://www.w3.org/2000/svg"
   xmlns:sodipodi="http://sodipodi.sourceforge.net/DTD/sodipodi-0.dtd"
   xmlns:inkscape="http://www.inkscape.org/namespaces/inkscape"
   id="svg2052"
   sodipodi:version="0.32"
   inkscape:version="0.91 r13725"
   width="702"
   height="1014"
   version="1.0"
   sodipodi:docname="ours_rampant.svg"
   inkscape:output_extension="org.inkscape.output.svg.inkscape">
  <metadata
     id="metadata2057">
    <rdf:RDF>
      <cc:Work
         rdf:about="">
        <dc:format>image/svg+xml</dc:format>
        <dc:type
           rdf:resource="http://purl.org/dc/dcmitype/StillImage" />
      </cc:Work>
    </rdf:RDF>
  </metadata>
  <defs
     id="defs2055">
    <inkscape:perspective
       sodipodi:type="inkscape:persp3d"
       inkscape:vp_x="0 : 507 : 1"
       inkscape:vp_y="0 : 1000 : 0"
       inkscape:vp_z="702 : 507 : 1"
       inkscape:persp3d-origin="351 : 338 : 1"
       id="perspective17" />
  </defs>
  <sodipodi:namedview
     inkscape:window-height="730"
     inkscape:window-width="1233"
     inkscape:pageshadow="2"
     inkscape:pageopacity="0.0"
     guidetolerance="10.0"
     gridtolerance="10.0"
     objecttolerance="10.0"
     borderopacity="1.0"
     bordercolor="#666666"
     pagecolor="#ffffff"
     id="base"
     inkscape:zoom="0.97861003"
     inkscape:cx="138.99953"
     inkscape:cy="640.81792"
     inkscape:window-x="47"
     inkscape:window-y="34"
     inkscape:current-layer="svg2052"
     showgrid="false"
     showguides="false"
     inkscape:window-maximized="0" />
  <path
     inkscape:connector-curvature="0"
     style="fill:#444444;fill-opacity:1"
     d="m 496.1928,967.61674 c -2.7108,-9.04765 -1.1412,-16.74165 4.6427,-22.7578 1.123,-1.1681 2.1896,-3.41422 2.3704,-4.99137 0.2556,-2.23051 1.3283,-3.40047 4.8286,-5.2665 9.3791,-5.00004 9.5419,-5.10583 7.8643,-5.11215 -0.8996,-0.003 -2.8681,-0.64555 -4.3744,-1.42703 -1.5063,-0.78148 -3.4703,-1.14806 -4.3643,-0.81464 -2.2341,0.83315 -12.9694,8.17366 -13.7126,9.37632 -0.3319,0.53695 -1.9289,0.68516 -3.5489,0.32935 -3.6359,-0.79858 -5.9858,0.65153 -13.931,8.5967 -3.7122,3.71221 -5.9331,6.77155 -5.9331,8.17292 0,2.19748 -0.0473,2.18882 -2.5023,-0.45877 -2.404,-2.59266 -2.4638,-2.96916 -1.5241,-9.59512 1.1031,-7.77764 1.7275,-9.75661 3.9623,-12.55777 2.4021,-3.01078 9.4717,-9.60165 10.3141,-9.61565 0.4125,-0.007 0.75,-0.88651 0.75,-1.95478 0,-1.27799 1.6382,-2.8632 4.7897,-4.63473 4.1596,-2.33826 7.2103,-5.98634 7.2103,-8.62232 0,-1.84744 -5.4531,-0.58499 -9.5,2.19936 -4.7289,3.25355 -9.5,3.99856 -9.5,1.48342 0,-2.49011 -16.9617,9.32611 -17.0318,11.86507 -0.0175,0.63333 -0.6925,2.02502 -1.5,3.09264 -1.4534,1.92151 -1.4831,1.92151 -2.9364,0 -2.2023,-2.91168 -1.9297,-11.98769 0.5114,-17.03048 1.1238,-2.32144 3.9104,-5.72601 6.1925,-7.56572 2.282,-1.83971 4.85,-4.17431 5.7067,-5.188 3.1201,-3.69195 12.6572,-10.29079 16.5576,-11.4563 2.2,-0.65741 5.7652,-1.30899 7.9227,-1.44796 6.1049,-0.39323 5.5759,-2.48399 -0.831,-3.28447 -5.1007,-0.6373 -6.0209,-0.41583 -12.0569,2.902 -3.5942,1.97558 -6.5348,3.20296 -6.5348,2.72751 -3.9319,-4.99773 -11.77401,3.9442 -14.4753,7.14253 -1.5994,1.81703 -2.9776,2.52322 -4.0907,2.09607 -1.424,-0.54645 -1.5816,-1.59194 -1.0385,-6.89205 0.352,-3.43633 1.0872,-7.53063 1.6338,-9.09845 9.19497,-12.18479 28.60239,-17.36254 43.1814,-18.32861 4.0091,0.10832 8.5925,0.14876 10.1853,0.0899 l 2.896,-0.10707 c -4.5654,-3.17886 -6.93237,-9.46856 -11.7986,-11.59101 -4.4258,-1.1108 -8.954,0.45985 -13.2631,4.60036 -2.2842,2.19486 -4.6204,3.99065 -5.1917,3.99065 -1.4591,0 -1.2913,-2.61571 0.3721,-5.79966 3.4857,-6.67216 11.6526,-11.20034 20.2007,-11.20034 2.3979,0 6.3726,-0.53831 8.8325,-1.19625 l 5.05422,0.89724 c 5.45277,4.07284 8.15112,7.29629 11.42728,12.94448 1.8953,3.10816 1.975,3.13331 6.7231,2.12064 12.97793,-3.55325 25.03606,-8.79412 34.1173,-18.84547 6.3184,-7.15527 7.0908,-8.43631 5.9239,-9.82441 -3.65642,-4.00336 -6.54894,-8.91755 -10.9887,-12.09623 -0.608,0 -0.7456,2.29974 -0.3588,6 0.7251,6.9376 0.0554,7.3604 -5.9397,3.75 -5.5937,-3.36868 -9.7686,-7.91592 -20.4279,-22.25 -5.317,-7.15 -10.6649,-13.88306 -11.8843,-14.96234 -1.2194,-1.07929 -4.3074,-5.79718 -6.8623,-10.4842 -4.1732,-7.65585 -4.7156,-8.26941 -5.337,-6.03766 -0.3804,1.36631 -0.7365,4.8467 -0.7913,7.7342 -0.1121,5.9003 -1.1902,6.53986 -5.4183,3.21408 -4.3192,-3.39752 -8.0444,-9.86134 -14.1195,-24.49928 -3.07104,-3.52022 -11.84605,-36.33749 -13.0619,-35.4648 -2.75833,3.67737 -5.1145,7.68122 -9.3958,10 -5.67206,-19.89222 -13.98913,-41.03785 -14.3379,-62 -0.0943,-12.39252 -0.9259,-14.01306 -7.1713,-13.97514 -3.5616,0.0216 -5.1585,0.90085 -12.2593,6.75 -9.232,7.60464 -20.5305,20.27691 -24.7195,27.72514 -3.2245,5.73311 -4.9056,13.46191 -4.7309,21.75 0.1044,4.95416 -0.1327,5.75 -1.7131,5.75 -2.99783,-2.70895 -4.9197,-7.83881 -9.0495,-8.00084 -1.38796,14.76058 -5.77074,29.34611 -5.3783,44.25084 0.3318,3.79066 0.1319,5.75 -0.5867,5.75 -8.31303,-1.79676 -12.7773,-8.71726 -18.786,-13.70508 -0.1352,0.13519 -0.9699,5.86163 -1.855,12.72544 -2.065,16.01438 -7.2457,46.61937 -8.5279,50.37886 -0.5439,1.59458 -0.9888,4.40708 -0.9888,6.25 0,2.66411 -0.4027,3.35078 -1.9648,3.35078 -12.09249,-7.39588 -13.10784,-26.19963 -25.5352,-33 -6.0983,0 -9.0382,6.16266 -9.9281,20.81158 -0.67161,13.46882 -6.13584,25.62203 -7.8082,38.93842 -1.2962,11.36843 -2.3219,12.51261 -6.8394,7.62948 -2.5439,-2.74975 -10.7925,-6.84458 -11.7862,-5.85093 -0.3183,0.31834 -0.7477,3.59215 -0.954,7.27513 -0.2981,5.32028 0.4664,10.16167 3.7203,23.56005 2.2526,9.27504 4.0956,17.93754 4.0956,19.25 0,3.13871 -2.3786,3.09766 -6.5889,-0.11373 -4.6199,-3.52375 -7.2295,-3.25166 -4.0403,0.42126 2.2465,2.58726 9.6331,20.38101 9.5812,23.08048 -2.24816,14.23176 -15.03523,22.15984 -26.311,28.73352 -14.50563,3.10531 -41.27562,-3.86067 -56.14102,-7.27329 -14.83977,-6.52573 -35.25116,-4.65014 -49.49817,-10.9314 -10.75011,-5.04715 -21.13745,-9.88409 -31.61366,-15.7567 -4.79952,-2.66626 -4.24284,-3.77387 -12.16667,-3.77387 -5.20109,0 -8.19122,0.40916 -8.43979,1.15487 -0.53145,1.59434 -8.38566,3.81159 -13.56689,3.82995 -4.66051,0.0165 -9.21482,-2.32057 -9.21482,-4.72866 0,-2.48112 -9.86366,-0.73866 -13.05472,2.30618 -3.81404,3.63928 -5.31292,3.21089 -4.47084,-1.27778 1.14142,-6.08428 3.19096,-8.94969 7.99828,-11.18215 5.110039,-2.31753 10.021467,-5.14989 15.593,-6.10799 6.46624,-0.0148 11.93428,-3.13598 11.93428,-6.8121 0,-2.16407 -5.26786,-1.83652 -10.04416,0.62455 -9.676323,1.36843 -5.88099,0.48436 -12.74112,-1.30687 -1.024497,-1.46581 -0.91122,-1.96076 -5.73841,-1.65812 -4.63046,0.2903 -5.83825,0.79955 -8.00582,3.37557 -3.07082,3.64946 -3.97049,3.03145 -3.97049,-2.72745 0,-9.21802 6.26657,-13.36947 20.29049,-13.44197 7.94256,-0.0411 9.71988,-0.36549 12.25,-2.23609 1.62773,-1.20343 2.95951,-2.72597 2.95951,-3.38342 0,-1.43258 -4.79649,-2.53905 -5.23992,-1.20877 -0.17032,0.51099 -3.13621,1.18537 -6.59085,1.49862 -5.81848,0.5276 -6.32247,0.41163 -6.84183,-1.57441 -0.37863,-1.44786 -1.34743,-2.14396 -2.98387,-2.14396 -3.21745,0 -10.04424,3.54789 -11.59027,6.02348 -0.67889,1.08709 -2.02611,1.97652 -2.99381,1.97652 -1.41861,0 -1.75945,-0.87174 -1.75945,-4.5 0.344541,-9.3739 10.35216,-13.36474 18.36187,-15.94283 9.45165,-2.72736 14.89543,-3.17024 19.13851,-1.55703 1.73561,0.65988 3.25822,0.66424 4.47542,0.0128 1.59063,-0.85128 1.69964,-1.46051 0.79103,-4.42104 -1.15714,-3.77028 -2.79618,-4.55671 -9.54183,-4.57826 -3.97546,-0.0127 -4.31839,-0.23059 -4.89423,-3.1098 -0.56086,-2.80432 -0.89601,-3.0408 -3.55568,-2.50887 -1.61505,0.32301 -4.78114,2.16628 -7.03577,4.09616 -5.47656,4.68772 -7.17403,4.63962 -6.2703,-0.17769 0.96498,-5.14379 5.76475,-11.72197 10.02961,-13.74578 2.00939,-0.95351 6.32009,-1.76806 9.79507,-1.85087 5.72388,-0.1364 22.84771,1.49758 30.41045,2.9018 2.85482,0.53008 3.27744,0.30293 3.87639,-2.08349 0.83524,-4.86997 -5.35425,-8.10074 -9.5018,-8.49447 -1.88169,-0.0224 -4.19736,-0.74301 -5.14594,-1.60145 -1.57981,-1.42971 -2.01751,-1.30371 -5.21075,1.5 -1.91735,1.68344 -4.21417,3.06081 -5.10407,3.06081 -2.19013,0 -2.07712,-3.52792 0.21929,-6.84563 1.69132,-2.86209 2.52646,-5.24548 5.67451,-6.56797 15.63378,-6.27305 20.57841,-8.29255 33.5239,5.49832 7.19887,8.59494 6.02674,10.50418 7.96432,16.86104 2.35706,10.18473 14.41285,11.1476 23.64862,12.62769 4.58983,0.53262 9.58768,2.25818 18.96091,6.54644 4.6762,2.13936 6.6997,2.32017 9.45621,0.84493 2.15947,-1.15571 2.39259,-4.24106 1.29844,-17.18481 -0.55495,-6.56507 -0.86274,-7.46239 -2.41997,-7.05517 -0.98129,0.25661 -2.94864,1.7735 -4.3719,3.37086 -5.0934,5.71648 -5.41954,4.69834 -4.91559,-15.3457 0.28949,-11.51386 1.22188,-22.97143 2.52612,-31.04161 1.137,-7.03539 1.87343,-12.98545 1.63652,-13.22236 -3.24091,1.17621 -5.35997,4.46512 -8.87012,4.9826 -3.26389,-19.09666 5.46429,-40.87459 14.35862,-57.32145 0.91596,-1.11866 6.69214,-13.95194 6.69214,-14.86833 -3.82608,-1.00338 -6.32389,4.127 -7.78772,6.97115 -1.29125,3.03653 -2.96005,3.57086 -3.85648,1.23481 -1.26605,-3.29928 1.88637,-18.14021 5.83815,-27.48481 3.67089,-9.32759 8.90053,-17.67353 15.10378,-25.5 l 6.48393,-8 c -3.70085,-0.55722 -6.74554,-0.62244 -9.7109,1.93221 -3.35926,3.21838 -4.07076,3.22063 -4.07076,0.0129 8.15608,-28.43339 38.07206,-42.37755 55.5,-64.01529 -4.01017,1.48437 -9.87835,1.78354 -10.58984,0.63233 12.01655,-23.84653 39.62085,-35.3206 61.64866,-48.56218 7.38465,-2.06299 11.90621,-9.15407 18.5111,-12.14463 4.4037,-1.76204 4.9607,-3.73894 2.1049,-7.47051 -7.93947,-11.76259 -14.50215,-24.34882 -21.6038,-36.60762 -12.46028,5.54031 -24.43718,12.1663 -36.571,18.39224 -8.4737,4.23448 -14.77486,4.98425 -17.65798,2.10113 -1.63919,-1.63919 -1.61997,-1.84782 0.36843,-4 1.77529,-1.92151 4.74475,-9.64877 3.99565,-10.39782 -6.24921,3.03951 -12.71629,5.04553 -19.58691,6.25097 -8.77794,1.32658 -13.23155,2.92807 -17.32465,6.22984 -4.09387,3.30239 -23.79,5.41437 -27.01162,2.8964 -1.83236,-1.43215 -0.76677,-5.72665 1.43484,-5.78257 l 4.54788,-7.00523 c -7.32417,0.0696 -13.82398,3.67472 -20.92278,4.74281 -11.34516,4.93872 -21.79347,9.88541 -34.73026,11.31339 -4.81946,0.0245 -14.93466,-3.16299 -15.62065,-4.92243 4.55889,-3.58263 6.77367,-7.32154 6.68037,-11.21432 l -10.83617,0.62574 c -9.36406,0.54073 -11.51543,0.35903 -15.83617,-1.33745 -2.79491,-1.09738 -5.14901,-2.7036 -5.33787,-3.64207 1.82792,-5.26926 9.90184,-3.63711 11.83787,-10.00464 0,-1.01381 -5.33904,-4.43005 -14,-8.95805 -8.374,-4.53457 -13.640711,-14.66435 -23.38246,-16.56518 -0.81498,0 -5.50932,-2.03122 -10.43187,-4.51381 -4.98264,-2.51291 -9.64064,-4.24883 -10.50789,-3.91604 -3.771513,3.2328 -4.467666,5.54503 -10.00533,4.94069 -2.84485,-0.36053 -5.95995,-0.87828 -6.92245,-1.15056 -2.090914,-0.16427 -2.453286,2.6618 -3.79667,4.18196 -2.94027,2.6609 -5.23463,7.99611 -4.47199,10.39897 1.00486,3.16602 -2.67089,2.64626 -5.16759,-0.73072 -5.722372,-9.06699 -3.524372,-20.45306 3.06127,-28.21867 6.28349,-7.17117 9.73514,-9.92368 14.47719,-11.54482 2.78485,-0.95203 3.72313,-1.86716 3.96627,-3.86839 l 0.31849,-2.62135 -7.81849,0.33112 c -18.578322,-1.09827 -13.227564,10.70114 -17.69603,13.71162 -2.44267,0 -3.66281,-2.62642 -4.27733,-9.20716 -0.711974,-16.12793 10.076693,-25.3763 26.03386,-25.64714 l 8.46115,0.3543 0.36073,-3.09235 c 0.35239,-3.02082 0.22753,-3.12191 -5.39696,-4.3697 -3.16673,-0.70253 -6.27318,-1.89847 -6.90324,-2.65764 -4.247152,-3.02724 -13.138604,7.1462 -14.90066,11.18708 0,2.60149 -1.83568,3.19693 -3.8,1.23261 -2.02399,-2.02399 -1.45065,-12.27741 0.98196,-17.5609 6.099442,-12.97497 15.609844,-15.99581 28.56804,-16.21524 l 9.25,-0.0239 -0.0029,-2.75 c -0.0027,-2.48778 -0.35493,-2.75793 -3.69438,-2.83313 -3.142766,-0.58102 -6.486782,-1.83799 -9.30268,-3.41687 -7.127983,-3.0683 -16.705301,3.97193 -22.60576,8 -0.21683,0 -0.39096,-2.1375 -0.38694,-4.75 3.951832,-18.99417 22.198166,-21.34118 38.14638,-21.94958 15.0181,-0.50588 18.26826,-0.34875 21.77024,1.05246 4.35095,1.74091 10.56291,2.24385 9.65948,0.78206 -0.29405,-0.47578 -2.45741,-1.12296 -4.80746,-1.43817 -6.166794,-1.19049 -7.340358,-6.3522 -13.92898,-4.75418 -2.73085,0.69989 -5.20466,1.03304 -5.49737,0.74033 1.313628,-9.12779 11.009004,-13.53402 19.32924,-13.68292 l 12.37755,5.15609 c 2.71899,2.83585 4.94362,5.98196 4.94362,6.99135 0,1.00939 1.62261,3.96099 3.6058,6.5591 3.14884,4.12522 3.54535,5.2601 3.12884,8.95538 -0.40253,3.57122 -0.0879,4.59095 2.01633,6.53481 8.5095,8.26409 14.00529,18.86169 21.20026,28.09618 12.5419,12.69046 8.77115,11.72081 35.04877,15.75544 13.57425,1.16218 15.45768,1.09797 29.5,-1.00562 8.25,-1.23588 19.05,-2.78481 24,-3.44205 9.63334,-1.27909 9.61645,-1.4164 -0.5,-4.06493 -8.36241,-3.76388 -37.76614,-7.34556 -42.96193,-16.03575 0.014,-0.55 1.60419,-2.57162 3.53377,-4.4925 3.05437,-3.04058 3.27671,-3.57106 1.71825,-4.09964 -14.74014,-3.51885 -28.88055,-9.94223 -43.36486,-13.90786 -4.01461,0 -9.92523,-2.47119 -9.92523,-4.14967 0,-0.9145 2.28491,-3.30426 5.07757,-5.31059 5.98254,-4.29803 5.8194,-4.77224 -3.48027,-10.11677 -9.68466,-3.28526 -16.41004,-12.80045 -26.15666,-15.54223 -6.89268,-2.74227 -1.34437,-5.48454 2.81109,-8.22681 -6.06857,-5.09213 -13.39996,-8.32121 -17.25173,-15.69158 -5.9153,-10.98632 -13.60862,-20.60088 -21.7009,-30.09236 -4.5645,-5.2965 -8.2991,-10.359 -8.2991,-11.25 0,-1.09116 -0.89771,-1.6327 -2.75,-1.65892 -1.5125,-0.0214 -5.225,-1.5571 -8.25,-3.41263 -9.99481,-6.13082 -24.6519,-12.94874 -25.18275,-11.71407 -1.55676,3.62079 -12.81725,6.99335 -12.81725,3.83882 -4.486529,-3.76909 -8.689708,1.82271 -8.9682,6.07681 -0.02409,2.46225 -0.4721,3.25 -1.84834,3.25 -1.42942,0 -2.08171,-1.33404 -3.06079,-6.2598 -4.5556552,-13.81284 13.273648,-21.7449 23.84877,-24.46319 3.24643,-0.43544 3.89776,-0.93246 4.23524,-3.23182 0.38971,-2.6553 0.22923,-2.74738 -7.03876,-4.03877 -5.78527,-1.02793 -7.54704,-1.74018 -7.93039,-3.2061 -0.42768,-1.63545 -1.10387,-1.79441 -5.11518,-1.20249 -2.56354,0.37829 -5.88153,1.73339 -7.44942,3.04242 -2.92895,2.44539 -7.33093,4.03509 -8.35041,3.0156 1.6931018,-11.94982 9.161553,-20.15152 21.30504,-21.6608 1.72015,0.003 3.73231,-0.72374 4.47146,-1.61436 3.258212,-3.65559 10.032069,1.58214 12.90098,-1.77358 0,-0.74922 0.675,-1.92242 1.5,-2.60711 2.52975,-2.0995 1.6703,-3.49244 -2.25566,-3.65581 -5.56561,-0.23161 -9.24434,-1.9505 -9.24434,-4.31944 0,-1.7681 -0.6459,-2.02475 -5.09563,-2.02475 -5.0199,0 -10.18085,2.41039 -12.20406,5.69982 -1.76056,2.86242 -3.70031,1.37691 -3.70031,-2.8338 -0.224234,-18.67661 19.340122,-17.32739 33.5,-17.10304 l 8,0.49579 -2.93709,-3.12938 c -1.941,-2.06808 -3.89107,-3.12939 -5.75,-3.12939 -2.03212,0 -2.81291,-0.49491 -2.81291,-1.78299 0,-1.41862 -1.43956,-2.04924 -7.04419,-3.08578 -7.60297,-1.40612 -8.07804,-1.2685 -12.48765,3.61745 -3.1677,3.50989 -4.84071,2.93448 -4.13378,-1.42177 2.813713,-10.51745 12.199828,-15.64537 22.36789,-14.84012 5.00101,0.46863 7.29773,0.34228 7.29773,-0.40147 0,-1.81162 5.82086,-1.21669 10.28984,1.05169 9.317415,6.62752 12.537251,3.64905 30.68194,17.70332 5.74999,3.7724 6.54362,4.04596 7.11585,2.45281 0.691791,-8.7982 -7.855918,-17.00421 -14.795464,-19.6888 -1.396553,-0.004 -4.292166,0.71549 -4.292166,-0.95247 0,-3.8172 6.24101,-6.07324 14.38739,-5.20083 9.52193,1.59583 19.43993,9.38592 22.75231,18.55695 1.7035,4.88318 2.88367,10.19188 2.77708,12.49201 -0.37611,8.11578 0.10745,11.14888 2.12218,13.31144 3.92727,4.00027 8.34369,0.97452 12.50211,-0.81144 4.90263,25.71712 19.71962,1.06161 23.35759,12.98167 0.70223,2.73992 2.81091,8.02742 4.68597,11.75 l 7.04342,15.18584 c 1.04626,-2.68221 1.96873,-5.38494 2.37195,-8.23851 0,-2.51761 3.68981,-2.0662 4.66734,0.571 5.85895,13.36733 16.67202,20.2691 27.21752,27.88756 3.3564,2.62116 3.71792,2.38602 3.28653,-2.13756 -0.40706,-4.26847 0.90272,-5.12425 4.59218,-3.00043 15.68702,10.0715 25.39792,21.88604 47.73643,30.01753 0.56676,-3.89859 -1.29244,-9.87258 3.96893,-10.0171 6.12589,0.89679 11.69517,6.44347 16.37509,10.26569 l 6.917,5.76569 c 12.05301,-7.49618 30.35307,-4.91636 41.6569,-13.89857 0.6752,-1.09245 -6.0742,-4.74223 -10.4179,-5.6336 -4.0649,-0.83414 -10,-4.97536 -10,-6.97748 0,-1.42891 7.5513,-5.35019 14.5,-7.52958 10.1418,-3.18091 14.2688,-5.83662 15.7878,-10.15939 1.8194,-5.1776 -16.2403,-3.303 -30.7878,3.19579 -8.0756,3.60759 -19.0998,5.29832 -29.9225,4.58906 -9.21081,-0.60362 -10.63114,-0.98036 -16.54637,-4.38895 -8.43958,-4.86323 -10.99171,-9.10886 -11.0147,-18.32367 -0.0128,-5.13341 0.38884,-6.9618 1.81229,-8.25 1.00581,-0.91025 2.29331,-1.65499 2.86111,-1.65499 0.56781,0 1.28325,-2.7667 1.58987,-6.14823 0.46082,-5.08196 1.03216,-3.01278 3.29443,-4.95669 4.46311,-3.83503 4.38908,-7.45334 9.52328,6.10492 2.80619,7.41061 4.01589,9.5 5.49999,9.5 1.6885,0 1.8642,-0.64495 1.5614,-5.73074 -0.6998,-11.75526 1.747,-14.83611 7.7134,-13.52567 2.812,0.61761 3.7511,1.03754 7.2964,15.25641 0.6857,2.75 1.3323,5.14152 1.4369,5.31448 0.1045,0.17297 1.8111,0.0104 3.7923,-0.36129 4.2745,-0.80189 4.429,-1.86306 1.1975,-8.2216 l -0.21629,-12.73857 c 8.78423,0.14355 10.56679,2.89457 14.55779,10.58173 2.5079,5.82983 3.0157,6.20157 5.5771,4.08285 7.81047,-10.79102 1.32976,-22.11729 -1.9841,-33.14639 -0.66627,-5.13133 -9.71079,-11.28555 -13.5298,-7.62604 0,2.55682 -3.2936,8.07152 -4.2234,8.07152 -4.14972,5.33785 -4.29408,6.03533 -7.7186,1.0503 -1.8296,-1.58676 -2.2739,0.46734 -2.3871,-4.45669 l -0.1391,-6.0503 -6.227,0 c -6.9571,0 -6.6017,-3.78883 -15.56128,7.20669 -2.80101,3.4375 -5.64256,6.25 -6.31455,6.25 -2.9928,-2.70883 -6.22601,-1.27331 -7.42899,-8.45669 l -27.98057,0 -3.46024,-4.75 c -2.57203,-3.53073 -3.61478,-6.16178 -4.0623,-10.25 -0.96815,-8.84423 -1.19408,-9.37627 -6.97835,-16.43298 -5.29532,-6.46021 -5.51854,-6.96916 -5.51854,-12.58283 0,-5.67806 0.12512,-5.95125 4.25,-9.27981 8.65348,-5.63216 19.13249,-8.83435 29.0112,-11.777421 12.96008,-4.057869 25.67358,-8.86407 37.85762,-14.902048 5.41997,-0.941676 10.83993,-3.579957 16.2599,-2.320655 l 9.7965,-9.272747 c 12.9612,-12.268335 10.6194,-11.588823 56.8248,-16.488985 13.4773,-1.429296 14.9992,-1.814834 15.0037,-3.800934 0.01,-4.39538 9.5722,-14.972097 19.108,-21.135398 4.9915,-3.226158 7.1127,-4.006194 10.8941,-4.006194 9.5115,0 18.162,4.21965 21.6636,10.567321 1.1931,2.162974 2.2056,4.705003 2.25,5.648954 0.0745,1.587655 0.3241,1.574247 3.3306,-0.178915 3.4238,-1.996519 15.4858,-4.03736 23.8622,-4.03736 3.1023,0 6.5483,0.804851 9.1776,2.143584 8.54771,4.69875 17.05594,12.190568 16.3936,22.625819 -1.3141,15.299269 -4.3187,23.694197 -11.1435,31.1354 l -4.0399,4.404802 10.75,-0.598741 c 11.6555,-0.649174 12.3475,-0.309971 8.75,4.289136 -3.00279,6.549018 -8.45436,11.622722 -12,17.861442 0,1.20507 12.8737,2.25468 18.3864,1.49907 5.3726,-0.73639 5.5231,-0.35886 2.8612,7.17788 -2.8752,8.14068 -6.7247,13.79945 -11.0357,16.22236 -2.1913,1.23159 -4.658,2.23925 -5.4814,2.23925 -9.08394,4.80964 9.51096,24.63995 13.2695,26.96199 9.1294,3.93721 18,13.17007 18,18.7351 0,2.36741 -0.1908,2.44494 -4.25,1.72673 -4.6136,-0.81631 -5.566,-0.8705 -10.5817,-0.6021 l -3.3316,0.17828 c 10.36422,10.67779 25.12516,12.78591 37.3144,20.737 4.5186,3.13118 8.8489,9.77607 8.8489,13.57872 0,1.98966 -2.8805,2.22466 -5.3232,0.43428 -1.0467,-0.76719 -3.8743,-1.11479 -7.3207,-0.89994 l -5.6152,0.35006 8.4524,8.64994 c 11.53547,11.23309 21.07532,24.2247 31.8083,36.15175 7.7459,8.50943 11.9984,14.16076 11.9984,15.94514 0,1.53303 -6.643,1.28903 -9.8342,-0.36122 -2.8272,-1.462 -10.1658,-3.15892 -10.1658,-2.35066 0,1.12843 3.5616,7.58421 5.9389,10.76493 8.4282,11.08241 12.58856,23.72973 17.278,36.5 2.4498,6.20922 5.5146,17.99561 6.3844,24.55255 0.5979,4.50679 0.4773,4.94745 -1.3538,4.94745 -1.9272,0 -8.2475,-5.50983 -8.2475,-7.18984 0,-0.44559 -1.125,-0.81016 -2.5,-0.81016 -2.4706,0 -2.4992,0.0972 -2.427,8.25 0.0401,4.5375 0.466,10.725 0.9464,13.75 0.4804,3.025 1.3751,10 1.9881,15.5 0.6131,5.5 1.7621,12.28955 2.5536,15.08789 0.7914,2.79834 1.4389,5.38584 1.4389,5.75 0,1.19648 -3.8825,0.69105 -4.7003,-0.6119 -1.2651,-2.01543 -5.4959,-4.34536 -9.2113,-5.07274 -3.1789,-0.62233 -3.3101,-0.54801 -1.9228,1.08943 1.8105,2.1371 6.8344,13.80878 6.8344,15.87805 0,0.81889 1.2803,4.50173 2.8452,8.18408 1.5648,3.68236 3.1589,8.37583 3.5424,10.42995 0.3835,2.05412 1.9698,5.128 3.5251,6.83084 1.9079,2.08883 3.0244,4.6151 3.432,7.76524 0.3322,2.56804 0.8931,5.68166 1.2463,6.91916 0.935,3.27553 -2.245,2.89188 -6.5532,-0.79064 -4.8524,-4.14761 -6.4428,-3.93148 -5.5634,0.75608 2.1134,11.26542 10.6495,19.03215 34.5256,31.41379 4.7097,2.44238 6.5,3.92162 6.5,5.37077 0,1.52381 -0.8334,2.11905 -3.5,2.5 -3.9967,0.57096 -10,3.58049 -10,5.01314 0,0.52897 1.6875,2.03405 3.75,3.34461 2.0625,1.31056 4.6072,3.3412 5.655,4.51254 1.0477,1.17134 2.3238,2.12971 2.8358,2.12971 1.4927,0 11.7329,7.40059 11.7615,8.5 0.0142,0.55 1.8783,3.025 4.1423,5.5 4.4664,4.88257 8.854,13.32307 9.1622,17.62512 0.2005,2.79969 0.1484,2.82921 -8.3679,4.74271 -2.5227,0.56682 -2.4732,0.66934 3.3123,6.8538 7.1292,7.62077 11.7488,14.21992 11.7488,16.78319 0,2.12318 -2.6357,2.82978 -12.1139,3.24767 l -5.6138,0.24751 2.6138,5.1821 c 6.7463,13.37488 14.608,28.63005 18.986,36.84119 4.3108,8.08505 4.8696,9.87871 5.3749,17.25 0.4962,7.24017 0.3638,8.22671 -1.1044,8.22671 -0.9176,0 -2.1126,-1.00615 -2.6555,-2.23588 -0.9006,-2.03988 -5.895,-4.73815 -6.8491,-3.7003 -1.0922,1.18803 0.7944,7.23649 2.387,7.65298 1.8943,0.49538 2.4321,2.3296 3.5277,12.0332 0.6592,5.83882 0.5726,6.25 -1.3166,6.25 -1.1122,0 -2.2854,-0.68605 -2.6072,-1.52456 -0.4237,-1.10423 -1.3493,-1.34115 -3.357,-0.85933 -1.5245,0.36588 -2.9248,0.79231 -3.1116,0.94761 -0.3378,0.28079 0.4435,1.41299 11.8643,17.19188 3.2865,4.54059 5.9754,8.63598 5.9754,9.10087 0,0.4649 2.25,3.81745 5,7.45012 2.75,3.63266 5,7.49821 5,8.59011 0,1.0919 0.4568,2.2676 1.0151,2.61266 1.568,0.96909 3.9849,7.40581 3.9849,10.61276 0,3.74331 -3.049,3.90238 -5.8774,0.30663 -1.3933,-1.77125 -2.7858,-2.4713 -4.4757,-2.25 -2.4269,0.31781 -2.4354,0.35537 -0.8,3.50632 1.6411,3.16203 13.3134,23.44075 15.1467,26.31493 4.7329,7.42019 7.2652,22.06391 3.9347,22.75286 -0.9097,0.18817 -2.0591,-0.74438 -2.7286,-2.21387 -0.7204,-1.58115 -1.974,-2.53899 -3.3229,-2.53899 -2.0704,0 -2.1379,0.29798 -1.5285,6.75 0.3506,3.7125 0.6407,9.7875 0.6446,13.5 l 0.007,6.75 4.3038,0 c 4.8114,0 6.2317,1.17612 15.6984,13 l 5.2042,6.5 -0.5527,6.5 c -0.3039,3.575 -1.2065,8.3 -2.0057,10.5 -0.7991,2.2 -1.9996,6.025 -2.6677,8.5 -6.5276,24.18263 -4.485,20.77738 -35.2098,58.69864 -6.9139,8.53321 -12.7849,13.81153 -18.2705,16.42595 -2.2,1.04852 -6.25,3.21024 -9,4.80382 -2.75,1.59359 -6.5585,3.62878 -8.4634,4.52265 -1.9049,0.89387 -4.1549,2.20755 -5,2.91928 -3.7836,3.18636 -12.6747,5.58306 -30.0366,8.09665 -10.175,1.4731 -19.175,3.24515 -20,3.93789 -2.0272,1.7022 -11.4607,5.59512 -13.5584,5.59512 -1.9883,0 -14.4416,8.66677 -14.4416,10.05053 0,0.52221 -1.035,0.94947 -2.3,0.94947 -1.265,0 -2.815,0.51496 -3.4444,1.14437 -0.8591,0.85915 -1.883,0.8384 -4.1081,-0.0833 -2.5023,-1.03648 -3.3673,-0.9632 -5.5556,0.47064 -1.4256,0.93405 -2.5919,2.01552 -2.5919,2.40326 0,0.38775 -1.6685,2.65423 -3.7077,5.03662 -2.0393,2.3824 -4.7186,6.5134 -5.954,9.18 -1.2355,2.6666 -2.8708,4.84837 -3.634,4.84837 -0.7633,0 -1.909,-1.73971 -2.546,-3.86602 z"
     id="f101"
     sodipodi:nodetypes="csssssssssssssssssssssssssssssccsscccccsssscccccccssssssssccccsssscccccsssccccssssssscccccssssssccsccssssssssssssccsssssssssssccssscccccssssssscccccsccccccccccccssccsscccccccsccccsccccsccsccccccccsccscccccccccsscccccssscccssccsccsscccccssssccsccsssssccccsssssccccssssccsccccsccsccccccccsccccccssssssssssssssssssscccccccccccsccccssscccccsssssssscccccccsssccsscccssccccsssccssssssssssssssssssssssssssssssssscccsssssssssssssssssssssssssccccccssssssssssssssssssscc" />
  <path
     style="fill:#2d2d2d;fill-opacity:1"
     d="m 444.57041,651.32305 0.66103,-22.65562 c 0.0538,-1.84529 -1.41273,-4.96743 -1.78198,-7.16743 -0.36924,-2.2 -1.69493,-6.475 -2.94597,-9.5 -1.25103,-3.025 -2.86569,-7.4657 -3.58813,-9.86823 -0.72243,-2.40252 -2.0476,-5.32752 -2.94482,-6.5 -0.89722,-1.17247 -2.2261,-4.38177 -2.95306,-7.13177 -0.72697,-2.75 -2.1533,-6.77202 -3.16962,-8.93783 -1.01632,-2.16581 -1.84786,-4.92206 -1.84786,-6.125 0,-1.20294 -0.28444,-3.60937 -0.63209,-5.34762 -0.60283,-3.01417 -0.71855,-3.0822 -2.5,-1.47001"
     id="l106"
     inkscape:connector-curvature="0" />
  <path
     inkscape:connector-curvature="0"
     style="fill:#ff0000;fill-opacity:1;fill-rule:nonzero;stroke:none;stroke-opacity:1"
     d="m 197.77967,124.03394 c -27.30189,4.59119 -10.38441,42.35444 10.86472,48.4778 24.49865,10.63687 51.42495,0.82235 77.01776,3.19522 9.83827,-2.63887 26.43189,2.32803 32.6266,-2.22634 2.21423,-1.62791 -0.69295,-4.97798 -0.41101,-9.61985 -24.58685,-5.72617 -51.30968,0.94938 -76.69923,-0.0403 -22.25522,3.65858 -44.33391,-1.23278 -39.13452,-30.92641 -1.959,-2.04752 2.99904,-7.0522 -4.26432,-8.8601 z"
     id="f301"
     sodipodi:nodetypes="cccsccccc" />
  <path
     inkscape:connector-curvature="0"
     style="fill:#ffffff;fill-opacity:1"
     d="m 286.0345,191.48276 c -0.55,0 -1.0062,-1.6875 -1.0137,-3.75 -0.0316,-8.68454 -2.6499,-10.97163 -4.773,-4.16916 -1.1078,3.54966 -0.9783,8.47301 0.3332,12.66916 2.60708,3.34584 8.03734,-1.94121 5.4535,-4.75 z"
     id="f204"
     sodipodi:nodetypes="csscc" />
  <path
     inkscape:connector-curvature="0"
     style="fill:#ffffff;fill-opacity:1"
     d="m 266.03448,195.00376 c 0,-2.54871 -2.46675,-14.521 -3.36904,-14.521 -0.94457,4.25113 -4.36206,12.11996 -0.88096,15.31067 3.30247,0.86303 4.25,0.68697 4.25,-0.78967 z"
     id="f205"
     sodipodi:nodetypes="cccc" />
  <path
     inkscape:connector-curvature="0"
     style="fill:#ffffff;fill-opacity:1"
     d="m 306.4527,193.87577 c 4.21983,-3.49601 -2.98587,-10.89803 -5.9322,-13.24471 -1.5413,-0.30441 -2.21427,0.2918 -1.1569,3.49214 2.0002,3.89765 1.54622,11.35419 7.0891,9.75257 z"
     id="f203"
     sodipodi:nodetypes="cccc" />
  <path
     inkscape:connector-curvature="0"
     style="fill:#ffffff;fill-opacity:1"
     d="m 293.9027,145.93945 c -4.81945,1.66297 -3.66546,9.90596 -2.4099,13.77166 3.96,-2.33028 8.16527,-11.41153 2.4099,-13.77166 z"
     id="f201"
     sodipodi:nodetypes="ccc" />
  <path
     style="fill:#2d2d2d;fill-opacity:1"
     d="m 310.77542,90.851 c 1.13203,0.496225 1.33322,1.259403 1.51434,2.886054 0.37895,3.403343 10.51582,8.935356 14.51177,11.553606 8.23357,2.75703 9.99998,6.4926 33.10679,-1.86803 2.29495,2.68763 13.7201,-9.56016 15.9014,-6.77935 1.33569,0.958577 3.51523,-0.215215 4.33384,-0.32786 -4.79188,-6.367898 -13.63795,4.68451 -15.04982,-2.870295 -2.15398,0.164736 -4.3111,-3.043554 -9.07773,-6.110058 C 350.49435,83.782834 335.4042,83.67472 328,85.431654 Z"
     id="l101"
     inkscape:connector-curvature="0"
     sodipodi:nodetypes="cscccccscc" />
  <path
     style="fill:#2d2d2d;fill-opacity:1"
     d="m 351.40499,535.00842 c 0.60225,0.005 4.24501,3.89447 8.09501,8.6441 14.29019,17.62939 18.75612,22.8577 19.8638,23.25482 1.11263,0.39889 17.96895,13.5329 22.3601,17.42241 2.05413,1.81947 2.2741,1.83903 2.88146,0.25628"
     id="l104"
     inkscape:connector-curvature="0" />
  <path
     style="fill:#2d2d2d;fill-opacity:1"
     d="m 248.78823,388.35405 c 4.46922,-2.39754 29.64084,-10.83333 32.51021,-12.53909 9.74045,-5.79042 13.10389,-7.91808 14.69172,-9.29378 2.45573,-2.12764 2.31787,-8.38233 -0.23569,-10.69327 -1.95342,-1.76782 3.53217,-3.7781 15.81496,-16.4557 6.86713,-7.08786 12.48569,-13.48183 12.48569,-14.20883 0,-0.727 2.25,-4.294 5,-7.92667 2.75,-3.63266 5,-6.89751 5,-7.25522 0,-0.35771 1.41088,-2.43176 3.13528,-4.609"
     id="l103"
     inkscape:connector-curvature="0"
     sodipodi:nodetypes="csssssssc" />
  <path
     inkscape:connector-curvature="0"
     style="fill:#ffffff;fill-opacity:1"
     d="m 261.72964,155.45428 c 4.52678,-6.68795 4.19754,-9.24337 -2.57016,-7.88983 -2.63043,0.52609 -3.125,1.08 -3.125,3.5 -0.30503,2.23358 1.42742,4.45905 2,6.14666 0,2.37807 1.32177,1.74965 3.69516,-1.75683 z"
     id="f202"
     sodipodi:nodetypes="csccc" />
  <path
     inkscape:connector-curvature="0"
     style="fill:#ffffff;fill-opacity:1"
     d="m 351.11545,99.353942 c 1.30596,-1.432181 2.50625,-3.663435 1.8868,-5.499996 -1.36281,-4.040546 -6.37989,-6.79168 -10.63185,-7.114285 -3.56827,-0.270731 -7.19802,2.017992 -9.72095,4.55584 -1.12169,1.128327 -2.40494,2.795187 -2,4.3338 1.15568,4.391049 6.53926,7.500129 11.0569,7.955949 3.42155,0.34523 7.09198,-1.69023 9.4091,-4.231308 z"
     id="f406"
     sodipodi:nodetypes="aaaaaaa" />
  <path
     style="fill:#2d2d2d;fill-opacity:1"
     d="m 445.33419,408.9354 -2.10214,3.43978 c -4.16924,6.82221 -5.80685,10.02463 -5.80685,11.35532 0,2.38651 -9.11045,12.58446 -11.24247,12.58446 -1.09863,0 -6.33102,3.73822 -11.62752,8.30715 -18.93903,16.3374 -20.16821,17.24589 -21.17665,15.65163 -0.5075,-0.80233 -0.92963,-2.40154 -0.93805,-3.55379 -0.0487,-6.66759 -12.86855,-7.16469 -21.01531,-0.81488 -1.12556,0.8773 -37.53644,18.06552 -48.60827,22.44445"
     id="l105"
     inkscape:connector-curvature="0"
     sodipodi:nodetypes="csssssssc" />
  <path
     inkscape:connector-curvature="0"
     style="fill:#ffffff;fill-opacity:1"
     d="m 22.208384,143.2653 c 0.444766,-1.11263 0.874173,-2.08572 1.291733,-2.91543 2.396746,-4.76239 2.131146,-1.86877 3.130515,-1.41157 0.999368,0.45721 1.725406,3.79143 0.59465,4.5503 -1.704146,1.14369 -2.812836,3.14997 -4.398655,3.82126 -1.968487,1.33428 -2.189892,-0.11285 -0.618243,-4.04456 z"
     id="f202-4"
     sodipodi:nodetypes="cszscc"
     inkscape:transform-center-x="-6.4710985"
     inkscape:transform-center-y="-13.036287" />
  <path
     inkscape:connector-curvature="0"
     style="fill:#ffffff;fill-opacity:1"
     d="m 15.612256,168.67889 c 0.965706,-8.01797 2.889494,-9.73191 7.112943,-4.27331 1.641539,2.12163 1.651919,2.86412 0.06551,4.69162 -3.239511,-1.12182 -4.069123,2.32942 -5.539669,3.33069 -1.558909,1.79584 -2.145119,0.45481 -1.638801,-3.749 z"
     id="f202-6"
     sodipodi:nodetypes="cscccc" />
  <path
     inkscape:connector-curvature="0"
     style="fill:#ffffff;fill-opacity:1"
     d="m 9.3416303,200.3026 c 3.9529507,-7.04234 5.4431367,-9.12426 7.2633527,-2.46689 0.707468,2.58755 0.143763,3.35027 -2.020061,4.4339 -1.860546,1.27291 -3.394157,1.87995 -5.1595087,2.12367 -2.1263325,1.06486 -2.1563038,-0.39838 -0.083783,-4.09068 z"
     id="f202-2"
     sodipodi:nodetypes="csccc" />
  <path
     inkscape:connector-curvature="0"
     style="fill:#ffffff;fill-opacity:1"
     d="m 15.216457,235.17878 c -0.86295,-5.91241 -0.972459,-7.57223 3.994176,-6.13375 2.576631,0.74627 2.331467,1.03801 1.335832,3.2437 -0.640913,2.16129 -1.468671,4.70896 -2.684856,6.01157 -0.978385,2.16747 -1.924563,1.05091 -2.645152,-3.12152 z"
     id="f202-5"
     sodipodi:nodetypes="csccc" />
  <path
     inkscape:connector-curvature="0"
     style="fill:#ffffff;fill-opacity:1"
     d="m 84.93371,127.66519 c 6.756964,-2.0517 6.275279,-1.97019 7.163472,3.57787 0.424047,2.64879 -1.079136,2.25421 -3.372456,1.4815 -2.214055,-0.42413 -5.219313,-1.03714 -6.635755,-2.1186 -2.253584,-0.75933 -1.236014,-1.81125 2.844739,-2.94077 z"
     id="f202-8"
     sodipodi:nodetypes="csccc" />
  <path
     inkscape:connector-curvature="0"
     style="fill:#ffffff;fill-opacity:1"
     d="m 86.912763,323.76784 c 5.530639,-5.88493 7.333132,-7.76353 7.544196,-0.86503 0.06438,2.10422 -0.162415,2.36601 -2.523345,3.09987 -2.112076,0.78807 -4.151202,1.94393 -5.923355,1.75592 -2.320024,0.52222 -1.997198,-0.90529 0.902504,-3.99076 z"
     id="f202-62"
     sodipodi:nodetypes="csccc" />
  <path
     inkscape:connector-curvature="0"
     style="fill:#ffffff;fill-opacity:1"
     d="m 38.882413,352.27516 c 2.173633,-6.22729 2.859694,-6.69539 6.889914,-4.53922 2.36529,1.26543 1.98117,3.02978 0.06747,4.51104 -1.579578,1.60837 -4.399869,3.44542 -6.084879,4.02561 -1.880546,1.4556 -2.192645,0.0257 -0.872501,-3.99743 z"
     id="f202-84"
     sodipodi:nodetypes="csccc" />
  <path
     inkscape:connector-curvature="0"
     style="fill:#ffffff;fill-opacity:1"
     d="m 34.768451,387.82698 c -0.257876,-8.0718 0.564675,-11.08186 5.565001,-6.32471 1.943494,1.84899 1.451079,2.88886 0.159285,4.93523 -0.934346,2.05157 -2.152386,3.72612 -3.537411,4.84754 -1.269411,2.01092 -2.051664,0.77397 -2.186875,-3.45806 z"
     id="f202-7"
     sodipodi:nodetypes="csccc" />
  <path
     inkscape:connector-curvature="0"
     style="fill:#ffffff;fill-opacity:1"
     d="m 32.219734,418.96528 c -0.308066,-7.44656 -2.094142,-9.24582 3.618534,-6.81258 2.467972,1.0512 1.260892,0.0451 1.707653,4.43716 -0.974664,2.03272 -1.801111,4.78212 -3.208004,5.87598 -1.308862,1.98547 -2.066545,0.73331 -2.118183,-3.50056 z"
     id="f202-24"
     sodipodi:nodetypes="csccc" />
  <path
     inkscape:connector-curvature="0"
     style="fill:#ffffff;fill-opacity:1"
     d="m 38.610056,455.62841 c -3.454887,-6.35156 -3.258275,-8.4404 2.689335,-7.61162 2.656849,0.37022 1.881532,0.55055 1.652829,2.95972 0.09258,2.25241 -0.100067,5.12413 -0.829573,6.75008 -0.224743,2.36742 -1.481208,1.6169 -3.512591,-2.09818 z"
     id="f202-0"
     sodipodi:nodetypes="csccc" />
  <path
     inkscape:connector-curvature="0"
     style="fill:#ffffff;fill-opacity:1"
     d="m 75.591269,909.28946 c 2.403766,-3.53656 2.287349,-8.19249 5.450835,-3.34734 1.466551,2.24615 1.105112,1.8117 -0.786395,3.32121 -1.555532,1.63163 -2.05649,3.40504 -3.732704,4.01017 -1.858734,1.48335 -2.192021,0.0582 -0.931736,-3.98404 z"
     id="f202-629"
     sodipodi:nodetypes="csccc" />
  <path
     inkscape:connector-curvature="0"
     style="fill:#ffffff;fill-opacity:1"
     d="m 70.063415,884.4748 c 2.001547,-7.06809 2.102899,-7.0731 5.579591,-4.61522 2.19043,1.54854 3.004252,2.18516 1.1934,3.79054 -1.469009,1.70995 -3.993671,4.06409 -5.636324,4.75515 -1.779477,1.57756 -2.186069,0.17162 -1.136667,-3.93047 z"
     id="f202-9"
     sodipodi:nodetypes="csccc" />
  <path
     inkscape:connector-curvature="0"
     style="fill:#ffffff;fill-opacity:1"
     d="m 68.012608,865.21915 c 2.308859,-7.02128 3.045532,-7.53893 6.284141,-4.31226 1.900338,1.89332 0.418586,2.52261 -1.454233,4.05524 -1.535369,1.65062 -2.180642,3.60363 -3.849294,4.22931 -1.84037,1.50606 -2.191141,0.0852 -0.980614,-3.97229 z"
     id="f202-08"
     sodipodi:nodetypes="csccc" />
  <path
     inkscape:connector-curvature="0"
     style="fill:#ffffff;fill-opacity:1"
     d="m 80.330715,835.85948 c 4.120936,-6.94538 5.558358,-10.20069 7.218168,-3.50152 0.645122,2.60379 0.499757,2.56254 -1.689465,3.5939 -1.890582,1.22785 -3.772487,3.79788 -5.543186,3.99913 -2.151291,1.01349 -2.146113,-0.45005 0.01448,-4.09151 z"
     id="f202-1"
     sodipodi:nodetypes="csccc" />
  <path
     inkscape:connector-curvature="0"
     style="fill:#ffffff;fill-opacity:1"
     d="m 108.01605,811.78657 c 4.06005,-6.12233 5.16935,-6.82008 7.07744,-2.59783 1.1047,2.4445 1.50079,1.9842 -0.69267,3.00651 -1.89564,1.22003 -4.64464,3.4888 -6.41616,3.68273 -2.15546,1.0046 -2.14423,-0.45891 0.0314,-4.09141 z"
     id="f202-3"
     sodipodi:nodetypes="cscccc" />
  <path
     inkscape:connector-curvature="0"
     style="fill:#ffffff;fill-opacity:1"
     d="m 497.75143,963.78025 c -0.3976,-8.06612 -0.67403,-11.38392 4.40791,-6.71405 1.97523,1.81506 2.9801,2.40027 1.72395,4.46871 -0.8987,2.06744 -2.52003,4.5198 -3.88543,5.66503 -1.23441,2.0326 -2.03796,0.80937 -2.24643,-3.41969 z"
     id="f202-11"
     sodipodi:nodetypes="csccc" />
  <path
     inkscape:connector-curvature="0"
     style="fill:#ffffff;fill-opacity:1"
     d="m 467.27103,947.24188 c 0.76158,-8.03993 0.53946,-11.10673 4.9003,-5.75725 1.69494,2.07921 2.15903,3.25604 0.6196,5.12327 -1.77459,1.77016 -3.21054,3.16732 -3.78633,4.34011 0.18342,4.14785 -1.92999,0.78583 -1.73357,-3.70613 z"
     id="f202-03"
     sodipodi:nodetypes="csccc" />
  <path
     inkscape:connector-curvature="0"
     style="fill:#ffffff;fill-opacity:1"
     d="m 452.67989,919.29577 c -0.30858,-8.07002 -0.62594,-10.68039 4.40417,-5.95473 1.95507,1.83674 2.08221,2.26087 0.80329,4.31533 -0.92144,2.05739 -1.62096,3.95357 -2.99891,5.08367 -1.25675,2.01885 -2.04676,0.78683 -2.20855,-3.44427 z"
     id="f202-40"
     sodipodi:nodetypes="csccc" />
  <path
     inkscape:connector-curvature="0"
     style="fill:#ffffff;fill-opacity:1"
     d="m 452.07758,886.40209 c 0.94754,-8.02013 1.01758,-10.45197 5.25839,-5.00685 1.64251,2.10896 1.70228,1.76702 0.89614,5.40891 -1.22956,1.88947 -2.97056,2.44066 -4.50719,3.34322 -1.55484,1.79936 -2.14408,0.45967 -1.64729,-3.74528 z"
     id="f202-39"
     sodipodi:nodetypes="cscccc" />
  <path
     inkscape:connector-curvature="0"
     style="fill:#ffffff;fill-opacity:1"
     d="m 479.69519,850.19158 c 2.2314,-3.12097 4.62647,-7.68036 7.37304,-3.17314 1.3959,2.29071 -0.0814,2.07638 -2.36358,2.88142 -2.0049,0.50792 -2.93757,3.22974 -4.71954,4.56584 -2.24263,0.79109 -2.80715,-0.86943 -0.28992,-4.27412 z"
     id="f202-19"
     sodipodi:nodetypes="csccc" />
</svg>
