<?xml version="1.0" encoding="UTF-8" standalone="no"?>
<!-- Svg Vector Icons : http://www.onlinewebfonts.com/icon -->

<svg
   xmlns:dc="http://purl.org/dc/elements/1.1/"
   xmlns:cc="http://creativecommons.org/ns#"
   xmlns:rdf="http://www.w3.org/1999/02/22-rdf-syntax-ns#"
   xmlns:svg="http://www.w3.org/2000/svg"
   xmlns="http://www.w3.org/2000/svg"
   xmlns:sodipodi="http://sodipodi.sourceforge.net/DTD/sodipodi-0.dtd"
   xmlns:inkscape="http://www.inkscape.org/namespaces/inkscape"
   version="1.1"
   x="0px"
   y="0px"
   viewBox="0 0 1000 1000"
   enable-background="new 0 0 1000 1000"
   xml:space="preserve"
   id="svg2"
   inkscape:version="0.91 r13725"
   sodipodi:docname="pomme.svg"><defs
     id="defs16" /><sodipodi:namedview
     pagecolor="#ffffff"
     bordercolor="#666666"
     borderopacity="1"
     objecttolerance="10"
     gridtolerance="10"
     guidetolerance="10"
     inkscape:pageopacity="0"
     inkscape:pageshadow="2"
     inkscape:window-width="1233"
     inkscape:window-height="776"
     id="namedview14"
     showgrid="false"
     inkscape:zoom="0.25327338"
     inkscape:cx="40.282057"
     inkscape:cy="100.5078"
     inkscape:window-x="47"
     inkscape:window-y="24"
     inkscape:window-maximized="1"
     inkscape:current-layer="svg2" /><metadata
     id="metadata4"> Svg Vector Icons : http://www.onlinewebfonts.com/icon <rdf:RDF><cc:Work
     rdf:about=""><dc:format>image/svg+xml</dc:format><dc:type
       rdf:resource="http://purl.org/dc/dcmitype/StillImage" /><dc:title></dc:title></cc:Work></rdf:RDF></metadata><path
     d="m 660.58,11.94 c -61.55,11.73 -123.69,65.4 -152.93,132.15 -3.46,7.89 -10,18.47 -14.62,23.66 -7.31,8.27 -15.77,23.47 -21.35,37.7 -1.92,4.62 -1.92,4.62 -4.42,-2.89 -4.62,-14.62 -21.16,-46.93 -25.01,-49.05 -4.81,-2.5 -7.5,-1.15 -26.35,13.08 -8.85,6.54 -14.04,11.93 -14.04,14.04 0,2.12 5.19,9.81 11.54,17.5 15.39,18.27 28.47,41.16 38.47,67.33 8.08,20.77 8.46,21.35 16.74,25.01 4.62,2.12 10,3.08 12.12,2.5 7.12,-2.31 7.69,-6.73 3.46,-28.66 l -4.04,-20.78 4.23,-16.73 c 4.23,-17.5 12.5,-35.78 20.2,-45.4 l 4.62,-5.77 13.27,3.46 c 7.12,1.73 32.51,12.7 56.36,24.43 61.75,30.01 79.44,35.2 119.26,35.01 49.44,0 83.48,-15 124.46,-54.82 39.43,-38.28 69.83,-87.14 80.4,-129.07 5.39,-20.97 6.35,-36.74 2.5,-35.01 -1.35,0.39 -10.77,3.65 -20.77,7.12 -15.77,5.39 -20.97,6.35 -37.51,6.35 -16.35,0 -24.24,-1.15 -51.94,-8.08 C 777.34,20.6 754.83,15.59 745.22,14.06 721.18,9.63 677.51,8.67 660.58,11.94 Z"
     id="f21"
     inkscape:connector-curvature="0" /><path
     d="m 308.76,268.93 c -100.03,11.35 -178.7,86.37 -205.82,196.2 -17.7,72.33 -13.66,148.31 13.27,241.41 18.66,64.25 42.32,117.34 73.1,163.7 16.74,25.01 23.28,33.09 42.9,53.48 34.62,35.59 73.29,56.94 115.8,63.86 32.51,5.39 62.52,1.92 102.72,-11.73 17.12,-5.77 27.7,-8.47 30.58,-7.7 2.31,0.77 12.12,4.23 21.54,7.7 29.43,10.77 44.82,13.46 75.98,13.27 30.78,-0.19 44.82,-3.08 71.75,-14.24 83.67,-34.82 157.73,-146.77 194.66,-294.11 19.43,-77.52 22.31,-139.46 9.62,-200.63 C 829.85,358.95 750.6,280.28 641.92,268.93 c -44.05,-4.62 -103.1,7.12 -147.35,29.62 -5.39,2.69 -12.89,5 -16.35,5 -3.66,0 -15.2,-3.85 -25.78,-8.46 -48.27,-21.54 -100.59,-30.97 -143.68,-26.16 z"
     id="f11"
     inkscape:connector-curvature="0" /></svg>